%TF.GenerationSoftware,KiCad,Pcbnew,(7.0.0)*%
%TF.CreationDate,2023-03-07T13:57:33-05:00*%
%TF.ProjectId,imu-stamp,696d752d-7374-4616-9d70-2e6b69636164,rev?*%
%TF.SameCoordinates,Original*%
%TF.FileFunction,Copper,L1,Top*%
%TF.FilePolarity,Positive*%
%FSLAX46Y46*%
G04 Gerber Fmt 4.6, Leading zero omitted, Abs format (unit mm)*
G04 Created by KiCad (PCBNEW (7.0.0)) date 2023-03-07 13:57:33*
%MOMM*%
%LPD*%
G01*
G04 APERTURE LIST*
G04 Aperture macros list*
%AMRoundRect*
0 Rectangle with rounded corners*
0 $1 Rounding radius*
0 $2 $3 $4 $5 $6 $7 $8 $9 X,Y pos of 4 corners*
0 Add a 4 corners polygon primitive as box body*
4,1,4,$2,$3,$4,$5,$6,$7,$8,$9,$2,$3,0*
0 Add four circle primitives for the rounded corners*
1,1,$1+$1,$2,$3*
1,1,$1+$1,$4,$5*
1,1,$1+$1,$6,$7*
1,1,$1+$1,$8,$9*
0 Add four rect primitives between the rounded corners*
20,1,$1+$1,$2,$3,$4,$5,0*
20,1,$1+$1,$4,$5,$6,$7,0*
20,1,$1+$1,$6,$7,$8,$9,0*
20,1,$1+$1,$8,$9,$2,$3,0*%
G04 Aperture macros list end*
%TA.AperFunction,SMDPad,CuDef*%
%ADD10R,0.550000X0.350000*%
%TD*%
%TA.AperFunction,SMDPad,CuDef*%
%ADD11R,0.350000X0.550000*%
%TD*%
%TA.AperFunction,SMDPad,CuDef*%
%ADD12RoundRect,0.100000X0.130000X0.100000X-0.130000X0.100000X-0.130000X-0.100000X0.130000X-0.100000X0*%
%TD*%
%TA.AperFunction,SMDPad,CuDef*%
%ADD13RoundRect,0.100000X-0.100000X0.130000X-0.100000X-0.130000X0.100000X-0.130000X0.100000X0.130000X0*%
%TD*%
%TA.AperFunction,SMDPad,CuDef*%
%ADD14RoundRect,0.150000X0.150000X-0.512500X0.150000X0.512500X-0.150000X0.512500X-0.150000X-0.512500X0*%
%TD*%
%TA.AperFunction,SMDPad,CuDef*%
%ADD15RoundRect,0.100000X-0.130000X-0.100000X0.130000X-0.100000X0.130000X0.100000X-0.130000X0.100000X0*%
%TD*%
%TA.AperFunction,SMDPad,CuDef*%
%ADD16RoundRect,0.140000X-0.140000X-0.170000X0.140000X-0.170000X0.140000X0.170000X-0.140000X0.170000X0*%
%TD*%
%TA.AperFunction,SMDPad,CuDef*%
%ADD17R,0.350000X0.375000*%
%TD*%
%TA.AperFunction,SMDPad,CuDef*%
%ADD18R,0.375000X0.350000*%
%TD*%
%TA.AperFunction,SMDPad,CuDef*%
%ADD19RoundRect,0.225000X-0.225000X-0.250000X0.225000X-0.250000X0.225000X0.250000X-0.225000X0.250000X0*%
%TD*%
%TA.AperFunction,ComponentPad*%
%ADD20O,1.000000X1.000000*%
%TD*%
%TA.AperFunction,SMDPad,CuDef*%
%ADD21O,1.879600X1.000000*%
%TD*%
%TA.AperFunction,ComponentPad*%
%ADD22C,1.000000*%
%TD*%
%TA.AperFunction,SMDPad,CuDef*%
%ADD23O,1.879600X1.008000*%
%TD*%
%TA.AperFunction,SMDPad,CuDef*%
%ADD24O,1.863600X1.008000*%
%TD*%
%TA.AperFunction,SMDPad,CuDef*%
%ADD25R,0.650000X0.250000*%
%TD*%
%TA.AperFunction,SMDPad,CuDef*%
%ADD26R,1.660000X4.400000*%
%TD*%
%TA.AperFunction,SMDPad,CuDef*%
%ADD27C,0.250000*%
%TD*%
%TA.AperFunction,SMDPad,CuDef*%
%ADD28RoundRect,0.140000X0.140000X0.170000X-0.140000X0.170000X-0.140000X-0.170000X0.140000X-0.170000X0*%
%TD*%
%TA.AperFunction,ViaPad*%
%ADD29C,0.350000*%
%TD*%
%TA.AperFunction,Conductor*%
%ADD30C,0.200000*%
%TD*%
%TA.AperFunction,Conductor*%
%ADD31C,0.150000*%
%TD*%
G04 APERTURE END LIST*
D10*
%TO.P,U3,1,VDDIO*%
%TO.N,3.3V*%
X125266999Y-62372999D03*
%TO.P,U3,2,SCL*%
%TO.N,/SCL_1*%
X125266999Y-62872999D03*
%TO.P,U3,3,SDA*%
%TO.N,/SDA_1*%
X125266999Y-63372999D03*
%TO.P,U3,4,SA0*%
%TO.N,GND*%
X125266999Y-63872999D03*
%TO.P,U3,5,CS*%
%TO.N,Net-(U3-CS)*%
X125266999Y-64372999D03*
D11*
%TO.P,U3,6,INT*%
%TO.N,unconnected-(U3-INT-Pad6)*%
X125991999Y-64597999D03*
%TO.P,U3,7,RESV_NC*%
%TO.N,unconnected-(U3-RESV_NC-Pad7)*%
X126491999Y-64597999D03*
%TO.P,U3,8,FSYNC*%
%TO.N,GND*%
X126991999Y-64597999D03*
D10*
%TO.P,U3,9,RESV_GND*%
X127716999Y-64372999D03*
%TO.P,U3,10,RESV_GND*%
X127716999Y-63872999D03*
%TO.P,U3,11,RESV_GND*%
X127716999Y-63372999D03*
%TO.P,U3,12,RESV_GND*%
X127716999Y-62872999D03*
%TO.P,U3,13,GND*%
X127716999Y-62372999D03*
D11*
%TO.P,U3,14,REGOUT*%
%TO.N,Net-(U3-REGOUT)*%
X126991999Y-62147999D03*
%TO.P,U3,15,RESV_GND*%
%TO.N,GND*%
X126491999Y-62147999D03*
%TO.P,U3,16,VDD*%
%TO.N,3.3V*%
X125991999Y-62147999D03*
%TD*%
D10*
%TO.P,U6,1,VDDIO*%
%TO.N,3.3V*%
X120948999Y-62367999D03*
%TO.P,U6,2,SCL*%
%TO.N,/SCL_0*%
X120948999Y-62867999D03*
%TO.P,U6,3,SDA*%
%TO.N,/SDA_0*%
X120948999Y-63367999D03*
%TO.P,U6,4,SA0*%
%TO.N,GND*%
X120948999Y-63867999D03*
%TO.P,U6,5,CS*%
%TO.N,Net-(U6-CS)*%
X120948999Y-64367999D03*
D11*
%TO.P,U6,6,INT*%
%TO.N,unconnected-(U6-INT-Pad6)*%
X121673999Y-64592999D03*
%TO.P,U6,7,RESV_NC*%
%TO.N,unconnected-(U6-RESV_NC-Pad7)*%
X122173999Y-64592999D03*
%TO.P,U6,8,FSYNC*%
%TO.N,GND*%
X122673999Y-64592999D03*
D10*
%TO.P,U6,9,RESV_GND*%
X123398999Y-64367999D03*
%TO.P,U6,10,RESV_GND*%
X123398999Y-63867999D03*
%TO.P,U6,11,RESV_GND*%
X123398999Y-63367999D03*
%TO.P,U6,12,RESV_GND*%
X123398999Y-62867999D03*
%TO.P,U6,13,GND*%
X123398999Y-62367999D03*
D11*
%TO.P,U6,14,REGOUT*%
%TO.N,Net-(U6-REGOUT)*%
X122673999Y-62142999D03*
%TO.P,U6,15,RESV_GND*%
%TO.N,GND*%
X122173999Y-62142999D03*
%TO.P,U6,16,VDD*%
%TO.N,3.3V*%
X121673999Y-62142999D03*
%TD*%
D12*
%TO.P,C13,1*%
%TO.N,GND*%
X121859000Y-61214000D03*
%TO.P,C13,2*%
%TO.N,3.3V*%
X121219000Y-61214000D03*
%TD*%
D13*
%TO.P,R17,1*%
%TO.N,3.3V*%
X119997000Y-63810000D03*
%TO.P,R17,2*%
%TO.N,Net-(U6-CS)*%
X119997000Y-64450000D03*
%TD*%
D12*
%TO.P,R5,1*%
%TO.N,/SCL*%
X130799800Y-61214000D03*
%TO.P,R5,2*%
%TO.N,3.3V*%
X130159800Y-61214000D03*
%TD*%
%TO.P,R11,1*%
%TO.N,3.3V*%
X129834600Y-68224400D03*
%TO.P,R11,2*%
%TO.N,/SDA_0*%
X129194600Y-68224400D03*
%TD*%
D14*
%TO.P,U2,1,Vout*%
%TO.N,3.3V*%
X116779000Y-66567900D03*
%TO.P,U2,2,GND*%
%TO.N,GND*%
X117729000Y-66567900D03*
%TO.P,U2,3,EN*%
%TO.N,Net-(U2-EN)*%
X118679000Y-66567900D03*
%TO.P,U2,4,CP-*%
%TO.N,Net-(U2-CP-)*%
X118679000Y-64292900D03*
%TO.P,U2,5,Vin*%
%TO.N,VCC*%
X117729000Y-64292900D03*
%TO.P,U2,6,CP+*%
%TO.N,Net-(U2-CP+)*%
X116779000Y-64292900D03*
%TD*%
D15*
%TO.P,C14,1*%
%TO.N,Net-(U6-REGOUT)*%
X122616000Y-61214000D03*
%TO.P,C14,2*%
%TO.N,GND*%
X123256000Y-61214000D03*
%TD*%
%TO.P,R18,1*%
%TO.N,Net-(U8-CSN)*%
X124013000Y-68072000D03*
%TO.P,R18,2*%
%TO.N,3.3V*%
X124653000Y-68072000D03*
%TD*%
%TO.P,C1,1*%
%TO.N,GND*%
X131556800Y-61214000D03*
%TO.P,C1,2*%
%TO.N,3.3V*%
X132196800Y-61214000D03*
%TD*%
D16*
%TO.P,C6,1*%
%TO.N,3.3V*%
X124107000Y-61214000D03*
%TO.P,C6,2*%
%TO.N,GND*%
X125067000Y-61214000D03*
%TD*%
D17*
%TO.P,U5,1,DOUT_A6*%
%TO.N,GND*%
X121471999Y-65658499D03*
%TO.P,U5,2,DIN_SDA*%
%TO.N,/SDA_0*%
X120971999Y-65658499D03*
%TO.P,U5,3,NC*%
%TO.N,unconnected-(U5-NC-Pad3)*%
X120471999Y-65658499D03*
%TO.P,U5,4,VPP*%
%TO.N,GND*%
X119971999Y-65658499D03*
D18*
%TO.P,U5,5,INTN1*%
%TO.N,unconnected-(U5-INTN1-Pad5)*%
X119959499Y-66170999D03*
%TO.P,U5,6,INTN2*%
%TO.N,unconnected-(U5-INTN2-Pad6)*%
X119959499Y-66670999D03*
D17*
%TO.P,U5,7,VDD*%
%TO.N,3.3V*%
X119971999Y-67183499D03*
%TO.P,U5,8,NC*%
%TO.N,unconnected-(U5-NC-Pad8)*%
X120471999Y-67183499D03*
%TO.P,U5,9,GND*%
%TO.N,GND*%
X120971999Y-67183499D03*
%TO.P,U5,10,CSN*%
%TO.N,Net-(U5-CSN)*%
X121471999Y-67183499D03*
D18*
%TO.P,U5,11,NC*%
%TO.N,unconnected-(U5-NC-Pad11)*%
X121484499Y-66670999D03*
%TO.P,U5,12,SCK_SCL*%
%TO.N,/SCL_0*%
X121484499Y-66170999D03*
%TD*%
D15*
%TO.P,C8,1*%
%TO.N,Net-(U3-REGOUT)*%
X127315000Y-61214000D03*
%TO.P,C8,2*%
%TO.N,GND*%
X127955000Y-61214000D03*
%TD*%
D19*
%TO.P,C3,1*%
%TO.N,Net-(U2-CP+)*%
X116674600Y-61417200D03*
%TO.P,C3,2*%
%TO.N,Net-(U2-CP-)*%
X118224600Y-61417200D03*
%TD*%
D13*
%TO.P,C5,1*%
%TO.N,3.3V*%
X124333000Y-62296000D03*
%TO.P,C5,2*%
%TO.N,GND*%
X124333000Y-62936000D03*
%TD*%
%TO.P,C11,1*%
%TO.N,3.3V*%
X119997000Y-62159000D03*
%TO.P,C11,2*%
%TO.N,GND*%
X119997000Y-62799000D03*
%TD*%
D15*
%TO.P,R9,1*%
%TO.N,/EN*%
X118425000Y-68021200D03*
%TO.P,R9,2*%
%TO.N,Net-(U2-EN)*%
X119065000Y-68021200D03*
%TD*%
D16*
%TO.P,C9,1*%
%TO.N,3.3V*%
X124945200Y-65659000D03*
%TO.P,C9,2*%
%TO.N,GND*%
X125905200Y-65659000D03*
%TD*%
%TO.P,C15,1*%
%TO.N,3.3V*%
X126774000Y-65659000D03*
%TO.P,C15,2*%
%TO.N,GND*%
X127734000Y-65659000D03*
%TD*%
D20*
%TO.P,P2,1,Pin_1*%
%TO.N,3.3V*%
X133832599Y-67187999D03*
D21*
X133400799Y-67187999D03*
D22*
X132969000Y-67188000D03*
D20*
%TO.P,P2,2,Pin_2*%
%TO.N,/XORL2*%
X133832599Y-65917999D03*
D23*
X133400799Y-65913999D03*
D20*
X132968999Y-65917999D03*
%TO.P,P2,3,Pin_3*%
%TO.N,/XORL1*%
X133832599Y-64647999D03*
D24*
X133408799Y-64643999D03*
D20*
X132968999Y-64647999D03*
%TO.P,P2,4,Pin_4*%
%TO.N,GND*%
X133832599Y-63377999D03*
D21*
X133400799Y-63377999D03*
D20*
X132968999Y-63377999D03*
%TO.P,P2,5,Pin_5*%
X133832599Y-62107999D03*
D23*
X133400799Y-62103999D03*
D20*
X132968999Y-62107999D03*
%TD*%
D12*
%TO.P,C7,1*%
%TO.N,GND*%
X126558000Y-61214000D03*
%TO.P,C7,2*%
%TO.N,3.3V*%
X125918000Y-61214000D03*
%TD*%
%TO.P,C16,1*%
%TO.N,GND*%
X123256000Y-68072000D03*
%TO.P,C16,2*%
%TO.N,3.3V*%
X122616000Y-68072000D03*
%TD*%
D25*
%TO.P,U1,1,GND*%
%TO.N,GND*%
X131599999Y-66265999D03*
%TO.P,U1,2,ENABLE2*%
%TO.N,3.3V*%
X131599999Y-65765999D03*
%TO.P,U1,3,XORH2*%
%TO.N,GND*%
X131599999Y-65265999D03*
%TO.P,U1,4,XORL2*%
%TO.N,/XORL2*%
X131599999Y-64765999D03*
%TO.P,U1,5,XORH1*%
%TO.N,GND*%
X131599999Y-64265999D03*
%TO.P,U1,6,XORL1*%
%TO.N,/XORL1*%
X131599999Y-63765999D03*
%TO.P,U1,7,VCC*%
%TO.N,3.3V*%
X131599999Y-63265999D03*
%TO.P,U1,8,ENABLE1*%
X131599999Y-62765999D03*
%TO.P,U1,9,READY2*%
%TO.N,unconnected-(U1-READY2-Pad9)*%
X128749999Y-62765999D03*
%TO.P,U1,10,READY1*%
%TO.N,unconnected-(U1-READY1-Pad10)*%
X128749999Y-63265999D03*
%TO.P,U1,11,SDAOUT2*%
%TO.N,/SDA_1*%
X128749999Y-63765999D03*
%TO.P,U1,12,SDAIN*%
%TO.N,/SDA*%
X128749999Y-64265999D03*
%TO.P,U1,13,SDAOUT1*%
%TO.N,/SDA_0*%
X128749999Y-64765999D03*
%TO.P,U1,14,SCLOUT1*%
%TO.N,/SCL_0*%
X128749999Y-65265999D03*
%TO.P,U1,15,SCLIN*%
%TO.N,/SCL*%
X128749999Y-65765999D03*
%TO.P,U1,16,SCLOUT2*%
%TO.N,/SCL_1*%
X128749999Y-66265999D03*
D26*
%TO.P,U1,17,EP*%
%TO.N,GND*%
X130174999Y-64515999D03*
%TD*%
D12*
%TO.P,R13,1*%
%TO.N,3.3V*%
X129834600Y-67513200D03*
%TO.P,R13,2*%
%TO.N,/SDA_1*%
X129194600Y-67513200D03*
%TD*%
D17*
%TO.P,U8,1,DOUT_A6*%
%TO.N,GND*%
X124066999Y-65658499D03*
%TO.P,U8,2,DIN_SDA*%
%TO.N,/SDA_1*%
X123566999Y-65658499D03*
%TO.P,U8,3,NC*%
%TO.N,unconnected-(U8-NC-Pad3)*%
X123066999Y-65658499D03*
%TO.P,U8,4,VPP*%
%TO.N,GND*%
X122566999Y-65658499D03*
D18*
%TO.P,U8,5,INTN1*%
%TO.N,unconnected-(U8-INTN1-Pad5)*%
X122554499Y-66170999D03*
%TO.P,U8,6,INTN2*%
%TO.N,unconnected-(U8-INTN2-Pad6)*%
X122554499Y-66670999D03*
D17*
%TO.P,U8,7,VDD*%
%TO.N,3.3V*%
X122566999Y-67183499D03*
%TO.P,U8,8,NC*%
%TO.N,unconnected-(U8-NC-Pad8)*%
X123066999Y-67183499D03*
%TO.P,U8,9,GND*%
%TO.N,GND*%
X123566999Y-67183499D03*
%TO.P,U8,10,CSN*%
%TO.N,Net-(U8-CSN)*%
X124066999Y-67183499D03*
D18*
%TO.P,U8,11,NC*%
%TO.N,unconnected-(U8-NC-Pad11)*%
X124079499Y-66670999D03*
%TO.P,U8,12,SCK_SCL*%
%TO.N,/SCL_1*%
X124079499Y-66170999D03*
%TD*%
D12*
%TO.P,R14,1*%
%TO.N,3.3V*%
X131257000Y-67513200D03*
%TO.P,R14,2*%
%TO.N,/SCL_1*%
X130617000Y-67513200D03*
%TD*%
D13*
%TO.P,R15,1*%
%TO.N,3.3V*%
X124333000Y-63947000D03*
%TO.P,R15,2*%
%TO.N,Net-(U3-CS)*%
X124333000Y-64587000D03*
%TD*%
D12*
%TO.P,C10,1*%
%TO.N,GND*%
X120462000Y-68044000D03*
%TO.P,C10,2*%
%TO.N,3.3V*%
X119822000Y-68044000D03*
%TD*%
D15*
%TO.P,R16,1*%
%TO.N,Net-(U5-CSN)*%
X121219000Y-68072000D03*
%TO.P,R16,2*%
%TO.N,3.3V*%
X121859000Y-68072000D03*
%TD*%
D27*
%TO.P,U7,A1,VSA*%
%TO.N,GND*%
X127454000Y-67364000D03*
%TO.P,U7,A2,SCL*%
%TO.N,/SCL_1*%
X127454000Y-67764000D03*
%TO.P,U7,B1,VDD*%
%TO.N,3.3V*%
X127054000Y-67364000D03*
%TO.P,U7,B2,SDA*%
%TO.N,/SDA_1*%
X127054000Y-67764000D03*
%TD*%
D16*
%TO.P,C4,1*%
%TO.N,3.3V*%
X116614000Y-67945000D03*
%TO.P,C4,2*%
%TO.N,GND*%
X117574000Y-67945000D03*
%TD*%
D27*
%TO.P,U4,A1,VSA*%
%TO.N,GND*%
X126057000Y-67364000D03*
%TO.P,U4,A2,SCL*%
%TO.N,/SCL_0*%
X126057000Y-67764000D03*
%TO.P,U4,B1,VDD*%
%TO.N,3.3V*%
X125657000Y-67364000D03*
%TO.P,U4,B2,SDA*%
%TO.N,/SDA_0*%
X125657000Y-67764000D03*
%TD*%
D19*
%TO.P,C2,1*%
%TO.N,VCC*%
X117434000Y-62738000D03*
%TO.P,C2,2*%
%TO.N,GND*%
X118984000Y-62738000D03*
%TD*%
D15*
%TO.P,R1,1*%
%TO.N,/SDA*%
X128762800Y-61214000D03*
%TO.P,R1,2*%
%TO.N,3.3V*%
X129402800Y-61214000D03*
%TD*%
D12*
%TO.P,R12,1*%
%TO.N,3.3V*%
X131257000Y-68224400D03*
%TO.P,R12,2*%
%TO.N,/SCL_0*%
X130617000Y-68224400D03*
%TD*%
D20*
%TO.P,P1,1,Pin_1*%
%TO.N,VCC*%
X114587399Y-62098999D03*
D21*
X115019199Y-62098999D03*
D22*
X115451000Y-62099000D03*
D20*
%TO.P,P1,2,Pin_2*%
%TO.N,GND*%
X114587399Y-63368999D03*
D23*
X115019199Y-63372999D03*
D20*
X115450999Y-63368999D03*
%TO.P,P1,3,Pin_3*%
%TO.N,/SCL*%
X114587399Y-64638999D03*
D24*
X115011199Y-64642999D03*
D20*
X115450999Y-64638999D03*
%TO.P,P1,4,Pin_4*%
%TO.N,/SDA*%
X114587399Y-65908999D03*
D21*
X115019199Y-65908999D03*
D20*
X115450999Y-65908999D03*
%TO.P,P1,5,Pin_5*%
%TO.N,/EN*%
X114587399Y-67178999D03*
D23*
X115019199Y-67182999D03*
D20*
X115450999Y-67178999D03*
%TD*%
D28*
%TO.P,C12,1*%
%TO.N,3.3V*%
X120317200Y-61214000D03*
%TO.P,C12,2*%
%TO.N,GND*%
X119357200Y-61214000D03*
%TD*%
D29*
%TO.N,/SCL_0*%
X121484500Y-66171000D03*
%TO.N,GND*%
X125907800Y-65252600D03*
X122021600Y-65405000D03*
X124333000Y-62941200D03*
X121843800Y-61214000D03*
X124079000Y-65227200D03*
X123266200Y-61214000D03*
X120462000Y-68044000D03*
X131556800Y-61214000D03*
X120297263Y-63291801D03*
X118897400Y-63017400D03*
X117576600Y-67437000D03*
X118897400Y-62484000D03*
X127955000Y-61214000D03*
X119354600Y-61214000D03*
X123256000Y-68072000D03*
X125069600Y-61239400D03*
X117574000Y-67945000D03*
X119989945Y-65100545D03*
X126558000Y-61214000D03*
X127660089Y-66673164D03*
%TO.N,3.3V*%
X122616000Y-68072000D03*
X124653000Y-68072000D03*
X119822000Y-68044000D03*
X124104400Y-61214000D03*
X126774000Y-65659000D03*
X121208800Y-61214000D03*
X125918000Y-61214000D03*
X124333000Y-63947000D03*
X120319800Y-61214000D03*
X131257000Y-67513200D03*
X119997000Y-63810000D03*
X132092662Y-65760528D03*
X130159800Y-61214000D03*
X124942600Y-65252600D03*
X132196800Y-61214000D03*
X116611400Y-67437000D03*
X116614000Y-67945000D03*
X129834600Y-67513200D03*
%TO.N,VCC*%
X117434000Y-62966600D03*
X117434000Y-62966600D03*
X117449600Y-62509400D03*
%TO.N,/EN*%
X118425000Y-68021200D03*
%TO.N,/SDA*%
X128750000Y-64266000D03*
X128762800Y-61747400D03*
%TO.N,/SCL*%
X130799800Y-61214000D03*
X128970498Y-65765502D03*
%TO.N,/SCL_1*%
X128016000Y-67564000D03*
X125267000Y-62873000D03*
X124079500Y-66171000D03*
%TO.N,/SDA_1*%
X128828800Y-67522164D03*
X125267000Y-63373000D03*
X128607100Y-63766000D03*
X123567000Y-65658500D03*
%TO.N,/SCL_0*%
X128524000Y-65266498D03*
X130617000Y-68224400D03*
X126517400Y-67564000D03*
X120949000Y-62868000D03*
%TO.N,/SDA_0*%
X129194600Y-68224400D03*
X128163402Y-64920850D03*
X120949000Y-63368000D03*
X120972498Y-65659000D03*
X125069600Y-67564000D03*
%TD*%
D30*
%TO.N,/SDA_0*%
X120972498Y-65658998D02*
X120972000Y-65658500D01*
X120972498Y-65659000D02*
X120972498Y-65658998D01*
%TO.N,/SCL_0*%
X121484500Y-66171000D02*
X121488500Y-66167000D01*
%TO.N,Net-(U3-CS)*%
X124679200Y-64373000D02*
X125267000Y-64373000D01*
X124333000Y-64587000D02*
X124465200Y-64587000D01*
X124465200Y-64587000D02*
X124679200Y-64373000D01*
D31*
%TO.N,/SDA_0*%
X128318252Y-64766000D02*
X128163402Y-64920850D01*
X128750000Y-64766000D02*
X128318252Y-64766000D01*
%TO.N,/SDA_1*%
X128607100Y-63766000D02*
X128750000Y-63766000D01*
D30*
%TO.N,Net-(U3-REGOUT)*%
X126992000Y-61577600D02*
X126992000Y-62148000D01*
X127315000Y-61254600D02*
X126992000Y-61577600D01*
X127315000Y-61214000D02*
X127315000Y-61254600D01*
%TO.N,GND*%
X121843800Y-65658500D02*
X121472000Y-65658500D01*
X122149100Y-65658500D02*
X122567000Y-65658500D01*
X131600000Y-66266000D02*
X130925000Y-66266000D01*
D31*
X124079000Y-65227200D02*
X124067000Y-65239200D01*
D30*
X130225800Y-62001400D02*
X130225800Y-62534800D01*
X131600000Y-64266000D02*
X130925000Y-64266000D01*
X119989945Y-65100545D02*
X119989600Y-65100890D01*
X124067011Y-65239189D02*
X124067011Y-65658492D01*
D31*
X127454000Y-67364000D02*
X127454000Y-66903600D01*
X126057000Y-67364000D02*
X126057000Y-66903600D01*
D30*
X130810000Y-62001400D02*
X130810000Y-62534800D01*
X131600000Y-65266000D02*
X130925000Y-65266000D01*
X129590800Y-62001400D02*
X129590800Y-62534800D01*
X119989600Y-65100890D02*
X119989600Y-65640900D01*
D31*
%TO.N,3.3V*%
X131600000Y-62766000D02*
X132128200Y-62766000D01*
X132128200Y-62766000D02*
X132130800Y-62763400D01*
X131600000Y-63266000D02*
X132150800Y-63266000D01*
X132092662Y-65760528D02*
X132087190Y-65766000D01*
D30*
X129402800Y-61214000D02*
X130159800Y-61214000D01*
X132087188Y-65766010D02*
X131599991Y-65766010D01*
X129834589Y-67513200D02*
X129834589Y-68224400D01*
X122616000Y-68072000D02*
X121859000Y-68072000D01*
D31*
X127054000Y-67364000D02*
X127054000Y-66903600D01*
X125657000Y-67364000D02*
X125657000Y-66903600D01*
D30*
X131256989Y-67513200D02*
X131256989Y-68224400D01*
D31*
%TO.N,/SDA*%
X128762800Y-61214000D02*
X128762800Y-61747400D01*
%TO.N,/SCL_1*%
X130134400Y-67030600D02*
X128943100Y-67030600D01*
X128750000Y-66830000D02*
X128750000Y-66774000D01*
X128016000Y-67564000D02*
X128750000Y-66830000D01*
X127816000Y-67764000D02*
X127454000Y-67764000D01*
X128016000Y-67564000D02*
X127816000Y-67764000D01*
X130617000Y-67513200D02*
X130134400Y-67030600D01*
X128943100Y-67030600D02*
X128750000Y-66837500D01*
X128750000Y-66837500D02*
X128750000Y-66774000D01*
X128750000Y-66774000D02*
X128750000Y-66266000D01*
%TO.N,/SDA_1*%
X127337624Y-68224400D02*
X128126564Y-68224400D01*
X128828800Y-67522164D02*
X128837764Y-67513200D01*
X128126564Y-68224400D02*
X128828800Y-67522164D01*
X127054000Y-67940776D02*
X127337624Y-68224400D01*
X128837764Y-67513200D02*
X129194600Y-67513200D01*
X127054000Y-67764000D02*
X127054000Y-67940776D01*
D30*
%TO.N,Net-(U6-REGOUT)*%
X122674000Y-62143000D02*
X122674000Y-61272000D01*
D31*
%TO.N,/SCL_0*%
X126317400Y-67764000D02*
X126057000Y-67764000D01*
X126517400Y-67564000D02*
X126317400Y-67764000D01*
D30*
%TO.N,/SDA_0*%
X128251941Y-64766012D02*
X128750009Y-64766012D01*
D31*
X125069600Y-67564000D02*
X125269600Y-67764000D01*
X125269600Y-67764000D02*
X125657000Y-67764000D01*
D30*
%TO.N,Net-(U2-EN)*%
X118679000Y-66936796D02*
X119065000Y-67322796D01*
X119065000Y-67322796D02*
X119065000Y-68021200D01*
D31*
%TO.N,/XORL2*%
X132199511Y-65148511D02*
X132969000Y-65918000D01*
X132076000Y-64766000D02*
X132199511Y-64889511D01*
X132199511Y-64889511D02*
X132199511Y-65148511D01*
X131600000Y-64766000D02*
X132076000Y-64766000D01*
%TO.N,/XORL1*%
X132969000Y-64648000D02*
X132087000Y-63766000D01*
X132087000Y-63766000D02*
X131600000Y-63766000D01*
D30*
%TO.N,Net-(U5-CSN)*%
X121472000Y-67554800D02*
X121472000Y-67183500D01*
X121219000Y-68072000D02*
X121219000Y-67807800D01*
X121219000Y-67807800D02*
X121472000Y-67554800D01*
%TO.N,Net-(U6-CS)*%
X120949000Y-64368000D02*
X120079000Y-64368000D01*
%TO.N,Net-(U8-CSN)*%
X124067000Y-67183500D02*
X124067000Y-68018000D01*
%TD*%
%TA.AperFunction,Conductor*%
%TO.N,3.3V*%
G36*
X125362800Y-65033914D02*
G01*
X125389886Y-65061000D01*
X125399800Y-65098000D01*
X125399800Y-66294000D01*
X125404953Y-66299153D01*
X125708326Y-66602526D01*
X125724367Y-66626533D01*
X125730000Y-66654852D01*
X125730000Y-66956600D01*
X125720086Y-66993600D01*
X125693000Y-67020686D01*
X125656000Y-67030600D01*
X124584800Y-67030600D01*
X124547800Y-67020686D01*
X124520714Y-66993600D01*
X124510800Y-66956600D01*
X124510800Y-65098000D01*
X124520714Y-65061000D01*
X124547800Y-65033914D01*
X124584800Y-65024000D01*
X125325800Y-65024000D01*
X125362800Y-65033914D01*
G37*
%TD.AperFunction*%
%TD*%
%TA.AperFunction,Conductor*%
%TO.N,Net-(U2-CP-)*%
G36*
X118784200Y-60868314D02*
G01*
X118811286Y-60895400D01*
X118821200Y-60932400D01*
X118821200Y-62030252D01*
X118809533Y-62070134D01*
X118778210Y-62097441D01*
X118760340Y-62105689D01*
X118729330Y-62112500D01*
X118723364Y-62112500D01*
X118720720Y-62112885D01*
X118720709Y-62112886D01*
X118656063Y-62122305D01*
X118656061Y-62122305D01*
X118650375Y-62123134D01*
X118645215Y-62125656D01*
X118645210Y-62125658D01*
X118543293Y-62175482D01*
X118543287Y-62175485D01*
X118537789Y-62178174D01*
X118533458Y-62182504D01*
X118533455Y-62182507D01*
X118453507Y-62262455D01*
X118453504Y-62262458D01*
X118449174Y-62266789D01*
X118446485Y-62272287D01*
X118446482Y-62272293D01*
X118396658Y-62374210D01*
X118396657Y-62374214D01*
X118394134Y-62379375D01*
X118393305Y-62385061D01*
X118393305Y-62385063D01*
X118383886Y-62449709D01*
X118383885Y-62449720D01*
X118383500Y-62452364D01*
X118383500Y-63023636D01*
X118383885Y-63026280D01*
X118383886Y-63026290D01*
X118393305Y-63090936D01*
X118394134Y-63096625D01*
X118396657Y-63101785D01*
X118396658Y-63101789D01*
X118446482Y-63203706D01*
X118446484Y-63203709D01*
X118449174Y-63209211D01*
X118537789Y-63297826D01*
X118543296Y-63300518D01*
X118546072Y-63302500D01*
X118555399Y-63310399D01*
X118618000Y-63373000D01*
X119052000Y-63373000D01*
X119089000Y-63382914D01*
X119116086Y-63410000D01*
X119126000Y-63447000D01*
X119126000Y-64950000D01*
X119116086Y-64987000D01*
X119089000Y-65014086D01*
X119052000Y-65024000D01*
X118387200Y-65024000D01*
X118350200Y-65014086D01*
X118323114Y-64987000D01*
X118313200Y-64950000D01*
X118313200Y-63635502D01*
X118313200Y-63627000D01*
X118011881Y-63395216D01*
X117990612Y-63369252D01*
X117983000Y-63336562D01*
X117983000Y-63197338D01*
X117990519Y-63164838D01*
X118021343Y-63101785D01*
X118023866Y-63096625D01*
X118034500Y-63023636D01*
X118034500Y-62452364D01*
X118023866Y-62379375D01*
X117990519Y-62311162D01*
X117983000Y-62278662D01*
X117983000Y-62238502D01*
X117983000Y-62230000D01*
X117847355Y-62125658D01*
X117681681Y-61998216D01*
X117660412Y-61972252D01*
X117652800Y-61939562D01*
X117652800Y-60932400D01*
X117662714Y-60895400D01*
X117689800Y-60868314D01*
X117726800Y-60858400D01*
X118747200Y-60858400D01*
X118784200Y-60868314D01*
G37*
%TD.AperFunction*%
%TD*%
%TA.AperFunction,Conductor*%
%TO.N,GND*%
G36*
X126251734Y-65033185D02*
G01*
X126278832Y-65060270D01*
X126288752Y-65097277D01*
X126288799Y-66007687D01*
X126288799Y-66007690D01*
X126288800Y-66014600D01*
X126293492Y-66019683D01*
X126573975Y-66323540D01*
X126588519Y-66346787D01*
X126593600Y-66373733D01*
X126593600Y-66956600D01*
X126583686Y-66993600D01*
X126556600Y-67020686D01*
X126519600Y-67030600D01*
X126058000Y-67030600D01*
X126021000Y-67020686D01*
X125993914Y-66993600D01*
X125984000Y-66956600D01*
X125984000Y-66580385D01*
X125984000Y-66573400D01*
X125623012Y-66188346D01*
X125608184Y-66164948D01*
X125602998Y-66137740D01*
X125602952Y-65097501D01*
X125612860Y-65060511D01*
X125639934Y-65033425D01*
X125676919Y-65023500D01*
X125801657Y-65023449D01*
X125802014Y-65023467D01*
X125802180Y-65023500D01*
X126179710Y-65023500D01*
X126181820Y-65023500D01*
X126182524Y-65023359D01*
X126183866Y-65023293D01*
X126214723Y-65023281D01*
X126251734Y-65033185D01*
G37*
%TD.AperFunction*%
%TD*%
%TA.AperFunction,Conductor*%
%TO.N,GND*%
G36*
X131611200Y-60866414D02*
G01*
X131638286Y-60893500D01*
X131648200Y-60930500D01*
X131648200Y-62054400D01*
X131638286Y-62091400D01*
X131611200Y-62118486D01*
X131574200Y-62128400D01*
X129156800Y-62128400D01*
X129119800Y-62118486D01*
X129092714Y-62091400D01*
X129082800Y-62054400D01*
X129082800Y-61813543D01*
X129083924Y-61800693D01*
X129092197Y-61753775D01*
X129092197Y-61753774D01*
X129093321Y-61747400D01*
X129086241Y-61707248D01*
X129091169Y-61665091D01*
X129118453Y-61632574D01*
X129159117Y-61620400D01*
X130797990Y-61620400D01*
X130810000Y-61620400D01*
X130864799Y-61579300D01*
X130909200Y-61564500D01*
X130950834Y-61564500D01*
X130954474Y-61564500D01*
X131027540Y-61549966D01*
X131110401Y-61494601D01*
X131165766Y-61411740D01*
X131173840Y-61371146D01*
X131183793Y-61346163D01*
X131202017Y-61326387D01*
X131216400Y-61315600D01*
X131216400Y-60930500D01*
X131226314Y-60893500D01*
X131253400Y-60866414D01*
X131290400Y-60856500D01*
X131574200Y-60856500D01*
X131611200Y-60866414D01*
G37*
%TD.AperFunction*%
%TD*%
%TA.AperFunction,Conductor*%
%TO.N,3.3V*%
G36*
X120613000Y-60866414D02*
G01*
X120640086Y-60893500D01*
X120650000Y-60930500D01*
X120650000Y-61595000D01*
X121045635Y-61973434D01*
X121065633Y-62006566D01*
X121066172Y-62045262D01*
X121047103Y-62078939D01*
X121034028Y-62086537D01*
X121026261Y-62094304D01*
X121024000Y-62102743D01*
X121024000Y-62369000D01*
X121014086Y-62406000D01*
X120987000Y-62433086D01*
X120950000Y-62443000D01*
X120583744Y-62443000D01*
X120576060Y-62445059D01*
X120574001Y-62452743D01*
X120574001Y-62486200D01*
X120564087Y-62523200D01*
X120537001Y-62550286D01*
X120500001Y-62560200D01*
X120372575Y-62560200D01*
X120346901Y-62555603D01*
X120324416Y-62542385D01*
X120306993Y-62527451D01*
X120293623Y-62512378D01*
X120281650Y-62494459D01*
X120277601Y-62488399D01*
X120271540Y-62484349D01*
X120207947Y-62441858D01*
X120200901Y-62436514D01*
X120172395Y-62412080D01*
X120172389Y-62412076D01*
X120167400Y-62407800D01*
X120160825Y-62407800D01*
X119708000Y-62407800D01*
X119671000Y-62397886D01*
X119643914Y-62370800D01*
X119634000Y-62333800D01*
X119634000Y-62283257D01*
X120574000Y-62283257D01*
X120576059Y-62290940D01*
X120583743Y-62293000D01*
X120864257Y-62293000D01*
X120871940Y-62290940D01*
X120874000Y-62283257D01*
X120874000Y-62102744D01*
X120871940Y-62095060D01*
X120864257Y-62093001D01*
X120667786Y-62093001D01*
X120660589Y-62093709D01*
X120642127Y-62097380D01*
X120628923Y-62102850D01*
X120607964Y-62116854D01*
X120597854Y-62126964D01*
X120583850Y-62147923D01*
X120578380Y-62161128D01*
X120574710Y-62179580D01*
X120574000Y-62186791D01*
X120574000Y-62283257D01*
X119634000Y-62283257D01*
X119634000Y-61803452D01*
X119639633Y-61775133D01*
X119655674Y-61751126D01*
X119655674Y-61751125D01*
X119913400Y-61493400D01*
X119913400Y-60930500D01*
X119923314Y-60893500D01*
X119950400Y-60866414D01*
X119987400Y-60856500D01*
X120576000Y-60856500D01*
X120613000Y-60866414D01*
G37*
%TD.AperFunction*%
%TD*%
%TA.AperFunction,Conductor*%
%TO.N,GND*%
G36*
X126861400Y-60866414D02*
G01*
X126888486Y-60893500D01*
X126898400Y-60930500D01*
X126898400Y-61286288D01*
X126892767Y-61314607D01*
X126876726Y-61338613D01*
X126862989Y-61352349D01*
X126837472Y-61377866D01*
X126826264Y-61387065D01*
X126817459Y-61392949D01*
X126817457Y-61392950D01*
X126811399Y-61396999D01*
X126807353Y-61403053D01*
X126807349Y-61403058D01*
X126775942Y-61450063D01*
X126760082Y-61473799D01*
X126760080Y-61473802D01*
X126756034Y-61479859D01*
X126754612Y-61487006D01*
X126754612Y-61487007D01*
X126742089Y-61549966D01*
X126736592Y-61577600D01*
X126738014Y-61584749D01*
X126740078Y-61595125D01*
X126741500Y-61609562D01*
X126741500Y-61699000D01*
X126731586Y-61736000D01*
X126704500Y-61763086D01*
X126667500Y-61773000D01*
X126576743Y-61773000D01*
X126569059Y-61775059D01*
X126567000Y-61782743D01*
X126567000Y-62149000D01*
X126557086Y-62186000D01*
X126530000Y-62213086D01*
X126493000Y-62223000D01*
X126491000Y-62223000D01*
X126454000Y-62213086D01*
X126426914Y-62186000D01*
X126417000Y-62149000D01*
X126417000Y-61782744D01*
X126414940Y-61775060D01*
X126407257Y-61773001D01*
X126388200Y-61773001D01*
X126351200Y-61763087D01*
X126324114Y-61736001D01*
X126314200Y-61699001D01*
X126314200Y-60930500D01*
X126324114Y-60893500D01*
X126351200Y-60866414D01*
X126388200Y-60856500D01*
X126824400Y-60856500D01*
X126861400Y-60866414D01*
G37*
%TD.AperFunction*%
%TD*%
%TA.AperFunction,Conductor*%
%TO.N,GND*%
G36*
X122256380Y-60867028D02*
G01*
X122283599Y-60895616D01*
X122292248Y-60934130D01*
X122279866Y-60971611D01*
X122254083Y-61010198D01*
X122254080Y-61010203D01*
X122250034Y-61016260D01*
X122248613Y-61023403D01*
X122248612Y-61023406D01*
X122237744Y-61078045D01*
X122235500Y-61089326D01*
X122235500Y-61338674D01*
X122236209Y-61342242D01*
X122236210Y-61342244D01*
X122248392Y-61403488D01*
X122250034Y-61411740D01*
X122305399Y-61494601D01*
X122311459Y-61498650D01*
X122388260Y-61549966D01*
X122387092Y-61551713D01*
X122411027Y-61571354D01*
X122423500Y-61612469D01*
X122423500Y-61694000D01*
X122413586Y-61731000D01*
X122386500Y-61758086D01*
X122349500Y-61768000D01*
X122258743Y-61768000D01*
X122251059Y-61770059D01*
X122249000Y-61777743D01*
X122249000Y-62144000D01*
X122239086Y-62181000D01*
X122212000Y-62208086D01*
X122175000Y-62218000D01*
X122173000Y-62218000D01*
X122136000Y-62208086D01*
X122108914Y-62181000D01*
X122099000Y-62144000D01*
X122099000Y-61777743D01*
X122096940Y-61770058D01*
X122096545Y-61769952D01*
X122063047Y-61750472D01*
X122052050Y-61731006D01*
X122047109Y-61724751D01*
X122047000Y-61722000D01*
X122041009Y-61717028D01*
X122017424Y-61697455D01*
X122000199Y-61676815D01*
X121991484Y-61651382D01*
X121988471Y-61631097D01*
X121988470Y-61631095D01*
X121987620Y-61625370D01*
X121966145Y-61582014D01*
X121939859Y-61544889D01*
X121906099Y-61510233D01*
X121903786Y-61508503D01*
X121903782Y-61508499D01*
X121832419Y-61455113D01*
X121830409Y-61453609D01*
X121793503Y-61433150D01*
X121789725Y-61431684D01*
X121789371Y-61431404D01*
X121788876Y-61431172D01*
X121788930Y-61431054D01*
X121755458Y-61404532D01*
X121742498Y-61362778D01*
X121742039Y-60930578D01*
X121751927Y-60893545D01*
X121779016Y-60866427D01*
X121816039Y-60856500D01*
X122218337Y-60856500D01*
X122256380Y-60867028D01*
G37*
%TD.AperFunction*%
%TD*%
%TA.AperFunction,Conductor*%
%TO.N,3.3V*%
G36*
X121451200Y-60866414D02*
G01*
X121478286Y-60893500D01*
X121488200Y-60930500D01*
X121488200Y-61033274D01*
X121486778Y-61047709D01*
X121478500Y-61089326D01*
X121478500Y-61338674D01*
X121488200Y-61387438D01*
X121488200Y-61391800D01*
X121489219Y-61392562D01*
X121493034Y-61411740D01*
X121548399Y-61494601D01*
X121631260Y-61549966D01*
X121704326Y-61564500D01*
X121704169Y-61565284D01*
X121737260Y-61578122D01*
X121780212Y-61610254D01*
X121812950Y-61634746D01*
X121839236Y-61671871D01*
X121838839Y-61717358D01*
X121811909Y-61754019D01*
X121768622Y-61768000D01*
X121758743Y-61768000D01*
X121751059Y-61770059D01*
X121749000Y-61777743D01*
X121749000Y-62144000D01*
X121739086Y-62181000D01*
X121712000Y-62208086D01*
X121675000Y-62218000D01*
X121673000Y-62218000D01*
X121636000Y-62208086D01*
X121608914Y-62181000D01*
X121599000Y-62144000D01*
X121599000Y-61777744D01*
X121596940Y-61770060D01*
X121589257Y-61768001D01*
X121492786Y-61768001D01*
X121485589Y-61768709D01*
X121467127Y-61772380D01*
X121453923Y-61777850D01*
X121432964Y-61791854D01*
X121422854Y-61801964D01*
X121408850Y-61822923D01*
X121403380Y-61836128D01*
X121399707Y-61854594D01*
X121399608Y-61855602D01*
X121399401Y-61856133D01*
X121399000Y-61858151D01*
X121398643Y-61858080D01*
X121385160Y-61892742D01*
X121353545Y-61917004D01*
X121313931Y-61921350D01*
X121277807Y-61904520D01*
X120853641Y-61540949D01*
X120834570Y-61515685D01*
X120827800Y-61484764D01*
X120827800Y-60930500D01*
X120837714Y-60893500D01*
X120864800Y-60866414D01*
X120901800Y-60856500D01*
X121414200Y-60856500D01*
X121451200Y-60866414D01*
G37*
%TD.AperFunction*%
%TD*%
%TA.AperFunction,Conductor*%
%TO.N,3.3V*%
G36*
X126074000Y-60866414D02*
G01*
X126101086Y-60893500D01*
X126111000Y-60930500D01*
X126111000Y-61589748D01*
X126105367Y-61618067D01*
X126094475Y-61634367D01*
X126094803Y-61634586D01*
X126090752Y-61640647D01*
X126085600Y-61645800D01*
X126085600Y-61653088D01*
X126085600Y-61727314D01*
X126079967Y-61755633D01*
X126070446Y-61769881D01*
X126067000Y-61782743D01*
X126067000Y-62149000D01*
X126057086Y-62186000D01*
X126030000Y-62213086D01*
X125993000Y-62223000D01*
X125991000Y-62223000D01*
X125954000Y-62213086D01*
X125926914Y-62186000D01*
X125917000Y-62149000D01*
X125917000Y-61782744D01*
X125914940Y-61775060D01*
X125907257Y-61773001D01*
X125810786Y-61773001D01*
X125803589Y-61773709D01*
X125785127Y-61777380D01*
X125771923Y-61782850D01*
X125767615Y-61785729D01*
X125726503Y-61798200D01*
X125575400Y-61798200D01*
X125538400Y-61788286D01*
X125511314Y-61761200D01*
X125501400Y-61724200D01*
X125501400Y-60930500D01*
X125511314Y-60893500D01*
X125538400Y-60866414D01*
X125575400Y-60856500D01*
X126037000Y-60856500D01*
X126074000Y-60866414D01*
G37*
%TD.AperFunction*%
%TD*%
%TA.AperFunction,Conductor*%
%TO.N,3.3V*%
G36*
X120105000Y-67015114D02*
G01*
X120132086Y-67042200D01*
X120142000Y-67079200D01*
X120142000Y-67755018D01*
X120129528Y-67796130D01*
X120096034Y-67846260D01*
X120094613Y-67853403D01*
X120094612Y-67853406D01*
X120086035Y-67896526D01*
X120081500Y-67919326D01*
X120081500Y-68168674D01*
X120082209Y-68172242D01*
X120082210Y-68172244D01*
X120091498Y-68218940D01*
X120096034Y-68241740D01*
X120100082Y-68247798D01*
X120129529Y-68291870D01*
X120142000Y-68332982D01*
X120142000Y-68355500D01*
X120132086Y-68392500D01*
X120105000Y-68419586D01*
X120068000Y-68429500D01*
X119581000Y-68429500D01*
X119544000Y-68419586D01*
X119516914Y-68392500D01*
X119507000Y-68355500D01*
X119507000Y-67079200D01*
X119516914Y-67042200D01*
X119544000Y-67015114D01*
X119581000Y-67005200D01*
X120068000Y-67005200D01*
X120105000Y-67015114D01*
G37*
%TD.AperFunction*%
%TD*%
%TA.AperFunction,Conductor*%
%TO.N,Net-(U2-CP+)*%
G36*
X117209400Y-60868314D02*
G01*
X117236486Y-60895400D01*
X117246400Y-60932400D01*
X117246400Y-62038570D01*
X117237359Y-62074015D01*
X117212445Y-62100798D01*
X117177746Y-62112377D01*
X117176046Y-62112500D01*
X117173364Y-62112500D01*
X117170719Y-62112885D01*
X117170710Y-62112886D01*
X117106063Y-62122305D01*
X117106061Y-62122305D01*
X117100375Y-62123134D01*
X117095215Y-62125656D01*
X117095210Y-62125658D01*
X117001071Y-62171681D01*
X116968570Y-62179200D01*
X116890800Y-62179200D01*
X116890800Y-62188943D01*
X116890800Y-62266797D01*
X116883281Y-62299297D01*
X116846659Y-62374207D01*
X116846656Y-62374215D01*
X116844134Y-62379375D01*
X116843305Y-62385061D01*
X116843305Y-62385063D01*
X116833886Y-62449709D01*
X116833885Y-62449720D01*
X116833500Y-62452364D01*
X116833500Y-63023636D01*
X116833885Y-63026280D01*
X116833886Y-63026290D01*
X116836127Y-63041667D01*
X116836900Y-63052336D01*
X116836900Y-63065796D01*
X116837048Y-63067441D01*
X116837049Y-63067458D01*
X116839255Y-63091936D01*
X116839404Y-63093588D01*
X116839697Y-63095202D01*
X116839698Y-63095208D01*
X116843537Y-63116344D01*
X116843538Y-63116350D01*
X116844132Y-63119616D01*
X116845299Y-63122722D01*
X116845301Y-63122729D01*
X116862518Y-63168552D01*
X116862522Y-63168561D01*
X116863686Y-63171658D01*
X116877266Y-63194357D01*
X116893682Y-63216920D01*
X117075692Y-63424932D01*
X117089272Y-63447631D01*
X117094000Y-63473659D01*
X117094000Y-64950000D01*
X117084086Y-64987000D01*
X117057000Y-65014086D01*
X117020000Y-65024000D01*
X116279000Y-65024000D01*
X116242000Y-65014086D01*
X116214914Y-64987000D01*
X116205000Y-64950000D01*
X116205000Y-60932400D01*
X116214914Y-60895400D01*
X116242000Y-60868314D01*
X116279000Y-60858400D01*
X117172400Y-60858400D01*
X117209400Y-60868314D01*
G37*
%TD.AperFunction*%
%TD*%
%TA.AperFunction,Conductor*%
%TO.N,GND*%
G36*
X123508600Y-60866414D02*
G01*
X123535686Y-60893500D01*
X123545600Y-60930500D01*
X123545600Y-61468000D01*
X123552270Y-61473187D01*
X123552271Y-61473189D01*
X123576429Y-61491978D01*
X123630789Y-61534258D01*
X123642957Y-61546214D01*
X123656032Y-61562429D01*
X123681010Y-61587094D01*
X123846981Y-61717500D01*
X123920619Y-61775358D01*
X123941455Y-61801198D01*
X123948900Y-61833546D01*
X123948900Y-62436894D01*
X123949208Y-62439271D01*
X123949209Y-62439273D01*
X123953753Y-62474251D01*
X123953755Y-62474264D01*
X123954063Y-62476630D01*
X123954673Y-62478938D01*
X123954675Y-62478948D01*
X123957266Y-62488750D01*
X123963727Y-62513193D01*
X123990195Y-62559767D01*
X123993136Y-62564941D01*
X124002800Y-62601504D01*
X124002800Y-63694335D01*
X123998185Y-63717536D01*
X123997034Y-63719260D01*
X123995613Y-63726402D01*
X123995611Y-63726408D01*
X123984304Y-63783257D01*
X123982500Y-63792326D01*
X123982500Y-64101674D01*
X123983209Y-64105242D01*
X123983210Y-64105244D01*
X123995611Y-64167591D01*
X123995612Y-64167595D01*
X123997034Y-64174740D01*
X123998185Y-64176463D01*
X124002800Y-64199665D01*
X124002800Y-64334335D01*
X123998185Y-64357536D01*
X123997034Y-64359260D01*
X123995613Y-64366402D01*
X123995611Y-64366408D01*
X123983210Y-64428755D01*
X123982500Y-64432326D01*
X123982500Y-64435966D01*
X123982500Y-64549722D01*
X123973391Y-64585291D01*
X123948306Y-64612103D01*
X123913422Y-64623558D01*
X123852832Y-64627597D01*
X123811655Y-64618271D01*
X123782280Y-64587946D01*
X123775496Y-64552849D01*
X123774000Y-64552849D01*
X123774000Y-64452743D01*
X123771940Y-64445059D01*
X123764257Y-64443000D01*
X123621800Y-64443000D01*
X123621800Y-64293000D01*
X123764256Y-64293000D01*
X123771939Y-64290940D01*
X123773999Y-64283257D01*
X123773999Y-64186786D01*
X123773290Y-64179589D01*
X123769619Y-64161128D01*
X123763485Y-64146320D01*
X123757851Y-64118000D01*
X123763485Y-64089679D01*
X123769619Y-64074869D01*
X123773289Y-64056419D01*
X123774000Y-64049209D01*
X123774000Y-63952743D01*
X123771940Y-63945059D01*
X123764257Y-63943000D01*
X123621800Y-63943000D01*
X123621800Y-63793000D01*
X123764256Y-63793000D01*
X123771939Y-63790940D01*
X123773999Y-63783257D01*
X123773999Y-63686786D01*
X123773290Y-63679589D01*
X123769619Y-63661128D01*
X123763485Y-63646320D01*
X123757851Y-63618000D01*
X123763485Y-63589679D01*
X123769619Y-63574869D01*
X123773289Y-63556419D01*
X123774000Y-63549209D01*
X123774000Y-63452743D01*
X123771940Y-63445059D01*
X123764257Y-63443000D01*
X123621800Y-63443000D01*
X123621800Y-63293000D01*
X123764256Y-63293000D01*
X123771939Y-63290940D01*
X123773999Y-63283257D01*
X123773999Y-63186786D01*
X123773290Y-63179589D01*
X123769619Y-63161128D01*
X123763485Y-63146320D01*
X123757851Y-63118000D01*
X123763485Y-63089679D01*
X123769619Y-63074869D01*
X123773289Y-63056419D01*
X123774000Y-63049209D01*
X123774000Y-62952743D01*
X123771940Y-62945059D01*
X123764257Y-62943000D01*
X123621800Y-62943000D01*
X123621800Y-62793000D01*
X123764256Y-62793000D01*
X123771939Y-62790940D01*
X123773999Y-62783257D01*
X123773999Y-62686786D01*
X123773290Y-62679589D01*
X123769619Y-62661128D01*
X123763485Y-62646320D01*
X123757851Y-62618000D01*
X123763485Y-62589679D01*
X123769619Y-62574869D01*
X123773289Y-62556419D01*
X123774000Y-62549209D01*
X123774000Y-62452743D01*
X123771940Y-62445059D01*
X123764257Y-62443000D01*
X123621800Y-62443000D01*
X123621800Y-62293000D01*
X123764256Y-62293000D01*
X123771939Y-62290940D01*
X123773999Y-62283257D01*
X123773999Y-62186786D01*
X123773290Y-62179589D01*
X123769619Y-62161127D01*
X123764149Y-62147923D01*
X123750145Y-62126964D01*
X123740035Y-62116854D01*
X123719076Y-62102850D01*
X123705871Y-62097380D01*
X123687419Y-62093710D01*
X123680209Y-62093000D01*
X123483743Y-62093000D01*
X123476059Y-62095059D01*
X123474000Y-62102743D01*
X123474000Y-62103000D01*
X123324000Y-62103000D01*
X123324000Y-62102743D01*
X123321940Y-62095059D01*
X123314257Y-62093000D01*
X123235788Y-62093000D01*
X123207432Y-62087352D01*
X123183405Y-62071268D01*
X123084617Y-61972263D01*
X123068617Y-61948276D01*
X123063000Y-61919995D01*
X123063000Y-60930500D01*
X123072914Y-60893500D01*
X123100000Y-60866414D01*
X123137000Y-60856500D01*
X123471600Y-60856500D01*
X123508600Y-60866414D01*
G37*
%TD.AperFunction*%
%TD*%
%TA.AperFunction,Conductor*%
%TO.N,VCC*%
G36*
X117819000Y-62493914D02*
G01*
X117846086Y-62521000D01*
X117856000Y-62558000D01*
X117856000Y-63069605D01*
X117850586Y-63096460D01*
X117850819Y-63096543D01*
X117850241Y-63098170D01*
X117850240Y-63098173D01*
X117850119Y-63098513D01*
X117850114Y-63098527D01*
X117839725Y-63127803D01*
X117839021Y-63129788D01*
X117838549Y-63131826D01*
X117838546Y-63131838D01*
X117831976Y-63160236D01*
X117831973Y-63160248D01*
X117831502Y-63162288D01*
X117831264Y-63164372D01*
X117831262Y-63164384D01*
X117827738Y-63195249D01*
X117827737Y-63195258D01*
X117827500Y-63197338D01*
X117827500Y-63336562D01*
X117827741Y-63338664D01*
X117827742Y-63338672D01*
X117831309Y-63369718D01*
X117831310Y-63369729D01*
X117831552Y-63371827D01*
X117832030Y-63373883D01*
X117832032Y-63373890D01*
X117838202Y-63400389D01*
X117838204Y-63400395D01*
X117839164Y-63404517D01*
X117841037Y-63408320D01*
X117848388Y-63423250D01*
X117856000Y-63455939D01*
X117856000Y-63500000D01*
X117861153Y-63505153D01*
X118088326Y-63732326D01*
X118104367Y-63756333D01*
X118110000Y-63784652D01*
X118110000Y-64950000D01*
X118100086Y-64987000D01*
X118073000Y-65014086D01*
X118036000Y-65024000D01*
X117422000Y-65024000D01*
X117385000Y-65014086D01*
X117357914Y-64987000D01*
X117348000Y-64950000D01*
X117348000Y-63506669D01*
X117348000Y-63500000D01*
X117010708Y-63114523D01*
X116997128Y-63091824D01*
X116992400Y-63065796D01*
X116992400Y-62558000D01*
X117002314Y-62521000D01*
X117029400Y-62493914D01*
X117066400Y-62484000D01*
X117782000Y-62484000D01*
X117819000Y-62493914D01*
G37*
%TD.AperFunction*%
%TD*%
%TA.AperFunction,Conductor*%
%TO.N,3.3V*%
G36*
X122289112Y-66974961D02*
G01*
X122308278Y-66987767D01*
X122352180Y-66996500D01*
X122667500Y-66996500D01*
X122704500Y-67006414D01*
X122731586Y-67033500D01*
X122741500Y-67070500D01*
X122741500Y-67385820D01*
X122750233Y-67429722D01*
X122783496Y-67479504D01*
X122792988Y-67485846D01*
X122816963Y-67512164D01*
X122825872Y-67546637D01*
X122833926Y-68354763D01*
X122824260Y-68392073D01*
X122797143Y-68419463D01*
X122759930Y-68429500D01*
X122248000Y-68429500D01*
X122211000Y-68419586D01*
X122183914Y-68392500D01*
X122174000Y-68355500D01*
X122174000Y-67036490D01*
X122184528Y-66998447D01*
X122213116Y-66971228D01*
X122251630Y-66962579D01*
X122289112Y-66974961D01*
G37*
%TD.AperFunction*%
%TD*%
%TA.AperFunction,Conductor*%
%TO.N,3.3V*%
G36*
X117158600Y-65694314D02*
G01*
X117185686Y-65721400D01*
X117195600Y-65758400D01*
X117195600Y-67580114D01*
X117189295Y-67610004D01*
X117148564Y-67702249D01*
X117148562Y-67702254D01*
X117146318Y-67707338D01*
X117145677Y-67712856D01*
X117145676Y-67712863D01*
X117143746Y-67729498D01*
X117143745Y-67729515D01*
X117143500Y-67731627D01*
X117143500Y-67733769D01*
X117143500Y-67733770D01*
X117143500Y-68156226D01*
X117143500Y-68156243D01*
X117143501Y-68158372D01*
X117143747Y-68160498D01*
X117143748Y-68160505D01*
X117145676Y-68177131D01*
X117145676Y-68177134D01*
X117146318Y-68182662D01*
X117148565Y-68187752D01*
X117148566Y-68187754D01*
X117189295Y-68279996D01*
X117195600Y-68309886D01*
X117195600Y-68355500D01*
X117185686Y-68392500D01*
X117158600Y-68419586D01*
X117121600Y-68429500D01*
X116202800Y-68429500D01*
X116165800Y-68419586D01*
X116138714Y-68392500D01*
X116128800Y-68355500D01*
X116128800Y-65758400D01*
X116138714Y-65721400D01*
X116165800Y-65694314D01*
X116202800Y-65684400D01*
X117121600Y-65684400D01*
X117158600Y-65694314D01*
G37*
%TD.AperFunction*%
%TD*%
%TA.AperFunction,Conductor*%
%TO.N,3.3V*%
G36*
X124624164Y-60872141D02*
G01*
X124650430Y-60912451D01*
X124646359Y-60960391D01*
X124641565Y-60971246D01*
X124641562Y-60971253D01*
X124639318Y-60976338D01*
X124638677Y-60981856D01*
X124638676Y-60981863D01*
X124636746Y-60998498D01*
X124636745Y-60998515D01*
X124636500Y-61000627D01*
X124636500Y-61002769D01*
X124636500Y-61002770D01*
X124636500Y-61425226D01*
X124636500Y-61425243D01*
X124636501Y-61427372D01*
X124636747Y-61429498D01*
X124636748Y-61429505D01*
X124638676Y-61446131D01*
X124638676Y-61446134D01*
X124639318Y-61451662D01*
X124683187Y-61551016D01*
X124759984Y-61627813D01*
X124859338Y-61671682D01*
X124883627Y-61674500D01*
X125250372Y-61674499D01*
X125274662Y-61671682D01*
X125274856Y-61673357D01*
X125311509Y-61674917D01*
X125347022Y-61702449D01*
X125360058Y-61745451D01*
X125355634Y-62058318D01*
X125349808Y-62086069D01*
X125346484Y-62091005D01*
X125342000Y-62107743D01*
X125342000Y-62374000D01*
X125332086Y-62411000D01*
X125305000Y-62438086D01*
X125268000Y-62448000D01*
X124901743Y-62448000D01*
X124894059Y-62450059D01*
X124889479Y-62467152D01*
X124887473Y-62466614D01*
X124881833Y-62487383D01*
X124854125Y-62514531D01*
X124816490Y-62523933D01*
X124176890Y-62510879D01*
X124140532Y-62500471D01*
X124114064Y-62473457D01*
X124104400Y-62436894D01*
X124104400Y-62288257D01*
X124892000Y-62288257D01*
X124894059Y-62295940D01*
X124901743Y-62298000D01*
X125182257Y-62298000D01*
X125189940Y-62295940D01*
X125192000Y-62288257D01*
X125192000Y-62107743D01*
X125189940Y-62100059D01*
X125182256Y-62098000D01*
X124985786Y-62098000D01*
X124978589Y-62098709D01*
X124960127Y-62102380D01*
X124946923Y-62107850D01*
X124925964Y-62121854D01*
X124915854Y-62131964D01*
X124901850Y-62152923D01*
X124896380Y-62166128D01*
X124892710Y-62184580D01*
X124892000Y-62191791D01*
X124892000Y-62288257D01*
X124104400Y-62288257D01*
X124104400Y-61730407D01*
X124104400Y-61722000D01*
X124097790Y-61716807D01*
X124097790Y-61716806D01*
X123777081Y-61464821D01*
X123756245Y-61438981D01*
X123748800Y-61406633D01*
X123748800Y-60930500D01*
X123758714Y-60893500D01*
X123785800Y-60866414D01*
X123822800Y-60856500D01*
X124578665Y-60856500D01*
X124624164Y-60872141D01*
G37*
%TD.AperFunction*%
%TD*%
%TA.AperFunction,Conductor*%
%TO.N,GND*%
G36*
X121109500Y-67015114D02*
G01*
X121136586Y-67042200D01*
X121146500Y-67079200D01*
X121146500Y-67385820D01*
X121155233Y-67429722D01*
X121159280Y-67435780D01*
X121162071Y-67442516D01*
X121159538Y-67443564D01*
X121168689Y-67480095D01*
X121147371Y-67525167D01*
X121064472Y-67608066D01*
X121053262Y-67617266D01*
X121044460Y-67623147D01*
X121044454Y-67623152D01*
X121038399Y-67627199D01*
X121034353Y-67633253D01*
X121034349Y-67633258D01*
X121002942Y-67680263D01*
X120987080Y-67704002D01*
X120987078Y-67704005D01*
X120983034Y-67710059D01*
X120981612Y-67717202D01*
X120978823Y-67723939D01*
X120978655Y-67723869D01*
X120970744Y-67742967D01*
X120950328Y-67763383D01*
X120914459Y-67787349D01*
X120914456Y-67787351D01*
X120908399Y-67791399D01*
X120904351Y-67797456D01*
X120904349Y-67797459D01*
X120875075Y-67841272D01*
X120853034Y-67874260D01*
X120851613Y-67881403D01*
X120851612Y-67881406D01*
X120851391Y-67882518D01*
X120838500Y-67947326D01*
X120838500Y-68196674D01*
X120853034Y-68269740D01*
X120857081Y-68275798D01*
X120857083Y-68275801D01*
X120882866Y-68314389D01*
X120895248Y-68351870D01*
X120886599Y-68390384D01*
X120859380Y-68418972D01*
X120821337Y-68429500D01*
X120419200Y-68429500D01*
X120382200Y-68419586D01*
X120355114Y-68392500D01*
X120345200Y-68355500D01*
X120345200Y-67595500D01*
X120355114Y-67558500D01*
X120382200Y-67531414D01*
X120419200Y-67521500D01*
X120658180Y-67521500D01*
X120661820Y-67521500D01*
X120705722Y-67512767D01*
X120755504Y-67479504D01*
X120788767Y-67429722D01*
X120797500Y-67385820D01*
X120797500Y-67079200D01*
X120807414Y-67042200D01*
X120834500Y-67015114D01*
X120871500Y-67005200D01*
X121072500Y-67005200D01*
X121109500Y-67015114D01*
G37*
%TD.AperFunction*%
%TD*%
%TA.AperFunction,Conductor*%
%TO.N,3.3V*%
G36*
X127115400Y-65338714D02*
G01*
X127142486Y-65365800D01*
X127152400Y-65402800D01*
X127152400Y-67032800D01*
X127142486Y-67069800D01*
X127115400Y-67096886D01*
X127078400Y-67106800D01*
X126870800Y-67106800D01*
X126833800Y-67096886D01*
X126806714Y-67069800D01*
X126796800Y-67032800D01*
X126796800Y-66200464D01*
X126796800Y-66192400D01*
X126492800Y-65935169D01*
X126473469Y-65909813D01*
X126466600Y-65878678D01*
X126466600Y-65402800D01*
X126476514Y-65365800D01*
X126503600Y-65338714D01*
X126540600Y-65328800D01*
X127078400Y-65328800D01*
X127115400Y-65338714D01*
G37*
%TD.AperFunction*%
%TD*%
%TA.AperFunction,Conductor*%
%TO.N,3.3V*%
G36*
X133543500Y-60866414D02*
G01*
X133570586Y-60893500D01*
X133580500Y-60930500D01*
X133580500Y-61375500D01*
X133570586Y-61412500D01*
X133543500Y-61439586D01*
X133506500Y-61449500D01*
X132923822Y-61449500D01*
X132921516Y-61449791D01*
X132921505Y-61449792D01*
X132805560Y-61464440D01*
X132805558Y-61464440D01*
X132800939Y-61465024D01*
X132796615Y-61466735D01*
X132796607Y-61466738D01*
X132651517Y-61524184D01*
X132651515Y-61524184D01*
X132647186Y-61525899D01*
X132643424Y-61528631D01*
X132643417Y-61528636D01*
X132517170Y-61620360D01*
X132517164Y-61620364D01*
X132513403Y-61623098D01*
X132510437Y-61626682D01*
X132510434Y-61626686D01*
X132410964Y-61746924D01*
X132410960Y-61746928D01*
X132407995Y-61750514D01*
X132406015Y-61754721D01*
X132406011Y-61754728D01*
X132339568Y-61895927D01*
X132339565Y-61895933D01*
X132337586Y-61900141D01*
X132336714Y-61904711D01*
X132336713Y-61904715D01*
X132324456Y-61968965D01*
X132319912Y-61980121D01*
X132319965Y-61980139D01*
X132313162Y-62000177D01*
X132308600Y-62001400D01*
X132308600Y-62013617D01*
X132308600Y-62045098D01*
X132307657Y-62055066D01*
X132307472Y-62058005D01*
X132306600Y-62062577D01*
X132306892Y-62067220D01*
X132306892Y-62067223D01*
X132308454Y-62092046D01*
X132308600Y-62096692D01*
X132308600Y-63266017D01*
X132298686Y-63303017D01*
X132271600Y-63330103D01*
X132234600Y-63340017D01*
X132128600Y-63340017D01*
X132091600Y-63330103D01*
X132064514Y-63303017D01*
X132054600Y-63266017D01*
X132054600Y-62643069D01*
X132054600Y-62636400D01*
X131895108Y-62454123D01*
X131881528Y-62431424D01*
X131876800Y-62405396D01*
X131876800Y-61502982D01*
X131889271Y-61461870D01*
X131904160Y-61439586D01*
X131922766Y-61411740D01*
X131937300Y-61338674D01*
X131937300Y-61089326D01*
X131922766Y-61016260D01*
X131918716Y-61010198D01*
X131892934Y-60971611D01*
X131880552Y-60934130D01*
X131889201Y-60895616D01*
X131916420Y-60867028D01*
X131954463Y-60856500D01*
X133506500Y-60856500D01*
X133543500Y-60866414D01*
G37*
%TD.AperFunction*%
%TD*%
%TA.AperFunction,Conductor*%
%TO.N,GND*%
G36*
X123704500Y-67015114D02*
G01*
X123731586Y-67042200D01*
X123741500Y-67079200D01*
X123741500Y-67385820D01*
X123750233Y-67429722D01*
X123783496Y-67479504D01*
X123789559Y-67483555D01*
X123794710Y-67488706D01*
X123793231Y-67490184D01*
X123807779Y-67506258D01*
X123816500Y-67541110D01*
X123816500Y-67675606D01*
X123807762Y-67710490D01*
X123783612Y-67737135D01*
X123708459Y-67787349D01*
X123708456Y-67787351D01*
X123702399Y-67791399D01*
X123698351Y-67797456D01*
X123698349Y-67797459D01*
X123682286Y-67821500D01*
X123647034Y-67874260D01*
X123645613Y-67881403D01*
X123645612Y-67881406D01*
X123642865Y-67895217D01*
X123632500Y-67947326D01*
X123632500Y-68196674D01*
X123633210Y-68200241D01*
X123633210Y-68200244D01*
X123643624Y-68252601D01*
X123647034Y-68269740D01*
X123651081Y-68275798D01*
X123651083Y-68275801D01*
X123676866Y-68314389D01*
X123689248Y-68351870D01*
X123680599Y-68390384D01*
X123653380Y-68418972D01*
X123615337Y-68429500D01*
X123063245Y-68429500D01*
X123025059Y-68418887D01*
X122997827Y-68390091D01*
X122989761Y-68353209D01*
X122989418Y-68353213D01*
X122988346Y-68245705D01*
X122989763Y-68230539D01*
X122996500Y-68196674D01*
X122996500Y-67947326D01*
X122986134Y-67895217D01*
X122984716Y-67881516D01*
X122981874Y-67596237D01*
X122991540Y-67558926D01*
X123018657Y-67531537D01*
X123055870Y-67521500D01*
X123253180Y-67521500D01*
X123256820Y-67521500D01*
X123300722Y-67512767D01*
X123319423Y-67500271D01*
X123360536Y-67487800D01*
X123383457Y-67487800D01*
X123393200Y-67487800D01*
X123393200Y-67079200D01*
X123403114Y-67042200D01*
X123430200Y-67015114D01*
X123467200Y-67005200D01*
X123667500Y-67005200D01*
X123704500Y-67015114D01*
G37*
%TD.AperFunction*%
%TD*%
%TA.AperFunction,Conductor*%
%TO.N,GND*%
G36*
X127030000Y-64532914D02*
G01*
X127057086Y-64560000D01*
X127067000Y-64597000D01*
X127067000Y-64963256D01*
X127069059Y-64970939D01*
X127076743Y-64972999D01*
X127173214Y-64972999D01*
X127180410Y-64972290D01*
X127198872Y-64968619D01*
X127212076Y-64963149D01*
X127233035Y-64949145D01*
X127243145Y-64939035D01*
X127257149Y-64918076D01*
X127262619Y-64904871D01*
X127267000Y-64882849D01*
X127267802Y-64883008D01*
X127278296Y-64853685D01*
X127304941Y-64829537D01*
X127339823Y-64820800D01*
X127762333Y-64820800D01*
X127802997Y-64832974D01*
X127830282Y-64865492D01*
X127835208Y-64907653D01*
X127832881Y-64920850D01*
X127852814Y-65033895D01*
X127910208Y-65133305D01*
X127915166Y-65137465D01*
X127965198Y-65179447D01*
X127984660Y-65204777D01*
X127991632Y-65235950D01*
X127995912Y-66956416D01*
X127986059Y-66993494D01*
X127958965Y-67020655D01*
X127921912Y-67030600D01*
X127455000Y-67030600D01*
X127418000Y-67020686D01*
X127390914Y-66993600D01*
X127381000Y-66956600D01*
X127381000Y-65135343D01*
X127381000Y-65125600D01*
X127371257Y-65125600D01*
X126845400Y-65125600D01*
X126808400Y-65115686D01*
X126781314Y-65088600D01*
X126771400Y-65051600D01*
X126771400Y-65047000D01*
X126781314Y-65010000D01*
X126808400Y-64982914D01*
X126845400Y-64973000D01*
X126907257Y-64973000D01*
X126914940Y-64970940D01*
X126917000Y-64963257D01*
X126917000Y-64597000D01*
X126926914Y-64560000D01*
X126954000Y-64532914D01*
X126991000Y-64523000D01*
X126993000Y-64523000D01*
X127030000Y-64532914D01*
G37*
%TD.AperFunction*%
%TD*%
%TA.AperFunction,Conductor*%
%TO.N,GND*%
G36*
X128309200Y-60866414D02*
G01*
X128336286Y-60893500D01*
X128346200Y-60930500D01*
X128346200Y-62474152D01*
X128340567Y-62502472D01*
X128324524Y-62526479D01*
X128322555Y-62528446D01*
X128316496Y-62532496D01*
X128283233Y-62582278D01*
X128281811Y-62589421D01*
X128281811Y-62589424D01*
X128280766Y-62594679D01*
X128274500Y-62626180D01*
X128274500Y-62905820D01*
X128283233Y-62949722D01*
X128293086Y-62964469D01*
X128300048Y-62974888D01*
X128312519Y-63016000D01*
X128300047Y-63057112D01*
X128283233Y-63082278D01*
X128281811Y-63089421D01*
X128281811Y-63089424D01*
X128280766Y-63094679D01*
X128274500Y-63126180D01*
X128274500Y-63405820D01*
X128283233Y-63449722D01*
X128293086Y-63464469D01*
X128300048Y-63474888D01*
X128312519Y-63516000D01*
X128300047Y-63557112D01*
X128283233Y-63582278D01*
X128281811Y-63589421D01*
X128281811Y-63589424D01*
X128280766Y-63594679D01*
X128274500Y-63626180D01*
X128274500Y-63905820D01*
X128283233Y-63949722D01*
X128293086Y-63964469D01*
X128300048Y-63974888D01*
X128312519Y-64016000D01*
X128300047Y-64057112D01*
X128283233Y-64082278D01*
X128281811Y-64089421D01*
X128281811Y-64089424D01*
X128280766Y-64094679D01*
X128274500Y-64126180D01*
X128274500Y-64405820D01*
X128275209Y-64409386D01*
X128275210Y-64409392D01*
X128279254Y-64429722D01*
X128276749Y-64467945D01*
X128255467Y-64499794D01*
X128221113Y-64516736D01*
X128180437Y-64524827D01*
X128137681Y-64520616D01*
X128104471Y-64493361D01*
X128096370Y-64466656D01*
X128094521Y-64467152D01*
X128089940Y-64450059D01*
X128082257Y-64448000D01*
X127889000Y-64448000D01*
X127889000Y-64298000D01*
X128082256Y-64298000D01*
X128089939Y-64295940D01*
X128091999Y-64288257D01*
X128091999Y-64191786D01*
X128091290Y-64184589D01*
X128087619Y-64166128D01*
X128081485Y-64151320D01*
X128075851Y-64123000D01*
X128081485Y-64094679D01*
X128087619Y-64079869D01*
X128091289Y-64061419D01*
X128092000Y-64054209D01*
X128092000Y-63957743D01*
X128089940Y-63950059D01*
X128082257Y-63948000D01*
X127889000Y-63948000D01*
X127889000Y-63798000D01*
X128082256Y-63798000D01*
X128089939Y-63795940D01*
X128091999Y-63788257D01*
X128091999Y-63691786D01*
X128091290Y-63684589D01*
X128087619Y-63666128D01*
X128081485Y-63651320D01*
X128075851Y-63623000D01*
X128081485Y-63594679D01*
X128087619Y-63579869D01*
X128091289Y-63561419D01*
X128092000Y-63554209D01*
X128092000Y-63457743D01*
X128089940Y-63450059D01*
X128082257Y-63448000D01*
X127889000Y-63448000D01*
X127889000Y-63298000D01*
X128082256Y-63298000D01*
X128089939Y-63295940D01*
X128091999Y-63288257D01*
X128091999Y-63191786D01*
X128091290Y-63184589D01*
X128087619Y-63166128D01*
X128081485Y-63151320D01*
X128075851Y-63123000D01*
X128081485Y-63094679D01*
X128087619Y-63079869D01*
X128091289Y-63061419D01*
X128092000Y-63054209D01*
X128092000Y-62957743D01*
X128089940Y-62950059D01*
X128082257Y-62948000D01*
X127889000Y-62948000D01*
X127889000Y-62798000D01*
X128082256Y-62798000D01*
X128089939Y-62795940D01*
X128091999Y-62788257D01*
X128091999Y-62691786D01*
X128091290Y-62684589D01*
X128087619Y-62666128D01*
X128081485Y-62651320D01*
X128075851Y-62623000D01*
X128081485Y-62594679D01*
X128087619Y-62579869D01*
X128091289Y-62561419D01*
X128092000Y-62554209D01*
X128092000Y-62457743D01*
X128089940Y-62450059D01*
X128082257Y-62448000D01*
X127889000Y-62448000D01*
X127889000Y-62298000D01*
X128082256Y-62298000D01*
X128089939Y-62295940D01*
X128091999Y-62288257D01*
X128091999Y-62191786D01*
X128091290Y-62184589D01*
X128087619Y-62166127D01*
X128082149Y-62152923D01*
X128068145Y-62131964D01*
X128058035Y-62121854D01*
X128037076Y-62107850D01*
X128023871Y-62102380D01*
X128005419Y-62098710D01*
X127998209Y-62098000D01*
X127935910Y-62098000D01*
X127909019Y-62092941D01*
X127889000Y-62080450D01*
X127889000Y-62077600D01*
X127878771Y-62078452D01*
X127878769Y-62078452D01*
X127801192Y-62084916D01*
X127801186Y-62084917D01*
X127635089Y-62098759D01*
X127632256Y-62098000D01*
X127435786Y-62098000D01*
X127428587Y-62098709D01*
X127414159Y-62101579D01*
X127399726Y-62103000D01*
X127391500Y-62103000D01*
X127354500Y-62093086D01*
X127327414Y-62066000D01*
X127317500Y-62029000D01*
X127317500Y-61861820D01*
X127317500Y-61858180D01*
X127308767Y-61814278D01*
X127275504Y-61764496D01*
X127273178Y-61762942D01*
X127259633Y-61742670D01*
X127254000Y-61714351D01*
X127254000Y-61700512D01*
X127259633Y-61672193D01*
X127275674Y-61648186D01*
X127307186Y-61616674D01*
X127331193Y-61600633D01*
X127359512Y-61595000D01*
X127726858Y-61595000D01*
X127736600Y-61595000D01*
X127736567Y-60930503D01*
X127746480Y-60893502D01*
X127773566Y-60866415D01*
X127810567Y-60856500D01*
X128272200Y-60856500D01*
X128309200Y-60866414D01*
G37*
%TD.AperFunction*%
%TD*%
%TA.AperFunction,Conductor*%
%TO.N,GND*%
G36*
X118073000Y-65694314D02*
G01*
X118100086Y-65721400D01*
X118110000Y-65758400D01*
X118110000Y-67126948D01*
X118104367Y-67155267D01*
X118088326Y-67179274D01*
X117962753Y-67304846D01*
X117962750Y-67304849D01*
X117957600Y-67310000D01*
X117957600Y-67317288D01*
X117957600Y-68355500D01*
X117947686Y-68392500D01*
X117920600Y-68419586D01*
X117883600Y-68429500D01*
X117447400Y-68429500D01*
X117410400Y-68419586D01*
X117383314Y-68392500D01*
X117373400Y-68355500D01*
X117373400Y-65758400D01*
X117383314Y-65721400D01*
X117410400Y-65694314D01*
X117447400Y-65684400D01*
X118036000Y-65684400D01*
X118073000Y-65694314D01*
G37*
%TD.AperFunction*%
%TD*%
%TA.AperFunction,Conductor*%
%TO.N,GND*%
G36*
X120128468Y-62575771D02*
G01*
X120155796Y-62594031D01*
X120173264Y-62610345D01*
X120176526Y-62614572D01*
X120176533Y-62614581D01*
X120177293Y-62615565D01*
X120190663Y-62630638D01*
X120191555Y-62631515D01*
X120191556Y-62631516D01*
X120204894Y-62644630D01*
X120204906Y-62644641D01*
X120205795Y-62645515D01*
X120223218Y-62660449D01*
X120245612Y-62676438D01*
X120268097Y-62689656D01*
X120319494Y-62708669D01*
X120345168Y-62713266D01*
X120372575Y-62715700D01*
X120374202Y-62715700D01*
X120449000Y-62715700D01*
X120486000Y-62725614D01*
X120513086Y-62752700D01*
X120523000Y-62789700D01*
X120523000Y-63576200D01*
X120525610Y-63576200D01*
X120530026Y-63592680D01*
X120530811Y-63594576D01*
X120532233Y-63601722D01*
X120536280Y-63607779D01*
X120536281Y-63607781D01*
X120561529Y-63645567D01*
X120574000Y-63686679D01*
X120574000Y-63783257D01*
X120576059Y-63790940D01*
X120583743Y-63793000D01*
X120950000Y-63793000D01*
X120987000Y-63802914D01*
X121014086Y-63830000D01*
X121024000Y-63867000D01*
X121024000Y-63869000D01*
X121014086Y-63906000D01*
X120987000Y-63933086D01*
X120950000Y-63943000D01*
X120583744Y-63943000D01*
X120576060Y-63945059D01*
X120574001Y-63952743D01*
X120574001Y-64010200D01*
X120564087Y-64047200D01*
X120537001Y-64074286D01*
X120500001Y-64084200D01*
X120413894Y-64084200D01*
X120372782Y-64071729D01*
X120345527Y-64038519D01*
X120341316Y-63995763D01*
X120341885Y-63992898D01*
X120347500Y-63964674D01*
X120347500Y-63655326D01*
X120332966Y-63582260D01*
X120277601Y-63499399D01*
X120194740Y-63444034D01*
X120187594Y-63442612D01*
X120187593Y-63442612D01*
X120125244Y-63430210D01*
X120125242Y-63430209D01*
X120121674Y-63429500D01*
X119872326Y-63429500D01*
X119868758Y-63430209D01*
X119868755Y-63430210D01*
X119806408Y-63442612D01*
X119806407Y-63442612D01*
X119799260Y-63444034D01*
X119794026Y-63447530D01*
X119763069Y-63452927D01*
X119761871Y-63452870D01*
X119755284Y-63452556D01*
X119719789Y-63441522D01*
X119694136Y-63414621D01*
X119684800Y-63378640D01*
X119684800Y-62637300D01*
X119694714Y-62600300D01*
X119721800Y-62573214D01*
X119758800Y-62563300D01*
X120087356Y-62563300D01*
X120128468Y-62575771D01*
G37*
%TD.AperFunction*%
%TD*%
%TA.AperFunction,Conductor*%
%TO.N,GND*%
G36*
X122712000Y-64527914D02*
G01*
X122739086Y-64555000D01*
X122749000Y-64592000D01*
X122749000Y-64958256D01*
X122751059Y-64965939D01*
X122758743Y-64967999D01*
X122855214Y-64967999D01*
X122862410Y-64967290D01*
X122880872Y-64963619D01*
X122894076Y-64958149D01*
X122915035Y-64944145D01*
X122925145Y-64934035D01*
X122939149Y-64913076D01*
X122946033Y-64896459D01*
X122979516Y-64859515D01*
X123028837Y-64852199D01*
X123071603Y-64877832D01*
X123088400Y-64924777D01*
X123088400Y-65229400D01*
X123078486Y-65266400D01*
X123051400Y-65293486D01*
X123014400Y-65303400D01*
X122250200Y-65303400D01*
X122250200Y-65313143D01*
X122250200Y-65877464D01*
X122237730Y-65918574D01*
X122229488Y-65930910D01*
X122202843Y-65955062D01*
X122167958Y-65963800D01*
X121871042Y-65963800D01*
X121836157Y-65955061D01*
X121809511Y-65930909D01*
X121805469Y-65924859D01*
X121793000Y-65883750D01*
X121793000Y-65313143D01*
X121793000Y-65303400D01*
X121783257Y-65303400D01*
X121384400Y-65303400D01*
X121347400Y-65293486D01*
X121320314Y-65266400D01*
X121310400Y-65229400D01*
X121310400Y-65061430D01*
X121320928Y-65023387D01*
X121349516Y-64996168D01*
X121388030Y-64987519D01*
X121425511Y-64999901D01*
X121434216Y-65005717D01*
X121434217Y-65005717D01*
X121440278Y-65009767D01*
X121484180Y-65018500D01*
X121860180Y-65018500D01*
X121863820Y-65018500D01*
X121907722Y-65009767D01*
X121907923Y-65010781D01*
X121924000Y-65007582D01*
X121940076Y-65010781D01*
X121940278Y-65009767D01*
X121984180Y-65018500D01*
X122360180Y-65018500D01*
X122363820Y-65018500D01*
X122407722Y-65009767D01*
X122451566Y-64980471D01*
X122492679Y-64968000D01*
X122589257Y-64968000D01*
X122596940Y-64965940D01*
X122599000Y-64958257D01*
X122599000Y-64592000D01*
X122608914Y-64555000D01*
X122636000Y-64527914D01*
X122673000Y-64518000D01*
X122675000Y-64518000D01*
X122712000Y-64527914D01*
G37*
%TD.AperFunction*%
%TD*%
%TA.AperFunction,Conductor*%
%TO.N,GND*%
G36*
X124804500Y-62697114D02*
G01*
X124831586Y-62724200D01*
X124841500Y-62761200D01*
X124841500Y-63062820D01*
X124842210Y-63066389D01*
X124850233Y-63106722D01*
X124849221Y-63106923D01*
X124852417Y-63122985D01*
X124849221Y-63139076D01*
X124850233Y-63139278D01*
X124841500Y-63183180D01*
X124841500Y-63562820D01*
X124850233Y-63606722D01*
X124854281Y-63612780D01*
X124879529Y-63650567D01*
X124892000Y-63691679D01*
X124892000Y-63788257D01*
X124894059Y-63795940D01*
X124901743Y-63798000D01*
X125268000Y-63798000D01*
X125305000Y-63807914D01*
X125323600Y-63826514D01*
X125323600Y-63919486D01*
X125305000Y-63938086D01*
X125268000Y-63948000D01*
X124901744Y-63948000D01*
X124894060Y-63950059D01*
X124892001Y-63957743D01*
X124892001Y-63959400D01*
X124882087Y-63996400D01*
X124855001Y-64023486D01*
X124818001Y-64033400D01*
X124757500Y-64033400D01*
X124720500Y-64023486D01*
X124693414Y-63996400D01*
X124683500Y-63959400D01*
X124683500Y-63795966D01*
X124683500Y-63792326D01*
X124668966Y-63719260D01*
X124664916Y-63713198D01*
X124650271Y-63691279D01*
X124637800Y-63650168D01*
X124637800Y-63535143D01*
X124637800Y-63525400D01*
X124628057Y-63525400D01*
X124178400Y-63525400D01*
X124141400Y-63515486D01*
X124114314Y-63488400D01*
X124104400Y-63451400D01*
X124104400Y-62761200D01*
X124114314Y-62724200D01*
X124141400Y-62697114D01*
X124178400Y-62687200D01*
X124767500Y-62687200D01*
X124804500Y-62697114D01*
G37*
%TD.AperFunction*%
%TD*%
M02*
