%TF.GenerationSoftware,KiCad,Pcbnew,7.0.1*%
%TF.CreationDate,2023-05-23T12:13:01-04:00*%
%TF.ProjectId,imu-stamp,696d752d-7374-4616-9d70-2e6b69636164,rev?*%
%TF.SameCoordinates,Original*%
%TF.FileFunction,Copper,L2,Inr*%
%TF.FilePolarity,Positive*%
%FSLAX46Y46*%
G04 Gerber Fmt 4.6, Leading zero omitted, Abs format (unit mm)*
G04 Created by KiCad (PCBNEW 7.0.1) date 2023-05-23 12:13:01*
%MOMM*%
%LPD*%
G01*
G04 APERTURE LIST*
%TA.AperFunction,ComponentPad*%
%ADD10C,1.016000*%
%TD*%
%TA.AperFunction,ViaPad*%
%ADD11C,0.360000*%
%TD*%
%TA.AperFunction,Profile*%
%ADD12C,0.100000*%
%TD*%
G04 APERTURE END LIST*
D10*
%TO.N,3.3V*%
%TO.C,P2*%
X133934200Y-67183000D03*
X133096000Y-67183000D03*
%TO.N,/XORL2*%
X133934200Y-65913000D03*
X133096000Y-65913000D03*
%TO.N,/XORL1*%
X133934200Y-64643000D03*
X133096000Y-64643000D03*
%TO.N,GND*%
X133934200Y-63373000D03*
X133096000Y-63373000D03*
X133934200Y-62103000D03*
X133096000Y-62103000D03*
%TD*%
%TO.N,VCC*%
%TO.C,P1*%
X114477800Y-62103000D03*
X115316000Y-62103000D03*
%TO.N,GND*%
X114477800Y-63373000D03*
X115316000Y-63373000D03*
%TO.N,/SCL*%
X114477800Y-64643000D03*
X115316000Y-64643000D03*
%TO.N,/SDA*%
X114477800Y-65913000D03*
X115316000Y-65913000D03*
%TO.N,/EN*%
X114477800Y-67183000D03*
X115316000Y-67183000D03*
%TD*%
D11*
%TO.N,GND*%
X122056500Y-61214000D03*
X123497500Y-61214000D03*
X123418600Y-67744400D03*
X128590000Y-61214000D03*
X118796400Y-62179200D03*
X124333000Y-63322200D03*
X127621407Y-66604960D03*
X122254400Y-65328800D03*
X119202800Y-62179200D03*
X119997000Y-63187800D03*
X120624600Y-67716400D03*
X117830600Y-68148200D03*
X119024400Y-61214000D03*
X119659400Y-65328800D03*
X125067000Y-61214000D03*
X124360181Y-65339371D03*
X125908423Y-65276251D03*
X127000000Y-61214000D03*
X117830600Y-67741800D03*
X130505200Y-61214000D03*
X120560902Y-63870152D03*
X121801701Y-65345900D03*
%TO.N,3.3V*%
X116281200Y-67741800D03*
X124942600Y-65227200D03*
X124007003Y-61214000D03*
X129836094Y-67780853D03*
X131876800Y-61214000D03*
X120954800Y-61214000D03*
X125755400Y-61214000D03*
X116281200Y-68148200D03*
X120319800Y-61214000D03*
X119822000Y-67711200D03*
X131257000Y-67183000D03*
X119659400Y-63810000D03*
X132207000Y-65512000D03*
X122283200Y-68072000D03*
X126771400Y-65227200D03*
%TO.N,VCC*%
X117246400Y-62179200D03*
X117652800Y-62179200D03*
%TO.N,/EN*%
X118425000Y-67640200D03*
%TO.N,/SDA*%
X128529512Y-64001781D03*
%TO.N,/SCL*%
X128530341Y-65514477D03*
%TO.N,/SCL_1*%
X128092200Y-66865733D03*
X124894070Y-62878892D03*
X124494658Y-66181129D03*
%TO.N,/SDA_1*%
X128659992Y-67271433D03*
X125653800Y-63388389D03*
X128290616Y-63128008D03*
X123909713Y-65101313D03*
%TO.N,/SCL_0*%
X128270000Y-65005057D03*
X130391091Y-68031855D03*
X126454153Y-68186553D03*
X121970800Y-66171000D03*
X120549633Y-62853362D03*
%TO.N,/SDA_0*%
X128669172Y-67780853D03*
X128524000Y-64511252D03*
X121364077Y-63362124D03*
X120972498Y-65227200D03*
X125165018Y-67764000D03*
%TD*%
%TA.AperFunction,Conductor*%
%TO.N,GND*%
G36*
X120123229Y-60844803D02*
G01*
X120146111Y-60874624D01*
X120147750Y-60912176D01*
X120127554Y-60943876D01*
X120062717Y-60998282D01*
X120062716Y-60998283D01*
X120004441Y-61099216D01*
X119984202Y-61214000D01*
X120004441Y-61328783D01*
X120040560Y-61391341D01*
X120062717Y-61429718D01*
X120152001Y-61504636D01*
X120261524Y-61544500D01*
X120378075Y-61544500D01*
X120378076Y-61544500D01*
X120487599Y-61504636D01*
X120576883Y-61429718D01*
X120583174Y-61418820D01*
X120615924Y-61391341D01*
X120658676Y-61391341D01*
X120691425Y-61418820D01*
X120697717Y-61429718D01*
X120787001Y-61504636D01*
X120896524Y-61544500D01*
X121013075Y-61544500D01*
X121013076Y-61544500D01*
X121122599Y-61504636D01*
X121211883Y-61429718D01*
X121270159Y-61328781D01*
X121290398Y-61214000D01*
X121270159Y-61099219D01*
X121270158Y-61099217D01*
X121270158Y-61099216D01*
X121234039Y-61036658D01*
X121211883Y-60998282D01*
X121147045Y-60943876D01*
X121126850Y-60912176D01*
X121128489Y-60874624D01*
X121151371Y-60844803D01*
X121187220Y-60833500D01*
X123774583Y-60833500D01*
X123810432Y-60844803D01*
X123833314Y-60874624D01*
X123834953Y-60912176D01*
X123814757Y-60943876D01*
X123749920Y-60998282D01*
X123749919Y-60998283D01*
X123691644Y-61099216D01*
X123671405Y-61214000D01*
X123691644Y-61328783D01*
X123727763Y-61391341D01*
X123749920Y-61429718D01*
X123839204Y-61504636D01*
X123948727Y-61544500D01*
X124065278Y-61544500D01*
X124065279Y-61544500D01*
X124174802Y-61504636D01*
X124264086Y-61429718D01*
X124322362Y-61328781D01*
X124342601Y-61214000D01*
X124322362Y-61099219D01*
X124322361Y-61099217D01*
X124322361Y-61099216D01*
X124286242Y-61036658D01*
X124264086Y-60998282D01*
X124199248Y-60943876D01*
X124179053Y-60912176D01*
X124180692Y-60874624D01*
X124203574Y-60844803D01*
X124239423Y-60833500D01*
X125522980Y-60833500D01*
X125558829Y-60844803D01*
X125581711Y-60874624D01*
X125583350Y-60912176D01*
X125563154Y-60943876D01*
X125498317Y-60998282D01*
X125498316Y-60998283D01*
X125440041Y-61099216D01*
X125419802Y-61214000D01*
X125440041Y-61328783D01*
X125476160Y-61391341D01*
X125498317Y-61429718D01*
X125587601Y-61504636D01*
X125697124Y-61544500D01*
X125813675Y-61544500D01*
X125813676Y-61544500D01*
X125923199Y-61504636D01*
X126012483Y-61429718D01*
X126070759Y-61328781D01*
X126090998Y-61214000D01*
X126070759Y-61099219D01*
X126070758Y-61099217D01*
X126070758Y-61099216D01*
X126034639Y-61036658D01*
X126012483Y-60998282D01*
X125947645Y-60943876D01*
X125927450Y-60912176D01*
X125929089Y-60874624D01*
X125951971Y-60844803D01*
X125987820Y-60833500D01*
X131644380Y-60833500D01*
X131680229Y-60844803D01*
X131703111Y-60874624D01*
X131704750Y-60912176D01*
X131684554Y-60943876D01*
X131619717Y-60998282D01*
X131619716Y-60998283D01*
X131561441Y-61099216D01*
X131541202Y-61214000D01*
X131561441Y-61328783D01*
X131597560Y-61391341D01*
X131619717Y-61429718D01*
X131709001Y-61504636D01*
X131818524Y-61544500D01*
X131935075Y-61544500D01*
X131935076Y-61544500D01*
X132044599Y-61504636D01*
X132133883Y-61429718D01*
X132192159Y-61328781D01*
X132212398Y-61214000D01*
X132192159Y-61099219D01*
X132192158Y-61099217D01*
X132192158Y-61099216D01*
X132156039Y-61036658D01*
X132133883Y-60998282D01*
X132069045Y-60943876D01*
X132048850Y-60912176D01*
X132050489Y-60874624D01*
X132073371Y-60844803D01*
X132109220Y-60833500D01*
X133541000Y-60833500D01*
X133585194Y-60851806D01*
X133603500Y-60896000D01*
X133603500Y-64035098D01*
X133594486Y-64067432D01*
X133570044Y-64090439D01*
X133565104Y-64093031D01*
X133557379Y-64097086D01*
X133556539Y-64097831D01*
X133554456Y-64098620D01*
X133550662Y-64100612D01*
X133550420Y-64100150D01*
X133515095Y-64113544D01*
X133479780Y-64100149D01*
X133479538Y-64100612D01*
X133475725Y-64098611D01*
X133473653Y-64097825D01*
X133472817Y-64097084D01*
X133331223Y-64022769D01*
X133175956Y-63984500D01*
X133016044Y-63984500D01*
X132860776Y-64022769D01*
X132719182Y-64097085D01*
X132599485Y-64203127D01*
X132508645Y-64334731D01*
X132451938Y-64484252D01*
X132432663Y-64643000D01*
X132451938Y-64801747D01*
X132487950Y-64896700D01*
X132508645Y-64951268D01*
X132599486Y-65082873D01*
X132719182Y-65188915D01*
X132775681Y-65218568D01*
X132783476Y-65222659D01*
X132812869Y-65255837D01*
X132812869Y-65300163D01*
X132783476Y-65333341D01*
X132719180Y-65367086D01*
X132627956Y-65447904D01*
X132587629Y-65463612D01*
X132546766Y-65449357D01*
X132524961Y-65411975D01*
X132522359Y-65397219D01*
X132522358Y-65397217D01*
X132522358Y-65397216D01*
X132476061Y-65317029D01*
X132464083Y-65296282D01*
X132374799Y-65221364D01*
X132265276Y-65181500D01*
X132148724Y-65181500D01*
X132039201Y-65221364D01*
X131950621Y-65295691D01*
X131949916Y-65296283D01*
X131891641Y-65397216D01*
X131871402Y-65512000D01*
X131891641Y-65626783D01*
X131943031Y-65715791D01*
X131949917Y-65727718D01*
X132039201Y-65802636D01*
X132148724Y-65842500D01*
X132265275Y-65842500D01*
X132265276Y-65842500D01*
X132353665Y-65810327D01*
X132395361Y-65809955D01*
X132428013Y-65835891D01*
X132437084Y-65876592D01*
X132432663Y-65912999D01*
X132451938Y-66071747D01*
X132493422Y-66181128D01*
X132508645Y-66221268D01*
X132599486Y-66352873D01*
X132719182Y-66458915D01*
X132775681Y-66488568D01*
X132783476Y-66492659D01*
X132812869Y-66525837D01*
X132812869Y-66570163D01*
X132783476Y-66603341D01*
X132719180Y-66637086D01*
X132599485Y-66743127D01*
X132508645Y-66874731D01*
X132451938Y-67024252D01*
X132432663Y-67183000D01*
X132451938Y-67341747D01*
X132508645Y-67491268D01*
X132532675Y-67526082D01*
X132599486Y-67622873D01*
X132719182Y-67728915D01*
X132786029Y-67763999D01*
X132860776Y-67803230D01*
X133016044Y-67841500D01*
X133175956Y-67841500D01*
X133331223Y-67803230D01*
X133405971Y-67763999D01*
X133472818Y-67728915D01*
X133473651Y-67728176D01*
X133475719Y-67727392D01*
X133479538Y-67725388D01*
X133479781Y-67725851D01*
X133515095Y-67712455D01*
X133550419Y-67725849D01*
X133550662Y-67725388D01*
X133554466Y-67727384D01*
X133556543Y-67728172D01*
X133557380Y-67728914D01*
X133557382Y-67728915D01*
X133570044Y-67735560D01*
X133594486Y-67758568D01*
X133603500Y-67790902D01*
X133603500Y-68390000D01*
X133585194Y-68434194D01*
X133541000Y-68452500D01*
X130556148Y-68452500D01*
X130515974Y-68437878D01*
X130494598Y-68400853D01*
X130502021Y-68358751D01*
X130534769Y-68331270D01*
X130558890Y-68322491D01*
X130648174Y-68247573D01*
X130706450Y-68146636D01*
X130726689Y-68031855D01*
X130706450Y-67917074D01*
X130706449Y-67917072D01*
X130706449Y-67917071D01*
X130671352Y-67856282D01*
X130648174Y-67816137D01*
X130558890Y-67741219D01*
X130449367Y-67701355D01*
X130332815Y-67701355D01*
X130238229Y-67735781D01*
X130202439Y-67737865D01*
X130171392Y-67719940D01*
X130155302Y-67687903D01*
X130151452Y-67666069D01*
X130105645Y-67586731D01*
X130093177Y-67565135D01*
X130003893Y-67490217D01*
X129894370Y-67450353D01*
X129777818Y-67450353D01*
X129668295Y-67490217D01*
X129599094Y-67548283D01*
X129579010Y-67565136D01*
X129520735Y-67666069D01*
X129500496Y-67780852D01*
X129520735Y-67895636D01*
X129549236Y-67945000D01*
X129579011Y-67996571D01*
X129668295Y-68071489D01*
X129777818Y-68111353D01*
X129894370Y-68111353D01*
X129894371Y-68111353D01*
X129945439Y-68092765D01*
X129988955Y-68076925D01*
X130024743Y-68074840D01*
X130055791Y-68092765D01*
X130071881Y-68124802D01*
X130075731Y-68146636D01*
X130126199Y-68234048D01*
X130134008Y-68247573D01*
X130223292Y-68322491D01*
X130247412Y-68331270D01*
X130280161Y-68358751D01*
X130287584Y-68400853D01*
X130266208Y-68437878D01*
X130226034Y-68452500D01*
X126790489Y-68452500D01*
X126750315Y-68437878D01*
X126728938Y-68400853D01*
X126736363Y-68358750D01*
X126769511Y-68301336D01*
X126769511Y-68301335D01*
X126769512Y-68301334D01*
X126789751Y-68186553D01*
X126769512Y-68071772D01*
X126769511Y-68071770D01*
X126769511Y-68071769D01*
X126729133Y-68001834D01*
X126711236Y-67970835D01*
X126621952Y-67895917D01*
X126512429Y-67856053D01*
X126395877Y-67856053D01*
X126286354Y-67895917D01*
X126244741Y-67930834D01*
X126197069Y-67970836D01*
X126138794Y-68071769D01*
X126118555Y-68186552D01*
X126138794Y-68301336D01*
X126171943Y-68358750D01*
X126179368Y-68400853D01*
X126157991Y-68437878D01*
X126117817Y-68452500D01*
X122515620Y-68452500D01*
X122479771Y-68441197D01*
X122456889Y-68411376D01*
X122455250Y-68373824D01*
X122475445Y-68342123D01*
X122540283Y-68287718D01*
X122598559Y-68186781D01*
X122618798Y-68072000D01*
X122598559Y-67957219D01*
X122598558Y-67957217D01*
X122598558Y-67957216D01*
X122553273Y-67878781D01*
X122540283Y-67856282D01*
X122450999Y-67781364D01*
X122403293Y-67764000D01*
X124829420Y-67764000D01*
X124849659Y-67878783D01*
X124894943Y-67957216D01*
X124907935Y-67979718D01*
X124997219Y-68054636D01*
X125106742Y-68094500D01*
X125223293Y-68094500D01*
X125223294Y-68094500D01*
X125332817Y-68054636D01*
X125422101Y-67979718D01*
X125480377Y-67878781D01*
X125500616Y-67764000D01*
X125480377Y-67649219D01*
X125480376Y-67649217D01*
X125480376Y-67649216D01*
X125447796Y-67592787D01*
X125422101Y-67548282D01*
X125332817Y-67473364D01*
X125223294Y-67433500D01*
X125106742Y-67433500D01*
X124997219Y-67473364D01*
X124940323Y-67521105D01*
X124907934Y-67548283D01*
X124849659Y-67649216D01*
X124829420Y-67764000D01*
X122403293Y-67764000D01*
X122341476Y-67741500D01*
X122224924Y-67741500D01*
X122115401Y-67781364D01*
X122062228Y-67825981D01*
X122026116Y-67856283D01*
X121967841Y-67957216D01*
X121950664Y-68054634D01*
X121947602Y-68072000D01*
X121951569Y-68094500D01*
X121967841Y-68186783D01*
X122002938Y-68247571D01*
X122026117Y-68287718D01*
X122090954Y-68342123D01*
X122111150Y-68373824D01*
X122109511Y-68411376D01*
X122086629Y-68441197D01*
X122050780Y-68452500D01*
X116595393Y-68452500D01*
X116555219Y-68437878D01*
X116533842Y-68400853D01*
X116541267Y-68358750D01*
X116596558Y-68262983D01*
X116596558Y-68262982D01*
X116596559Y-68262981D01*
X116616798Y-68148200D01*
X116596559Y-68033419D01*
X116563551Y-67976249D01*
X116555179Y-67945000D01*
X116563552Y-67913750D01*
X116596559Y-67856581D01*
X116616798Y-67741800D01*
X116598883Y-67640200D01*
X118089402Y-67640200D01*
X118109641Y-67754983D01*
X118144949Y-67816137D01*
X118167917Y-67855918D01*
X118257201Y-67930836D01*
X118366724Y-67970700D01*
X118483275Y-67970700D01*
X118483276Y-67970700D01*
X118592799Y-67930836D01*
X118682083Y-67855918D01*
X118740359Y-67754981D01*
X118748079Y-67711200D01*
X119486402Y-67711200D01*
X119506641Y-67825983D01*
X119547019Y-67895918D01*
X119564917Y-67926918D01*
X119654201Y-68001836D01*
X119763724Y-68041700D01*
X119880275Y-68041700D01*
X119880276Y-68041700D01*
X119989799Y-68001836D01*
X120079083Y-67926918D01*
X120137359Y-67825981D01*
X120157598Y-67711200D01*
X120137359Y-67596419D01*
X120137358Y-67596417D01*
X120137358Y-67596416D01*
X120099694Y-67531182D01*
X120079083Y-67495482D01*
X119989799Y-67420564D01*
X119880276Y-67380700D01*
X119763724Y-67380700D01*
X119654201Y-67420564D01*
X119571190Y-67490218D01*
X119564916Y-67495483D01*
X119506641Y-67596416D01*
X119486402Y-67711200D01*
X118748079Y-67711200D01*
X118760598Y-67640200D01*
X118740359Y-67525419D01*
X118740358Y-67525417D01*
X118740358Y-67525416D01*
X118697488Y-67451164D01*
X118682083Y-67424482D01*
X118592799Y-67349564D01*
X118483276Y-67309700D01*
X118366724Y-67309700D01*
X118257201Y-67349564D01*
X118198621Y-67398718D01*
X118167916Y-67424483D01*
X118109641Y-67525416D01*
X118089402Y-67640200D01*
X116598883Y-67640200D01*
X116596559Y-67627019D01*
X116596558Y-67627017D01*
X116596558Y-67627016D01*
X116554848Y-67554774D01*
X116538283Y-67526082D01*
X116448999Y-67451164D01*
X116339476Y-67411300D01*
X116222924Y-67411300D01*
X116113401Y-67451164D01*
X116113399Y-67451165D01*
X116113400Y-67451165D01*
X116024115Y-67526083D01*
X116020782Y-67531857D01*
X115993828Y-67553413D01*
X115989101Y-67586731D01*
X115965841Y-67627018D01*
X115945602Y-67741800D01*
X115965841Y-67856581D01*
X115998847Y-67913750D01*
X116007220Y-67945000D01*
X115998847Y-67976250D01*
X115965841Y-68033418D01*
X115945602Y-68148200D01*
X115965841Y-68262983D01*
X116021133Y-68358750D01*
X116028558Y-68400853D01*
X116007181Y-68437878D01*
X115967007Y-68452500D01*
X114871000Y-68452500D01*
X114826806Y-68434194D01*
X114808500Y-68390000D01*
X114808500Y-67790902D01*
X114817514Y-67758568D01*
X114841955Y-67735561D01*
X114843820Y-67734581D01*
X114854618Y-67728915D01*
X114855451Y-67728176D01*
X114857519Y-67727392D01*
X114861338Y-67725388D01*
X114861581Y-67725851D01*
X114896894Y-67712455D01*
X114932219Y-67725849D01*
X114932462Y-67725388D01*
X114936261Y-67727382D01*
X114938342Y-67728171D01*
X114939182Y-67728915D01*
X114983304Y-67752071D01*
X115080776Y-67803230D01*
X115236044Y-67841500D01*
X115395956Y-67841500D01*
X115551223Y-67803230D01*
X115593860Y-67780852D01*
X115692818Y-67728915D01*
X115812514Y-67622873D01*
X115883539Y-67519975D01*
X115908470Y-67503497D01*
X115908219Y-67478442D01*
X115910043Y-67473634D01*
X115960061Y-67341747D01*
X115979336Y-67183000D01*
X115960061Y-67024253D01*
X115903355Y-66874732D01*
X115897143Y-66865733D01*
X127756602Y-66865733D01*
X127776841Y-66980516D01*
X127828231Y-67069524D01*
X127835117Y-67081451D01*
X127924401Y-67156369D01*
X128033924Y-67196233D01*
X128150475Y-67196233D01*
X128150476Y-67196233D01*
X128248768Y-67160457D01*
X128291518Y-67160457D01*
X128324268Y-67187938D01*
X128331693Y-67230041D01*
X128324394Y-67271432D01*
X128344633Y-67386216D01*
X128408419Y-67496695D01*
X128407004Y-67497511D01*
X128420625Y-67521105D01*
X128413201Y-67563207D01*
X128353813Y-67666071D01*
X128333574Y-67780852D01*
X128353813Y-67895636D01*
X128382314Y-67945000D01*
X128412089Y-67996571D01*
X128501373Y-68071489D01*
X128610896Y-68111353D01*
X128727447Y-68111353D01*
X128727448Y-68111353D01*
X128836971Y-68071489D01*
X128926255Y-67996571D01*
X128984531Y-67895634D01*
X129004770Y-67780853D01*
X128984531Y-67666072D01*
X128984530Y-67666070D01*
X128984530Y-67666069D01*
X128920745Y-67555591D01*
X128922159Y-67554774D01*
X128908538Y-67531182D01*
X128915962Y-67489078D01*
X128937852Y-67451165D01*
X128975351Y-67386214D01*
X128995590Y-67271433D01*
X128979997Y-67182999D01*
X130921402Y-67182999D01*
X130941641Y-67297783D01*
X130989514Y-67380700D01*
X130999917Y-67398718D01*
X131089201Y-67473636D01*
X131198724Y-67513500D01*
X131315275Y-67513500D01*
X131315276Y-67513500D01*
X131424799Y-67473636D01*
X131514083Y-67398718D01*
X131572359Y-67297781D01*
X131592598Y-67183000D01*
X131572359Y-67068219D01*
X131572358Y-67068217D01*
X131572358Y-67068216D01*
X131521886Y-66980798D01*
X131514083Y-66967282D01*
X131424799Y-66892364D01*
X131315276Y-66852500D01*
X131198724Y-66852500D01*
X131089201Y-66892364D01*
X131021435Y-66949226D01*
X130999916Y-66967283D01*
X130941641Y-67068216D01*
X130921402Y-67182999D01*
X128979997Y-67182999D01*
X128975351Y-67156652D01*
X128975350Y-67156650D01*
X128975350Y-67156649D01*
X128942770Y-67100220D01*
X128917075Y-67055715D01*
X128827791Y-66980797D01*
X128718268Y-66940933D01*
X128601716Y-66940933D01*
X128503425Y-66976708D01*
X128460672Y-66976708D01*
X128427922Y-66949226D01*
X128420499Y-66907125D01*
X128427798Y-66865733D01*
X128407559Y-66750952D01*
X128407558Y-66750950D01*
X128407558Y-66750949D01*
X128351320Y-66653544D01*
X128349283Y-66650015D01*
X128259999Y-66575097D01*
X128150476Y-66535233D01*
X128033924Y-66535233D01*
X127924401Y-66575097D01*
X127849637Y-66637831D01*
X127835116Y-66650016D01*
X127776841Y-66750949D01*
X127756602Y-66865733D01*
X115897143Y-66865733D01*
X115812514Y-66743127D01*
X115692818Y-66637085D01*
X115636319Y-66607432D01*
X115628523Y-66603340D01*
X115599130Y-66570161D01*
X115599131Y-66525836D01*
X115628522Y-66492659D01*
X115692818Y-66458915D01*
X115812514Y-66352873D01*
X115903355Y-66221268D01*
X115922419Y-66171000D01*
X121635202Y-66171000D01*
X121655441Y-66285783D01*
X121706831Y-66374791D01*
X121713717Y-66386718D01*
X121803001Y-66461636D01*
X121912524Y-66501500D01*
X122029075Y-66501500D01*
X122029076Y-66501500D01*
X122138599Y-66461636D01*
X122227883Y-66386718D01*
X122286159Y-66285781D01*
X122304612Y-66181128D01*
X124159060Y-66181128D01*
X124179299Y-66295912D01*
X124230689Y-66384920D01*
X124237575Y-66396847D01*
X124326859Y-66471765D01*
X124436382Y-66511629D01*
X124552933Y-66511629D01*
X124552934Y-66511629D01*
X124662457Y-66471765D01*
X124751741Y-66396847D01*
X124810017Y-66295910D01*
X124830256Y-66181129D01*
X124810017Y-66066348D01*
X124810016Y-66066346D01*
X124810016Y-66066345D01*
X124777436Y-66009916D01*
X124751741Y-65965411D01*
X124662457Y-65890493D01*
X124552934Y-65850629D01*
X124436382Y-65850629D01*
X124326859Y-65890493D01*
X124300037Y-65912999D01*
X124237574Y-65965412D01*
X124179299Y-66066345D01*
X124159060Y-66181128D01*
X122304612Y-66181128D01*
X122306398Y-66171000D01*
X122286159Y-66056219D01*
X122286158Y-66056217D01*
X122286158Y-66056216D01*
X122253578Y-65999787D01*
X122227883Y-65955282D01*
X122138599Y-65880364D01*
X122029076Y-65840500D01*
X121912524Y-65840500D01*
X121803001Y-65880364D01*
X121802999Y-65880365D01*
X121803000Y-65880365D01*
X121713716Y-65955283D01*
X121655441Y-66056216D01*
X121635202Y-66171000D01*
X115922419Y-66171000D01*
X115960061Y-66071747D01*
X115979336Y-65913000D01*
X115970533Y-65840500D01*
X115960061Y-65754252D01*
X115912657Y-65629260D01*
X115903355Y-65604732D01*
X115812514Y-65473127D01*
X115692818Y-65367085D01*
X115628524Y-65333341D01*
X115599130Y-65300163D01*
X115599130Y-65255837D01*
X115624501Y-65227200D01*
X120636900Y-65227200D01*
X120657139Y-65341983D01*
X120693259Y-65404543D01*
X120715415Y-65442918D01*
X120804699Y-65517836D01*
X120914222Y-65557700D01*
X121030773Y-65557700D01*
X121030774Y-65557700D01*
X121140297Y-65517836D01*
X121229581Y-65442918D01*
X121283180Y-65350082D01*
X121287856Y-65341983D01*
X121287856Y-65341982D01*
X121287857Y-65341981D01*
X121308096Y-65227200D01*
X121287857Y-65112419D01*
X121287856Y-65112417D01*
X121287856Y-65112416D01*
X121281446Y-65101313D01*
X123574115Y-65101313D01*
X123577382Y-65119840D01*
X123594354Y-65216096D01*
X123640651Y-65296283D01*
X123652630Y-65317031D01*
X123741914Y-65391949D01*
X123851437Y-65431813D01*
X123967988Y-65431813D01*
X123967989Y-65431813D01*
X124077512Y-65391949D01*
X124166796Y-65317031D01*
X124218660Y-65227200D01*
X124607002Y-65227200D01*
X124627241Y-65341983D01*
X124663361Y-65404543D01*
X124685517Y-65442918D01*
X124774801Y-65517836D01*
X124884324Y-65557700D01*
X125000875Y-65557700D01*
X125000876Y-65557700D01*
X125110399Y-65517836D01*
X125199683Y-65442918D01*
X125253282Y-65350082D01*
X125257958Y-65341983D01*
X125257958Y-65341982D01*
X125257959Y-65341981D01*
X125278198Y-65227200D01*
X126435802Y-65227200D01*
X126456041Y-65341983D01*
X126492161Y-65404543D01*
X126514317Y-65442918D01*
X126603601Y-65517836D01*
X126713124Y-65557700D01*
X126829675Y-65557700D01*
X126829676Y-65557700D01*
X126939199Y-65517836D01*
X127028483Y-65442918D01*
X127082082Y-65350082D01*
X127086758Y-65341983D01*
X127086758Y-65341982D01*
X127086759Y-65341981D01*
X127106998Y-65227200D01*
X127086759Y-65112419D01*
X127086758Y-65112417D01*
X127086758Y-65112416D01*
X127054178Y-65055987D01*
X127028483Y-65011482D01*
X127020826Y-65005057D01*
X127934402Y-65005057D01*
X127954641Y-65119840D01*
X127998360Y-65195561D01*
X128012917Y-65220775D01*
X128102201Y-65295693D01*
X128176134Y-65322603D01*
X128208882Y-65350082D01*
X128216306Y-65392185D01*
X128194743Y-65514476D01*
X128214982Y-65629260D01*
X128266372Y-65718268D01*
X128273258Y-65730195D01*
X128362542Y-65805113D01*
X128472065Y-65844977D01*
X128588616Y-65844977D01*
X128588617Y-65844977D01*
X128698140Y-65805113D01*
X128787424Y-65730195D01*
X128845700Y-65629258D01*
X128865939Y-65514477D01*
X128845700Y-65399696D01*
X128845699Y-65399694D01*
X128845699Y-65399693D01*
X128797972Y-65317029D01*
X128787424Y-65298759D01*
X128698140Y-65223841D01*
X128624206Y-65196930D01*
X128591458Y-65169451D01*
X128584035Y-65127348D01*
X128605598Y-65005056D01*
X128586240Y-64895270D01*
X128593663Y-64853167D01*
X128626410Y-64825687D01*
X128691799Y-64801888D01*
X128781083Y-64726970D01*
X128839359Y-64626033D01*
X128859598Y-64511252D01*
X128839359Y-64396471D01*
X128839358Y-64396469D01*
X128839358Y-64396468D01*
X128778753Y-64291499D01*
X128771330Y-64249390D01*
X128783448Y-64228407D01*
X128781085Y-64227043D01*
X128844870Y-64116564D01*
X128844870Y-64116563D01*
X128844871Y-64116562D01*
X128865110Y-64001781D01*
X128844871Y-63887000D01*
X128844870Y-63886998D01*
X128844870Y-63886997D01*
X128800415Y-63810000D01*
X128786595Y-63786063D01*
X128697311Y-63711145D01*
X128587788Y-63671281D01*
X128471236Y-63671281D01*
X128361713Y-63711145D01*
X128361711Y-63711146D01*
X128361712Y-63711146D01*
X128272428Y-63786064D01*
X128214153Y-63886997D01*
X128196961Y-63984500D01*
X128193914Y-64001781D01*
X128198135Y-64025718D01*
X128214153Y-64116562D01*
X128274758Y-64221533D01*
X128282183Y-64263628D01*
X128270065Y-64284626D01*
X128272427Y-64285990D01*
X128208641Y-64396470D01*
X128188402Y-64511252D01*
X128207760Y-64621038D01*
X128200336Y-64663141D01*
X128167587Y-64690621D01*
X128102201Y-64714420D01*
X128012916Y-64789340D01*
X127954641Y-64890273D01*
X127934402Y-65005057D01*
X127020826Y-65005057D01*
X126939199Y-64936564D01*
X126829676Y-64896700D01*
X126713124Y-64896700D01*
X126603601Y-64936564D01*
X126544051Y-64986532D01*
X126514316Y-65011483D01*
X126456041Y-65112416D01*
X126435802Y-65227200D01*
X125278198Y-65227200D01*
X125257959Y-65112419D01*
X125257958Y-65112417D01*
X125257958Y-65112416D01*
X125225378Y-65055987D01*
X125199683Y-65011482D01*
X125110399Y-64936564D01*
X125000876Y-64896700D01*
X124884324Y-64896700D01*
X124774801Y-64936564D01*
X124715251Y-64986532D01*
X124685516Y-65011483D01*
X124627241Y-65112416D01*
X124607002Y-65227200D01*
X124218660Y-65227200D01*
X124222029Y-65221364D01*
X124225071Y-65216096D01*
X124225071Y-65216095D01*
X124225072Y-65216094D01*
X124245311Y-65101313D01*
X124225072Y-64986532D01*
X124225071Y-64986530D01*
X124225071Y-64986529D01*
X124173207Y-64896700D01*
X124166796Y-64885595D01*
X124077512Y-64810677D01*
X123967989Y-64770813D01*
X123851437Y-64770813D01*
X123741914Y-64810677D01*
X123741912Y-64810678D01*
X123741913Y-64810678D01*
X123652629Y-64885596D01*
X123594354Y-64986529D01*
X123577366Y-65082873D01*
X123574115Y-65101313D01*
X121281446Y-65101313D01*
X121255276Y-65055987D01*
X121229581Y-65011482D01*
X121140297Y-64936564D01*
X121030774Y-64896700D01*
X120914222Y-64896700D01*
X120804699Y-64936564D01*
X120745149Y-64986532D01*
X120715414Y-65011483D01*
X120657139Y-65112416D01*
X120636900Y-65227200D01*
X115624501Y-65227200D01*
X115628524Y-65222659D01*
X115636319Y-65218568D01*
X115692818Y-65188915D01*
X115812514Y-65082873D01*
X115903355Y-64951268D01*
X115960061Y-64801747D01*
X115979336Y-64643000D01*
X115960061Y-64484253D01*
X115903355Y-64334732D01*
X115812514Y-64203127D01*
X115692818Y-64097085D01*
X115636319Y-64067432D01*
X115551223Y-64022769D01*
X115395956Y-63984500D01*
X115236044Y-63984500D01*
X115080776Y-64022769D01*
X114939181Y-64097085D01*
X114938343Y-64097828D01*
X114936265Y-64098616D01*
X114932462Y-64100612D01*
X114932219Y-64100150D01*
X114896900Y-64113544D01*
X114861580Y-64100150D01*
X114861338Y-64100612D01*
X114857534Y-64098615D01*
X114855457Y-64097828D01*
X114854619Y-64097085D01*
X114847169Y-64093175D01*
X114841955Y-64090439D01*
X114817514Y-64067432D01*
X114808500Y-64035098D01*
X114808500Y-63810000D01*
X119323802Y-63810000D01*
X119344041Y-63924783D01*
X119388496Y-64001780D01*
X119402317Y-64025718D01*
X119491601Y-64100636D01*
X119601124Y-64140500D01*
X119717675Y-64140500D01*
X119717676Y-64140500D01*
X119827199Y-64100636D01*
X119916483Y-64025718D01*
X119974759Y-63924781D01*
X119994998Y-63810000D01*
X119974759Y-63695219D01*
X119974758Y-63695217D01*
X119974758Y-63695216D01*
X119922154Y-63604105D01*
X119916483Y-63594282D01*
X119827199Y-63519364D01*
X119717676Y-63479500D01*
X119601124Y-63479500D01*
X119491601Y-63519364D01*
X119421909Y-63577842D01*
X119402316Y-63594283D01*
X119344041Y-63695216D01*
X119323802Y-63810000D01*
X114808500Y-63810000D01*
X114808500Y-63362124D01*
X121028479Y-63362124D01*
X121048718Y-63476907D01*
X121073232Y-63519365D01*
X121106994Y-63577842D01*
X121196278Y-63652760D01*
X121305801Y-63692624D01*
X121422352Y-63692624D01*
X121422353Y-63692624D01*
X121531876Y-63652760D01*
X121621160Y-63577842D01*
X121679436Y-63476905D01*
X121695044Y-63388388D01*
X125318202Y-63388388D01*
X125338441Y-63503172D01*
X125381552Y-63577840D01*
X125396717Y-63604107D01*
X125486001Y-63679025D01*
X125595524Y-63718889D01*
X125712075Y-63718889D01*
X125712076Y-63718889D01*
X125821599Y-63679025D01*
X125910883Y-63604107D01*
X125969159Y-63503170D01*
X125989398Y-63388389D01*
X125969159Y-63273608D01*
X125969158Y-63273606D01*
X125969158Y-63273605D01*
X125917344Y-63183862D01*
X125910883Y-63172671D01*
X125857656Y-63128008D01*
X127955018Y-63128008D01*
X127975257Y-63242791D01*
X127993050Y-63273608D01*
X128033533Y-63343726D01*
X128122817Y-63418644D01*
X128232340Y-63458508D01*
X128348891Y-63458508D01*
X128348892Y-63458508D01*
X128458415Y-63418644D01*
X128547699Y-63343726D01*
X128603346Y-63247343D01*
X128605974Y-63242791D01*
X128605974Y-63242790D01*
X128605975Y-63242789D01*
X128626214Y-63128008D01*
X128605975Y-63013227D01*
X128605974Y-63013225D01*
X128605974Y-63013224D01*
X128573394Y-62956795D01*
X128547699Y-62912290D01*
X128458415Y-62837372D01*
X128348892Y-62797508D01*
X128232340Y-62797508D01*
X128122817Y-62837372D01*
X128122815Y-62837373D01*
X128122816Y-62837373D01*
X128033532Y-62912291D01*
X127975257Y-63013224D01*
X127955018Y-63128008D01*
X125857656Y-63128008D01*
X125821599Y-63097753D01*
X125712076Y-63057889D01*
X125595524Y-63057889D01*
X125486001Y-63097753D01*
X125428018Y-63146406D01*
X125396716Y-63172672D01*
X125338441Y-63273605D01*
X125318202Y-63388388D01*
X121695044Y-63388388D01*
X121699675Y-63362124D01*
X121679436Y-63247343D01*
X121679435Y-63247341D01*
X121679435Y-63247340D01*
X121642785Y-63183862D01*
X121621160Y-63146406D01*
X121531876Y-63071488D01*
X121422353Y-63031624D01*
X121305801Y-63031624D01*
X121196278Y-63071488D01*
X121164975Y-63097754D01*
X121106993Y-63146407D01*
X121048718Y-63247340D01*
X121028479Y-63362124D01*
X114808500Y-63362124D01*
X114808500Y-62853361D01*
X120214035Y-62853361D01*
X120234274Y-62968145D01*
X120285664Y-63057153D01*
X120292550Y-63069080D01*
X120381834Y-63143998D01*
X120491357Y-63183862D01*
X120607908Y-63183862D01*
X120607909Y-63183862D01*
X120717432Y-63143998D01*
X120806716Y-63069080D01*
X120864992Y-62968143D01*
X120880729Y-62878892D01*
X124558472Y-62878892D01*
X124578711Y-62993675D01*
X124623638Y-63071489D01*
X124636987Y-63094610D01*
X124726271Y-63169528D01*
X124835794Y-63209392D01*
X124952345Y-63209392D01*
X124952346Y-63209392D01*
X125061869Y-63169528D01*
X125151153Y-63094610D01*
X125209429Y-62993673D01*
X125229668Y-62878892D01*
X125209429Y-62764111D01*
X125209428Y-62764109D01*
X125209428Y-62764108D01*
X125176848Y-62707679D01*
X125151153Y-62663174D01*
X125061869Y-62588256D01*
X124952346Y-62548392D01*
X124835794Y-62548392D01*
X124726271Y-62588256D01*
X124653981Y-62648914D01*
X124636986Y-62663175D01*
X124578711Y-62764108D01*
X124558472Y-62878892D01*
X120880729Y-62878892D01*
X120885231Y-62853362D01*
X120864992Y-62738581D01*
X120864991Y-62738579D01*
X120864991Y-62738578D01*
X120813223Y-62648915D01*
X120806716Y-62637644D01*
X120717432Y-62562726D01*
X120607909Y-62522862D01*
X120491357Y-62522862D01*
X120381834Y-62562726D01*
X120351408Y-62588256D01*
X120292549Y-62637645D01*
X120234274Y-62738578D01*
X120214035Y-62853361D01*
X114808500Y-62853361D01*
X114808500Y-62710902D01*
X114817514Y-62678568D01*
X114841955Y-62655561D01*
X114844114Y-62654427D01*
X114854618Y-62648915D01*
X114855453Y-62648174D01*
X114857525Y-62647388D01*
X114861338Y-62645388D01*
X114861580Y-62645850D01*
X114896900Y-62632455D01*
X114932219Y-62645850D01*
X114932462Y-62645388D01*
X114936274Y-62647388D01*
X114938347Y-62648175D01*
X114939182Y-62648915D01*
X115080776Y-62723230D01*
X115236044Y-62761500D01*
X115395956Y-62761500D01*
X115551223Y-62723230D01*
X115587479Y-62704200D01*
X115692818Y-62648915D01*
X115812514Y-62542873D01*
X115903355Y-62411268D01*
X115960061Y-62261747D01*
X115970084Y-62179200D01*
X116910802Y-62179200D01*
X116931041Y-62293983D01*
X116982431Y-62382991D01*
X116989317Y-62394918D01*
X117078601Y-62469836D01*
X117188124Y-62509700D01*
X117304675Y-62509700D01*
X117304676Y-62509700D01*
X117414199Y-62469836D01*
X117414200Y-62469834D01*
X117424554Y-62466066D01*
X117425283Y-62468069D01*
X117449591Y-62459218D01*
X117473916Y-62468069D01*
X117474646Y-62466066D01*
X117484999Y-62469834D01*
X117485001Y-62469836D01*
X117594524Y-62509700D01*
X117711075Y-62509700D01*
X117711076Y-62509700D01*
X117820599Y-62469836D01*
X117909883Y-62394918D01*
X117968159Y-62293981D01*
X117988398Y-62179200D01*
X117968159Y-62064419D01*
X117968158Y-62064417D01*
X117968158Y-62064416D01*
X117935578Y-62007987D01*
X117909883Y-61963482D01*
X117820599Y-61888564D01*
X117711076Y-61848700D01*
X117594524Y-61848700D01*
X117485001Y-61888564D01*
X117474646Y-61892333D01*
X117473917Y-61890330D01*
X117449591Y-61899180D01*
X117425282Y-61890330D01*
X117424554Y-61892333D01*
X117414199Y-61888564D01*
X117304676Y-61848700D01*
X117188124Y-61848700D01*
X117078601Y-61888564D01*
X117012234Y-61944252D01*
X116989316Y-61963483D01*
X116931041Y-62064416D01*
X116910802Y-62179200D01*
X115970084Y-62179200D01*
X115979336Y-62103000D01*
X115960061Y-61944253D01*
X115903355Y-61794732D01*
X115812514Y-61663127D01*
X115692818Y-61557085D01*
X115636319Y-61527432D01*
X115551223Y-61482769D01*
X115395956Y-61444500D01*
X115236044Y-61444500D01*
X115080776Y-61482769D01*
X114939181Y-61557084D01*
X114938339Y-61557831D01*
X114936252Y-61558621D01*
X114932463Y-61560611D01*
X114932221Y-61560150D01*
X114896895Y-61573544D01*
X114861580Y-61560149D01*
X114861338Y-61560612D01*
X114857525Y-61558611D01*
X114855453Y-61557825D01*
X114854617Y-61557084D01*
X114841955Y-61550439D01*
X114817514Y-61527432D01*
X114808500Y-61495098D01*
X114808500Y-60896000D01*
X114826806Y-60851806D01*
X114871000Y-60833500D01*
X120087380Y-60833500D01*
X120123229Y-60844803D01*
G37*
%TD.AperFunction*%
%TD*%
D12*
X133731000Y-68580000D02*
X133731000Y-60706000D01*
X114681000Y-60706000D02*
X133731000Y-60706000D01*
X114681000Y-68580000D02*
X114681000Y-60706000D01*
X114681000Y-68580000D02*
X133731000Y-68580000D01*
M02*
