%TF.GenerationSoftware,KiCad,Pcbnew,7.0.1*%
%TF.CreationDate,2023-06-05T15:43:26-04:00*%
%TF.ProjectId,imu-stamp,696d752d-7374-4616-9d70-2e6b69636164,rev?*%
%TF.SameCoordinates,Original*%
%TF.FileFunction,Drillmap*%
%TF.FilePolarity,Positive*%
%FSLAX45Y45*%
G04 Gerber Fmt 4.5, Leading zero omitted, Abs format (unit mm)*
G04 Created by KiCad (PCBNEW 7.0.1) date 2023-06-05 15:43:26*
%MOMM*%
%LPD*%
G01*
G04 APERTURE LIST*
%ADD10C,0.100000*%
%ADD11C,0.200000*%
G04 APERTURE END LIST*
D10*
X13309600Y-6858000D02*
X13309600Y-6070600D01*
X11531600Y-6070600D02*
X13309600Y-6070600D01*
X11531600Y-6858000D02*
X11531600Y-6070600D01*
X11531600Y-6858000D02*
X13309600Y-6858000D01*
D11*
X11774219Y-7175524D02*
X11774219Y-6975524D01*
X11774219Y-6975524D02*
X11821838Y-6975524D01*
X11821838Y-6975524D02*
X11850409Y-6985048D01*
X11850409Y-6985048D02*
X11869457Y-7004095D01*
X11869457Y-7004095D02*
X11878981Y-7023143D01*
X11878981Y-7023143D02*
X11888505Y-7061238D01*
X11888505Y-7061238D02*
X11888505Y-7089809D01*
X11888505Y-7089809D02*
X11878981Y-7127905D01*
X11878981Y-7127905D02*
X11869457Y-7146952D01*
X11869457Y-7146952D02*
X11850409Y-7166000D01*
X11850409Y-7166000D02*
X11821838Y-7175524D01*
X11821838Y-7175524D02*
X11774219Y-7175524D01*
X11974219Y-7175524D02*
X11974219Y-7042190D01*
X11974219Y-7080286D02*
X11983743Y-7061238D01*
X11983743Y-7061238D02*
X11993267Y-7051714D01*
X11993267Y-7051714D02*
X12012314Y-7042190D01*
X12012314Y-7042190D02*
X12031362Y-7042190D01*
X12098028Y-7175524D02*
X12098028Y-7042190D01*
X12098028Y-6975524D02*
X12088505Y-6985048D01*
X12088505Y-6985048D02*
X12098028Y-6994571D01*
X12098028Y-6994571D02*
X12107552Y-6985048D01*
X12107552Y-6985048D02*
X12098028Y-6975524D01*
X12098028Y-6975524D02*
X12098028Y-6994571D01*
X12221838Y-7175524D02*
X12202790Y-7166000D01*
X12202790Y-7166000D02*
X12193267Y-7146952D01*
X12193267Y-7146952D02*
X12193267Y-6975524D01*
X12326600Y-7175524D02*
X12307552Y-7166000D01*
X12307552Y-7166000D02*
X12298028Y-7146952D01*
X12298028Y-7146952D02*
X12298028Y-6975524D01*
X12555171Y-7175524D02*
X12555171Y-6975524D01*
X12555171Y-6975524D02*
X12621838Y-7118381D01*
X12621838Y-7118381D02*
X12688505Y-6975524D01*
X12688505Y-6975524D02*
X12688505Y-7175524D01*
X12869457Y-7175524D02*
X12869457Y-7070762D01*
X12869457Y-7070762D02*
X12859933Y-7051714D01*
X12859933Y-7051714D02*
X12840886Y-7042190D01*
X12840886Y-7042190D02*
X12802790Y-7042190D01*
X12802790Y-7042190D02*
X12783743Y-7051714D01*
X12869457Y-7166000D02*
X12850409Y-7175524D01*
X12850409Y-7175524D02*
X12802790Y-7175524D01*
X12802790Y-7175524D02*
X12783743Y-7166000D01*
X12783743Y-7166000D02*
X12774219Y-7146952D01*
X12774219Y-7146952D02*
X12774219Y-7127905D01*
X12774219Y-7127905D02*
X12783743Y-7108857D01*
X12783743Y-7108857D02*
X12802790Y-7099333D01*
X12802790Y-7099333D02*
X12850409Y-7099333D01*
X12850409Y-7099333D02*
X12869457Y-7089809D01*
X12964695Y-7042190D02*
X12964695Y-7242190D01*
X12964695Y-7051714D02*
X12983743Y-7042190D01*
X12983743Y-7042190D02*
X13021838Y-7042190D01*
X13021838Y-7042190D02*
X13040886Y-7051714D01*
X13040886Y-7051714D02*
X13050409Y-7061238D01*
X13050409Y-7061238D02*
X13059933Y-7080286D01*
X13059933Y-7080286D02*
X13059933Y-7137428D01*
X13059933Y-7137428D02*
X13050409Y-7156476D01*
X13050409Y-7156476D02*
X13040886Y-7166000D01*
X13040886Y-7166000D02*
X13021838Y-7175524D01*
X13021838Y-7175524D02*
X12983743Y-7175524D01*
X12983743Y-7175524D02*
X12964695Y-7166000D01*
X13145648Y-7156476D02*
X13155171Y-7166000D01*
X13155171Y-7166000D02*
X13145648Y-7175524D01*
X13145648Y-7175524D02*
X13136124Y-7166000D01*
X13136124Y-7166000D02*
X13145648Y-7156476D01*
X13145648Y-7156476D02*
X13145648Y-7175524D01*
X13145648Y-7051714D02*
X13155171Y-7061238D01*
X13155171Y-7061238D02*
X13145648Y-7070762D01*
X13145648Y-7070762D02*
X13136124Y-7061238D01*
X13136124Y-7061238D02*
X13145648Y-7051714D01*
X13145648Y-7051714D02*
X13145648Y-7070762D01*
M02*
