%TF.GenerationSoftware,KiCad,Pcbnew,7.0.1*%
%TF.CreationDate,2023-03-14T15:54:19-04:00*%
%TF.ProjectId,imu-stamp,696d752d-7374-4616-9d70-2e6b69636164,rev?*%
%TF.SameCoordinates,Original*%
%TF.FileFunction,Copper,L3,Inr*%
%TF.FilePolarity,Positive*%
%FSLAX46Y46*%
G04 Gerber Fmt 4.6, Leading zero omitted, Abs format (unit mm)*
G04 Created by KiCad (PCBNEW 7.0.1) date 2023-03-14 15:54:19*
%MOMM*%
%LPD*%
G01*
G04 APERTURE LIST*
%TA.AperFunction,ComponentPad*%
%ADD10C,1.016000*%
%TD*%
%TA.AperFunction,ViaPad*%
%ADD11C,0.350000*%
%TD*%
%TA.AperFunction,Conductor*%
%ADD12C,0.150000*%
%TD*%
G04 APERTURE END LIST*
D10*
%TO.N,VCC*%
%TO.C,P1*%
X114477800Y-62103000D03*
X115316000Y-62103000D03*
%TO.N,GND*%
X114477800Y-63373000D03*
X115316000Y-63373000D03*
%TO.N,/SCL*%
X114477800Y-64643000D03*
X115316000Y-64643000D03*
%TO.N,/SDA*%
X114477800Y-65913000D03*
X115316000Y-65913000D03*
%TO.N,/EN*%
X114477800Y-67183000D03*
X115316000Y-67183000D03*
%TD*%
%TO.N,3.3V*%
%TO.C,P2*%
X133934200Y-67183000D03*
X133096000Y-67183000D03*
%TO.N,/XORL2*%
X133934200Y-65913000D03*
X133096000Y-65913000D03*
%TO.N,/XORL1*%
X133934200Y-64643000D03*
X133096000Y-64643000D03*
%TO.N,GND*%
X133934200Y-63373000D03*
X133096000Y-63373000D03*
X133934200Y-62103000D03*
X133096000Y-62103000D03*
%TD*%
D11*
%TO.N,GND*%
X125907800Y-65252600D03*
X122021600Y-65405000D03*
X124333000Y-62941200D03*
X121843800Y-61214000D03*
X124079000Y-65227200D03*
X123266200Y-61214000D03*
X120462000Y-68044000D03*
X131556800Y-61214000D03*
X120297263Y-63291801D03*
X118897400Y-63017400D03*
X117576600Y-67437000D03*
X118897400Y-62484000D03*
X127955000Y-61214000D03*
X119354600Y-61214000D03*
X123256000Y-68072000D03*
X125069600Y-61239400D03*
X117574000Y-67945000D03*
X119989945Y-65100545D03*
X126558000Y-61214000D03*
X127660089Y-66673164D03*
%TO.N,3.3V*%
X122616000Y-68072000D03*
X124653000Y-68072000D03*
X119822000Y-68044000D03*
X124104400Y-61214000D03*
X126774000Y-65659000D03*
X121208800Y-61214000D03*
X125918000Y-61214000D03*
X124333000Y-63947000D03*
X120319800Y-61214000D03*
X131257000Y-67513200D03*
X119997000Y-63810000D03*
X132092662Y-65760528D03*
X130159800Y-61214000D03*
X124942600Y-65252600D03*
X132196800Y-61214000D03*
X116611400Y-67437000D03*
X116614000Y-67945000D03*
X129834600Y-67513200D03*
%TO.N,VCC*%
X117434000Y-62966600D03*
X117434000Y-62966600D03*
X117449600Y-62509400D03*
%TO.N,/EN*%
X118425000Y-68021200D03*
%TO.N,/SDA*%
X128750000Y-64266000D03*
X128762800Y-61747400D03*
%TO.N,/SCL*%
X130799800Y-61214000D03*
X128970498Y-65765502D03*
%TO.N,/SCL_1*%
X128016000Y-67564000D03*
X125267000Y-62873000D03*
X124079500Y-66171000D03*
%TO.N,/SDA_1*%
X128828800Y-67522164D03*
X125267000Y-63373000D03*
X128607100Y-63766000D03*
X123567000Y-65658500D03*
%TO.N,/SCL_0*%
X128524000Y-65266498D03*
X130617000Y-68224400D03*
X126517400Y-67564000D03*
X121484500Y-66171000D03*
X120949000Y-62868000D03*
%TO.N,/SDA_0*%
X129194600Y-68224400D03*
X128163402Y-64920850D03*
X120949000Y-63368000D03*
X120972498Y-65659000D03*
X125069600Y-67564000D03*
%TD*%
D12*
%TO.N,/SCL_0*%
X129226464Y-67072664D02*
X127008736Y-67072664D01*
X129385089Y-67779183D02*
X129385089Y-67231289D01*
X130617000Y-68224400D02*
X129830306Y-68224400D01*
X129385089Y-67231289D02*
X129226464Y-67072664D01*
X127008736Y-67072664D02*
X126517400Y-67564000D01*
X129830306Y-68224400D02*
X129385089Y-67779183D01*
%TD*%
%TA.AperFunction,Conductor*%
%TO.N,VCC*%
G36*
X119113395Y-60869883D02*
G01*
X119140487Y-60905190D01*
X119142429Y-60949652D01*
X119118517Y-60987187D01*
X119101405Y-61001545D01*
X119044012Y-61100954D01*
X119024078Y-61213999D01*
X119044012Y-61327045D01*
X119101405Y-61426454D01*
X119189340Y-61500241D01*
X119297205Y-61539500D01*
X119306000Y-61539500D01*
X119343000Y-61549414D01*
X119370086Y-61576500D01*
X119380000Y-61613500D01*
X119380000Y-65204000D01*
X119370086Y-65241000D01*
X119343000Y-65268086D01*
X119306000Y-65278000D01*
X115787384Y-65278000D01*
X115745347Y-65264901D01*
X115718193Y-65230241D01*
X115715534Y-65186291D01*
X115738313Y-65148611D01*
X115787323Y-65105189D01*
X115812514Y-65082873D01*
X115903355Y-64951268D01*
X115960061Y-64801747D01*
X115979336Y-64643000D01*
X115960061Y-64484253D01*
X115903355Y-64334732D01*
X115812514Y-64203127D01*
X115692818Y-64097085D01*
X115647923Y-64073522D01*
X115618986Y-64046283D01*
X115608314Y-64008000D01*
X115618986Y-63969717D01*
X115647923Y-63942477D01*
X115692818Y-63918915D01*
X115812514Y-63812873D01*
X115903355Y-63681268D01*
X115960061Y-63531747D01*
X115979336Y-63373000D01*
X115960061Y-63214253D01*
X115903355Y-63064732D01*
X115870684Y-63017400D01*
X118566878Y-63017400D01*
X118586812Y-63130445D01*
X118644205Y-63229854D01*
X118732140Y-63303641D01*
X118840005Y-63342900D01*
X118840006Y-63342900D01*
X118954794Y-63342900D01*
X118954795Y-63342900D01*
X119062659Y-63303641D01*
X119062659Y-63303640D01*
X119062661Y-63303640D01*
X119150594Y-63229855D01*
X119207988Y-63130445D01*
X119227921Y-63017400D01*
X119207988Y-62904355D01*
X119150594Y-62804945D01*
X119150593Y-62804944D01*
X119144070Y-62793645D01*
X119144357Y-62793479D01*
X119130179Y-62771925D01*
X119130179Y-62729475D01*
X119144357Y-62707920D01*
X119144070Y-62707755D01*
X119150594Y-62696455D01*
X119207988Y-62597045D01*
X119227921Y-62484000D01*
X119207988Y-62370955D01*
X119150594Y-62271545D01*
X119062661Y-62197760D01*
X119062659Y-62197758D01*
X118954795Y-62158500D01*
X118954794Y-62158500D01*
X118840006Y-62158500D01*
X118840005Y-62158500D01*
X118732139Y-62197759D01*
X118644206Y-62271543D01*
X118586812Y-62370954D01*
X118566878Y-62483999D01*
X118586812Y-62597045D01*
X118650730Y-62707755D01*
X118650442Y-62707920D01*
X118664620Y-62729478D01*
X118664620Y-62771922D01*
X118650442Y-62793479D01*
X118650730Y-62793645D01*
X118586812Y-62904354D01*
X118566878Y-63017400D01*
X115870684Y-63017400D01*
X115812514Y-62933127D01*
X115692818Y-62827085D01*
X115692817Y-62827084D01*
X115551224Y-62752771D01*
X115551223Y-62752770D01*
X115551222Y-62752770D01*
X115395956Y-62714500D01*
X115236044Y-62714500D01*
X115080778Y-62752770D01*
X115080777Y-62752770D01*
X115080775Y-62752771D01*
X114939889Y-62826714D01*
X114890698Y-62833694D01*
X114848179Y-62807991D01*
X114831500Y-62761190D01*
X114831500Y-60930500D01*
X114841414Y-60893500D01*
X114868500Y-60866414D01*
X114905500Y-60856500D01*
X119070950Y-60856500D01*
X119113395Y-60869883D01*
G37*
%TD.AperFunction*%
%TD*%
%TA.AperFunction,Conductor*%
%TO.N,3.3V*%
G36*
X121602595Y-60869883D02*
G01*
X121629687Y-60905190D01*
X121631629Y-60949652D01*
X121607717Y-60987187D01*
X121590605Y-61001545D01*
X121533212Y-61100954D01*
X121513278Y-61213999D01*
X121533212Y-61327045D01*
X121590605Y-61426454D01*
X121678540Y-61500241D01*
X121786405Y-61539500D01*
X121786406Y-61539500D01*
X121901194Y-61539500D01*
X121901195Y-61539500D01*
X122009059Y-61500241D01*
X122009059Y-61500240D01*
X122009061Y-61500240D01*
X122096994Y-61426455D01*
X122154388Y-61327045D01*
X122174321Y-61214000D01*
X122154388Y-61100955D01*
X122096994Y-61001545D01*
X122079883Y-60987187D01*
X122055971Y-60949652D01*
X122057913Y-60905190D01*
X122085005Y-60869883D01*
X122127450Y-60856500D01*
X122982550Y-60856500D01*
X123024995Y-60869883D01*
X123052087Y-60905190D01*
X123054029Y-60949652D01*
X123030117Y-60987187D01*
X123013005Y-61001545D01*
X122955612Y-61100954D01*
X122935678Y-61213999D01*
X122955612Y-61327045D01*
X123013005Y-61426454D01*
X123100940Y-61500241D01*
X123208805Y-61539500D01*
X123208806Y-61539500D01*
X123323594Y-61539500D01*
X123323595Y-61539500D01*
X123431459Y-61500241D01*
X123431459Y-61500240D01*
X123431461Y-61500240D01*
X123519394Y-61426455D01*
X123576788Y-61327045D01*
X123596721Y-61214000D01*
X123576788Y-61100955D01*
X123519394Y-61001545D01*
X123502283Y-60987187D01*
X123478371Y-60949652D01*
X123480313Y-60905190D01*
X123507405Y-60869883D01*
X123549850Y-60856500D01*
X124816221Y-60856500D01*
X124858666Y-60869883D01*
X124885758Y-60905191D01*
X124887700Y-60949653D01*
X124863787Y-60987187D01*
X124816406Y-61026943D01*
X124759012Y-61126354D01*
X124739078Y-61239399D01*
X124759012Y-61352445D01*
X124816405Y-61451854D01*
X124904340Y-61525641D01*
X125012205Y-61564900D01*
X125012206Y-61564900D01*
X125126994Y-61564900D01*
X125126995Y-61564900D01*
X125234859Y-61525641D01*
X125234859Y-61525640D01*
X125234861Y-61525640D01*
X125322794Y-61451855D01*
X125380188Y-61352445D01*
X125400121Y-61239400D01*
X125380188Y-61126355D01*
X125322794Y-61026945D01*
X125275413Y-60987187D01*
X125251501Y-60949652D01*
X125253443Y-60905190D01*
X125280535Y-60869883D01*
X125322980Y-60856500D01*
X126274350Y-60856500D01*
X126316795Y-60869883D01*
X126343887Y-60905190D01*
X126345829Y-60949652D01*
X126321917Y-60987187D01*
X126304805Y-61001545D01*
X126247412Y-61100954D01*
X126227478Y-61213999D01*
X126247412Y-61327045D01*
X126304805Y-61426454D01*
X126392740Y-61500241D01*
X126500605Y-61539500D01*
X126500606Y-61539500D01*
X126615394Y-61539500D01*
X126615395Y-61539500D01*
X126723259Y-61500241D01*
X126723259Y-61500240D01*
X126723261Y-61500240D01*
X126811194Y-61426455D01*
X126868588Y-61327045D01*
X126888521Y-61214000D01*
X126868588Y-61100955D01*
X126811194Y-61001545D01*
X126794083Y-60987187D01*
X126770171Y-60949652D01*
X126772113Y-60905190D01*
X126799205Y-60869883D01*
X126841650Y-60856500D01*
X127671350Y-60856500D01*
X127713795Y-60869883D01*
X127740887Y-60905190D01*
X127742829Y-60949652D01*
X127718917Y-60987187D01*
X127701805Y-61001545D01*
X127644412Y-61100954D01*
X127624478Y-61213999D01*
X127644412Y-61327045D01*
X127701805Y-61426454D01*
X127789740Y-61500241D01*
X127897605Y-61539500D01*
X127897606Y-61539500D01*
X128012394Y-61539500D01*
X128012395Y-61539500D01*
X128120259Y-61500241D01*
X128120259Y-61500240D01*
X128120261Y-61500240D01*
X128208194Y-61426455D01*
X128265588Y-61327045D01*
X128285521Y-61214000D01*
X128265588Y-61100955D01*
X128208194Y-61001545D01*
X128191083Y-60987187D01*
X128167171Y-60949652D01*
X128169113Y-60905190D01*
X128196205Y-60869883D01*
X128238650Y-60856500D01*
X130516150Y-60856500D01*
X130558595Y-60869883D01*
X130585687Y-60905190D01*
X130587629Y-60949652D01*
X130563717Y-60987187D01*
X130546605Y-61001545D01*
X130489212Y-61100954D01*
X130469278Y-61213999D01*
X130489212Y-61327045D01*
X130546605Y-61426454D01*
X130634540Y-61500241D01*
X130742405Y-61539500D01*
X130742406Y-61539500D01*
X130857194Y-61539500D01*
X130857195Y-61539500D01*
X130965059Y-61500241D01*
X130965059Y-61500240D01*
X130965061Y-61500240D01*
X131052994Y-61426455D01*
X131110388Y-61327045D01*
X131110388Y-61327044D01*
X131114214Y-61320418D01*
X131141300Y-61293332D01*
X131178300Y-61283418D01*
X131215300Y-61293332D01*
X131242386Y-61320418D01*
X131303605Y-61426454D01*
X131391540Y-61500241D01*
X131499405Y-61539500D01*
X131499406Y-61539500D01*
X131614194Y-61539500D01*
X131614195Y-61539500D01*
X131722059Y-61500241D01*
X131722059Y-61500240D01*
X131722061Y-61500240D01*
X131809994Y-61426455D01*
X131867388Y-61327045D01*
X131887321Y-61214000D01*
X131867388Y-61100955D01*
X131809994Y-61001545D01*
X131792883Y-60987187D01*
X131768971Y-60949652D01*
X131770913Y-60905190D01*
X131798005Y-60869883D01*
X131840450Y-60856500D01*
X133506500Y-60856500D01*
X133543500Y-60866414D01*
X133570586Y-60893500D01*
X133580500Y-60930500D01*
X133580500Y-61491190D01*
X133563821Y-61537991D01*
X133521302Y-61563694D01*
X133472111Y-61556714D01*
X133331224Y-61482771D01*
X133331223Y-61482770D01*
X133331222Y-61482770D01*
X133175956Y-61444500D01*
X133016044Y-61444500D01*
X132860778Y-61482770D01*
X132860777Y-61482770D01*
X132860775Y-61482771D01*
X132719182Y-61557084D01*
X132599486Y-61663126D01*
X132508644Y-61794733D01*
X132451938Y-61944254D01*
X132432664Y-62103000D01*
X132451938Y-62261745D01*
X132508644Y-62411266D01*
X132599486Y-62542873D01*
X132719180Y-62648914D01*
X132764074Y-62672476D01*
X132793012Y-62699717D01*
X132803684Y-62738000D01*
X132793012Y-62776283D01*
X132764074Y-62803524D01*
X132719180Y-62827085D01*
X132599486Y-62933126D01*
X132508644Y-63064733D01*
X132451938Y-63214254D01*
X132432664Y-63373000D01*
X132451938Y-63531745D01*
X132498394Y-63654240D01*
X132508645Y-63681268D01*
X132567131Y-63765999D01*
X132599486Y-63812873D01*
X132719180Y-63918914D01*
X132764074Y-63942476D01*
X132793012Y-63969717D01*
X132803684Y-64008000D01*
X132793012Y-64046283D01*
X132764074Y-64073524D01*
X132719180Y-64097085D01*
X132599486Y-64203126D01*
X132508644Y-64334733D01*
X132451938Y-64484254D01*
X132432664Y-64643000D01*
X132451938Y-64801745D01*
X132504735Y-64940960D01*
X132508645Y-64951268D01*
X132599486Y-65082873D01*
X132719182Y-65188915D01*
X132764074Y-65212476D01*
X132793011Y-65239715D01*
X132803684Y-65277998D01*
X132793012Y-65316281D01*
X132764075Y-65343522D01*
X132719182Y-65367084D01*
X132599486Y-65473126D01*
X132508644Y-65604733D01*
X132451938Y-65754254D01*
X132432664Y-65913000D01*
X132451938Y-66071745D01*
X132451939Y-66071747D01*
X132508645Y-66221268D01*
X132599486Y-66352873D01*
X132719182Y-66458915D01*
X132860778Y-66533230D01*
X133016044Y-66571500D01*
X133175954Y-66571500D01*
X133175956Y-66571500D01*
X133331222Y-66533230D01*
X133472111Y-66459285D01*
X133521302Y-66452306D01*
X133563821Y-66478009D01*
X133580500Y-66524810D01*
X133580500Y-68355500D01*
X133570586Y-68392500D01*
X133543500Y-68419586D01*
X133506500Y-68429500D01*
X130999546Y-68429500D01*
X130958882Y-68417326D01*
X130931598Y-68384810D01*
X130926670Y-68342650D01*
X130936932Y-68284455D01*
X130947521Y-68224400D01*
X130927588Y-68111355D01*
X130870194Y-68011945D01*
X130828818Y-67977226D01*
X130782259Y-67938158D01*
X130674395Y-67898900D01*
X130674394Y-67898900D01*
X130559606Y-67898900D01*
X130559605Y-67898900D01*
X130451741Y-67938158D01*
X130399986Y-67981587D01*
X130377729Y-67994437D01*
X130352419Y-67998900D01*
X129954363Y-67998900D01*
X129926044Y-67993267D01*
X129902037Y-67977226D01*
X129632263Y-67707452D01*
X129616222Y-67683445D01*
X129610589Y-67655126D01*
X129610589Y-67239150D01*
X129610690Y-67235277D01*
X129611252Y-67224545D01*
X129612789Y-67195225D01*
X129604057Y-67172479D01*
X129600759Y-67161343D01*
X129595696Y-67137520D01*
X129590700Y-67130644D01*
X129581481Y-67113665D01*
X129578435Y-67105730D01*
X129561207Y-67088502D01*
X129553672Y-67079680D01*
X129539349Y-67059966D01*
X129539348Y-67059965D01*
X129539347Y-67059964D01*
X129531985Y-67055714D01*
X129516660Y-67043955D01*
X129391471Y-66918766D01*
X129388804Y-66915956D01*
X129361969Y-66886153D01*
X129339717Y-66876246D01*
X129329515Y-66870708D01*
X129309082Y-66857438D01*
X129309081Y-66857437D01*
X129309080Y-66857437D01*
X129300681Y-66856107D01*
X129282164Y-66850622D01*
X129274396Y-66847164D01*
X129250037Y-66847164D01*
X129238462Y-66846253D01*
X129214399Y-66842442D01*
X129206185Y-66844643D01*
X129187034Y-66847164D01*
X128048119Y-66847164D01*
X128007455Y-66834990D01*
X127980171Y-66802474D01*
X127975243Y-66760314D01*
X127990610Y-66673164D01*
X127982109Y-66624952D01*
X127970677Y-66560119D01*
X127913283Y-66460709D01*
X127903269Y-66452306D01*
X127825348Y-66386922D01*
X127717484Y-66347664D01*
X127717483Y-66347664D01*
X127602695Y-66347664D01*
X127602694Y-66347664D01*
X127494828Y-66386923D01*
X127406895Y-66460707D01*
X127349501Y-66560118D01*
X127329567Y-66673164D01*
X127344935Y-66760314D01*
X127340007Y-66802474D01*
X127312723Y-66834990D01*
X127272059Y-66847164D01*
X127016597Y-66847164D01*
X127012724Y-66847063D01*
X127008791Y-66846856D01*
X126972672Y-66844964D01*
X126972671Y-66844964D01*
X126949921Y-66853696D01*
X126938792Y-66856992D01*
X126914967Y-66862056D01*
X126908089Y-66867054D01*
X126891119Y-66876268D01*
X126883175Y-66879317D01*
X126865945Y-66896547D01*
X126857120Y-66904084D01*
X126837413Y-66918403D01*
X126833161Y-66925767D01*
X126821404Y-66941088D01*
X126545669Y-67216826D01*
X126521662Y-67232867D01*
X126493343Y-67238500D01*
X126460005Y-67238500D01*
X126352139Y-67277759D01*
X126264206Y-67351543D01*
X126206812Y-67450954D01*
X126186878Y-67564000D01*
X126206812Y-67677045D01*
X126253412Y-67757760D01*
X126264206Y-67776455D01*
X126308172Y-67813347D01*
X126352140Y-67850241D01*
X126460005Y-67889500D01*
X126460006Y-67889500D01*
X126574794Y-67889500D01*
X126574795Y-67889500D01*
X126682659Y-67850241D01*
X126682659Y-67850240D01*
X126682661Y-67850240D01*
X126770594Y-67776455D01*
X126827988Y-67677045D01*
X126846356Y-67572871D01*
X126866903Y-67533400D01*
X127080466Y-67319838D01*
X127104475Y-67303797D01*
X127132793Y-67298164D01*
X127665454Y-67298164D01*
X127713020Y-67315477D01*
X127738330Y-67359314D01*
X127729540Y-67409164D01*
X127705412Y-67450954D01*
X127685478Y-67564000D01*
X127705412Y-67677045D01*
X127752012Y-67757760D01*
X127762806Y-67776455D01*
X127806772Y-67813347D01*
X127850740Y-67850241D01*
X127958605Y-67889500D01*
X127958606Y-67889500D01*
X128073394Y-67889500D01*
X128073395Y-67889500D01*
X128181259Y-67850241D01*
X128181259Y-67850240D01*
X128181261Y-67850240D01*
X128269194Y-67776455D01*
X128326588Y-67677045D01*
X128346521Y-67564000D01*
X128326588Y-67450955D01*
X128302459Y-67409163D01*
X128293670Y-67359314D01*
X128318980Y-67315477D01*
X128366546Y-67298164D01*
X128454100Y-67298164D01*
X128501666Y-67315477D01*
X128526976Y-67359314D01*
X128520460Y-67396265D01*
X128520478Y-67396269D01*
X128498278Y-67522163D01*
X128518212Y-67635209D01*
X128574408Y-67732545D01*
X128575606Y-67734619D01*
X128603182Y-67757758D01*
X128663540Y-67808405D01*
X128771405Y-67847664D01*
X128771406Y-67847664D01*
X128886194Y-67847664D01*
X128886195Y-67847664D01*
X128935095Y-67829866D01*
X128985714Y-67829866D01*
X129024490Y-67862403D01*
X129033280Y-67912253D01*
X129007971Y-67956090D01*
X128941405Y-68011945D01*
X128884012Y-68111354D01*
X128864078Y-68224399D01*
X128884930Y-68342650D01*
X128880002Y-68384810D01*
X128852718Y-68417326D01*
X128812054Y-68429500D01*
X123539650Y-68429500D01*
X123497205Y-68416117D01*
X123470113Y-68380810D01*
X123468171Y-68336348D01*
X123492083Y-68298813D01*
X123493324Y-68297771D01*
X123509194Y-68284455D01*
X123566588Y-68185045D01*
X123586521Y-68072000D01*
X123566588Y-67958955D01*
X123509194Y-67859545D01*
X123456402Y-67815247D01*
X123421259Y-67785758D01*
X123313395Y-67746500D01*
X123313394Y-67746500D01*
X123198606Y-67746500D01*
X123198605Y-67746500D01*
X123090739Y-67785759D01*
X123002806Y-67859543D01*
X122945412Y-67958954D01*
X122925478Y-68072000D01*
X122945412Y-68185045D01*
X123002805Y-68284454D01*
X123019917Y-68298813D01*
X123043829Y-68336348D01*
X123041887Y-68380810D01*
X123014795Y-68416117D01*
X122972350Y-68429500D01*
X120712281Y-68429500D01*
X120669836Y-68416117D01*
X120642744Y-68380810D01*
X120640802Y-68336348D01*
X120664714Y-68298813D01*
X120681826Y-68284454D01*
X120715194Y-68256455D01*
X120772588Y-68157045D01*
X120792521Y-68044000D01*
X120772588Y-67930955D01*
X120715194Y-67831545D01*
X120627261Y-67757760D01*
X120627259Y-67757758D01*
X120519395Y-67718500D01*
X120519394Y-67718500D01*
X120404606Y-67718500D01*
X120404605Y-67718500D01*
X120296739Y-67757759D01*
X120208806Y-67831543D01*
X120151412Y-67930954D01*
X120131478Y-68043999D01*
X120151412Y-68157045D01*
X120208805Y-68256454D01*
X120259286Y-68298813D01*
X120283198Y-68336348D01*
X120281256Y-68380810D01*
X120254164Y-68416117D01*
X120211719Y-68429500D01*
X118648109Y-68429500D01*
X118605664Y-68416117D01*
X118578572Y-68380810D01*
X118576630Y-68336348D01*
X118600543Y-68298813D01*
X118678193Y-68233656D01*
X118678194Y-68233655D01*
X118735588Y-68134245D01*
X118755521Y-68021200D01*
X118735588Y-67908155D01*
X118678194Y-67808745D01*
X118639711Y-67776454D01*
X118590259Y-67734958D01*
X118482395Y-67695700D01*
X118482394Y-67695700D01*
X118367606Y-67695700D01*
X118367605Y-67695700D01*
X118259739Y-67734959D01*
X118171806Y-67808743D01*
X118114412Y-67908154D01*
X118094478Y-68021200D01*
X118114412Y-68134245D01*
X118171806Y-68233656D01*
X118249457Y-68298813D01*
X118273370Y-68336348D01*
X118271428Y-68380810D01*
X118244336Y-68416117D01*
X118201891Y-68429500D01*
X114905500Y-68429500D01*
X114868500Y-68419586D01*
X114841414Y-68392500D01*
X114831500Y-68355500D01*
X114831500Y-67945000D01*
X117243478Y-67945000D01*
X117263412Y-68058045D01*
X117320805Y-68157454D01*
X117408740Y-68231241D01*
X117516605Y-68270500D01*
X117516606Y-68270500D01*
X117631394Y-68270500D01*
X117631395Y-68270500D01*
X117739259Y-68231241D01*
X117739259Y-68231240D01*
X117739261Y-68231240D01*
X117827194Y-68157455D01*
X117884588Y-68058045D01*
X117904521Y-67945000D01*
X117884588Y-67831955D01*
X117827194Y-67732545D01*
X117827193Y-67732544D01*
X117825870Y-67730252D01*
X117815956Y-67693252D01*
X117825870Y-67656252D01*
X117845141Y-67622873D01*
X117879131Y-67564000D01*
X124739078Y-67564000D01*
X124759012Y-67677045D01*
X124805612Y-67757760D01*
X124816406Y-67776455D01*
X124860372Y-67813347D01*
X124904340Y-67850241D01*
X125012205Y-67889500D01*
X125012206Y-67889500D01*
X125126994Y-67889500D01*
X125126995Y-67889500D01*
X125234859Y-67850241D01*
X125234859Y-67850240D01*
X125234861Y-67850240D01*
X125322794Y-67776455D01*
X125380188Y-67677045D01*
X125400121Y-67564000D01*
X125380188Y-67450955D01*
X125322794Y-67351545D01*
X125311115Y-67341745D01*
X125234859Y-67277758D01*
X125126995Y-67238500D01*
X125126994Y-67238500D01*
X125012206Y-67238500D01*
X125012205Y-67238500D01*
X124904339Y-67277759D01*
X124816406Y-67351543D01*
X124759012Y-67450954D01*
X124739078Y-67564000D01*
X117879131Y-67564000D01*
X117887188Y-67550045D01*
X117907121Y-67437000D01*
X117887188Y-67323955D01*
X117829794Y-67224545D01*
X117767747Y-67172481D01*
X117741859Y-67150758D01*
X117633995Y-67111500D01*
X117633994Y-67111500D01*
X117519206Y-67111500D01*
X117519205Y-67111500D01*
X117411339Y-67150759D01*
X117323406Y-67224543D01*
X117266012Y-67323954D01*
X117246078Y-67437000D01*
X117266012Y-67550045D01*
X117324730Y-67651748D01*
X117334644Y-67688748D01*
X117324730Y-67725748D01*
X117263412Y-67831954D01*
X117243478Y-67945000D01*
X114831500Y-67945000D01*
X114831500Y-67794810D01*
X114848179Y-67748009D01*
X114890698Y-67722306D01*
X114939888Y-67729285D01*
X115080778Y-67803230D01*
X115236044Y-67841500D01*
X115395954Y-67841500D01*
X115395956Y-67841500D01*
X115551222Y-67803230D01*
X115692818Y-67728915D01*
X115812514Y-67622873D01*
X115903355Y-67491268D01*
X115960061Y-67341747D01*
X115979336Y-67183000D01*
X115960061Y-67024253D01*
X115903355Y-66874732D01*
X115812514Y-66743127D01*
X115692818Y-66637085D01*
X115647923Y-66613522D01*
X115618986Y-66586281D01*
X115608314Y-66547998D01*
X115618987Y-66509715D01*
X115647921Y-66482478D01*
X115692818Y-66458915D01*
X115812514Y-66352873D01*
X115903355Y-66221268D01*
X115960061Y-66071747D01*
X115979336Y-65913000D01*
X115960061Y-65754253D01*
X115923936Y-65659000D01*
X120641976Y-65659000D01*
X120661910Y-65772045D01*
X120719303Y-65871454D01*
X120807238Y-65945241D01*
X120915103Y-65984500D01*
X120915104Y-65984500D01*
X121029892Y-65984500D01*
X121077188Y-65967285D01*
X121115346Y-65963947D01*
X121150062Y-65980136D01*
X121172033Y-66011513D01*
X121175372Y-66049673D01*
X121153978Y-66170999D01*
X121173912Y-66284045D01*
X121231305Y-66383454D01*
X121319240Y-66457241D01*
X121427105Y-66496500D01*
X121427106Y-66496500D01*
X121541894Y-66496500D01*
X121541895Y-66496500D01*
X121649759Y-66457241D01*
X121649759Y-66457240D01*
X121649761Y-66457240D01*
X121737694Y-66383455D01*
X121795088Y-66284045D01*
X121815021Y-66171000D01*
X121795088Y-66057955D01*
X121737694Y-65958545D01*
X121649761Y-65884760D01*
X121649759Y-65884758D01*
X121541895Y-65845500D01*
X121541894Y-65845500D01*
X121427106Y-65845500D01*
X121379809Y-65862714D01*
X121329191Y-65862713D01*
X121290415Y-65830175D01*
X121281625Y-65780325D01*
X121283084Y-65772047D01*
X121283086Y-65772045D01*
X121303019Y-65659000D01*
X121283086Y-65545955D01*
X121225692Y-65446545D01*
X121176181Y-65405000D01*
X121691078Y-65405000D01*
X121711012Y-65518045D01*
X121768405Y-65617454D01*
X121856340Y-65691241D01*
X121964205Y-65730500D01*
X121964206Y-65730500D01*
X122078994Y-65730500D01*
X122078995Y-65730500D01*
X122186859Y-65691241D01*
X122186859Y-65691240D01*
X122186861Y-65691240D01*
X122225879Y-65658500D01*
X123236478Y-65658500D01*
X123256412Y-65771545D01*
X123313805Y-65870954D01*
X123401740Y-65944741D01*
X123509605Y-65984000D01*
X123509606Y-65984000D01*
X123624394Y-65984000D01*
X123672316Y-65966557D01*
X123710473Y-65963219D01*
X123745190Y-65979407D01*
X123767161Y-66010785D01*
X123770500Y-66048945D01*
X123748978Y-66170999D01*
X123768912Y-66284045D01*
X123826305Y-66383454D01*
X123914240Y-66457241D01*
X124022105Y-66496500D01*
X124022106Y-66496500D01*
X124136894Y-66496500D01*
X124136895Y-66496500D01*
X124244759Y-66457241D01*
X124244759Y-66457240D01*
X124244761Y-66457240D01*
X124332694Y-66383455D01*
X124390088Y-66284045D01*
X124410021Y-66171000D01*
X124390088Y-66057955D01*
X124332694Y-65958545D01*
X124244761Y-65884760D01*
X124244759Y-65884758D01*
X124136895Y-65845500D01*
X124136894Y-65845500D01*
X124022106Y-65845500D01*
X123989784Y-65857264D01*
X123974811Y-65862714D01*
X123974184Y-65862942D01*
X123923565Y-65862941D01*
X123884789Y-65830404D01*
X123875999Y-65780554D01*
X123878654Y-65765502D01*
X123897521Y-65658500D01*
X123891333Y-65623407D01*
X123894672Y-65585249D01*
X123916643Y-65553871D01*
X123951359Y-65537682D01*
X123989517Y-65541020D01*
X124021606Y-65552700D01*
X124136394Y-65552700D01*
X124136395Y-65552700D01*
X124244259Y-65513441D01*
X124244259Y-65513440D01*
X124244261Y-65513440D01*
X124332194Y-65439655D01*
X124389588Y-65340245D01*
X124405042Y-65252600D01*
X125577278Y-65252600D01*
X125597212Y-65365645D01*
X125654605Y-65465054D01*
X125742540Y-65538841D01*
X125850405Y-65578100D01*
X125850406Y-65578100D01*
X125965194Y-65578100D01*
X125965195Y-65578100D01*
X126073059Y-65538841D01*
X126073059Y-65538840D01*
X126073061Y-65538840D01*
X126160994Y-65465055D01*
X126218388Y-65365645D01*
X126238321Y-65252600D01*
X126218388Y-65139555D01*
X126160994Y-65040145D01*
X126098255Y-64987500D01*
X126073059Y-64966358D01*
X125965195Y-64927100D01*
X125965194Y-64927100D01*
X125850406Y-64927100D01*
X125850405Y-64927100D01*
X125742539Y-64966359D01*
X125654606Y-65040143D01*
X125597212Y-65139554D01*
X125577278Y-65252600D01*
X124405042Y-65252600D01*
X124409521Y-65227200D01*
X124389588Y-65114155D01*
X124332194Y-65014745D01*
X124291092Y-64980256D01*
X124244259Y-64940958D01*
X124189011Y-64920850D01*
X127832880Y-64920850D01*
X127852814Y-65033895D01*
X127899151Y-65114155D01*
X127910208Y-65133305D01*
X127931839Y-65151456D01*
X127998142Y-65207091D01*
X128106007Y-65246350D01*
X128106008Y-65246350D01*
X128127833Y-65246350D01*
X128175399Y-65263663D01*
X128200708Y-65307499D01*
X128207264Y-65344678D01*
X128213412Y-65379543D01*
X128270805Y-65478952D01*
X128358740Y-65552739D01*
X128466605Y-65591998D01*
X128582381Y-65591998D01*
X128623045Y-65604172D01*
X128650329Y-65636688D01*
X128655256Y-65678846D01*
X128649243Y-65712948D01*
X128639976Y-65765502D01*
X128659910Y-65878547D01*
X128717303Y-65977956D01*
X128805238Y-66051743D01*
X128913103Y-66091002D01*
X128913104Y-66091002D01*
X129027892Y-66091002D01*
X129027893Y-66091002D01*
X129135757Y-66051743D01*
X129135757Y-66051742D01*
X129135759Y-66051742D01*
X129223692Y-65977957D01*
X129281086Y-65878547D01*
X129301019Y-65765502D01*
X129299035Y-65754253D01*
X129294847Y-65730500D01*
X129281086Y-65652457D01*
X129223692Y-65553047D01*
X129198609Y-65532000D01*
X129135757Y-65479260D01*
X129027893Y-65440002D01*
X129027892Y-65440002D01*
X128913104Y-65440002D01*
X128912117Y-65440002D01*
X128871453Y-65427828D01*
X128844169Y-65395312D01*
X128839241Y-65353153D01*
X128854521Y-65266498D01*
X128834588Y-65153453D01*
X128777194Y-65054043D01*
X128730361Y-65014745D01*
X128689259Y-64980256D01*
X128581395Y-64940998D01*
X128581394Y-64940998D01*
X128559569Y-64940998D01*
X128512003Y-64923685D01*
X128486693Y-64879848D01*
X128473990Y-64807805D01*
X128416596Y-64708395D01*
X128328663Y-64634610D01*
X128328661Y-64634608D01*
X128220797Y-64595350D01*
X128220796Y-64595350D01*
X128106008Y-64595350D01*
X128106007Y-64595350D01*
X127998141Y-64634609D01*
X127910208Y-64708393D01*
X127852814Y-64807804D01*
X127832880Y-64920850D01*
X124189011Y-64920850D01*
X124136395Y-64901700D01*
X124136394Y-64901700D01*
X124021606Y-64901700D01*
X124021605Y-64901700D01*
X123913739Y-64940959D01*
X123825806Y-65014743D01*
X123768412Y-65114154D01*
X123748478Y-65227200D01*
X123754666Y-65262291D01*
X123745876Y-65312141D01*
X123707100Y-65344678D01*
X123656481Y-65344678D01*
X123624395Y-65333000D01*
X123624394Y-65333000D01*
X123509606Y-65333000D01*
X123509605Y-65333000D01*
X123401739Y-65372259D01*
X123313806Y-65446043D01*
X123256412Y-65545454D01*
X123236478Y-65658500D01*
X122225879Y-65658500D01*
X122274794Y-65617455D01*
X122332188Y-65518045D01*
X122352121Y-65405000D01*
X122332188Y-65291955D01*
X122274794Y-65192545D01*
X122228205Y-65153452D01*
X122186859Y-65118758D01*
X122078995Y-65079500D01*
X122078994Y-65079500D01*
X121964206Y-65079500D01*
X121964205Y-65079500D01*
X121856339Y-65118759D01*
X121768406Y-65192543D01*
X121711012Y-65291954D01*
X121691078Y-65405000D01*
X121176181Y-65405000D01*
X121175636Y-65404543D01*
X121137757Y-65372758D01*
X121029893Y-65333500D01*
X121029892Y-65333500D01*
X120915104Y-65333500D01*
X120915103Y-65333500D01*
X120807237Y-65372759D01*
X120719304Y-65446543D01*
X120661910Y-65545954D01*
X120641976Y-65659000D01*
X115923936Y-65659000D01*
X115921454Y-65652456D01*
X115913788Y-65632241D01*
X115911901Y-65585412D01*
X115938524Y-65546841D01*
X115982979Y-65532000D01*
X119634000Y-65532000D01*
X119634000Y-65385476D01*
X119645589Y-65345716D01*
X119676726Y-65318409D01*
X119717659Y-65312109D01*
X119755566Y-65328789D01*
X119824683Y-65386785D01*
X119932550Y-65426045D01*
X119932551Y-65426045D01*
X120047339Y-65426045D01*
X120047340Y-65426045D01*
X120155204Y-65386786D01*
X120155204Y-65386785D01*
X120155206Y-65386785D01*
X120243139Y-65313000D01*
X120300533Y-65213590D01*
X120320466Y-65100545D01*
X120300533Y-64987500D01*
X120243139Y-64888090D01*
X120204151Y-64855375D01*
X120155204Y-64814303D01*
X120047340Y-64775045D01*
X120047339Y-64775045D01*
X119932551Y-64775045D01*
X119932550Y-64775045D01*
X119824684Y-64814304D01*
X119755566Y-64872302D01*
X119717659Y-64888982D01*
X119676726Y-64882682D01*
X119645589Y-64855375D01*
X119634000Y-64815615D01*
X119634000Y-63765999D01*
X128276578Y-63765999D01*
X128296512Y-63879045D01*
X128353905Y-63978454D01*
X128431809Y-64043824D01*
X128457118Y-64087660D01*
X128448329Y-64137509D01*
X128439412Y-64152954D01*
X128419478Y-64266000D01*
X128439412Y-64379045D01*
X128496805Y-64478454D01*
X128584740Y-64552241D01*
X128692605Y-64591500D01*
X128692606Y-64591500D01*
X128807394Y-64591500D01*
X128807395Y-64591500D01*
X128915259Y-64552241D01*
X128915259Y-64552240D01*
X128915261Y-64552240D01*
X129003194Y-64478455D01*
X129060588Y-64379045D01*
X129080521Y-64266000D01*
X129060588Y-64152955D01*
X129003194Y-64053545D01*
X129003193Y-64053543D01*
X128925291Y-63988176D01*
X128904909Y-63960799D01*
X128898982Y-63927186D01*
X128908769Y-63894491D01*
X128917688Y-63879045D01*
X128937621Y-63766000D01*
X128917688Y-63652955D01*
X128860294Y-63553545D01*
X128789581Y-63494209D01*
X128772359Y-63479758D01*
X128664495Y-63440500D01*
X128664494Y-63440500D01*
X128549706Y-63440500D01*
X128549705Y-63440500D01*
X128441839Y-63479759D01*
X128353906Y-63553543D01*
X128296512Y-63652954D01*
X128276578Y-63765999D01*
X119634000Y-63765999D01*
X119634000Y-63291800D01*
X119966741Y-63291800D01*
X119986675Y-63404846D01*
X120044068Y-63504255D01*
X120132003Y-63578042D01*
X120239868Y-63617301D01*
X120239869Y-63617301D01*
X120354657Y-63617301D01*
X120354658Y-63617301D01*
X120462522Y-63578042D01*
X120462522Y-63578041D01*
X120462524Y-63578041D01*
X120550457Y-63504256D01*
X120550457Y-63504254D01*
X120551177Y-63503651D01*
X120590153Y-63486838D01*
X120631955Y-63494209D01*
X120662829Y-63523337D01*
X120667685Y-63531747D01*
X120695805Y-63580454D01*
X120783740Y-63654241D01*
X120891605Y-63693500D01*
X120891606Y-63693500D01*
X121006394Y-63693500D01*
X121006395Y-63693500D01*
X121114259Y-63654241D01*
X121114259Y-63654240D01*
X121114261Y-63654240D01*
X121202194Y-63580455D01*
X121259588Y-63481045D01*
X121278639Y-63373000D01*
X124936478Y-63373000D01*
X124956412Y-63486045D01*
X125013805Y-63585454D01*
X125101740Y-63659241D01*
X125209605Y-63698500D01*
X125209606Y-63698500D01*
X125324394Y-63698500D01*
X125324395Y-63698500D01*
X125432259Y-63659241D01*
X125432259Y-63659240D01*
X125432261Y-63659240D01*
X125520194Y-63585455D01*
X125577588Y-63486045D01*
X125597521Y-63373000D01*
X125577588Y-63259955D01*
X125530708Y-63178756D01*
X125519879Y-63159999D01*
X125509965Y-63122999D01*
X125519879Y-63085999D01*
X125520192Y-63085456D01*
X125520194Y-63085455D01*
X125577588Y-62986045D01*
X125597521Y-62873000D01*
X125577588Y-62759955D01*
X125520194Y-62660545D01*
X125506333Y-62648914D01*
X125432259Y-62586758D01*
X125324395Y-62547500D01*
X125324394Y-62547500D01*
X125209606Y-62547500D01*
X125209605Y-62547500D01*
X125101739Y-62586759D01*
X125013806Y-62660543D01*
X124956412Y-62759954D01*
X124936478Y-62872999D01*
X124956412Y-62986045D01*
X125014120Y-63086000D01*
X125024034Y-63123000D01*
X125014120Y-63160000D01*
X124956412Y-63259954D01*
X124936478Y-63373000D01*
X121278639Y-63373000D01*
X121279521Y-63368000D01*
X121259588Y-63254955D01*
X121202194Y-63155545D01*
X121202193Y-63155544D01*
X121201879Y-63155000D01*
X121191965Y-63118000D01*
X121201879Y-63081000D01*
X121202194Y-63080455D01*
X121259588Y-62981045D01*
X121266614Y-62941199D01*
X124002478Y-62941199D01*
X124022412Y-63054245D01*
X124066405Y-63130445D01*
X124079806Y-63153655D01*
X124087368Y-63160000D01*
X124167740Y-63227441D01*
X124275605Y-63266700D01*
X124275606Y-63266700D01*
X124390394Y-63266700D01*
X124390395Y-63266700D01*
X124498259Y-63227441D01*
X124498259Y-63227440D01*
X124498261Y-63227440D01*
X124586194Y-63153655D01*
X124643588Y-63054245D01*
X124663521Y-62941200D01*
X124643588Y-62828155D01*
X124586194Y-62728745D01*
X124519136Y-62672476D01*
X124498259Y-62654958D01*
X124390395Y-62615700D01*
X124390394Y-62615700D01*
X124275606Y-62615700D01*
X124275605Y-62615700D01*
X124167739Y-62654959D01*
X124079806Y-62728743D01*
X124022412Y-62828154D01*
X124002478Y-62941199D01*
X121266614Y-62941199D01*
X121279521Y-62868000D01*
X121278911Y-62864543D01*
X121272495Y-62828154D01*
X121259588Y-62754955D01*
X121202194Y-62655545D01*
X121120219Y-62586759D01*
X121114259Y-62581758D01*
X121006395Y-62542500D01*
X121006394Y-62542500D01*
X120891606Y-62542500D01*
X120891605Y-62542500D01*
X120783739Y-62581759D01*
X120695806Y-62655543D01*
X120638412Y-62754954D01*
X120618478Y-62868000D01*
X120638723Y-62982809D01*
X120632914Y-63026933D01*
X120602847Y-63059745D01*
X120559397Y-63069377D01*
X120518280Y-63052346D01*
X120462522Y-63005559D01*
X120354658Y-62966301D01*
X120354657Y-62966301D01*
X120239869Y-62966301D01*
X120239868Y-62966301D01*
X120132002Y-63005560D01*
X120044069Y-63079344D01*
X119986675Y-63178755D01*
X119966741Y-63291800D01*
X119634000Y-63291800D01*
X119634000Y-61747399D01*
X128432278Y-61747399D01*
X128452212Y-61860445D01*
X128509605Y-61959854D01*
X128597540Y-62033641D01*
X128705405Y-62072900D01*
X128705406Y-62072900D01*
X128820194Y-62072900D01*
X128820195Y-62072900D01*
X128928059Y-62033641D01*
X128928059Y-62033640D01*
X128928061Y-62033640D01*
X129015994Y-61959855D01*
X129073388Y-61860445D01*
X129093321Y-61747400D01*
X129073388Y-61634355D01*
X129015994Y-61534945D01*
X128974636Y-61500241D01*
X128928059Y-61461158D01*
X128820195Y-61421900D01*
X128820194Y-61421900D01*
X128705406Y-61421900D01*
X128705405Y-61421900D01*
X128597539Y-61461159D01*
X128509606Y-61534943D01*
X128452212Y-61634354D01*
X128432278Y-61747399D01*
X119634000Y-61747399D01*
X119634000Y-61400893D01*
X119643914Y-61363893D01*
X119650523Y-61352445D01*
X119665188Y-61327045D01*
X119685121Y-61214000D01*
X119665188Y-61100955D01*
X119643914Y-61064107D01*
X119634000Y-61027107D01*
X119634000Y-60930500D01*
X119643914Y-60893500D01*
X119671000Y-60866414D01*
X119708000Y-60856500D01*
X121560150Y-60856500D01*
X121602595Y-60869883D01*
G37*
%TD.AperFunction*%
%TD*%
M02*
