%TF.GenerationSoftware,KiCad,Pcbnew,(6.0.5)*%
%TF.CreationDate,2023-03-03T08:38:54-05:00*%
%TF.ProjectId,imu-stamp,696d752d-7374-4616-9d70-2e6b69636164,rev?*%
%TF.SameCoordinates,Original*%
%TF.FileFunction,Copper,L3,Inr*%
%TF.FilePolarity,Positive*%
%FSLAX46Y46*%
G04 Gerber Fmt 4.6, Leading zero omitted, Abs format (unit mm)*
G04 Created by KiCad (PCBNEW (6.0.5)) date 2023-03-03 08:38:54*
%MOMM*%
%LPD*%
G01*
G04 APERTURE LIST*
%TA.AperFunction,ComponentPad*%
%ADD10C,1.000000*%
%TD*%
%TA.AperFunction,ComponentPad*%
%ADD11O,1.000000X1.000000*%
%TD*%
%TA.AperFunction,ViaPad*%
%ADD12C,0.350000*%
%TD*%
%TA.AperFunction,Conductor*%
%ADD13C,0.150000*%
%TD*%
G04 APERTURE END LIST*
D10*
%TO.N,VCC*%
%TO.C,P1*%
X115451000Y-62099000D03*
D11*
X114587400Y-62099000D03*
%TO.N,GND*%
X115451000Y-63369000D03*
X114587400Y-63369000D03*
%TO.N,/SCL*%
X114587400Y-64639000D03*
X115451000Y-64639000D03*
%TO.N,/SDA*%
X115451000Y-65909000D03*
X114587400Y-65909000D03*
%TO.N,/EN*%
X114587400Y-67179000D03*
X115451000Y-67179000D03*
%TD*%
D10*
%TO.N,3.3V*%
%TO.C,P2*%
X132969000Y-67188000D03*
D11*
X133832600Y-67188000D03*
%TO.N,/XORL2*%
X132969000Y-65918000D03*
X133832600Y-65918000D03*
%TO.N,/XORL1*%
X133832600Y-64648000D03*
X132969000Y-64648000D03*
%TO.N,GND*%
X132969000Y-63378000D03*
X133832600Y-63378000D03*
X133832600Y-62108000D03*
X132969000Y-62108000D03*
%TD*%
D12*
%TO.N,GND*%
X125907800Y-65252600D03*
X122021600Y-65405000D03*
X124333000Y-62941200D03*
X121843800Y-61214000D03*
X124079000Y-65227200D03*
X123266200Y-61214000D03*
X120462000Y-68044000D03*
X131556800Y-61214000D03*
X119997000Y-62799000D03*
X118973600Y-62992000D03*
X117576600Y-67437000D03*
X118973600Y-62484000D03*
X127955000Y-61214000D03*
X119354600Y-61214000D03*
X123256000Y-68072000D03*
X125069600Y-61239400D03*
X117574000Y-67945000D03*
X119989945Y-65100545D03*
X126558000Y-61214000D03*
X121793000Y-63881000D03*
X127559458Y-66614448D03*
X126161800Y-63881000D03*
%TO.N,3.3V*%
X122616000Y-68072000D03*
X124653000Y-68072000D03*
X119822000Y-68044000D03*
X124104400Y-61214000D03*
X126774000Y-65252600D03*
X121208800Y-61214000D03*
X125918000Y-61214000D03*
X124333000Y-63947000D03*
X120319800Y-61214000D03*
X131257000Y-67513200D03*
X119997000Y-63810000D03*
X132092662Y-65760528D03*
X130159800Y-61214000D03*
X124942600Y-65252600D03*
X132196800Y-61214000D03*
X116611400Y-67437000D03*
X116614000Y-67945000D03*
X129834600Y-67513200D03*
%TO.N,VCC*%
X117434000Y-62966600D03*
X117434000Y-62966600D03*
X117449600Y-62509400D03*
%TO.N,/EN*%
X118425000Y-68021200D03*
%TO.N,/SDA*%
X128524000Y-64266498D03*
X128762800Y-61747400D03*
%TO.N,/SCL*%
X130799800Y-61214000D03*
X128970498Y-65765502D03*
%TO.N,/SCL_1*%
X128016000Y-67564000D03*
X126161800Y-62890400D03*
X124600181Y-66301700D03*
%TO.N,/SDA_1*%
X128828800Y-67522164D03*
X125831600Y-63373000D03*
X128315804Y-63761553D03*
X123568800Y-65023120D03*
%TO.N,/SCL_0*%
X128524000Y-65266498D03*
X130617000Y-68224400D03*
X126517400Y-67564000D03*
X121970800Y-66167000D03*
X121742200Y-62890400D03*
%TO.N,/SDA_0*%
X129194600Y-68224400D03*
X128155981Y-64786846D03*
X121486271Y-63376664D03*
X120980200Y-65151000D03*
X125069600Y-67564000D03*
%TD*%
D13*
%TO.N,/SCL_0*%
X129226464Y-67072664D02*
X127008736Y-67072664D01*
X129385089Y-67779183D02*
X129385089Y-67231289D01*
X130617000Y-68224400D02*
X129830306Y-68224400D01*
X129385089Y-67231289D02*
X129226464Y-67072664D01*
X127008736Y-67072664D02*
X126517400Y-67564000D01*
X129830306Y-68224400D02*
X129385089Y-67779183D01*
%TD*%
%TA.AperFunction,Conductor*%
%TO.N,VCC*%
G36*
X119087402Y-60873813D02*
G01*
X119112712Y-60917650D01*
X119103922Y-60967500D01*
X119094379Y-60978874D01*
X119094970Y-60979370D01*
X119090809Y-60984329D01*
X119085849Y-60988491D01*
X119082612Y-60994098D01*
X119082611Y-60994099D01*
X119028164Y-61088403D01*
X119028163Y-61088406D01*
X119024928Y-61094009D01*
X119003770Y-61214000D01*
X119024928Y-61333991D01*
X119028163Y-61339594D01*
X119028164Y-61339597D01*
X119082611Y-61433901D01*
X119085849Y-61439509D01*
X119090809Y-61443671D01*
X119174223Y-61513665D01*
X119174226Y-61513666D01*
X119179185Y-61517828D01*
X119293679Y-61559500D01*
X119306000Y-61559500D01*
X119353566Y-61576813D01*
X119378876Y-61620650D01*
X119380000Y-61633500D01*
X119380000Y-62220970D01*
X119362687Y-62268536D01*
X119318850Y-62293846D01*
X119269000Y-62285056D01*
X119249312Y-62268536D01*
X119245588Y-62264098D01*
X119242351Y-62258491D01*
X119197636Y-62220970D01*
X119153977Y-62184335D01*
X119153974Y-62184334D01*
X119149015Y-62180172D01*
X119034521Y-62138500D01*
X118912679Y-62138500D01*
X118798185Y-62180172D01*
X118793226Y-62184334D01*
X118793223Y-62184335D01*
X118749564Y-62220970D01*
X118704849Y-62258491D01*
X118701612Y-62264098D01*
X118701611Y-62264099D01*
X118647164Y-62358403D01*
X118647163Y-62358406D01*
X118643928Y-62364009D01*
X118622770Y-62484000D01*
X118643928Y-62603991D01*
X118647165Y-62609597D01*
X118699936Y-62701000D01*
X118708726Y-62750850D01*
X118699936Y-62775000D01*
X118675570Y-62817203D01*
X118643928Y-62872009D01*
X118622770Y-62992000D01*
X118643928Y-63111991D01*
X118647163Y-63117594D01*
X118647164Y-63117597D01*
X118699660Y-63208522D01*
X118704849Y-63217509D01*
X118709809Y-63221671D01*
X118793223Y-63291665D01*
X118793226Y-63291666D01*
X118798185Y-63295828D01*
X118912679Y-63337500D01*
X119034521Y-63337500D01*
X119149015Y-63295828D01*
X119153974Y-63291666D01*
X119153977Y-63291665D01*
X119237391Y-63221671D01*
X119242351Y-63217509D01*
X119245589Y-63211901D01*
X119249312Y-63207464D01*
X119293150Y-63182154D01*
X119343000Y-63190944D01*
X119375537Y-63229720D01*
X119380000Y-63255030D01*
X119380000Y-65204000D01*
X119362687Y-65251566D01*
X119318850Y-65276876D01*
X119306000Y-65278000D01*
X115905082Y-65278000D01*
X115857516Y-65260687D01*
X115832206Y-65216850D01*
X115840996Y-65167000D01*
X115857023Y-65147730D01*
X115929955Y-65085440D01*
X115933348Y-65082542D01*
X116025224Y-64954683D01*
X116083950Y-64808598D01*
X116106134Y-64652723D01*
X116106278Y-64639000D01*
X116087363Y-64482694D01*
X116031710Y-64335412D01*
X115942531Y-64205657D01*
X115882783Y-64152423D01*
X115828310Y-64103889D01*
X115828307Y-64103887D01*
X115824976Y-64100919D01*
X115765876Y-64069627D01*
X115731940Y-64032068D01*
X115730085Y-63981483D01*
X115761180Y-63941541D01*
X115767253Y-63938119D01*
X115809638Y-63916802D01*
X115809649Y-63916795D01*
X115813625Y-63914795D01*
X115933348Y-63812542D01*
X116025224Y-63684683D01*
X116083950Y-63538598D01*
X116106134Y-63382723D01*
X116106278Y-63369000D01*
X116087363Y-63212694D01*
X116031710Y-63065412D01*
X115942531Y-62935657D01*
X115871094Y-62872009D01*
X115828310Y-62833889D01*
X115828307Y-62833887D01*
X115824976Y-62830919D01*
X115685831Y-62757245D01*
X115533128Y-62718889D01*
X115451583Y-62718462D01*
X115380142Y-62718088D01*
X115380139Y-62718088D01*
X115375684Y-62718065D01*
X115371349Y-62719106D01*
X115371347Y-62719106D01*
X115292649Y-62738000D01*
X115222588Y-62754820D01*
X115082679Y-62827032D01*
X115079318Y-62829964D01*
X115079315Y-62829966D01*
X115068344Y-62839536D01*
X115021119Y-62857758D01*
X114970473Y-62839024D01*
X114964710Y-62833889D01*
X114964708Y-62833887D01*
X114961376Y-62830919D01*
X114870873Y-62783000D01*
X114836937Y-62745442D01*
X114831500Y-62717601D01*
X114831500Y-60930500D01*
X114848813Y-60882934D01*
X114892650Y-60857624D01*
X114905500Y-60856500D01*
X119039836Y-60856500D01*
X119087402Y-60873813D01*
G37*
%TD.AperFunction*%
%TD*%
%TA.AperFunction,Conductor*%
%TO.N,3.3V*%
G36*
X121576602Y-60873813D02*
G01*
X121601912Y-60917650D01*
X121593122Y-60967500D01*
X121583579Y-60978874D01*
X121584170Y-60979370D01*
X121580009Y-60984329D01*
X121575049Y-60988491D01*
X121571812Y-60994098D01*
X121571811Y-60994099D01*
X121517364Y-61088403D01*
X121517363Y-61088406D01*
X121514128Y-61094009D01*
X121492970Y-61214000D01*
X121514128Y-61333991D01*
X121517363Y-61339594D01*
X121517364Y-61339597D01*
X121571811Y-61433901D01*
X121575049Y-61439509D01*
X121580009Y-61443671D01*
X121663423Y-61513665D01*
X121663426Y-61513666D01*
X121668385Y-61517828D01*
X121782879Y-61559500D01*
X121904721Y-61559500D01*
X122019215Y-61517828D01*
X122024174Y-61513666D01*
X122024177Y-61513665D01*
X122107591Y-61443671D01*
X122112551Y-61439509D01*
X122115789Y-61433901D01*
X122170236Y-61339597D01*
X122170237Y-61339594D01*
X122173472Y-61333991D01*
X122194630Y-61214000D01*
X122173472Y-61094009D01*
X122170237Y-61088406D01*
X122170236Y-61088403D01*
X122115789Y-60994099D01*
X122115788Y-60994098D01*
X122112551Y-60988491D01*
X122107591Y-60984329D01*
X122103430Y-60979370D01*
X122105487Y-60977644D01*
X122085688Y-60943349D01*
X122094479Y-60893499D01*
X122133256Y-60860962D01*
X122158564Y-60856500D01*
X122951436Y-60856500D01*
X122999002Y-60873813D01*
X123024312Y-60917650D01*
X123015522Y-60967500D01*
X123005979Y-60978874D01*
X123006570Y-60979370D01*
X123002409Y-60984329D01*
X122997449Y-60988491D01*
X122994212Y-60994098D01*
X122994211Y-60994099D01*
X122939764Y-61088403D01*
X122939763Y-61088406D01*
X122936528Y-61094009D01*
X122915370Y-61214000D01*
X122936528Y-61333991D01*
X122939763Y-61339594D01*
X122939764Y-61339597D01*
X122994211Y-61433901D01*
X122997449Y-61439509D01*
X123002409Y-61443671D01*
X123085823Y-61513665D01*
X123085826Y-61513666D01*
X123090785Y-61517828D01*
X123205279Y-61559500D01*
X123327121Y-61559500D01*
X123441615Y-61517828D01*
X123446574Y-61513666D01*
X123446577Y-61513665D01*
X123529991Y-61443671D01*
X123534951Y-61439509D01*
X123538189Y-61433901D01*
X123592636Y-61339597D01*
X123592637Y-61339594D01*
X123595872Y-61333991D01*
X123617030Y-61214000D01*
X123595872Y-61094009D01*
X123592637Y-61088406D01*
X123592636Y-61088403D01*
X123538189Y-60994099D01*
X123538188Y-60994098D01*
X123534951Y-60988491D01*
X123529991Y-60984329D01*
X123525830Y-60979370D01*
X123527887Y-60977644D01*
X123508088Y-60943349D01*
X123516879Y-60893499D01*
X123555656Y-60860962D01*
X123580964Y-60856500D01*
X124785106Y-60856500D01*
X124832672Y-60873813D01*
X124857982Y-60917650D01*
X124849192Y-60967500D01*
X124832673Y-60987187D01*
X124800849Y-61013891D01*
X124797612Y-61019498D01*
X124797611Y-61019499D01*
X124743164Y-61113803D01*
X124743163Y-61113806D01*
X124739928Y-61119409D01*
X124718770Y-61239400D01*
X124739928Y-61359391D01*
X124743163Y-61364994D01*
X124743164Y-61364997D01*
X124797611Y-61459301D01*
X124800849Y-61464909D01*
X124805809Y-61469071D01*
X124889223Y-61539065D01*
X124889226Y-61539066D01*
X124894185Y-61543228D01*
X125008679Y-61584900D01*
X125130521Y-61584900D01*
X125245015Y-61543228D01*
X125249974Y-61539066D01*
X125249977Y-61539065D01*
X125333391Y-61469071D01*
X125338351Y-61464909D01*
X125341589Y-61459301D01*
X125396036Y-61364997D01*
X125396037Y-61364994D01*
X125399272Y-61359391D01*
X125420430Y-61239400D01*
X125399272Y-61119409D01*
X125396037Y-61113806D01*
X125396036Y-61113803D01*
X125341589Y-61019499D01*
X125341588Y-61019498D01*
X125338351Y-61013891D01*
X125306527Y-60987187D01*
X125281218Y-60943349D01*
X125290008Y-60893499D01*
X125328785Y-60860963D01*
X125354094Y-60856500D01*
X126243236Y-60856500D01*
X126290802Y-60873813D01*
X126316112Y-60917650D01*
X126307322Y-60967500D01*
X126297779Y-60978874D01*
X126298370Y-60979370D01*
X126294209Y-60984329D01*
X126289249Y-60988491D01*
X126286012Y-60994098D01*
X126286011Y-60994099D01*
X126231564Y-61088403D01*
X126231563Y-61088406D01*
X126228328Y-61094009D01*
X126207170Y-61214000D01*
X126228328Y-61333991D01*
X126231563Y-61339594D01*
X126231564Y-61339597D01*
X126286011Y-61433901D01*
X126289249Y-61439509D01*
X126294209Y-61443671D01*
X126377623Y-61513665D01*
X126377626Y-61513666D01*
X126382585Y-61517828D01*
X126497079Y-61559500D01*
X126618921Y-61559500D01*
X126733415Y-61517828D01*
X126738374Y-61513666D01*
X126738377Y-61513665D01*
X126821791Y-61443671D01*
X126826751Y-61439509D01*
X126829989Y-61433901D01*
X126884436Y-61339597D01*
X126884437Y-61339594D01*
X126887672Y-61333991D01*
X126908830Y-61214000D01*
X126887672Y-61094009D01*
X126884437Y-61088406D01*
X126884436Y-61088403D01*
X126829989Y-60994099D01*
X126829988Y-60994098D01*
X126826751Y-60988491D01*
X126821791Y-60984329D01*
X126817630Y-60979370D01*
X126819687Y-60977644D01*
X126799888Y-60943349D01*
X126808679Y-60893499D01*
X126847456Y-60860962D01*
X126872764Y-60856500D01*
X127640236Y-60856500D01*
X127687802Y-60873813D01*
X127713112Y-60917650D01*
X127704322Y-60967500D01*
X127694779Y-60978874D01*
X127695370Y-60979370D01*
X127691209Y-60984329D01*
X127686249Y-60988491D01*
X127683012Y-60994098D01*
X127683011Y-60994099D01*
X127628564Y-61088403D01*
X127628563Y-61088406D01*
X127625328Y-61094009D01*
X127604170Y-61214000D01*
X127625328Y-61333991D01*
X127628563Y-61339594D01*
X127628564Y-61339597D01*
X127683011Y-61433901D01*
X127686249Y-61439509D01*
X127691209Y-61443671D01*
X127774623Y-61513665D01*
X127774626Y-61513666D01*
X127779585Y-61517828D01*
X127894079Y-61559500D01*
X128015921Y-61559500D01*
X128130415Y-61517828D01*
X128135374Y-61513666D01*
X128135377Y-61513665D01*
X128218791Y-61443671D01*
X128223751Y-61439509D01*
X128226989Y-61433901D01*
X128281436Y-61339597D01*
X128281437Y-61339594D01*
X128284672Y-61333991D01*
X128305830Y-61214000D01*
X128284672Y-61094009D01*
X128281437Y-61088406D01*
X128281436Y-61088403D01*
X128226989Y-60994099D01*
X128226988Y-60994098D01*
X128223751Y-60988491D01*
X128218791Y-60984329D01*
X128214630Y-60979370D01*
X128216687Y-60977644D01*
X128196888Y-60943349D01*
X128205679Y-60893499D01*
X128244456Y-60860962D01*
X128269764Y-60856500D01*
X130485036Y-60856500D01*
X130532602Y-60873813D01*
X130557912Y-60917650D01*
X130549122Y-60967500D01*
X130539579Y-60978874D01*
X130540170Y-60979370D01*
X130536009Y-60984329D01*
X130531049Y-60988491D01*
X130527812Y-60994098D01*
X130527811Y-60994099D01*
X130473364Y-61088403D01*
X130473363Y-61088406D01*
X130470128Y-61094009D01*
X130448970Y-61214000D01*
X130470128Y-61333991D01*
X130473363Y-61339594D01*
X130473364Y-61339597D01*
X130527811Y-61433901D01*
X130531049Y-61439509D01*
X130536009Y-61443671D01*
X130619423Y-61513665D01*
X130619426Y-61513666D01*
X130624385Y-61517828D01*
X130738879Y-61559500D01*
X130860721Y-61559500D01*
X130975215Y-61517828D01*
X130980174Y-61513666D01*
X130980177Y-61513665D01*
X131063591Y-61443671D01*
X131068551Y-61439509D01*
X131114214Y-61360419D01*
X131152991Y-61327882D01*
X131203610Y-61327882D01*
X131242386Y-61360419D01*
X131288049Y-61439509D01*
X131293009Y-61443671D01*
X131376423Y-61513665D01*
X131376426Y-61513666D01*
X131381385Y-61517828D01*
X131495879Y-61559500D01*
X131617721Y-61559500D01*
X131732215Y-61517828D01*
X131737174Y-61513666D01*
X131737177Y-61513665D01*
X131820591Y-61443671D01*
X131825551Y-61439509D01*
X131828789Y-61433901D01*
X131883236Y-61339597D01*
X131883237Y-61339594D01*
X131886472Y-61333991D01*
X131907630Y-61214000D01*
X131886472Y-61094009D01*
X131883237Y-61088406D01*
X131883236Y-61088403D01*
X131828789Y-60994099D01*
X131828788Y-60994098D01*
X131825551Y-60988491D01*
X131820591Y-60984329D01*
X131816430Y-60979370D01*
X131818487Y-60977644D01*
X131798688Y-60943349D01*
X131807479Y-60893499D01*
X131846256Y-60860962D01*
X131871564Y-60856500D01*
X133506500Y-60856500D01*
X133554066Y-60873813D01*
X133579376Y-60917650D01*
X133580500Y-60930500D01*
X133580500Y-61460964D01*
X133563187Y-61508530D01*
X133540440Y-61526722D01*
X133474185Y-61560919D01*
X133464279Y-61566032D01*
X133460918Y-61568964D01*
X133460915Y-61568966D01*
X133449944Y-61578536D01*
X133402719Y-61596758D01*
X133352073Y-61578024D01*
X133346310Y-61572889D01*
X133346308Y-61572887D01*
X133342976Y-61569919D01*
X133244407Y-61517729D01*
X133207771Y-61498331D01*
X133207770Y-61498331D01*
X133203831Y-61496245D01*
X133051128Y-61457889D01*
X132969583Y-61457462D01*
X132898142Y-61457088D01*
X132898139Y-61457088D01*
X132893684Y-61457065D01*
X132889349Y-61458106D01*
X132889347Y-61458106D01*
X132884370Y-61459301D01*
X132740588Y-61493820D01*
X132600679Y-61566032D01*
X132597321Y-61568961D01*
X132597320Y-61568962D01*
X132492351Y-61660533D01*
X132482034Y-61669533D01*
X132479466Y-61673187D01*
X132479465Y-61673188D01*
X132431788Y-61741026D01*
X132391501Y-61798348D01*
X132389879Y-61802507D01*
X132389879Y-61802508D01*
X132367068Y-61861017D01*
X132334309Y-61945039D01*
X132333727Y-61949463D01*
X132333726Y-61949465D01*
X132314843Y-62092900D01*
X132313758Y-62101138D01*
X132331035Y-62257633D01*
X132385143Y-62405490D01*
X132387628Y-62409188D01*
X132387630Y-62409192D01*
X132466910Y-62527172D01*
X132472958Y-62536172D01*
X132589410Y-62642135D01*
X132593333Y-62644265D01*
X132655155Y-62677832D01*
X132688696Y-62715743D01*
X132690021Y-62766345D01*
X132658510Y-62805960D01*
X132653785Y-62808622D01*
X132640260Y-62815603D01*
X132600679Y-62836032D01*
X132597321Y-62838961D01*
X132597320Y-62838962D01*
X132487430Y-62934826D01*
X132482034Y-62939533D01*
X132479466Y-62943187D01*
X132479465Y-62943188D01*
X132399791Y-63056553D01*
X132391501Y-63068348D01*
X132389879Y-63072507D01*
X132389879Y-63072508D01*
X132357030Y-63156763D01*
X132334309Y-63215039D01*
X132333727Y-63219463D01*
X132333726Y-63219465D01*
X132318187Y-63337500D01*
X132313758Y-63371138D01*
X132315037Y-63382723D01*
X132328964Y-63508870D01*
X132331035Y-63527633D01*
X132332568Y-63531822D01*
X132379877Y-63661099D01*
X132385143Y-63675490D01*
X132387628Y-63679188D01*
X132387630Y-63679192D01*
X132466910Y-63797172D01*
X132472958Y-63806172D01*
X132589410Y-63912135D01*
X132593333Y-63914265D01*
X132655155Y-63947832D01*
X132688696Y-63985743D01*
X132690021Y-64036345D01*
X132658510Y-64075960D01*
X132653785Y-64078622D01*
X132620714Y-64095691D01*
X132600679Y-64106032D01*
X132597321Y-64108961D01*
X132597320Y-64108962D01*
X132492351Y-64200533D01*
X132482034Y-64209533D01*
X132391501Y-64338348D01*
X132389879Y-64342507D01*
X132389879Y-64342508D01*
X132349710Y-64445538D01*
X132334309Y-64485039D01*
X132333727Y-64489463D01*
X132333726Y-64489465D01*
X132323081Y-64570326D01*
X132313758Y-64641138D01*
X132316031Y-64661723D01*
X132330138Y-64789506D01*
X132331035Y-64797633D01*
X132332568Y-64801822D01*
X132379877Y-64931099D01*
X132385143Y-64945490D01*
X132387628Y-64949188D01*
X132387630Y-64949192D01*
X132463244Y-65061716D01*
X132472958Y-65076172D01*
X132589410Y-65182135D01*
X132593333Y-65184265D01*
X132655155Y-65217832D01*
X132688696Y-65255743D01*
X132690021Y-65306345D01*
X132658510Y-65345960D01*
X132653785Y-65348622D01*
X132610620Y-65370901D01*
X132600679Y-65376032D01*
X132597321Y-65378961D01*
X132597320Y-65378962D01*
X132490095Y-65472501D01*
X132482034Y-65479533D01*
X132479466Y-65483187D01*
X132479465Y-65483188D01*
X132410341Y-65581542D01*
X132391501Y-65608348D01*
X132389879Y-65612507D01*
X132389879Y-65612508D01*
X132336079Y-65750500D01*
X132334309Y-65755039D01*
X132333727Y-65759463D01*
X132333726Y-65759465D01*
X132320365Y-65860957D01*
X132313758Y-65911138D01*
X132321957Y-65985403D01*
X132329462Y-66053383D01*
X132331035Y-66067633D01*
X132332568Y-66071822D01*
X132369731Y-66173374D01*
X132385143Y-66215490D01*
X132387628Y-66219188D01*
X132387630Y-66219192D01*
X132449068Y-66310620D01*
X132472958Y-66346172D01*
X132589410Y-66452135D01*
X132599100Y-66457396D01*
X132723852Y-66525132D01*
X132723856Y-66525134D01*
X132727776Y-66527262D01*
X132880069Y-66567215D01*
X132888345Y-66567345D01*
X133033038Y-66569618D01*
X133037495Y-66569688D01*
X133041837Y-66568694D01*
X133041842Y-66568693D01*
X133186621Y-66535534D01*
X133186624Y-66535533D01*
X133190968Y-66534538D01*
X133331625Y-66463795D01*
X133339818Y-66456798D01*
X133348793Y-66449132D01*
X133351240Y-66447042D01*
X133398653Y-66429315D01*
X133445583Y-66447235D01*
X133446072Y-66446547D01*
X133448733Y-66448438D01*
X133449102Y-66448579D01*
X133453010Y-66452135D01*
X133469151Y-66460899D01*
X133541810Y-66500350D01*
X133575351Y-66538261D01*
X133580500Y-66565382D01*
X133580500Y-68355500D01*
X133563187Y-68403066D01*
X133519350Y-68428376D01*
X133506500Y-68429500D01*
X131019855Y-68429500D01*
X130972289Y-68412187D01*
X130946979Y-68368350D01*
X130946979Y-68342650D01*
X130956975Y-68285963D01*
X130967830Y-68224400D01*
X130946672Y-68104409D01*
X130943437Y-68098806D01*
X130943436Y-68098803D01*
X130888989Y-68004499D01*
X130888988Y-68004498D01*
X130885751Y-67998891D01*
X130829880Y-67952009D01*
X130797377Y-67924735D01*
X130797374Y-67924734D01*
X130792415Y-67920572D01*
X130677921Y-67878900D01*
X130556079Y-67878900D01*
X130441585Y-67920572D01*
X130436626Y-67924734D01*
X130436623Y-67924735D01*
X130368871Y-67981587D01*
X130321304Y-67998900D01*
X129954363Y-67998900D01*
X129906797Y-67981587D01*
X129902037Y-67977226D01*
X129632263Y-67707452D01*
X129610871Y-67661576D01*
X129610589Y-67655126D01*
X129610589Y-67239150D01*
X129610690Y-67235277D01*
X129612382Y-67202991D01*
X129612789Y-67195225D01*
X129610001Y-67187962D01*
X129604058Y-67172479D01*
X129600760Y-67161346D01*
X129597313Y-67145128D01*
X129597313Y-67145127D01*
X129595696Y-67137521D01*
X129590698Y-67130641D01*
X129581483Y-67113669D01*
X129581224Y-67112994D01*
X129581223Y-67112992D01*
X129578435Y-67105730D01*
X129561208Y-67088503D01*
X129553667Y-67079673D01*
X129543920Y-67066258D01*
X129539349Y-67059966D01*
X129531986Y-67055715D01*
X129516660Y-67043955D01*
X129391471Y-66918766D01*
X129388804Y-66915956D01*
X129367176Y-66891936D01*
X129361971Y-66886155D01*
X129354867Y-66882992D01*
X129354864Y-66882990D01*
X129339717Y-66876247D01*
X129329509Y-66870704D01*
X129315606Y-66861675D01*
X129309082Y-66857438D01*
X129301400Y-66856221D01*
X129301399Y-66856221D01*
X129300684Y-66856108D01*
X129282163Y-66850622D01*
X129274396Y-66847164D01*
X129250037Y-66847164D01*
X129238461Y-66846253D01*
X129232892Y-66845371D01*
X129214399Y-66842442D01*
X129206887Y-66844455D01*
X129206883Y-66844455D01*
X129206186Y-66844642D01*
X129187033Y-66847164D01*
X127952220Y-66847164D01*
X127904654Y-66829851D01*
X127879344Y-66786014D01*
X127886215Y-66747052D01*
X127883679Y-66746129D01*
X127885894Y-66740044D01*
X127889130Y-66734439D01*
X127910288Y-66614448D01*
X127896373Y-66535534D01*
X127890254Y-66500831D01*
X127889130Y-66494457D01*
X127885895Y-66488854D01*
X127885894Y-66488851D01*
X127831447Y-66394547D01*
X127831446Y-66394546D01*
X127828209Y-66388939D01*
X127788287Y-66355440D01*
X127739835Y-66314783D01*
X127739832Y-66314782D01*
X127734873Y-66310620D01*
X127620379Y-66268948D01*
X127498537Y-66268948D01*
X127384043Y-66310620D01*
X127379084Y-66314782D01*
X127379081Y-66314783D01*
X127330629Y-66355440D01*
X127290707Y-66388939D01*
X127287470Y-66394546D01*
X127287469Y-66394547D01*
X127233022Y-66488851D01*
X127233021Y-66488854D01*
X127229786Y-66494457D01*
X127228662Y-66500831D01*
X127222543Y-66535534D01*
X127208628Y-66614448D01*
X127229786Y-66734439D01*
X127233022Y-66740044D01*
X127235237Y-66746129D01*
X127232701Y-66747052D01*
X127239572Y-66786012D01*
X127214264Y-66829850D01*
X127166696Y-66847164D01*
X127016597Y-66847164D01*
X127012724Y-66847063D01*
X126980439Y-66845371D01*
X126972672Y-66844964D01*
X126965412Y-66847751D01*
X126965411Y-66847751D01*
X126949927Y-66853695D01*
X126938794Y-66856993D01*
X126914968Y-66862057D01*
X126908092Y-66867053D01*
X126891115Y-66876270D01*
X126883176Y-66879318D01*
X126865946Y-66896548D01*
X126857117Y-66904088D01*
X126837413Y-66918404D01*
X126833526Y-66925137D01*
X126833523Y-66925140D01*
X126833162Y-66925766D01*
X126821403Y-66941091D01*
X126565669Y-67196826D01*
X126519793Y-67218218D01*
X126513343Y-67218500D01*
X126456479Y-67218500D01*
X126341985Y-67260172D01*
X126337026Y-67264334D01*
X126337023Y-67264335D01*
X126266654Y-67323383D01*
X126248649Y-67338491D01*
X126245412Y-67344098D01*
X126245411Y-67344099D01*
X126190964Y-67438403D01*
X126190963Y-67438406D01*
X126187728Y-67444009D01*
X126166570Y-67564000D01*
X126187728Y-67683991D01*
X126190963Y-67689594D01*
X126190964Y-67689597D01*
X126239272Y-67773268D01*
X126248649Y-67789509D01*
X126253609Y-67793671D01*
X126337023Y-67863665D01*
X126337026Y-67863666D01*
X126341985Y-67867828D01*
X126456479Y-67909500D01*
X126578321Y-67909500D01*
X126692815Y-67867828D01*
X126697774Y-67863666D01*
X126697777Y-67863665D01*
X126781191Y-67793671D01*
X126786151Y-67789509D01*
X126795528Y-67773268D01*
X126843836Y-67689597D01*
X126843837Y-67689594D01*
X126847072Y-67683991D01*
X126868230Y-67564000D01*
X126867846Y-67561820D01*
X126884419Y-67516286D01*
X126888780Y-67511526D01*
X127080467Y-67319838D01*
X127126343Y-67298446D01*
X127132793Y-67298164D01*
X127642360Y-67298164D01*
X127689926Y-67315477D01*
X127715236Y-67359314D01*
X127706446Y-67409164D01*
X127689564Y-67438403D01*
X127689563Y-67438406D01*
X127686328Y-67444009D01*
X127665170Y-67564000D01*
X127686328Y-67683991D01*
X127689563Y-67689594D01*
X127689564Y-67689597D01*
X127737872Y-67773268D01*
X127747249Y-67789509D01*
X127752209Y-67793671D01*
X127835623Y-67863665D01*
X127835626Y-67863666D01*
X127840585Y-67867828D01*
X127955079Y-67909500D01*
X128076921Y-67909500D01*
X128191415Y-67867828D01*
X128196374Y-67863666D01*
X128196377Y-67863665D01*
X128279791Y-67793671D01*
X128284751Y-67789509D01*
X128294128Y-67773268D01*
X128342436Y-67689597D01*
X128342437Y-67689594D01*
X128345672Y-67683991D01*
X128353213Y-67641227D01*
X128378521Y-67597391D01*
X128426088Y-67580078D01*
X128473654Y-67597390D01*
X128492921Y-67630739D01*
X128495789Y-67629695D01*
X128498004Y-67635782D01*
X128499128Y-67642155D01*
X128502363Y-67647758D01*
X128502364Y-67647761D01*
X128547996Y-67726797D01*
X128560049Y-67747673D01*
X128565009Y-67751835D01*
X128648423Y-67821829D01*
X128648426Y-67821830D01*
X128653385Y-67825992D01*
X128659472Y-67828208D01*
X128659473Y-67828208D01*
X128684250Y-67837226D01*
X128767879Y-67867664D01*
X128878926Y-67867664D01*
X128926492Y-67884977D01*
X128951802Y-67928814D01*
X128943012Y-67978664D01*
X128934219Y-67989140D01*
X128934970Y-67989770D01*
X128930809Y-67994729D01*
X128925849Y-67998891D01*
X128922612Y-68004498D01*
X128922611Y-68004499D01*
X128868164Y-68098803D01*
X128868163Y-68098806D01*
X128864928Y-68104409D01*
X128843770Y-68224400D01*
X128854625Y-68285963D01*
X128864621Y-68342650D01*
X128855831Y-68392500D01*
X128817055Y-68425037D01*
X128791745Y-68429500D01*
X123570764Y-68429500D01*
X123523198Y-68412187D01*
X123497888Y-68368350D01*
X123506678Y-68318500D01*
X123516221Y-68307126D01*
X123515630Y-68306630D01*
X123519791Y-68301671D01*
X123524751Y-68297509D01*
X123552857Y-68248828D01*
X123582436Y-68197597D01*
X123582437Y-68197594D01*
X123585672Y-68191991D01*
X123606830Y-68072000D01*
X123592219Y-67989140D01*
X123586796Y-67958383D01*
X123585672Y-67952009D01*
X123582437Y-67946406D01*
X123582436Y-67946403D01*
X123527989Y-67852099D01*
X123527988Y-67852098D01*
X123524751Y-67846491D01*
X123505918Y-67830688D01*
X123436377Y-67772335D01*
X123436374Y-67772334D01*
X123431415Y-67768172D01*
X123316921Y-67726500D01*
X123195079Y-67726500D01*
X123080585Y-67768172D01*
X123075626Y-67772334D01*
X123075623Y-67772335D01*
X123006082Y-67830688D01*
X122987249Y-67846491D01*
X122984012Y-67852098D01*
X122984011Y-67852099D01*
X122929564Y-67946403D01*
X122929563Y-67946406D01*
X122926328Y-67952009D01*
X122925204Y-67958383D01*
X122919781Y-67989140D01*
X122905170Y-68072000D01*
X122926328Y-68191991D01*
X122929563Y-68197594D01*
X122929564Y-68197597D01*
X122959143Y-68248828D01*
X122987249Y-68297509D01*
X122992209Y-68301671D01*
X122996370Y-68306630D01*
X122994313Y-68308356D01*
X123014112Y-68342651D01*
X123005321Y-68392501D01*
X122966544Y-68425038D01*
X122941236Y-68429500D01*
X120743395Y-68429500D01*
X120695829Y-68412187D01*
X120670519Y-68368350D01*
X120679309Y-68318500D01*
X120695829Y-68298813D01*
X120725789Y-68273674D01*
X120725793Y-68273669D01*
X120730751Y-68269509D01*
X120745095Y-68244665D01*
X120788436Y-68169597D01*
X120788437Y-68169594D01*
X120791672Y-68163991D01*
X120812830Y-68044000D01*
X120791672Y-67924009D01*
X120788437Y-67918406D01*
X120788436Y-67918403D01*
X120733989Y-67824099D01*
X120733988Y-67824098D01*
X120730751Y-67818491D01*
X120704584Y-67796534D01*
X120642377Y-67744335D01*
X120642374Y-67744334D01*
X120637415Y-67740172D01*
X120522921Y-67698500D01*
X120401079Y-67698500D01*
X120286585Y-67740172D01*
X120281626Y-67744334D01*
X120281623Y-67744335D01*
X120219416Y-67796534D01*
X120193249Y-67818491D01*
X120190012Y-67824098D01*
X120190011Y-67824099D01*
X120135564Y-67918403D01*
X120135563Y-67918406D01*
X120132328Y-67924009D01*
X120111170Y-68044000D01*
X120132328Y-68163991D01*
X120135563Y-68169594D01*
X120135564Y-68169597D01*
X120178905Y-68244665D01*
X120193249Y-68269509D01*
X120198207Y-68273669D01*
X120198211Y-68273674D01*
X120228171Y-68298813D01*
X120253481Y-68342650D01*
X120244691Y-68392500D01*
X120205914Y-68425037D01*
X120180605Y-68429500D01*
X118679224Y-68429500D01*
X118631658Y-68412187D01*
X118606348Y-68368350D01*
X118615138Y-68318500D01*
X118631657Y-68298813D01*
X118688791Y-68250871D01*
X118693751Y-68246709D01*
X118729023Y-68185617D01*
X118751436Y-68146797D01*
X118751437Y-68146794D01*
X118754672Y-68141191D01*
X118775830Y-68021200D01*
X118754672Y-67901209D01*
X118751437Y-67895606D01*
X118751436Y-67895603D01*
X118696989Y-67801299D01*
X118696988Y-67801298D01*
X118693751Y-67795691D01*
X118665917Y-67772335D01*
X118605377Y-67721535D01*
X118605374Y-67721534D01*
X118600415Y-67717372D01*
X118485921Y-67675700D01*
X118364079Y-67675700D01*
X118249585Y-67717372D01*
X118244626Y-67721534D01*
X118244623Y-67721535D01*
X118184083Y-67772335D01*
X118156249Y-67795691D01*
X118153012Y-67801298D01*
X118153011Y-67801299D01*
X118098564Y-67895603D01*
X118098563Y-67895606D01*
X118095328Y-67901209D01*
X118074170Y-68021200D01*
X118095328Y-68141191D01*
X118098563Y-68146794D01*
X118098564Y-68146797D01*
X118120977Y-68185617D01*
X118156249Y-68246709D01*
X118161209Y-68250871D01*
X118218343Y-68298813D01*
X118243652Y-68342651D01*
X118234862Y-68392501D01*
X118196085Y-68425037D01*
X118170776Y-68429500D01*
X117672695Y-68429500D01*
X117625129Y-68412187D01*
X117599819Y-68368350D01*
X117608609Y-68318500D01*
X117647386Y-68285963D01*
X117681151Y-68273674D01*
X117708002Y-68263901D01*
X117743327Y-68251044D01*
X117743328Y-68251044D01*
X117749415Y-68248828D01*
X117754374Y-68244666D01*
X117754377Y-68244665D01*
X117837791Y-68174671D01*
X117842751Y-68170509D01*
X117884151Y-68098803D01*
X117900436Y-68070597D01*
X117900437Y-68070594D01*
X117903672Y-68064991D01*
X117924830Y-67945000D01*
X117903672Y-67825009D01*
X117900437Y-67819406D01*
X117900436Y-67819403D01*
X117848964Y-67730252D01*
X117840174Y-67680402D01*
X117848964Y-67656252D01*
X117882948Y-67597390D01*
X117902225Y-67564000D01*
X124718770Y-67564000D01*
X124739928Y-67683991D01*
X124743163Y-67689594D01*
X124743164Y-67689597D01*
X124791472Y-67773268D01*
X124800849Y-67789509D01*
X124805809Y-67793671D01*
X124889223Y-67863665D01*
X124889226Y-67863666D01*
X124894185Y-67867828D01*
X125008679Y-67909500D01*
X125130521Y-67909500D01*
X125245015Y-67867828D01*
X125249974Y-67863666D01*
X125249977Y-67863665D01*
X125333391Y-67793671D01*
X125338351Y-67789509D01*
X125347728Y-67773268D01*
X125396036Y-67689597D01*
X125396037Y-67689594D01*
X125399272Y-67683991D01*
X125420430Y-67564000D01*
X125399272Y-67444009D01*
X125396037Y-67438406D01*
X125396036Y-67438403D01*
X125341589Y-67344099D01*
X125341588Y-67344098D01*
X125338351Y-67338491D01*
X125320346Y-67323383D01*
X125249977Y-67264335D01*
X125249974Y-67264334D01*
X125245015Y-67260172D01*
X125130521Y-67218500D01*
X125008679Y-67218500D01*
X124894185Y-67260172D01*
X124889226Y-67264334D01*
X124889223Y-67264335D01*
X124818854Y-67323383D01*
X124800849Y-67338491D01*
X124797612Y-67344098D01*
X124797611Y-67344099D01*
X124743164Y-67438403D01*
X124743163Y-67438406D01*
X124739928Y-67444009D01*
X124718770Y-67564000D01*
X117902225Y-67564000D01*
X117906272Y-67556991D01*
X117927430Y-67437000D01*
X117906272Y-67317009D01*
X117903037Y-67311406D01*
X117903036Y-67311403D01*
X117848589Y-67217099D01*
X117848588Y-67217098D01*
X117845351Y-67211491D01*
X117825840Y-67195119D01*
X117756977Y-67137335D01*
X117756974Y-67137334D01*
X117752015Y-67133172D01*
X117723414Y-67122762D01*
X117698430Y-67113669D01*
X117637521Y-67091500D01*
X117515679Y-67091500D01*
X117454770Y-67113669D01*
X117429787Y-67122762D01*
X117401185Y-67133172D01*
X117396226Y-67137334D01*
X117396223Y-67137335D01*
X117327360Y-67195119D01*
X117307849Y-67211491D01*
X117304612Y-67217098D01*
X117304611Y-67217099D01*
X117250164Y-67311403D01*
X117250163Y-67311406D01*
X117246928Y-67317009D01*
X117225770Y-67437000D01*
X117246928Y-67556991D01*
X117250163Y-67562594D01*
X117250164Y-67562597D01*
X117301636Y-67651748D01*
X117310426Y-67701598D01*
X117301636Y-67725748D01*
X117292216Y-67742065D01*
X117244328Y-67825009D01*
X117223170Y-67945000D01*
X117244328Y-68064991D01*
X117247563Y-68070594D01*
X117247564Y-68070597D01*
X117263849Y-68098803D01*
X117305249Y-68170509D01*
X117310209Y-68174671D01*
X117393623Y-68244665D01*
X117393626Y-68244666D01*
X117398585Y-68248828D01*
X117404672Y-68251044D01*
X117404673Y-68251044D01*
X117439998Y-68263901D01*
X117466850Y-68273674D01*
X117500614Y-68285963D01*
X117539391Y-68318500D01*
X117548181Y-68368350D01*
X117522872Y-68412187D01*
X117475305Y-68429500D01*
X114905500Y-68429500D01*
X114857934Y-68412187D01*
X114832624Y-68368350D01*
X114831500Y-68355500D01*
X114831500Y-67830021D01*
X114848813Y-67782455D01*
X114872250Y-67763912D01*
X114946039Y-67726800D01*
X114946044Y-67726797D01*
X114950025Y-67724795D01*
X114969640Y-67708042D01*
X115017053Y-67690315D01*
X115063983Y-67708235D01*
X115064472Y-67707547D01*
X115067133Y-67709438D01*
X115067502Y-67709579D01*
X115071410Y-67713135D01*
X115075333Y-67715265D01*
X115205852Y-67786132D01*
X115205856Y-67786134D01*
X115209776Y-67788262D01*
X115362069Y-67828215D01*
X115440782Y-67829451D01*
X115515038Y-67830618D01*
X115519495Y-67830688D01*
X115523837Y-67829694D01*
X115523842Y-67829693D01*
X115668621Y-67796534D01*
X115668624Y-67796533D01*
X115672968Y-67795538D01*
X115813625Y-67724795D01*
X115861401Y-67683991D01*
X115929955Y-67625440D01*
X115933348Y-67622542D01*
X116025224Y-67494683D01*
X116047849Y-67438403D01*
X116082287Y-67352735D01*
X116082287Y-67352734D01*
X116083950Y-67348598D01*
X116106134Y-67192723D01*
X116106278Y-67179000D01*
X116087363Y-67022694D01*
X116037954Y-66891936D01*
X116033286Y-66879582D01*
X116033285Y-66879580D01*
X116031710Y-66875412D01*
X115970268Y-66786014D01*
X115945062Y-66749339D01*
X115945060Y-66749337D01*
X115942531Y-66745657D01*
X115882783Y-66692423D01*
X115828310Y-66643889D01*
X115828307Y-66643887D01*
X115824976Y-66640919D01*
X115765876Y-66609627D01*
X115731940Y-66572068D01*
X115730085Y-66521483D01*
X115761180Y-66481541D01*
X115767253Y-66478119D01*
X115809638Y-66456802D01*
X115809649Y-66456795D01*
X115813625Y-66454795D01*
X115884167Y-66394547D01*
X115929955Y-66355440D01*
X115933348Y-66352542D01*
X116025224Y-66224683D01*
X116027432Y-66219192D01*
X116048413Y-66167000D01*
X121619970Y-66167000D01*
X121641128Y-66286991D01*
X121644363Y-66292594D01*
X121644364Y-66292597D01*
X121678974Y-66352542D01*
X121702049Y-66392509D01*
X121707009Y-66396671D01*
X121790423Y-66466665D01*
X121790426Y-66466666D01*
X121795385Y-66470828D01*
X121801472Y-66473044D01*
X121801473Y-66473044D01*
X121815417Y-66478119D01*
X121909879Y-66512500D01*
X122031721Y-66512500D01*
X122126183Y-66478119D01*
X122140127Y-66473044D01*
X122140128Y-66473044D01*
X122146215Y-66470828D01*
X122151174Y-66466666D01*
X122151177Y-66466665D01*
X122234591Y-66396671D01*
X122239551Y-66392509D01*
X122262626Y-66352542D01*
X122291980Y-66301700D01*
X124249351Y-66301700D01*
X124270509Y-66421691D01*
X124273744Y-66427294D01*
X124273745Y-66427297D01*
X124328124Y-66521483D01*
X124331430Y-66527209D01*
X124336390Y-66531371D01*
X124419804Y-66601365D01*
X124419807Y-66601366D01*
X124424766Y-66605528D01*
X124430853Y-66607744D01*
X124430854Y-66607744D01*
X124436028Y-66609627D01*
X124539260Y-66647200D01*
X124661102Y-66647200D01*
X124764334Y-66609627D01*
X124769508Y-66607744D01*
X124769509Y-66607744D01*
X124775596Y-66605528D01*
X124780555Y-66601366D01*
X124780558Y-66601365D01*
X124863972Y-66531371D01*
X124868932Y-66527209D01*
X124872238Y-66521483D01*
X124926617Y-66427297D01*
X124926618Y-66427294D01*
X124929853Y-66421691D01*
X124951011Y-66301700D01*
X124929853Y-66181709D01*
X124926618Y-66176106D01*
X124926617Y-66176103D01*
X124872170Y-66081799D01*
X124872169Y-66081798D01*
X124868932Y-66076191D01*
X124863396Y-66071546D01*
X124780558Y-66002035D01*
X124780555Y-66002034D01*
X124775596Y-65997872D01*
X124768181Y-65995173D01*
X124741337Y-65985403D01*
X124661102Y-65956200D01*
X124539260Y-65956200D01*
X124459025Y-65985403D01*
X124432182Y-65995173D01*
X124424766Y-65997872D01*
X124419807Y-66002034D01*
X124419804Y-66002035D01*
X124336966Y-66071546D01*
X124331430Y-66076191D01*
X124328193Y-66081798D01*
X124328192Y-66081799D01*
X124273745Y-66176103D01*
X124273744Y-66176106D01*
X124270509Y-66181709D01*
X124249351Y-66301700D01*
X122291980Y-66301700D01*
X122297236Y-66292597D01*
X122297237Y-66292594D01*
X122300472Y-66286991D01*
X122321630Y-66167000D01*
X122300472Y-66047009D01*
X122297237Y-66041406D01*
X122297236Y-66041403D01*
X122242789Y-65947099D01*
X122242788Y-65947098D01*
X122239551Y-65941491D01*
X122220040Y-65925119D01*
X122151177Y-65867335D01*
X122151174Y-65867334D01*
X122146215Y-65863172D01*
X122140126Y-65860956D01*
X122137947Y-65859698D01*
X122105408Y-65820923D01*
X122105406Y-65770304D01*
X122137941Y-65731526D01*
X122149634Y-65726073D01*
X122190929Y-65711043D01*
X122197015Y-65708828D01*
X122201974Y-65704666D01*
X122201977Y-65704665D01*
X122285391Y-65634671D01*
X122290351Y-65630509D01*
X122300744Y-65612508D01*
X122348036Y-65530597D01*
X122348037Y-65530594D01*
X122351272Y-65524991D01*
X122372430Y-65405000D01*
X122351272Y-65285009D01*
X122348037Y-65279406D01*
X122348036Y-65279403D01*
X122293589Y-65185099D01*
X122293588Y-65185098D01*
X122290351Y-65179491D01*
X122282776Y-65173135D01*
X122201977Y-65105335D01*
X122201974Y-65105334D01*
X122197015Y-65101172D01*
X122082521Y-65059500D01*
X121960679Y-65059500D01*
X121846185Y-65101172D01*
X121841226Y-65105334D01*
X121841223Y-65105335D01*
X121760424Y-65173135D01*
X121752849Y-65179491D01*
X121749612Y-65185098D01*
X121749611Y-65185099D01*
X121695164Y-65279403D01*
X121695163Y-65279406D01*
X121691928Y-65285009D01*
X121670770Y-65405000D01*
X121691928Y-65524991D01*
X121695163Y-65530594D01*
X121695164Y-65530597D01*
X121742456Y-65612508D01*
X121752849Y-65630509D01*
X121757809Y-65634671D01*
X121841223Y-65704665D01*
X121841226Y-65704666D01*
X121846185Y-65708828D01*
X121852274Y-65711044D01*
X121854453Y-65712302D01*
X121886992Y-65751077D01*
X121886994Y-65801696D01*
X121854459Y-65840474D01*
X121842767Y-65845927D01*
X121795385Y-65863172D01*
X121790426Y-65867334D01*
X121790423Y-65867335D01*
X121721560Y-65925119D01*
X121702049Y-65941491D01*
X121698812Y-65947098D01*
X121698811Y-65947099D01*
X121644364Y-66041403D01*
X121644363Y-66041406D01*
X121641128Y-66047009D01*
X121619970Y-66167000D01*
X116048413Y-66167000D01*
X116082287Y-66082735D01*
X116082287Y-66082734D01*
X116083950Y-66078598D01*
X116106134Y-65922723D01*
X116106278Y-65909000D01*
X116087363Y-65752694D01*
X116041816Y-65632157D01*
X116041198Y-65581542D01*
X116073259Y-65542371D01*
X116111039Y-65532000D01*
X119634000Y-65532000D01*
X119634000Y-65411584D01*
X119651313Y-65364018D01*
X119695150Y-65338708D01*
X119745000Y-65347498D01*
X119755566Y-65354897D01*
X119809565Y-65400208D01*
X119809569Y-65400211D01*
X119814530Y-65404373D01*
X119820617Y-65406589D01*
X119820618Y-65406589D01*
X119833765Y-65411374D01*
X119929024Y-65446045D01*
X120050866Y-65446045D01*
X120146125Y-65411374D01*
X120159272Y-65406589D01*
X120159273Y-65406589D01*
X120165360Y-65404373D01*
X120170319Y-65400211D01*
X120170322Y-65400210D01*
X120253736Y-65330216D01*
X120258696Y-65326054D01*
X120271533Y-65303820D01*
X120316381Y-65226142D01*
X120316382Y-65226139D01*
X120319617Y-65220536D01*
X120331878Y-65151000D01*
X120629370Y-65151000D01*
X120650528Y-65270991D01*
X120653763Y-65276594D01*
X120653764Y-65276597D01*
X120704237Y-65364018D01*
X120711449Y-65376509D01*
X120716409Y-65380671D01*
X120799823Y-65450665D01*
X120799826Y-65450666D01*
X120804785Y-65454828D01*
X120919279Y-65496500D01*
X121041121Y-65496500D01*
X121155615Y-65454828D01*
X121160574Y-65450666D01*
X121160577Y-65450665D01*
X121243991Y-65380671D01*
X121248951Y-65376509D01*
X121256163Y-65364018D01*
X121306636Y-65276597D01*
X121306637Y-65276594D01*
X121309872Y-65270991D01*
X121331030Y-65151000D01*
X121309872Y-65031009D01*
X121306637Y-65025406D01*
X121306636Y-65025403D01*
X121305318Y-65023120D01*
X123217970Y-65023120D01*
X123239128Y-65143111D01*
X123242363Y-65148714D01*
X123242364Y-65148717D01*
X123282268Y-65217832D01*
X123300049Y-65248629D01*
X123305009Y-65252791D01*
X123388423Y-65322785D01*
X123388426Y-65322786D01*
X123393385Y-65326948D01*
X123399472Y-65329164D01*
X123399473Y-65329164D01*
X123424250Y-65338182D01*
X123507879Y-65368620D01*
X123629721Y-65368620D01*
X123680434Y-65350162D01*
X123731053Y-65350162D01*
X123769828Y-65382698D01*
X123791366Y-65420002D01*
X123806402Y-65446045D01*
X123810249Y-65452709D01*
X123815209Y-65456871D01*
X123898623Y-65526865D01*
X123898626Y-65526866D01*
X123903585Y-65531028D01*
X124018079Y-65572700D01*
X124139921Y-65572700D01*
X124254415Y-65531028D01*
X124259374Y-65526866D01*
X124259377Y-65526865D01*
X124342791Y-65456871D01*
X124347751Y-65452709D01*
X124350989Y-65447101D01*
X124405436Y-65352797D01*
X124405437Y-65352794D01*
X124408672Y-65347191D01*
X124411148Y-65333152D01*
X124424024Y-65260125D01*
X124425351Y-65252600D01*
X125556970Y-65252600D01*
X125558094Y-65258974D01*
X125573902Y-65348622D01*
X125578128Y-65372591D01*
X125581363Y-65378194D01*
X125581364Y-65378197D01*
X125634675Y-65470533D01*
X125639049Y-65478109D01*
X125644009Y-65482271D01*
X125727423Y-65552265D01*
X125727426Y-65552266D01*
X125732385Y-65556428D01*
X125846879Y-65598100D01*
X125968721Y-65598100D01*
X126083215Y-65556428D01*
X126088174Y-65552266D01*
X126088177Y-65552265D01*
X126171591Y-65482271D01*
X126176551Y-65478109D01*
X126180925Y-65470533D01*
X126234236Y-65378197D01*
X126234237Y-65378194D01*
X126237472Y-65372591D01*
X126241699Y-65348622D01*
X126257506Y-65258974D01*
X126258630Y-65252600D01*
X126246674Y-65184795D01*
X126238596Y-65138983D01*
X126237472Y-65132609D01*
X126234237Y-65127006D01*
X126234236Y-65127003D01*
X126179789Y-65032699D01*
X126179788Y-65032698D01*
X126176551Y-65027091D01*
X126171591Y-65022929D01*
X126088177Y-64952935D01*
X126088174Y-64952934D01*
X126083215Y-64948772D01*
X125968721Y-64907100D01*
X125846879Y-64907100D01*
X125732385Y-64948772D01*
X125727426Y-64952934D01*
X125727423Y-64952935D01*
X125644009Y-65022929D01*
X125639049Y-65027091D01*
X125635812Y-65032698D01*
X125635811Y-65032699D01*
X125581364Y-65127003D01*
X125581363Y-65127006D01*
X125578128Y-65132609D01*
X125577004Y-65138983D01*
X125568926Y-65184795D01*
X125556970Y-65252600D01*
X124425351Y-65252600D01*
X124429830Y-65227200D01*
X124408672Y-65107209D01*
X124405437Y-65101606D01*
X124405436Y-65101603D01*
X124350989Y-65007299D01*
X124350988Y-65007298D01*
X124347751Y-65001691D01*
X124322561Y-64980554D01*
X124259377Y-64927535D01*
X124259374Y-64927534D01*
X124254415Y-64923372D01*
X124247893Y-64920998D01*
X124215796Y-64909316D01*
X124139921Y-64881700D01*
X124018079Y-64881700D01*
X123967366Y-64900158D01*
X123916747Y-64900158D01*
X123877971Y-64867621D01*
X123875596Y-64863506D01*
X123849091Y-64817598D01*
X123840789Y-64803219D01*
X123840788Y-64803218D01*
X123837551Y-64797611D01*
X123824722Y-64786846D01*
X127805151Y-64786846D01*
X127813492Y-64834147D01*
X127820702Y-64875036D01*
X127826309Y-64906837D01*
X127829544Y-64912440D01*
X127829545Y-64912443D01*
X127878670Y-64997529D01*
X127887230Y-65012355D01*
X127892190Y-65016517D01*
X127975604Y-65086511D01*
X127975607Y-65086512D01*
X127980566Y-65090674D01*
X128095060Y-65132346D01*
X128108635Y-65132346D01*
X128156201Y-65149659D01*
X128181511Y-65193496D01*
X128181511Y-65219195D01*
X128173170Y-65266498D01*
X128174294Y-65272872D01*
X128193170Y-65379919D01*
X128194328Y-65386489D01*
X128197563Y-65392092D01*
X128197564Y-65392095D01*
X128247225Y-65478109D01*
X128255249Y-65492007D01*
X128260209Y-65496169D01*
X128343623Y-65566163D01*
X128343626Y-65566164D01*
X128348585Y-65570326D01*
X128354672Y-65572542D01*
X128354673Y-65572542D01*
X128367804Y-65577321D01*
X128463079Y-65611998D01*
X128558545Y-65611998D01*
X128606111Y-65629311D01*
X128631421Y-65673148D01*
X128631421Y-65698848D01*
X128625659Y-65731526D01*
X128619668Y-65765502D01*
X128640826Y-65885493D01*
X128644061Y-65891096D01*
X128644062Y-65891099D01*
X128682928Y-65958416D01*
X128701747Y-65991011D01*
X128706707Y-65995173D01*
X128790121Y-66065167D01*
X128790124Y-66065168D01*
X128795083Y-66069330D01*
X128801170Y-66071546D01*
X128801171Y-66071546D01*
X128820547Y-66078598D01*
X128909577Y-66111002D01*
X129031419Y-66111002D01*
X129120449Y-66078598D01*
X129139825Y-66071546D01*
X129139826Y-66071546D01*
X129145913Y-66069330D01*
X129150872Y-66065168D01*
X129150875Y-66065167D01*
X129234289Y-65995173D01*
X129239249Y-65991011D01*
X129258068Y-65958416D01*
X129296934Y-65891099D01*
X129296935Y-65891096D01*
X129300170Y-65885493D01*
X129321328Y-65765502D01*
X129300170Y-65645511D01*
X129296935Y-65639908D01*
X129296934Y-65639905D01*
X129242487Y-65545601D01*
X129242486Y-65545600D01*
X129239249Y-65539993D01*
X129223604Y-65526865D01*
X129150875Y-65465837D01*
X129150872Y-65465836D01*
X129145913Y-65461674D01*
X129031419Y-65420002D01*
X128935953Y-65420002D01*
X128888387Y-65402689D01*
X128863077Y-65358852D01*
X128863077Y-65333152D01*
X128873706Y-65272872D01*
X128874830Y-65266498D01*
X128853672Y-65146507D01*
X128850437Y-65140904D01*
X128850436Y-65140901D01*
X128795989Y-65046597D01*
X128795988Y-65046596D01*
X128792751Y-65040989D01*
X128787791Y-65036827D01*
X128704377Y-64966833D01*
X128704374Y-64966832D01*
X128699415Y-64962670D01*
X128584921Y-64920998D01*
X128571346Y-64920998D01*
X128523780Y-64903685D01*
X128498470Y-64859848D01*
X128498470Y-64834147D01*
X128501389Y-64817598D01*
X128506811Y-64786846D01*
X128491294Y-64698847D01*
X128500084Y-64648998D01*
X128538860Y-64616461D01*
X128564170Y-64611998D01*
X128584921Y-64611998D01*
X128699415Y-64570326D01*
X128704374Y-64566164D01*
X128704377Y-64566163D01*
X128787791Y-64496169D01*
X128792751Y-64492007D01*
X128798128Y-64482694D01*
X128850436Y-64392095D01*
X128850437Y-64392092D01*
X128853672Y-64386489D01*
X128874830Y-64266498D01*
X128853672Y-64146507D01*
X128850437Y-64140904D01*
X128850436Y-64140901D01*
X128795989Y-64046597D01*
X128795988Y-64046596D01*
X128792751Y-64040989D01*
X128748883Y-64004179D01*
X128704377Y-63966833D01*
X128704374Y-63966832D01*
X128699415Y-63962670D01*
X128693328Y-63960455D01*
X128687725Y-63957220D01*
X128688353Y-63956133D01*
X128654861Y-63928034D01*
X128646069Y-63878180D01*
X128658238Y-63809171D01*
X128666634Y-63761553D01*
X128656055Y-63701558D01*
X128646600Y-63647936D01*
X128645476Y-63641562D01*
X128642241Y-63635959D01*
X128642240Y-63635956D01*
X128587793Y-63541652D01*
X128587792Y-63541651D01*
X128584555Y-63536044D01*
X128563806Y-63518633D01*
X128496181Y-63461888D01*
X128496178Y-63461887D01*
X128491219Y-63457725D01*
X128475328Y-63451941D01*
X128460354Y-63446491D01*
X128376725Y-63416053D01*
X128254883Y-63416053D01*
X128171254Y-63446491D01*
X128156281Y-63451941D01*
X128140389Y-63457725D01*
X128135430Y-63461887D01*
X128135427Y-63461888D01*
X128067802Y-63518633D01*
X128047053Y-63536044D01*
X128043816Y-63541651D01*
X128043815Y-63541652D01*
X127989368Y-63635956D01*
X127989367Y-63635959D01*
X127986132Y-63641562D01*
X127985008Y-63647936D01*
X127975553Y-63701558D01*
X127964974Y-63761553D01*
X127986132Y-63881544D01*
X127989367Y-63887147D01*
X127989368Y-63887150D01*
X128041972Y-63978262D01*
X128047053Y-63987062D01*
X128052013Y-63991224D01*
X128135427Y-64061218D01*
X128135430Y-64061219D01*
X128140389Y-64065381D01*
X128146476Y-64067596D01*
X128152079Y-64070831D01*
X128151451Y-64071918D01*
X128184943Y-64100017D01*
X128193735Y-64149871D01*
X128173170Y-64266498D01*
X128185840Y-64338348D01*
X128188687Y-64354496D01*
X128179897Y-64404346D01*
X128141121Y-64436883D01*
X128115811Y-64441346D01*
X128095060Y-64441346D01*
X127980566Y-64483018D01*
X127975607Y-64487180D01*
X127975604Y-64487181D01*
X127970226Y-64491694D01*
X127887230Y-64561337D01*
X127883993Y-64566944D01*
X127883992Y-64566945D01*
X127829545Y-64661249D01*
X127829544Y-64661252D01*
X127826309Y-64666855D01*
X127805151Y-64786846D01*
X123824722Y-64786846D01*
X123817126Y-64780472D01*
X123749177Y-64723455D01*
X123749174Y-64723454D01*
X123744215Y-64719292D01*
X123629721Y-64677620D01*
X123507879Y-64677620D01*
X123393385Y-64719292D01*
X123388426Y-64723454D01*
X123388423Y-64723455D01*
X123320474Y-64780472D01*
X123300049Y-64797611D01*
X123296812Y-64803218D01*
X123296811Y-64803219D01*
X123242364Y-64897523D01*
X123242363Y-64897526D01*
X123239128Y-64903129D01*
X123238004Y-64909503D01*
X123231080Y-64948772D01*
X123217970Y-65023120D01*
X121305318Y-65023120D01*
X121252189Y-64931099D01*
X121252188Y-64931098D01*
X121248951Y-64925491D01*
X121233401Y-64912443D01*
X121160577Y-64851335D01*
X121160574Y-64851334D01*
X121155615Y-64847172D01*
X121041121Y-64805500D01*
X120919279Y-64805500D01*
X120804785Y-64847172D01*
X120799826Y-64851334D01*
X120799823Y-64851335D01*
X120726999Y-64912443D01*
X120711449Y-64925491D01*
X120708212Y-64931098D01*
X120708211Y-64931099D01*
X120653764Y-65025403D01*
X120653763Y-65025406D01*
X120650528Y-65031009D01*
X120629370Y-65151000D01*
X120331878Y-65151000D01*
X120340775Y-65100545D01*
X120325958Y-65016517D01*
X120320741Y-64986928D01*
X120319617Y-64980554D01*
X120316382Y-64974951D01*
X120316381Y-64974948D01*
X120261934Y-64880644D01*
X120261933Y-64880643D01*
X120258696Y-64875036D01*
X120230451Y-64851335D01*
X120170322Y-64800880D01*
X120170319Y-64800879D01*
X120165360Y-64796717D01*
X120156382Y-64793449D01*
X120120727Y-64780472D01*
X120050866Y-64755045D01*
X119929024Y-64755045D01*
X119859163Y-64780472D01*
X119823509Y-64793449D01*
X119814530Y-64796717D01*
X119809569Y-64800879D01*
X119809565Y-64800882D01*
X119755566Y-64846193D01*
X119708000Y-64863506D01*
X119660434Y-64846193D01*
X119635124Y-64802356D01*
X119634000Y-64789506D01*
X119634000Y-63376664D01*
X121135441Y-63376664D01*
X121156599Y-63496655D01*
X121159834Y-63502258D01*
X121159835Y-63502261D01*
X121205489Y-63581335D01*
X121217520Y-63602173D01*
X121222480Y-63606335D01*
X121305894Y-63676329D01*
X121305897Y-63676330D01*
X121310856Y-63680492D01*
X121316943Y-63682708D01*
X121316944Y-63682708D01*
X121336354Y-63689772D01*
X121409126Y-63716259D01*
X121447902Y-63748794D01*
X121456692Y-63798644D01*
X121442170Y-63881000D01*
X121463328Y-64000991D01*
X121466563Y-64006594D01*
X121466564Y-64006597D01*
X121506611Y-64075960D01*
X121524249Y-64106509D01*
X121529209Y-64110671D01*
X121612623Y-64180665D01*
X121612626Y-64180666D01*
X121617585Y-64184828D01*
X121732079Y-64226500D01*
X121853921Y-64226500D01*
X121968415Y-64184828D01*
X121973374Y-64180666D01*
X121973377Y-64180665D01*
X122056791Y-64110671D01*
X122061751Y-64106509D01*
X122079389Y-64075960D01*
X122119436Y-64006597D01*
X122119437Y-64006594D01*
X122122672Y-64000991D01*
X122143830Y-63881000D01*
X122122672Y-63761009D01*
X122119437Y-63755406D01*
X122119436Y-63755403D01*
X122064989Y-63661099D01*
X122064988Y-63661098D01*
X122061751Y-63655491D01*
X122045151Y-63641562D01*
X121973377Y-63581335D01*
X121973374Y-63581334D01*
X121968415Y-63577172D01*
X121870145Y-63541405D01*
X121831369Y-63508870D01*
X121822579Y-63459019D01*
X121822808Y-63457725D01*
X121837101Y-63376664D01*
X121836455Y-63373000D01*
X125480770Y-63373000D01*
X125501928Y-63492991D01*
X125505163Y-63498594D01*
X125505164Y-63498597D01*
X125559611Y-63592901D01*
X125562849Y-63598509D01*
X125567809Y-63602671D01*
X125651223Y-63672665D01*
X125651226Y-63672666D01*
X125656185Y-63676828D01*
X125662272Y-63679044D01*
X125662273Y-63679044D01*
X125764595Y-63716286D01*
X125764597Y-63716286D01*
X125765110Y-63716473D01*
X125770679Y-63718500D01*
X125770321Y-63719482D01*
X125808705Y-63741647D01*
X125826014Y-63789214D01*
X125824890Y-63802055D01*
X125810970Y-63881000D01*
X125832128Y-64000991D01*
X125835363Y-64006594D01*
X125835364Y-64006597D01*
X125875411Y-64075960D01*
X125893049Y-64106509D01*
X125898009Y-64110671D01*
X125981423Y-64180665D01*
X125981426Y-64180666D01*
X125986385Y-64184828D01*
X126100879Y-64226500D01*
X126222721Y-64226500D01*
X126337215Y-64184828D01*
X126342174Y-64180666D01*
X126342177Y-64180665D01*
X126425591Y-64110671D01*
X126430551Y-64106509D01*
X126448189Y-64075960D01*
X126488236Y-64006597D01*
X126488237Y-64006594D01*
X126491472Y-64000991D01*
X126512630Y-63881000D01*
X126491472Y-63761009D01*
X126488237Y-63755406D01*
X126488236Y-63755403D01*
X126433789Y-63661099D01*
X126433788Y-63661098D01*
X126430551Y-63655491D01*
X126413951Y-63641562D01*
X126342177Y-63581335D01*
X126342174Y-63581334D01*
X126337215Y-63577172D01*
X126331127Y-63574956D01*
X126228805Y-63537714D01*
X126228803Y-63537714D01*
X126222721Y-63535500D01*
X126223079Y-63534518D01*
X126184695Y-63512353D01*
X126167386Y-63464786D01*
X126168510Y-63451941D01*
X126179129Y-63391723D01*
X126182430Y-63373000D01*
X126172854Y-63318693D01*
X126181644Y-63268843D01*
X126220420Y-63236306D01*
X126221934Y-63235900D01*
X126222721Y-63235900D01*
X126337215Y-63194228D01*
X126342174Y-63190066D01*
X126342177Y-63190065D01*
X126425591Y-63120071D01*
X126430551Y-63115909D01*
X126437358Y-63104119D01*
X126488236Y-63015997D01*
X126488237Y-63015994D01*
X126491472Y-63010391D01*
X126512630Y-62890400D01*
X126491472Y-62770409D01*
X126488237Y-62764806D01*
X126488236Y-62764803D01*
X126433789Y-62670499D01*
X126433788Y-62670498D01*
X126430551Y-62664891D01*
X126419719Y-62655802D01*
X126342177Y-62590735D01*
X126342174Y-62590734D01*
X126337215Y-62586572D01*
X126222721Y-62544900D01*
X126100879Y-62544900D01*
X125986385Y-62586572D01*
X125981426Y-62590734D01*
X125981423Y-62590735D01*
X125903881Y-62655802D01*
X125893049Y-62664891D01*
X125889812Y-62670498D01*
X125889811Y-62670499D01*
X125835364Y-62764803D01*
X125835363Y-62764806D01*
X125832128Y-62770409D01*
X125810970Y-62890400D01*
X125817000Y-62924597D01*
X125820546Y-62944707D01*
X125811756Y-62994557D01*
X125772980Y-63027094D01*
X125771466Y-63027500D01*
X125770679Y-63027500D01*
X125736245Y-63040033D01*
X125666516Y-63065412D01*
X125656185Y-63069172D01*
X125651226Y-63073334D01*
X125651223Y-63073335D01*
X125569054Y-63142284D01*
X125562849Y-63147491D01*
X125559612Y-63153098D01*
X125559611Y-63153099D01*
X125505164Y-63247403D01*
X125505163Y-63247406D01*
X125501928Y-63253009D01*
X125500804Y-63259383D01*
X125496378Y-63284484D01*
X125480770Y-63373000D01*
X121836455Y-63373000D01*
X121822510Y-63293916D01*
X121831300Y-63244067D01*
X121870076Y-63211531D01*
X121917615Y-63194228D01*
X121922574Y-63190066D01*
X121922577Y-63190065D01*
X122005991Y-63120071D01*
X122010951Y-63115909D01*
X122017758Y-63104119D01*
X122068636Y-63015997D01*
X122068637Y-63015994D01*
X122071872Y-63010391D01*
X122084072Y-62941200D01*
X123982170Y-62941200D01*
X124003328Y-63061191D01*
X124006563Y-63066794D01*
X124006564Y-63066797D01*
X124061011Y-63161101D01*
X124064249Y-63166709D01*
X124069209Y-63170871D01*
X124152623Y-63240865D01*
X124152626Y-63240866D01*
X124157585Y-63245028D01*
X124272079Y-63286700D01*
X124393921Y-63286700D01*
X124508415Y-63245028D01*
X124513374Y-63240866D01*
X124513377Y-63240865D01*
X124596791Y-63170871D01*
X124601751Y-63166709D01*
X124604989Y-63161101D01*
X124659436Y-63066797D01*
X124659437Y-63066794D01*
X124662672Y-63061191D01*
X124683830Y-62941200D01*
X124662672Y-62821209D01*
X124659437Y-62815606D01*
X124659436Y-62815603D01*
X124604989Y-62721299D01*
X124604988Y-62721298D01*
X124601751Y-62715691D01*
X124565632Y-62685383D01*
X124513377Y-62641535D01*
X124513374Y-62641534D01*
X124508415Y-62637372D01*
X124393921Y-62595700D01*
X124272079Y-62595700D01*
X124157585Y-62637372D01*
X124152626Y-62641534D01*
X124152623Y-62641535D01*
X124100368Y-62685383D01*
X124064249Y-62715691D01*
X124061012Y-62721298D01*
X124061011Y-62721299D01*
X124006564Y-62815603D01*
X124006563Y-62815606D01*
X124003328Y-62821209D01*
X123982170Y-62941200D01*
X122084072Y-62941200D01*
X122093030Y-62890400D01*
X122071872Y-62770409D01*
X122068637Y-62764806D01*
X122068636Y-62764803D01*
X122014189Y-62670499D01*
X122014188Y-62670498D01*
X122010951Y-62664891D01*
X122000119Y-62655802D01*
X121922577Y-62590735D01*
X121922574Y-62590734D01*
X121917615Y-62586572D01*
X121803121Y-62544900D01*
X121681279Y-62544900D01*
X121566785Y-62586572D01*
X121561826Y-62590734D01*
X121561823Y-62590735D01*
X121484281Y-62655802D01*
X121473449Y-62664891D01*
X121470212Y-62670498D01*
X121470211Y-62670499D01*
X121415764Y-62764803D01*
X121415763Y-62764806D01*
X121412528Y-62770409D01*
X121391370Y-62890400D01*
X121404807Y-62966600D01*
X121405961Y-62973147D01*
X121397171Y-63022997D01*
X121358395Y-63055533D01*
X121333223Y-63064695D01*
X121320923Y-63069172D01*
X121310856Y-63072836D01*
X121305897Y-63076998D01*
X121305894Y-63076999D01*
X121272472Y-63105044D01*
X121217520Y-63151155D01*
X121214283Y-63156762D01*
X121214282Y-63156763D01*
X121159835Y-63251067D01*
X121159834Y-63251070D01*
X121156599Y-63256673D01*
X121135441Y-63376664D01*
X119634000Y-63376664D01*
X119634000Y-63104119D01*
X119651313Y-63056553D01*
X119695150Y-63031243D01*
X119745000Y-63040033D01*
X119755566Y-63047432D01*
X119816620Y-63098663D01*
X119816624Y-63098666D01*
X119821585Y-63102828D01*
X119936079Y-63144500D01*
X120057921Y-63144500D01*
X120172415Y-63102828D01*
X120177374Y-63098666D01*
X120177377Y-63098665D01*
X120260791Y-63028671D01*
X120265751Y-63024509D01*
X120268989Y-63018901D01*
X120323436Y-62924597D01*
X120323437Y-62924594D01*
X120326672Y-62918991D01*
X120347830Y-62799000D01*
X120326672Y-62679009D01*
X120323437Y-62673406D01*
X120323436Y-62673403D01*
X120268989Y-62579099D01*
X120268988Y-62579098D01*
X120265751Y-62573491D01*
X120259065Y-62567881D01*
X120177377Y-62499335D01*
X120177374Y-62499334D01*
X120172415Y-62495172D01*
X120057921Y-62453500D01*
X119936079Y-62453500D01*
X119821585Y-62495172D01*
X119816624Y-62499334D01*
X119816620Y-62499337D01*
X119755566Y-62550568D01*
X119708000Y-62567881D01*
X119660434Y-62550568D01*
X119635124Y-62506731D01*
X119634000Y-62493881D01*
X119634000Y-61747400D01*
X128411970Y-61747400D01*
X128433128Y-61867391D01*
X128436363Y-61872994D01*
X128436364Y-61872997D01*
X128481800Y-61951694D01*
X128494049Y-61972909D01*
X128499009Y-61977071D01*
X128582423Y-62047065D01*
X128582426Y-62047066D01*
X128587385Y-62051228D01*
X128701879Y-62092900D01*
X128823721Y-62092900D01*
X128938215Y-62051228D01*
X128943174Y-62047066D01*
X128943177Y-62047065D01*
X129026591Y-61977071D01*
X129031551Y-61972909D01*
X129043800Y-61951694D01*
X129089236Y-61872997D01*
X129089237Y-61872994D01*
X129092472Y-61867391D01*
X129113630Y-61747400D01*
X129092472Y-61627409D01*
X129089237Y-61621806D01*
X129089236Y-61621803D01*
X129034789Y-61527499D01*
X129034788Y-61527498D01*
X129031551Y-61521891D01*
X129000537Y-61495867D01*
X128943177Y-61447735D01*
X128943174Y-61447734D01*
X128938215Y-61443572D01*
X128930855Y-61440893D01*
X128907350Y-61432338D01*
X128823721Y-61401900D01*
X128701879Y-61401900D01*
X128618250Y-61432338D01*
X128594746Y-61440893D01*
X128587385Y-61443572D01*
X128582426Y-61447734D01*
X128582423Y-61447735D01*
X128525063Y-61495867D01*
X128494049Y-61521891D01*
X128490812Y-61527498D01*
X128490811Y-61527499D01*
X128436364Y-61621803D01*
X128436363Y-61621806D01*
X128433128Y-61627409D01*
X128411970Y-61747400D01*
X119634000Y-61747400D01*
X119634000Y-61440893D01*
X119643914Y-61403893D01*
X119681036Y-61339597D01*
X119681037Y-61339594D01*
X119684272Y-61333991D01*
X119705430Y-61214000D01*
X119684272Y-61094009D01*
X119681037Y-61088406D01*
X119681036Y-61088403D01*
X119643914Y-61024107D01*
X119634000Y-60987107D01*
X119634000Y-60930500D01*
X119651313Y-60882934D01*
X119695150Y-60857624D01*
X119708000Y-60856500D01*
X121529036Y-60856500D01*
X121576602Y-60873813D01*
G37*
%TD.AperFunction*%
%TD*%
M02*
