%TF.GenerationSoftware,KiCad,Pcbnew,(7.0.0)*%
%TF.CreationDate,2023-03-07T13:57:33-05:00*%
%TF.ProjectId,imu-stamp,696d752d-7374-4616-9d70-2e6b69636164,rev?*%
%TF.SameCoordinates,Original*%
%TF.FileFunction,Soldermask,Top*%
%TF.FilePolarity,Negative*%
%FSLAX46Y46*%
G04 Gerber Fmt 4.6, Leading zero omitted, Abs format (unit mm)*
G04 Created by KiCad (PCBNEW (7.0.0)) date 2023-03-07 13:57:33*
%MOMM*%
%LPD*%
G01*
G04 APERTURE LIST*
G04 Aperture macros list*
%AMRoundRect*
0 Rectangle with rounded corners*
0 $1 Rounding radius*
0 $2 $3 $4 $5 $6 $7 $8 $9 X,Y pos of 4 corners*
0 Add a 4 corners polygon primitive as box body*
4,1,4,$2,$3,$4,$5,$6,$7,$8,$9,$2,$3,0*
0 Add four circle primitives for the rounded corners*
1,1,$1+$1,$2,$3*
1,1,$1+$1,$4,$5*
1,1,$1+$1,$6,$7*
1,1,$1+$1,$8,$9*
0 Add four rect primitives between the rounded corners*
20,1,$1+$1,$2,$3,$4,$5,0*
20,1,$1+$1,$4,$5,$6,$7,0*
20,1,$1+$1,$6,$7,$8,$9,0*
20,1,$1+$1,$8,$9,$2,$3,0*%
G04 Aperture macros list end*
%ADD10C,0.010000*%
%ADD11R,0.550000X0.350000*%
%ADD12R,0.350000X0.550000*%
%ADD13RoundRect,0.100000X0.130000X0.100000X-0.130000X0.100000X-0.130000X-0.100000X0.130000X-0.100000X0*%
%ADD14RoundRect,0.100000X-0.100000X0.130000X-0.100000X-0.130000X0.100000X-0.130000X0.100000X0.130000X0*%
%ADD15RoundRect,0.150000X0.150000X-0.512500X0.150000X0.512500X-0.150000X0.512500X-0.150000X-0.512500X0*%
%ADD16RoundRect,0.100000X-0.130000X-0.100000X0.130000X-0.100000X0.130000X0.100000X-0.130000X0.100000X0*%
%ADD17RoundRect,0.140000X-0.140000X-0.170000X0.140000X-0.170000X0.140000X0.170000X-0.140000X0.170000X0*%
%ADD18R,0.350000X0.375000*%
%ADD19R,0.375000X0.350000*%
%ADD20RoundRect,0.225000X-0.225000X-0.250000X0.225000X-0.250000X0.225000X0.250000X-0.225000X0.250000X0*%
%ADD21O,1.000000X1.000000*%
%ADD22O,1.879600X1.000000*%
%ADD23C,1.000000*%
%ADD24O,1.879600X1.008000*%
%ADD25O,1.863600X1.008000*%
%ADD26R,0.650000X0.250000*%
%ADD27R,1.660000X4.400000*%
%ADD28C,0.250000*%
%ADD29RoundRect,0.140000X0.140000X0.170000X-0.140000X0.170000X-0.140000X-0.170000X0.140000X-0.170000X0*%
G04 APERTURE END LIST*
D10*
%TO.C,U3*%
X124943000Y-62128800D02*
X125627600Y-62128800D01*
X125627600Y-62128800D02*
X125627600Y-64617200D01*
X125627600Y-64617200D02*
X124943000Y-64617200D01*
X124943000Y-64617200D02*
X124943000Y-62128800D01*
G36*
X124943000Y-62128800D02*
G01*
X125627600Y-62128800D01*
X125627600Y-64617200D01*
X124943000Y-64617200D01*
X124943000Y-62128800D01*
G37*
X125755800Y-64262400D02*
X127228200Y-64262400D01*
X127228200Y-64262400D02*
X127228200Y-64922800D01*
X127228200Y-64922800D02*
X125755800Y-64922800D01*
X125755800Y-64922800D02*
X125755800Y-64262400D01*
G36*
X125755800Y-64262400D02*
G01*
X127228200Y-64262400D01*
X127228200Y-64922800D01*
X125755800Y-64922800D01*
X125755800Y-64262400D01*
G37*
X125767000Y-61823000D02*
X127217000Y-61823000D01*
X127217000Y-61823000D02*
X127217000Y-62473000D01*
X127217000Y-62473000D02*
X125767000Y-62473000D01*
X125767000Y-62473000D02*
X125767000Y-61823000D01*
G36*
X125767000Y-61823000D02*
G01*
X127217000Y-61823000D01*
X127217000Y-62473000D01*
X125767000Y-62473000D01*
X125767000Y-61823000D01*
G37*
X127367000Y-62128800D02*
X128041000Y-62128800D01*
X128041000Y-62128800D02*
X128041000Y-64617200D01*
X128041000Y-64617200D02*
X127367000Y-64617200D01*
X127367000Y-64617200D02*
X127367000Y-62128800D01*
G36*
X127367000Y-62128800D02*
G01*
X128041000Y-62128800D01*
X128041000Y-64617200D01*
X127367000Y-64617200D01*
X127367000Y-62128800D01*
G37*
%TO.C,U6*%
X120625000Y-62123800D02*
X121309600Y-62123800D01*
X121309600Y-62123800D02*
X121309600Y-64612200D01*
X121309600Y-64612200D02*
X120625000Y-64612200D01*
X120625000Y-64612200D02*
X120625000Y-62123800D01*
G36*
X120625000Y-62123800D02*
G01*
X121309600Y-62123800D01*
X121309600Y-64612200D01*
X120625000Y-64612200D01*
X120625000Y-62123800D01*
G37*
X121437800Y-64257400D02*
X122910200Y-64257400D01*
X122910200Y-64257400D02*
X122910200Y-64917800D01*
X122910200Y-64917800D02*
X121437800Y-64917800D01*
X121437800Y-64917800D02*
X121437800Y-64257400D01*
G36*
X121437800Y-64257400D02*
G01*
X122910200Y-64257400D01*
X122910200Y-64917800D01*
X121437800Y-64917800D01*
X121437800Y-64257400D01*
G37*
X121449000Y-61818000D02*
X122899000Y-61818000D01*
X122899000Y-61818000D02*
X122899000Y-62468000D01*
X122899000Y-62468000D02*
X121449000Y-62468000D01*
X121449000Y-62468000D02*
X121449000Y-61818000D01*
G36*
X121449000Y-61818000D02*
G01*
X122899000Y-61818000D01*
X122899000Y-62468000D01*
X121449000Y-62468000D01*
X121449000Y-61818000D01*
G37*
X123049000Y-62123800D02*
X123723000Y-62123800D01*
X123723000Y-62123800D02*
X123723000Y-64612200D01*
X123723000Y-64612200D02*
X123049000Y-64612200D01*
X123049000Y-64612200D02*
X123049000Y-62123800D01*
G36*
X123049000Y-62123800D02*
G01*
X123723000Y-62123800D01*
X123723000Y-64612200D01*
X123049000Y-64612200D01*
X123049000Y-62123800D01*
G37*
%TD*%
D11*
%TO.C,U3*%
X125266999Y-62372999D03*
X125266999Y-62872999D03*
X125266999Y-63372999D03*
X125266999Y-63872999D03*
X125266999Y-64372999D03*
D12*
X125991999Y-64597999D03*
X126491999Y-64597999D03*
X126991999Y-64597999D03*
D11*
X127716999Y-64372999D03*
X127716999Y-63872999D03*
X127716999Y-63372999D03*
X127716999Y-62872999D03*
X127716999Y-62372999D03*
D12*
X126991999Y-62147999D03*
X126491999Y-62147999D03*
X125991999Y-62147999D03*
%TD*%
D11*
%TO.C,U6*%
X120948999Y-62367999D03*
X120948999Y-62867999D03*
X120948999Y-63367999D03*
X120948999Y-63867999D03*
X120948999Y-64367999D03*
D12*
X121673999Y-64592999D03*
X122173999Y-64592999D03*
X122673999Y-64592999D03*
D11*
X123398999Y-64367999D03*
X123398999Y-63867999D03*
X123398999Y-63367999D03*
X123398999Y-62867999D03*
X123398999Y-62367999D03*
D12*
X122673999Y-62142999D03*
X122173999Y-62142999D03*
X121673999Y-62142999D03*
%TD*%
D13*
%TO.C,C13*%
X121859000Y-61214000D03*
X121219000Y-61214000D03*
%TD*%
D14*
%TO.C,R17*%
X119997000Y-63810000D03*
X119997000Y-64450000D03*
%TD*%
D13*
%TO.C,R5*%
X130799800Y-61214000D03*
X130159800Y-61214000D03*
%TD*%
%TO.C,R11*%
X129834600Y-68224400D03*
X129194600Y-68224400D03*
%TD*%
D15*
%TO.C,U2*%
X116779000Y-66567900D03*
X117729000Y-66567900D03*
X118679000Y-66567900D03*
X118679000Y-64292900D03*
X117729000Y-64292900D03*
X116779000Y-64292900D03*
%TD*%
D16*
%TO.C,C14*%
X122616000Y-61214000D03*
X123256000Y-61214000D03*
%TD*%
%TO.C,R18*%
X124013000Y-68072000D03*
X124653000Y-68072000D03*
%TD*%
%TO.C,C1*%
X131556800Y-61214000D03*
X132196800Y-61214000D03*
%TD*%
D17*
%TO.C,C6*%
X124107000Y-61214000D03*
X125067000Y-61214000D03*
%TD*%
D18*
%TO.C,U5*%
X121471999Y-65658499D03*
X120971999Y-65658499D03*
X120471999Y-65658499D03*
X119971999Y-65658499D03*
D19*
X119959499Y-66170999D03*
X119959499Y-66670999D03*
D18*
X119971999Y-67183499D03*
X120471999Y-67183499D03*
X120971999Y-67183499D03*
X121471999Y-67183499D03*
D19*
X121484499Y-66670999D03*
X121484499Y-66170999D03*
%TD*%
D16*
%TO.C,C8*%
X127315000Y-61214000D03*
X127955000Y-61214000D03*
%TD*%
D20*
%TO.C,C3*%
X116674600Y-61417200D03*
X118224600Y-61417200D03*
%TD*%
D14*
%TO.C,C5*%
X124333000Y-62296000D03*
X124333000Y-62936000D03*
%TD*%
%TO.C,C11*%
X119997000Y-62159000D03*
X119997000Y-62799000D03*
%TD*%
D16*
%TO.C,R9*%
X118425000Y-68021200D03*
X119065000Y-68021200D03*
%TD*%
D17*
%TO.C,C9*%
X124945200Y-65659000D03*
X125905200Y-65659000D03*
%TD*%
%TO.C,C15*%
X126774000Y-65659000D03*
X127734000Y-65659000D03*
%TD*%
D21*
%TO.C,P2*%
X133832599Y-67187999D03*
D22*
X133400799Y-67187999D03*
D23*
X132969000Y-67188000D03*
D21*
X133832599Y-65917999D03*
D24*
X133400799Y-65913999D03*
D21*
X132968999Y-65917999D03*
X133832599Y-64647999D03*
D25*
X133408799Y-64643999D03*
D21*
X132968999Y-64647999D03*
X133832599Y-63377999D03*
D22*
X133400799Y-63377999D03*
D21*
X132968999Y-63377999D03*
X133832599Y-62107999D03*
D24*
X133400799Y-62103999D03*
D21*
X132968999Y-62107999D03*
%TD*%
D13*
%TO.C,C7*%
X126558000Y-61214000D03*
X125918000Y-61214000D03*
%TD*%
%TO.C,C16*%
X123256000Y-68072000D03*
X122616000Y-68072000D03*
%TD*%
D26*
%TO.C,U1*%
X131599999Y-66265999D03*
X131599999Y-65765999D03*
X131599999Y-65265999D03*
X131599999Y-64765999D03*
X131599999Y-64265999D03*
X131599999Y-63765999D03*
X131599999Y-63265999D03*
X131599999Y-62765999D03*
X128749999Y-62765999D03*
X128749999Y-63265999D03*
X128749999Y-63765999D03*
X128749999Y-64265999D03*
X128749999Y-64765999D03*
X128749999Y-65265999D03*
X128749999Y-65765999D03*
X128749999Y-66265999D03*
D27*
X130174999Y-64515999D03*
%TD*%
D13*
%TO.C,R13*%
X129834600Y-67513200D03*
X129194600Y-67513200D03*
%TD*%
D18*
%TO.C,U8*%
X124066999Y-65658499D03*
X123566999Y-65658499D03*
X123066999Y-65658499D03*
X122566999Y-65658499D03*
D19*
X122554499Y-66170999D03*
X122554499Y-66670999D03*
D18*
X122566999Y-67183499D03*
X123066999Y-67183499D03*
X123566999Y-67183499D03*
X124066999Y-67183499D03*
D19*
X124079499Y-66670999D03*
X124079499Y-66170999D03*
%TD*%
D13*
%TO.C,R14*%
X131257000Y-67513200D03*
X130617000Y-67513200D03*
%TD*%
D14*
%TO.C,R15*%
X124333000Y-63947000D03*
X124333000Y-64587000D03*
%TD*%
D13*
%TO.C,C10*%
X120462000Y-68044000D03*
X119822000Y-68044000D03*
%TD*%
D16*
%TO.C,R16*%
X121219000Y-68072000D03*
X121859000Y-68072000D03*
%TD*%
D28*
%TO.C,U7*%
X127454000Y-67364000D03*
X127454000Y-67764000D03*
X127054000Y-67364000D03*
X127054000Y-67764000D03*
%TD*%
D17*
%TO.C,C4*%
X116614000Y-67945000D03*
X117574000Y-67945000D03*
%TD*%
D28*
%TO.C,U4*%
X126057000Y-67364000D03*
X126057000Y-67764000D03*
X125657000Y-67364000D03*
X125657000Y-67764000D03*
%TD*%
D20*
%TO.C,C2*%
X117434000Y-62738000D03*
X118984000Y-62738000D03*
%TD*%
D16*
%TO.C,R1*%
X128762800Y-61214000D03*
X129402800Y-61214000D03*
%TD*%
D13*
%TO.C,R12*%
X131257000Y-68224400D03*
X130617000Y-68224400D03*
%TD*%
D21*
%TO.C,P1*%
X114587399Y-62098999D03*
D22*
X115019199Y-62098999D03*
D23*
X115451000Y-62099000D03*
D21*
X114587399Y-63368999D03*
D24*
X115019199Y-63372999D03*
D21*
X115450999Y-63368999D03*
X114587399Y-64638999D03*
D25*
X115011199Y-64642999D03*
D21*
X115450999Y-64638999D03*
X114587399Y-65908999D03*
D22*
X115019199Y-65908999D03*
D21*
X115450999Y-65908999D03*
X114587399Y-67178999D03*
D24*
X115019199Y-67182999D03*
D21*
X115450999Y-67178999D03*
%TD*%
D29*
%TO.C,C12*%
X120317200Y-61214000D03*
X119357200Y-61214000D03*
%TD*%
M02*
