%TF.GenerationSoftware,KiCad,Pcbnew,7.0.1*%
%TF.CreationDate,2023-03-14T15:54:19-04:00*%
%TF.ProjectId,imu-stamp,696d752d-7374-4616-9d70-2e6b69636164,rev?*%
%TF.SameCoordinates,Original*%
%TF.FileFunction,Copper,L2,Inr*%
%TF.FilePolarity,Positive*%
%FSLAX46Y46*%
G04 Gerber Fmt 4.6, Leading zero omitted, Abs format (unit mm)*
G04 Created by KiCad (PCBNEW 7.0.1) date 2023-03-14 15:54:19*
%MOMM*%
%LPD*%
G01*
G04 APERTURE LIST*
%TA.AperFunction,ComponentPad*%
%ADD10C,1.016000*%
%TD*%
%TA.AperFunction,ViaPad*%
%ADD11C,0.350000*%
%TD*%
G04 APERTURE END LIST*
D10*
%TO.N,VCC*%
%TO.C,P1*%
X114477800Y-62103000D03*
X115316000Y-62103000D03*
%TO.N,GND*%
X114477800Y-63373000D03*
X115316000Y-63373000D03*
%TO.N,/SCL*%
X114477800Y-64643000D03*
X115316000Y-64643000D03*
%TO.N,/SDA*%
X114477800Y-65913000D03*
X115316000Y-65913000D03*
%TO.N,/EN*%
X114477800Y-67183000D03*
X115316000Y-67183000D03*
%TD*%
%TO.N,3.3V*%
%TO.C,P2*%
X133934200Y-67183000D03*
X133096000Y-67183000D03*
%TO.N,/XORL2*%
X133934200Y-65913000D03*
X133096000Y-65913000D03*
%TO.N,/XORL1*%
X133934200Y-64643000D03*
X133096000Y-64643000D03*
%TO.N,GND*%
X133934200Y-63373000D03*
X133096000Y-63373000D03*
X133934200Y-62103000D03*
X133096000Y-62103000D03*
%TD*%
D11*
%TO.N,GND*%
X125907800Y-65252600D03*
X122021600Y-65405000D03*
X124333000Y-62941200D03*
X121843800Y-61214000D03*
X124079000Y-65227200D03*
X123266200Y-61214000D03*
X120462000Y-68044000D03*
X131556800Y-61214000D03*
X120297263Y-63291801D03*
X118897400Y-63017400D03*
X117576600Y-67437000D03*
X118897400Y-62484000D03*
X127955000Y-61214000D03*
X119354600Y-61214000D03*
X123256000Y-68072000D03*
X125069600Y-61239400D03*
X117574000Y-67945000D03*
X119989945Y-65100545D03*
X126558000Y-61214000D03*
X127660089Y-66673164D03*
%TO.N,3.3V*%
X122616000Y-68072000D03*
X124653000Y-68072000D03*
X119822000Y-68044000D03*
X124104400Y-61214000D03*
X126774000Y-65659000D03*
X121208800Y-61214000D03*
X125918000Y-61214000D03*
X124333000Y-63947000D03*
X120319800Y-61214000D03*
X131257000Y-67513200D03*
X119997000Y-63810000D03*
X132092662Y-65760528D03*
X130159800Y-61214000D03*
X124942600Y-65252600D03*
X132196800Y-61214000D03*
X116611400Y-67437000D03*
X116614000Y-67945000D03*
X129834600Y-67513200D03*
%TO.N,VCC*%
X117434000Y-62966600D03*
X117434000Y-62966600D03*
X117449600Y-62509400D03*
%TO.N,/EN*%
X118425000Y-68021200D03*
%TO.N,/SDA*%
X128750000Y-64266000D03*
X128762800Y-61747400D03*
%TO.N,/SCL*%
X130799800Y-61214000D03*
X128970498Y-65765502D03*
%TO.N,/SCL_1*%
X128016000Y-67564000D03*
X125267000Y-62873000D03*
X124079500Y-66171000D03*
%TO.N,/SDA_1*%
X128828800Y-67522164D03*
X125267000Y-63373000D03*
X128607100Y-63766000D03*
X123567000Y-65658500D03*
%TO.N,/SCL_0*%
X128524000Y-65266498D03*
X130617000Y-68224400D03*
X126517400Y-67564000D03*
X121484500Y-66171000D03*
X120949000Y-62868000D03*
%TO.N,/SDA_0*%
X129194600Y-68224400D03*
X128163402Y-64920850D03*
X120949000Y-63368000D03*
X120972498Y-65659000D03*
X125069600Y-67564000D03*
%TD*%
%TA.AperFunction,Conductor*%
%TO.N,GND*%
G36*
X120078595Y-60869883D02*
G01*
X120105687Y-60905190D01*
X120107629Y-60949652D01*
X120083717Y-60987187D01*
X120066605Y-61001545D01*
X120009212Y-61100954D01*
X119989278Y-61213999D01*
X120009212Y-61327045D01*
X120066605Y-61426454D01*
X120154540Y-61500241D01*
X120262405Y-61539500D01*
X120262406Y-61539500D01*
X120377194Y-61539500D01*
X120377195Y-61539500D01*
X120485059Y-61500241D01*
X120485059Y-61500240D01*
X120485061Y-61500240D01*
X120572994Y-61426455D01*
X120630388Y-61327045D01*
X120650321Y-61214000D01*
X120630388Y-61100955D01*
X120572994Y-61001545D01*
X120555883Y-60987187D01*
X120531971Y-60949652D01*
X120533913Y-60905190D01*
X120561005Y-60869883D01*
X120603450Y-60856500D01*
X120925150Y-60856500D01*
X120967595Y-60869883D01*
X120994687Y-60905190D01*
X120996629Y-60949652D01*
X120972717Y-60987187D01*
X120955605Y-61001545D01*
X120898212Y-61100954D01*
X120878278Y-61213999D01*
X120898212Y-61327045D01*
X120955605Y-61426454D01*
X121043540Y-61500241D01*
X121151405Y-61539500D01*
X121151406Y-61539500D01*
X121266194Y-61539500D01*
X121266195Y-61539500D01*
X121374059Y-61500241D01*
X121374059Y-61500240D01*
X121374061Y-61500240D01*
X121461994Y-61426455D01*
X121519388Y-61327045D01*
X121539321Y-61214000D01*
X121519388Y-61100955D01*
X121461994Y-61001545D01*
X121444883Y-60987187D01*
X121420971Y-60949652D01*
X121422913Y-60905190D01*
X121450005Y-60869883D01*
X121492450Y-60856500D01*
X123820750Y-60856500D01*
X123863195Y-60869883D01*
X123890287Y-60905190D01*
X123892229Y-60949652D01*
X123868317Y-60987187D01*
X123851205Y-61001545D01*
X123793812Y-61100954D01*
X123773878Y-61213999D01*
X123793812Y-61327045D01*
X123851205Y-61426454D01*
X123939140Y-61500241D01*
X124047005Y-61539500D01*
X124047006Y-61539500D01*
X124161794Y-61539500D01*
X124161795Y-61539500D01*
X124269659Y-61500241D01*
X124269659Y-61500240D01*
X124269661Y-61500240D01*
X124357594Y-61426455D01*
X124414988Y-61327045D01*
X124434921Y-61214000D01*
X124414988Y-61100955D01*
X124357594Y-61001545D01*
X124340483Y-60987187D01*
X124316571Y-60949652D01*
X124318513Y-60905190D01*
X124345605Y-60869883D01*
X124388050Y-60856500D01*
X125634350Y-60856500D01*
X125676795Y-60869883D01*
X125703887Y-60905190D01*
X125705829Y-60949652D01*
X125681917Y-60987187D01*
X125664805Y-61001545D01*
X125607412Y-61100954D01*
X125587478Y-61213999D01*
X125607412Y-61327045D01*
X125664805Y-61426454D01*
X125752740Y-61500241D01*
X125860605Y-61539500D01*
X125860606Y-61539500D01*
X125975394Y-61539500D01*
X125975395Y-61539500D01*
X126083259Y-61500241D01*
X126083259Y-61500240D01*
X126083261Y-61500240D01*
X126171194Y-61426455D01*
X126228588Y-61327045D01*
X126248521Y-61214000D01*
X126228588Y-61100955D01*
X126171194Y-61001545D01*
X126154083Y-60987187D01*
X126130171Y-60949652D01*
X126132113Y-60905190D01*
X126159205Y-60869883D01*
X126201650Y-60856500D01*
X129876150Y-60856500D01*
X129918595Y-60869883D01*
X129945687Y-60905190D01*
X129947629Y-60949652D01*
X129923717Y-60987187D01*
X129906605Y-61001545D01*
X129849212Y-61100954D01*
X129829278Y-61213999D01*
X129849212Y-61327045D01*
X129906605Y-61426454D01*
X129994540Y-61500241D01*
X130102405Y-61539500D01*
X130102406Y-61539500D01*
X130217194Y-61539500D01*
X130217195Y-61539500D01*
X130325059Y-61500241D01*
X130325059Y-61500240D01*
X130325061Y-61500240D01*
X130412994Y-61426455D01*
X130415713Y-61421744D01*
X130442799Y-61394658D01*
X130479800Y-61384743D01*
X130516801Y-61394658D01*
X130543887Y-61421745D01*
X130546606Y-61426455D01*
X130634540Y-61500241D01*
X130742405Y-61539500D01*
X130742406Y-61539500D01*
X130857194Y-61539500D01*
X130857195Y-61539500D01*
X130965059Y-61500241D01*
X130965059Y-61500240D01*
X130965061Y-61500240D01*
X131052994Y-61426455D01*
X131110388Y-61327045D01*
X131130321Y-61214000D01*
X131110388Y-61100955D01*
X131052994Y-61001545D01*
X131035883Y-60987187D01*
X131011971Y-60949652D01*
X131013913Y-60905190D01*
X131041005Y-60869883D01*
X131083450Y-60856500D01*
X131913150Y-60856500D01*
X131955595Y-60869883D01*
X131982687Y-60905190D01*
X131984629Y-60949652D01*
X131960717Y-60987187D01*
X131943605Y-61001545D01*
X131886212Y-61100954D01*
X131866278Y-61213999D01*
X131886212Y-61327045D01*
X131943605Y-61426454D01*
X132031540Y-61500241D01*
X132139405Y-61539500D01*
X132139406Y-61539500D01*
X132254194Y-61539500D01*
X132254195Y-61539500D01*
X132362059Y-61500241D01*
X132362059Y-61500240D01*
X132362061Y-61500240D01*
X132449994Y-61426455D01*
X132507388Y-61327045D01*
X132527321Y-61214000D01*
X132507388Y-61100955D01*
X132449994Y-61001545D01*
X132432883Y-60987187D01*
X132408971Y-60949652D01*
X132410913Y-60905190D01*
X132438005Y-60869883D01*
X132480450Y-60856500D01*
X133506500Y-60856500D01*
X133543500Y-60866414D01*
X133570586Y-60893500D01*
X133580500Y-60930500D01*
X133580500Y-64031190D01*
X133563821Y-64077991D01*
X133521302Y-64103694D01*
X133472111Y-64096714D01*
X133331224Y-64022771D01*
X133331223Y-64022770D01*
X133331222Y-64022770D01*
X133175956Y-63984500D01*
X133016044Y-63984500D01*
X132860778Y-64022770D01*
X132860777Y-64022770D01*
X132860775Y-64022771D01*
X132719182Y-64097084D01*
X132599486Y-64203126D01*
X132508644Y-64334733D01*
X132451938Y-64484254D01*
X132432664Y-64643000D01*
X132451938Y-64801745D01*
X132454236Y-64807805D01*
X132508645Y-64951268D01*
X132599486Y-65082873D01*
X132719182Y-65188915D01*
X132764074Y-65212476D01*
X132793011Y-65239715D01*
X132803684Y-65277998D01*
X132793012Y-65316281D01*
X132764075Y-65343522D01*
X132719182Y-65367084D01*
X132599486Y-65473127D01*
X132504289Y-65611042D01*
X132464928Y-65639801D01*
X132416220Y-65637837D01*
X132379302Y-65606004D01*
X132378244Y-65604172D01*
X132345856Y-65548073D01*
X132263851Y-65479262D01*
X132257921Y-65474286D01*
X132150057Y-65435028D01*
X132150056Y-65435028D01*
X132035268Y-65435028D01*
X132035267Y-65435028D01*
X131927401Y-65474287D01*
X131839468Y-65548071D01*
X131782074Y-65647482D01*
X131762140Y-65760528D01*
X131782074Y-65873573D01*
X131839317Y-65972723D01*
X131839468Y-65972983D01*
X131853193Y-65984500D01*
X131927402Y-66046769D01*
X132035267Y-66086028D01*
X132035268Y-66086028D01*
X132150056Y-66086028D01*
X132150057Y-66086028D01*
X132257921Y-66046769D01*
X132257921Y-66046768D01*
X132257923Y-66046768D01*
X132326675Y-65989077D01*
X132362370Y-65972723D01*
X132401408Y-65976932D01*
X132432797Y-66000520D01*
X132447701Y-66036845D01*
X132451938Y-66071745D01*
X132451939Y-66071747D01*
X132508645Y-66221268D01*
X132599486Y-66352873D01*
X132719182Y-66458915D01*
X132764074Y-66482476D01*
X132793011Y-66509715D01*
X132803684Y-66547998D01*
X132793012Y-66586281D01*
X132764075Y-66613522D01*
X132719182Y-66637084D01*
X132599486Y-66743126D01*
X132508644Y-66874733D01*
X132451938Y-67024254D01*
X132432664Y-67183000D01*
X132451938Y-67341745D01*
X132477489Y-67409118D01*
X132508645Y-67491268D01*
X132599486Y-67622873D01*
X132719182Y-67728915D01*
X132860778Y-67803230D01*
X133016044Y-67841500D01*
X133175954Y-67841500D01*
X133175956Y-67841500D01*
X133331222Y-67803230D01*
X133472111Y-67729285D01*
X133521302Y-67722306D01*
X133563821Y-67748009D01*
X133580500Y-67794810D01*
X133580500Y-68355500D01*
X133570586Y-68392500D01*
X133543500Y-68419586D01*
X133506500Y-68429500D01*
X130999546Y-68429500D01*
X130958882Y-68417326D01*
X130931598Y-68384810D01*
X130926670Y-68342650D01*
X130936932Y-68284455D01*
X130947521Y-68224400D01*
X130927588Y-68111355D01*
X130870194Y-68011945D01*
X130827774Y-67976350D01*
X130782259Y-67938158D01*
X130674395Y-67898900D01*
X130674394Y-67898900D01*
X130559606Y-67898900D01*
X130559605Y-67898900D01*
X130451739Y-67938159D01*
X130363806Y-68011943D01*
X130306412Y-68111354D01*
X130286478Y-68224399D01*
X130307330Y-68342650D01*
X130302402Y-68384810D01*
X130275118Y-68417326D01*
X130234454Y-68429500D01*
X129577146Y-68429500D01*
X129536482Y-68417326D01*
X129509198Y-68384810D01*
X129504270Y-68342650D01*
X129514532Y-68284455D01*
X129525121Y-68224400D01*
X129505188Y-68111355D01*
X129447794Y-68011945D01*
X129405374Y-67976350D01*
X129359859Y-67938158D01*
X129251995Y-67898900D01*
X129251994Y-67898900D01*
X129137206Y-67898900D01*
X129088304Y-67916698D01*
X129037686Y-67916697D01*
X129032989Y-67912756D01*
X129007971Y-67956090D01*
X128941405Y-68011945D01*
X128884012Y-68111354D01*
X128864078Y-68224399D01*
X128884930Y-68342650D01*
X128880002Y-68384810D01*
X128852718Y-68417326D01*
X128812054Y-68429500D01*
X124936650Y-68429500D01*
X124894205Y-68416117D01*
X124867113Y-68380810D01*
X124865171Y-68336348D01*
X124889083Y-68298813D01*
X124890324Y-68297771D01*
X124906194Y-68284455D01*
X124963588Y-68185045D01*
X124983521Y-68072000D01*
X124966655Y-67976349D01*
X124971583Y-67934190D01*
X124998867Y-67901674D01*
X125039531Y-67889500D01*
X125126995Y-67889500D01*
X125234859Y-67850241D01*
X125234859Y-67850240D01*
X125234861Y-67850240D01*
X125322794Y-67776455D01*
X125380188Y-67677045D01*
X125400121Y-67564000D01*
X126186878Y-67564000D01*
X126206812Y-67677045D01*
X126253412Y-67757760D01*
X126264206Y-67776455D01*
X126308172Y-67813347D01*
X126352140Y-67850241D01*
X126460005Y-67889500D01*
X126460006Y-67889500D01*
X126574794Y-67889500D01*
X126574795Y-67889500D01*
X126682659Y-67850241D01*
X126682659Y-67850240D01*
X126682661Y-67850240D01*
X126770594Y-67776455D01*
X126827988Y-67677045D01*
X126847921Y-67564000D01*
X127685478Y-67564000D01*
X127705412Y-67677045D01*
X127752012Y-67757760D01*
X127762806Y-67776455D01*
X127806772Y-67813347D01*
X127850740Y-67850241D01*
X127958605Y-67889500D01*
X127958606Y-67889500D01*
X128073394Y-67889500D01*
X128073395Y-67889500D01*
X128181259Y-67850241D01*
X128181259Y-67850240D01*
X128181261Y-67850240D01*
X128269194Y-67776455D01*
X128326588Y-67677045D01*
X128346521Y-67564000D01*
X128339144Y-67522163D01*
X128498278Y-67522163D01*
X128518212Y-67635209D01*
X128575436Y-67734326D01*
X128575606Y-67734619D01*
X128603182Y-67757758D01*
X128663540Y-67808405D01*
X128771405Y-67847664D01*
X128771406Y-67847664D01*
X128886194Y-67847664D01*
X128886195Y-67847664D01*
X128935095Y-67829866D01*
X128985714Y-67829866D01*
X128990410Y-67833806D01*
X129015430Y-67790473D01*
X129081993Y-67734620D01*
X129081994Y-67734619D01*
X129139388Y-67635209D01*
X129159321Y-67522164D01*
X129157740Y-67513199D01*
X129504078Y-67513199D01*
X129524012Y-67626245D01*
X129581405Y-67725654D01*
X129669340Y-67799441D01*
X129777205Y-67838700D01*
X129777206Y-67838700D01*
X129891994Y-67838700D01*
X129891995Y-67838700D01*
X129999859Y-67799441D01*
X129999859Y-67799440D01*
X129999861Y-67799440D01*
X130087794Y-67725655D01*
X130145188Y-67626245D01*
X130165121Y-67513200D01*
X130165121Y-67513199D01*
X130926478Y-67513199D01*
X130946412Y-67626245D01*
X131003805Y-67725654D01*
X131091740Y-67799441D01*
X131199605Y-67838700D01*
X131199606Y-67838700D01*
X131314394Y-67838700D01*
X131314395Y-67838700D01*
X131422259Y-67799441D01*
X131422259Y-67799440D01*
X131422261Y-67799440D01*
X131510194Y-67725655D01*
X131567588Y-67626245D01*
X131587521Y-67513200D01*
X131567588Y-67400155D01*
X131510194Y-67300745D01*
X131432943Y-67235923D01*
X131422259Y-67226958D01*
X131314395Y-67187700D01*
X131314394Y-67187700D01*
X131199606Y-67187700D01*
X131199605Y-67187700D01*
X131091739Y-67226959D01*
X131003806Y-67300743D01*
X130946412Y-67400154D01*
X130926478Y-67513199D01*
X130165121Y-67513199D01*
X130145188Y-67400155D01*
X130087794Y-67300745D01*
X130010543Y-67235923D01*
X129999859Y-67226958D01*
X129891995Y-67187700D01*
X129891994Y-67187700D01*
X129777206Y-67187700D01*
X129777205Y-67187700D01*
X129669339Y-67226959D01*
X129581406Y-67300743D01*
X129524012Y-67400154D01*
X129504078Y-67513199D01*
X129157740Y-67513199D01*
X129139388Y-67409119D01*
X129081994Y-67309709D01*
X128994061Y-67235924D01*
X128994059Y-67235922D01*
X128886195Y-67196664D01*
X128886194Y-67196664D01*
X128771406Y-67196664D01*
X128771405Y-67196664D01*
X128663539Y-67235923D01*
X128575606Y-67309707D01*
X128518212Y-67409118D01*
X128498278Y-67522163D01*
X128339144Y-67522163D01*
X128326588Y-67450955D01*
X128269194Y-67351545D01*
X128219334Y-67309707D01*
X128181259Y-67277758D01*
X128073395Y-67238500D01*
X128073394Y-67238500D01*
X127958606Y-67238500D01*
X127958605Y-67238500D01*
X127850739Y-67277759D01*
X127762806Y-67351543D01*
X127705412Y-67450954D01*
X127685478Y-67564000D01*
X126847921Y-67564000D01*
X126827988Y-67450955D01*
X126770594Y-67351545D01*
X126720734Y-67309707D01*
X126682659Y-67277758D01*
X126574795Y-67238500D01*
X126574794Y-67238500D01*
X126460006Y-67238500D01*
X126460005Y-67238500D01*
X126352139Y-67277759D01*
X126264206Y-67351543D01*
X126206812Y-67450954D01*
X126186878Y-67564000D01*
X125400121Y-67564000D01*
X125380188Y-67450955D01*
X125322794Y-67351545D01*
X125272934Y-67309707D01*
X125234859Y-67277758D01*
X125126995Y-67238500D01*
X125126994Y-67238500D01*
X125012206Y-67238500D01*
X125012205Y-67238500D01*
X124904339Y-67277759D01*
X124816406Y-67351543D01*
X124759012Y-67450954D01*
X124739078Y-67563999D01*
X124751635Y-67635209D01*
X124755345Y-67656251D01*
X124755945Y-67659650D01*
X124751017Y-67701810D01*
X124723733Y-67734326D01*
X124683069Y-67746500D01*
X124595605Y-67746500D01*
X124487739Y-67785759D01*
X124399806Y-67859543D01*
X124342412Y-67958954D01*
X124322478Y-68072000D01*
X124342412Y-68185045D01*
X124399805Y-68284454D01*
X124416917Y-68298813D01*
X124440829Y-68336348D01*
X124438887Y-68380810D01*
X124411795Y-68416117D01*
X124369350Y-68429500D01*
X122899650Y-68429500D01*
X122857205Y-68416117D01*
X122830113Y-68380810D01*
X122828171Y-68336348D01*
X122852083Y-68298813D01*
X122853324Y-68297771D01*
X122869194Y-68284455D01*
X122926588Y-68185045D01*
X122946521Y-68072000D01*
X122926588Y-67958955D01*
X122869194Y-67859545D01*
X122833824Y-67829866D01*
X122781259Y-67785758D01*
X122673395Y-67746500D01*
X122673394Y-67746500D01*
X122558606Y-67746500D01*
X122558605Y-67746500D01*
X122450739Y-67785759D01*
X122362806Y-67859543D01*
X122305412Y-67958954D01*
X122285478Y-68072000D01*
X122305412Y-68185045D01*
X122362805Y-68284454D01*
X122379917Y-68298813D01*
X122403829Y-68336348D01*
X122401887Y-68380810D01*
X122374795Y-68416117D01*
X122332350Y-68429500D01*
X120072281Y-68429500D01*
X120029836Y-68416117D01*
X120002744Y-68380810D01*
X120000802Y-68336348D01*
X120024714Y-68298813D01*
X120041826Y-68284454D01*
X120075194Y-68256455D01*
X120132588Y-68157045D01*
X120152521Y-68044000D01*
X120132588Y-67930955D01*
X120075194Y-67831545D01*
X119987261Y-67757760D01*
X119987259Y-67757758D01*
X119879395Y-67718500D01*
X119879394Y-67718500D01*
X119764606Y-67718500D01*
X119764605Y-67718500D01*
X119656739Y-67757759D01*
X119568806Y-67831543D01*
X119511412Y-67930954D01*
X119491478Y-68043999D01*
X119511412Y-68157045D01*
X119568805Y-68256454D01*
X119619286Y-68298813D01*
X119643198Y-68336348D01*
X119641256Y-68380810D01*
X119614164Y-68416117D01*
X119571719Y-68429500D01*
X118648109Y-68429500D01*
X118605664Y-68416117D01*
X118578572Y-68380810D01*
X118576630Y-68336348D01*
X118600543Y-68298813D01*
X118678193Y-68233656D01*
X118678194Y-68233655D01*
X118735588Y-68134245D01*
X118755521Y-68021200D01*
X118735588Y-67908155D01*
X118678194Y-67808745D01*
X118661587Y-67794810D01*
X118590259Y-67734958D01*
X118482395Y-67695700D01*
X118482394Y-67695700D01*
X118367606Y-67695700D01*
X118367605Y-67695700D01*
X118259739Y-67734959D01*
X118171806Y-67808743D01*
X118114412Y-67908154D01*
X118094478Y-68021200D01*
X118114412Y-68134245D01*
X118171806Y-68233656D01*
X118249457Y-68298813D01*
X118273370Y-68336348D01*
X118271428Y-68380810D01*
X118244336Y-68416117D01*
X118201891Y-68429500D01*
X114905500Y-68429500D01*
X114868500Y-68419586D01*
X114841414Y-68392500D01*
X114831500Y-68355500D01*
X114831500Y-67794810D01*
X114848179Y-67748009D01*
X114890698Y-67722306D01*
X114939888Y-67729285D01*
X115080778Y-67803230D01*
X115236044Y-67841500D01*
X115395954Y-67841500D01*
X115395956Y-67841500D01*
X115551222Y-67803230D01*
X115692818Y-67728915D01*
X115812514Y-67622873D01*
X115903355Y-67491268D01*
X115923936Y-67437000D01*
X116280878Y-67437000D01*
X116300812Y-67550045D01*
X116362130Y-67656251D01*
X116372044Y-67693251D01*
X116362130Y-67730251D01*
X116303412Y-67831954D01*
X116283478Y-67945000D01*
X116303412Y-68058045D01*
X116360805Y-68157454D01*
X116448740Y-68231241D01*
X116556605Y-68270500D01*
X116556606Y-68270500D01*
X116671394Y-68270500D01*
X116671395Y-68270500D01*
X116779259Y-68231241D01*
X116779259Y-68231240D01*
X116779261Y-68231240D01*
X116867194Y-68157455D01*
X116924588Y-68058045D01*
X116944521Y-67945000D01*
X116924588Y-67831955D01*
X116867194Y-67732545D01*
X116867192Y-67732543D01*
X116863269Y-67725748D01*
X116853355Y-67688748D01*
X116863269Y-67651748D01*
X116864591Y-67649456D01*
X116864594Y-67649455D01*
X116921988Y-67550045D01*
X116941921Y-67437000D01*
X116921988Y-67323955D01*
X116864594Y-67224545D01*
X116776661Y-67150760D01*
X116776659Y-67150758D01*
X116668795Y-67111500D01*
X116668794Y-67111500D01*
X116554006Y-67111500D01*
X116554005Y-67111500D01*
X116446139Y-67150759D01*
X116358206Y-67224543D01*
X116300812Y-67323954D01*
X116280878Y-67437000D01*
X115923936Y-67437000D01*
X115960061Y-67341747D01*
X115979336Y-67183000D01*
X115960061Y-67024253D01*
X115903355Y-66874732D01*
X115812514Y-66743127D01*
X115692818Y-66637085D01*
X115647923Y-66613522D01*
X115618986Y-66586281D01*
X115608314Y-66547998D01*
X115618987Y-66509715D01*
X115647921Y-66482478D01*
X115692818Y-66458915D01*
X115812514Y-66352873D01*
X115903355Y-66221268D01*
X115960061Y-66071747D01*
X115979336Y-65913000D01*
X115960061Y-65754253D01*
X115923936Y-65659000D01*
X120641976Y-65659000D01*
X120661910Y-65772045D01*
X120719303Y-65871454D01*
X120807238Y-65945241D01*
X120915103Y-65984500D01*
X120915104Y-65984500D01*
X121029892Y-65984500D01*
X121077188Y-65967285D01*
X121115346Y-65963947D01*
X121150062Y-65980136D01*
X121172033Y-66011513D01*
X121175372Y-66049673D01*
X121153978Y-66170999D01*
X121173912Y-66284045D01*
X121231305Y-66383454D01*
X121319240Y-66457241D01*
X121427105Y-66496500D01*
X121427106Y-66496500D01*
X121541894Y-66496500D01*
X121541895Y-66496500D01*
X121649759Y-66457241D01*
X121649759Y-66457240D01*
X121649761Y-66457240D01*
X121737694Y-66383455D01*
X121795088Y-66284045D01*
X121815021Y-66171000D01*
X121795088Y-66057955D01*
X121737694Y-65958545D01*
X121649761Y-65884760D01*
X121649759Y-65884758D01*
X121541895Y-65845500D01*
X121541894Y-65845500D01*
X121427106Y-65845500D01*
X121379809Y-65862714D01*
X121329191Y-65862713D01*
X121290415Y-65830175D01*
X121281625Y-65780325D01*
X121283084Y-65772047D01*
X121283086Y-65772045D01*
X121303019Y-65659000D01*
X121302931Y-65658500D01*
X123236478Y-65658500D01*
X123256412Y-65771545D01*
X123313805Y-65870954D01*
X123401740Y-65944741D01*
X123509605Y-65984000D01*
X123509606Y-65984000D01*
X123624394Y-65984000D01*
X123672316Y-65966557D01*
X123710473Y-65963219D01*
X123745190Y-65979407D01*
X123767161Y-66010785D01*
X123770500Y-66048945D01*
X123748978Y-66170999D01*
X123768912Y-66284045D01*
X123826305Y-66383454D01*
X123914240Y-66457241D01*
X124022105Y-66496500D01*
X124022106Y-66496500D01*
X124136894Y-66496500D01*
X124136895Y-66496500D01*
X124244759Y-66457241D01*
X124244759Y-66457240D01*
X124244761Y-66457240D01*
X124332694Y-66383455D01*
X124390088Y-66284045D01*
X124410021Y-66171000D01*
X124390088Y-66057955D01*
X124332694Y-65958545D01*
X124244761Y-65884760D01*
X124244759Y-65884758D01*
X124136895Y-65845500D01*
X124136894Y-65845500D01*
X124022106Y-65845500D01*
X123989784Y-65857264D01*
X123974811Y-65862714D01*
X123974184Y-65862942D01*
X123923565Y-65862941D01*
X123884789Y-65830404D01*
X123875999Y-65780554D01*
X123878654Y-65765502D01*
X123897433Y-65659000D01*
X126443478Y-65659000D01*
X126463412Y-65772045D01*
X126520805Y-65871454D01*
X126608740Y-65945241D01*
X126716605Y-65984500D01*
X126716606Y-65984500D01*
X126831394Y-65984500D01*
X126831395Y-65984500D01*
X126939259Y-65945241D01*
X126939259Y-65945240D01*
X126939261Y-65945240D01*
X127027194Y-65871455D01*
X127084588Y-65772045D01*
X127104521Y-65659000D01*
X127084588Y-65545955D01*
X127027194Y-65446545D01*
X126977138Y-65404543D01*
X126939259Y-65372758D01*
X126831395Y-65333500D01*
X126831394Y-65333500D01*
X126716606Y-65333500D01*
X126716605Y-65333500D01*
X126608739Y-65372759D01*
X126520806Y-65446543D01*
X126463412Y-65545954D01*
X126443478Y-65659000D01*
X123897433Y-65659000D01*
X123897521Y-65658500D01*
X123896455Y-65652457D01*
X123887941Y-65604172D01*
X123877588Y-65545455D01*
X123820194Y-65446045D01*
X123759733Y-65395312D01*
X123732259Y-65372258D01*
X123624395Y-65333000D01*
X123624394Y-65333000D01*
X123509606Y-65333000D01*
X123509605Y-65333000D01*
X123401739Y-65372259D01*
X123313806Y-65446043D01*
X123256412Y-65545454D01*
X123236478Y-65658500D01*
X121302931Y-65658500D01*
X121283086Y-65545955D01*
X121225692Y-65446545D01*
X121175636Y-65404543D01*
X121137757Y-65372758D01*
X121029893Y-65333500D01*
X121029892Y-65333500D01*
X120915104Y-65333500D01*
X120915103Y-65333500D01*
X120807237Y-65372759D01*
X120719304Y-65446543D01*
X120661910Y-65545954D01*
X120641976Y-65659000D01*
X115923936Y-65659000D01*
X115903355Y-65604732D01*
X115812514Y-65473127D01*
X115692818Y-65367085D01*
X115647923Y-65343522D01*
X115618986Y-65316283D01*
X115608314Y-65278000D01*
X115615395Y-65252600D01*
X124612078Y-65252600D01*
X124632012Y-65365645D01*
X124678430Y-65446045D01*
X124689406Y-65465055D01*
X124705968Y-65478952D01*
X124777340Y-65538841D01*
X124885205Y-65578100D01*
X124885206Y-65578100D01*
X124999994Y-65578100D01*
X124999995Y-65578100D01*
X125107859Y-65538841D01*
X125107859Y-65538840D01*
X125107861Y-65538840D01*
X125195794Y-65465055D01*
X125253188Y-65365645D01*
X125273121Y-65252600D01*
X125253188Y-65139555D01*
X125195794Y-65040145D01*
X125107861Y-64966360D01*
X125107859Y-64966358D01*
X124999995Y-64927100D01*
X124999994Y-64927100D01*
X124885206Y-64927100D01*
X124885205Y-64927100D01*
X124777339Y-64966359D01*
X124689406Y-65040143D01*
X124632012Y-65139554D01*
X124612078Y-65252600D01*
X115615395Y-65252600D01*
X115618986Y-65239717D01*
X115647923Y-65212477D01*
X115692818Y-65188915D01*
X115812514Y-65082873D01*
X115903355Y-64951268D01*
X115914891Y-64920850D01*
X127832880Y-64920850D01*
X127843356Y-64980258D01*
X127852814Y-65033895D01*
X127910208Y-65133305D01*
X127931839Y-65151456D01*
X127998142Y-65207091D01*
X128106007Y-65246350D01*
X128106008Y-65246350D01*
X128127833Y-65246350D01*
X128175399Y-65263663D01*
X128200708Y-65307499D01*
X128207061Y-65343524D01*
X128213412Y-65379543D01*
X128270805Y-65478952D01*
X128358740Y-65552739D01*
X128466605Y-65591998D01*
X128582381Y-65591998D01*
X128623045Y-65604172D01*
X128650329Y-65636688D01*
X128655256Y-65678846D01*
X128649243Y-65712948D01*
X128639976Y-65765502D01*
X128659910Y-65878547D01*
X128714431Y-65972982D01*
X128717304Y-65977957D01*
X128744193Y-66000520D01*
X128805238Y-66051743D01*
X128913103Y-66091002D01*
X128913104Y-66091002D01*
X129027892Y-66091002D01*
X129027893Y-66091002D01*
X129135757Y-66051743D01*
X129135757Y-66051742D01*
X129135759Y-66051742D01*
X129223692Y-65977957D01*
X129281086Y-65878547D01*
X129301019Y-65765502D01*
X129299035Y-65754253D01*
X129297504Y-65745568D01*
X129281086Y-65652457D01*
X129223692Y-65553047D01*
X129135759Y-65479262D01*
X129135757Y-65479260D01*
X129027893Y-65440002D01*
X129027892Y-65440002D01*
X128913104Y-65440002D01*
X128912117Y-65440002D01*
X128871453Y-65427828D01*
X128844169Y-65395312D01*
X128839241Y-65353153D01*
X128854521Y-65266498D01*
X128834588Y-65153453D01*
X128777194Y-65054043D01*
X128689261Y-64980258D01*
X128689259Y-64980256D01*
X128581395Y-64940998D01*
X128581394Y-64940998D01*
X128559569Y-64940998D01*
X128512003Y-64923685D01*
X128486693Y-64879848D01*
X128473990Y-64807805D01*
X128416596Y-64708395D01*
X128328663Y-64634610D01*
X128328661Y-64634608D01*
X128220797Y-64595350D01*
X128220796Y-64595350D01*
X128106008Y-64595350D01*
X128106007Y-64595350D01*
X127998141Y-64634609D01*
X127910208Y-64708393D01*
X127852814Y-64807804D01*
X127832880Y-64920850D01*
X115914891Y-64920850D01*
X115960061Y-64801747D01*
X115979336Y-64643000D01*
X115960061Y-64484253D01*
X115903355Y-64334732D01*
X115812514Y-64203127D01*
X115692818Y-64097085D01*
X115692817Y-64097084D01*
X115551224Y-64022771D01*
X115551223Y-64022770D01*
X115551222Y-64022770D01*
X115395956Y-63984500D01*
X115236044Y-63984500D01*
X115080778Y-64022770D01*
X115080777Y-64022770D01*
X115080775Y-64022771D01*
X114939889Y-64096714D01*
X114890698Y-64103694D01*
X114848179Y-64077991D01*
X114831500Y-64031190D01*
X114831500Y-63809999D01*
X119666478Y-63809999D01*
X119686412Y-63923045D01*
X119743806Y-64022455D01*
X119779302Y-64052240D01*
X119831740Y-64096241D01*
X119939605Y-64135500D01*
X119939606Y-64135500D01*
X120054394Y-64135500D01*
X120054395Y-64135500D01*
X120162259Y-64096241D01*
X120162259Y-64096240D01*
X120162261Y-64096240D01*
X120250194Y-64022455D01*
X120293758Y-63946999D01*
X124002478Y-63946999D01*
X124022412Y-64060045D01*
X124079805Y-64159454D01*
X124167740Y-64233241D01*
X124275605Y-64272500D01*
X124275606Y-64272500D01*
X124390394Y-64272500D01*
X124390395Y-64272500D01*
X124498259Y-64233241D01*
X124498259Y-64233240D01*
X124498261Y-64233240D01*
X124586194Y-64159455D01*
X124643588Y-64060045D01*
X124663521Y-63947000D01*
X124643588Y-63833955D01*
X124604354Y-63765999D01*
X128276578Y-63765999D01*
X128296512Y-63879045D01*
X128353905Y-63978454D01*
X128431809Y-64043824D01*
X128457118Y-64087660D01*
X128448329Y-64137509D01*
X128439412Y-64152954D01*
X128419478Y-64266000D01*
X128439412Y-64379045D01*
X128496805Y-64478454D01*
X128584740Y-64552241D01*
X128692605Y-64591500D01*
X128692606Y-64591500D01*
X128807394Y-64591500D01*
X128807395Y-64591500D01*
X128915259Y-64552241D01*
X128915259Y-64552240D01*
X128915261Y-64552240D01*
X129003194Y-64478455D01*
X129060588Y-64379045D01*
X129080521Y-64266000D01*
X129060588Y-64152955D01*
X129003194Y-64053545D01*
X129003193Y-64053543D01*
X128925291Y-63988176D01*
X128904909Y-63960799D01*
X128898982Y-63927186D01*
X128908769Y-63894491D01*
X128917688Y-63879045D01*
X128937621Y-63766000D01*
X128917688Y-63652955D01*
X128860294Y-63553545D01*
X128824797Y-63523759D01*
X128772359Y-63479758D01*
X128664495Y-63440500D01*
X128664494Y-63440500D01*
X128549706Y-63440500D01*
X128549705Y-63440500D01*
X128441839Y-63479759D01*
X128353906Y-63553543D01*
X128296512Y-63652954D01*
X128276578Y-63765999D01*
X124604354Y-63765999D01*
X124586194Y-63734545D01*
X124498261Y-63660760D01*
X124498259Y-63660758D01*
X124390395Y-63621500D01*
X124390394Y-63621500D01*
X124275606Y-63621500D01*
X124275605Y-63621500D01*
X124167739Y-63660759D01*
X124079806Y-63734543D01*
X124022412Y-63833954D01*
X124002478Y-63946999D01*
X120293758Y-63946999D01*
X120307588Y-63923045D01*
X120327521Y-63810000D01*
X120307588Y-63696955D01*
X120250194Y-63597545D01*
X120162261Y-63523760D01*
X120162259Y-63523758D01*
X120054395Y-63484500D01*
X120054394Y-63484500D01*
X119939606Y-63484500D01*
X119939605Y-63484500D01*
X119831739Y-63523759D01*
X119743806Y-63597543D01*
X119686412Y-63696954D01*
X119666478Y-63809999D01*
X114831500Y-63809999D01*
X114831500Y-63368000D01*
X120618478Y-63368000D01*
X120638412Y-63481045D01*
X120695805Y-63580454D01*
X120783740Y-63654241D01*
X120891605Y-63693500D01*
X120891606Y-63693500D01*
X121006394Y-63693500D01*
X121006395Y-63693500D01*
X121114259Y-63654241D01*
X121114259Y-63654240D01*
X121114261Y-63654240D01*
X121202194Y-63580455D01*
X121259588Y-63481045D01*
X121278639Y-63373000D01*
X124936478Y-63373000D01*
X124956412Y-63486045D01*
X125013805Y-63585454D01*
X125101740Y-63659241D01*
X125209605Y-63698500D01*
X125209606Y-63698500D01*
X125324394Y-63698500D01*
X125324395Y-63698500D01*
X125432259Y-63659241D01*
X125432259Y-63659240D01*
X125432261Y-63659240D01*
X125520194Y-63585455D01*
X125577588Y-63486045D01*
X125597521Y-63373000D01*
X125577588Y-63259955D01*
X125520194Y-63160545D01*
X125519879Y-63159999D01*
X125509965Y-63122999D01*
X125519879Y-63085999D01*
X125520192Y-63085456D01*
X125520194Y-63085455D01*
X125577588Y-62986045D01*
X125597521Y-62873000D01*
X125577588Y-62759955D01*
X125520194Y-62660545D01*
X125474790Y-62622446D01*
X125432259Y-62586758D01*
X125324395Y-62547500D01*
X125324394Y-62547500D01*
X125209606Y-62547500D01*
X125209605Y-62547500D01*
X125101739Y-62586759D01*
X125013806Y-62660543D01*
X124956412Y-62759954D01*
X124936478Y-62872999D01*
X124956412Y-62986045D01*
X125014120Y-63086000D01*
X125024034Y-63123000D01*
X125014120Y-63160000D01*
X124956412Y-63259954D01*
X124936478Y-63373000D01*
X121278639Y-63373000D01*
X121279521Y-63368000D01*
X121259588Y-63254955D01*
X121202194Y-63155545D01*
X121202193Y-63155544D01*
X121201879Y-63155000D01*
X121191965Y-63118000D01*
X121201879Y-63081000D01*
X121202194Y-63080455D01*
X121259588Y-62981045D01*
X121279521Y-62868000D01*
X121259588Y-62754955D01*
X121202194Y-62655545D01*
X121194293Y-62648915D01*
X121114259Y-62581758D01*
X121006395Y-62542500D01*
X121006394Y-62542500D01*
X120891606Y-62542500D01*
X120891605Y-62542500D01*
X120783739Y-62581759D01*
X120695806Y-62655543D01*
X120638412Y-62754954D01*
X120618478Y-62867999D01*
X120638412Y-62981045D01*
X120696120Y-63081000D01*
X120706034Y-63118000D01*
X120696120Y-63155000D01*
X120638412Y-63254954D01*
X120618478Y-63368000D01*
X114831500Y-63368000D01*
X114831500Y-62966600D01*
X117103478Y-62966600D01*
X117123412Y-63079645D01*
X117180805Y-63179054D01*
X117268740Y-63252841D01*
X117376605Y-63292100D01*
X117376606Y-63292100D01*
X117491394Y-63292100D01*
X117491395Y-63292100D01*
X117599259Y-63252841D01*
X117599259Y-63252840D01*
X117599261Y-63252840D01*
X117687194Y-63179055D01*
X117744588Y-63079645D01*
X117764521Y-62966600D01*
X117744588Y-62853555D01*
X117707033Y-62788508D01*
X117697120Y-62751510D01*
X117707033Y-62714511D01*
X117760188Y-62622445D01*
X117780121Y-62509400D01*
X117760188Y-62396355D01*
X117702794Y-62296945D01*
X117614861Y-62223160D01*
X117614859Y-62223158D01*
X117506995Y-62183900D01*
X117506994Y-62183900D01*
X117392206Y-62183900D01*
X117392205Y-62183900D01*
X117284339Y-62223159D01*
X117196406Y-62296943D01*
X117139012Y-62396354D01*
X117119078Y-62509400D01*
X117139012Y-62622446D01*
X117176565Y-62687491D01*
X117186479Y-62724490D01*
X117176565Y-62761490D01*
X117123412Y-62853554D01*
X117103478Y-62966600D01*
X114831500Y-62966600D01*
X114831500Y-62714810D01*
X114848179Y-62668009D01*
X114890698Y-62642306D01*
X114939888Y-62649285D01*
X115080778Y-62723230D01*
X115236044Y-62761500D01*
X115395954Y-62761500D01*
X115395956Y-62761500D01*
X115551222Y-62723230D01*
X115692818Y-62648915D01*
X115812514Y-62542873D01*
X115903355Y-62411268D01*
X115960061Y-62261747D01*
X115979336Y-62103000D01*
X115960061Y-61944253D01*
X115903355Y-61794732D01*
X115870683Y-61747399D01*
X128432278Y-61747399D01*
X128452212Y-61860445D01*
X128509605Y-61959854D01*
X128597540Y-62033641D01*
X128705405Y-62072900D01*
X128705406Y-62072900D01*
X128820194Y-62072900D01*
X128820195Y-62072900D01*
X128928059Y-62033641D01*
X128928059Y-62033640D01*
X128928061Y-62033640D01*
X129015994Y-61959855D01*
X129073388Y-61860445D01*
X129093321Y-61747400D01*
X129073388Y-61634355D01*
X129015994Y-61534945D01*
X128974636Y-61500241D01*
X128928059Y-61461158D01*
X128820195Y-61421900D01*
X128820194Y-61421900D01*
X128705406Y-61421900D01*
X128705405Y-61421900D01*
X128597539Y-61461159D01*
X128509606Y-61534943D01*
X128452212Y-61634354D01*
X128432278Y-61747399D01*
X115870683Y-61747399D01*
X115812514Y-61663127D01*
X115692818Y-61557085D01*
X115692817Y-61557084D01*
X115551224Y-61482771D01*
X115551223Y-61482770D01*
X115551222Y-61482770D01*
X115395956Y-61444500D01*
X115236044Y-61444500D01*
X115080778Y-61482770D01*
X115080777Y-61482770D01*
X115080775Y-61482771D01*
X114939889Y-61556714D01*
X114890698Y-61563694D01*
X114848179Y-61537991D01*
X114831500Y-61491190D01*
X114831500Y-60930500D01*
X114841414Y-60893500D01*
X114868500Y-60866414D01*
X114905500Y-60856500D01*
X120036150Y-60856500D01*
X120078595Y-60869883D01*
G37*
%TD.AperFunction*%
%TD*%
M02*
