%TF.GenerationSoftware,KiCad,Pcbnew,(7.0.0)*%
%TF.CreationDate,2023-03-07T13:57:33-05:00*%
%TF.ProjectId,imu-stamp,696d752d-7374-4616-9d70-2e6b69636164,rev?*%
%TF.SameCoordinates,Original*%
%TF.FileFunction,Copper,L2,Inr*%
%TF.FilePolarity,Positive*%
%FSLAX46Y46*%
G04 Gerber Fmt 4.6, Leading zero omitted, Abs format (unit mm)*
G04 Created by KiCad (PCBNEW (7.0.0)) date 2023-03-07 13:57:33*
%MOMM*%
%LPD*%
G01*
G04 APERTURE LIST*
%TA.AperFunction,ComponentPad*%
%ADD10O,1.000000X1.000000*%
%TD*%
%TA.AperFunction,ComponentPad*%
%ADD11C,1.000000*%
%TD*%
%TA.AperFunction,ViaPad*%
%ADD12C,0.350000*%
%TD*%
G04 APERTURE END LIST*
D10*
%TO.N,3.3V*%
%TO.C,P2*%
X133832599Y-67187999D03*
D11*
X132969000Y-67188000D03*
D10*
%TO.N,/XORL2*%
X133832599Y-65917999D03*
X132968999Y-65917999D03*
%TO.N,/XORL1*%
X133832599Y-64647999D03*
X132968999Y-64647999D03*
%TO.N,GND*%
X133832599Y-63377999D03*
X132968999Y-63377999D03*
X133832599Y-62107999D03*
X132968999Y-62107999D03*
%TD*%
%TO.N,VCC*%
%TO.C,P1*%
X114587399Y-62098999D03*
D11*
X115451000Y-62099000D03*
D10*
%TO.N,GND*%
X114587399Y-63368999D03*
X115450999Y-63368999D03*
%TO.N,/SCL*%
X114587399Y-64638999D03*
X115450999Y-64638999D03*
%TO.N,/SDA*%
X114587399Y-65908999D03*
X115450999Y-65908999D03*
%TO.N,/EN*%
X114587399Y-67178999D03*
X115450999Y-67178999D03*
%TD*%
D12*
%TO.N,/SCL_0*%
X121484500Y-66171000D03*
%TO.N,GND*%
X125907800Y-65252600D03*
X122021600Y-65405000D03*
X124333000Y-62941200D03*
X121843800Y-61214000D03*
X124079000Y-65227200D03*
X123266200Y-61214000D03*
X120462000Y-68044000D03*
X131556800Y-61214000D03*
X120297263Y-63291801D03*
X118897400Y-63017400D03*
X117576600Y-67437000D03*
X118897400Y-62484000D03*
X127955000Y-61214000D03*
X119354600Y-61214000D03*
X123256000Y-68072000D03*
X125069600Y-61239400D03*
X117574000Y-67945000D03*
X119989945Y-65100545D03*
X126558000Y-61214000D03*
X127660089Y-66673164D03*
%TO.N,3.3V*%
X122616000Y-68072000D03*
X124653000Y-68072000D03*
X119822000Y-68044000D03*
X124104400Y-61214000D03*
X126774000Y-65659000D03*
X121208800Y-61214000D03*
X125918000Y-61214000D03*
X124333000Y-63947000D03*
X120319800Y-61214000D03*
X131257000Y-67513200D03*
X119997000Y-63810000D03*
X132092662Y-65760528D03*
X130159800Y-61214000D03*
X124942600Y-65252600D03*
X132196800Y-61214000D03*
X116611400Y-67437000D03*
X116614000Y-67945000D03*
X129834600Y-67513200D03*
%TO.N,VCC*%
X117434000Y-62966600D03*
X117434000Y-62966600D03*
X117449600Y-62509400D03*
%TO.N,/EN*%
X118425000Y-68021200D03*
%TO.N,/SDA*%
X128750000Y-64266000D03*
X128762800Y-61747400D03*
%TO.N,/SCL*%
X130799800Y-61214000D03*
X128970498Y-65765502D03*
%TO.N,/SCL_1*%
X128016000Y-67564000D03*
X125267000Y-62873000D03*
X124079500Y-66171000D03*
%TO.N,/SDA_1*%
X128828800Y-67522164D03*
X125267000Y-63373000D03*
X128607100Y-63766000D03*
X123567000Y-65658500D03*
%TO.N,/SCL_0*%
X128524000Y-65266498D03*
X130617000Y-68224400D03*
X126517400Y-67564000D03*
X120949000Y-62868000D03*
%TO.N,/SDA_0*%
X129194600Y-68224400D03*
X128163402Y-64920850D03*
X120949000Y-63368000D03*
X120972498Y-65659000D03*
X125069600Y-67564000D03*
%TD*%
%TA.AperFunction,Conductor*%
%TO.N,GND*%
G36*
X120078596Y-60869883D02*
G01*
X120105688Y-60905190D01*
X120107630Y-60949652D01*
X120083718Y-60987185D01*
X120066606Y-61001545D01*
X120063371Y-61007146D01*
X120063370Y-61007149D01*
X120012448Y-61095349D01*
X120012446Y-61095351D01*
X120009212Y-61100955D01*
X119989279Y-61214000D01*
X120009212Y-61327045D01*
X120066606Y-61426455D01*
X120154539Y-61500240D01*
X120262406Y-61539500D01*
X120370717Y-61539500D01*
X120377194Y-61539500D01*
X120485061Y-61500240D01*
X120572994Y-61426455D01*
X120630388Y-61327045D01*
X120650321Y-61214000D01*
X120630388Y-61100955D01*
X120572994Y-61001545D01*
X120555880Y-60987185D01*
X120531970Y-60949652D01*
X120533912Y-60905190D01*
X120561004Y-60869883D01*
X120603449Y-60856500D01*
X120925151Y-60856500D01*
X120967596Y-60869883D01*
X120994688Y-60905190D01*
X120996630Y-60949652D01*
X120972718Y-60987185D01*
X120955606Y-61001545D01*
X120952371Y-61007146D01*
X120952370Y-61007149D01*
X120901448Y-61095349D01*
X120901446Y-61095351D01*
X120898212Y-61100955D01*
X120878279Y-61214000D01*
X120898212Y-61327045D01*
X120955606Y-61426455D01*
X121043539Y-61500240D01*
X121151406Y-61539500D01*
X121259717Y-61539500D01*
X121266194Y-61539500D01*
X121374061Y-61500240D01*
X121461994Y-61426455D01*
X121519388Y-61327045D01*
X121539321Y-61214000D01*
X121519388Y-61100955D01*
X121461994Y-61001545D01*
X121444880Y-60987185D01*
X121420970Y-60949652D01*
X121422912Y-60905190D01*
X121450004Y-60869883D01*
X121492449Y-60856500D01*
X123820751Y-60856500D01*
X123863196Y-60869883D01*
X123890288Y-60905190D01*
X123892230Y-60949652D01*
X123868318Y-60987185D01*
X123851206Y-61001545D01*
X123847971Y-61007146D01*
X123847970Y-61007149D01*
X123797048Y-61095349D01*
X123797046Y-61095351D01*
X123793812Y-61100955D01*
X123773879Y-61214000D01*
X123793812Y-61327045D01*
X123851206Y-61426455D01*
X123939139Y-61500240D01*
X124047006Y-61539500D01*
X124155317Y-61539500D01*
X124161794Y-61539500D01*
X124269661Y-61500240D01*
X124357594Y-61426455D01*
X124414988Y-61327045D01*
X124434921Y-61214000D01*
X124414988Y-61100955D01*
X124357594Y-61001545D01*
X124340480Y-60987185D01*
X124316570Y-60949652D01*
X124318512Y-60905190D01*
X124345604Y-60869883D01*
X124388049Y-60856500D01*
X125634351Y-60856500D01*
X125676796Y-60869883D01*
X125703888Y-60905190D01*
X125705830Y-60949652D01*
X125681918Y-60987185D01*
X125664806Y-61001545D01*
X125661571Y-61007146D01*
X125661570Y-61007149D01*
X125610648Y-61095349D01*
X125610646Y-61095351D01*
X125607412Y-61100955D01*
X125587479Y-61214000D01*
X125607412Y-61327045D01*
X125664806Y-61426455D01*
X125752739Y-61500240D01*
X125860606Y-61539500D01*
X125968917Y-61539500D01*
X125975394Y-61539500D01*
X126083261Y-61500240D01*
X126171194Y-61426455D01*
X126228588Y-61327045D01*
X126248521Y-61214000D01*
X126228588Y-61100955D01*
X126171194Y-61001545D01*
X126154080Y-60987185D01*
X126130170Y-60949652D01*
X126132112Y-60905190D01*
X126159204Y-60869883D01*
X126201649Y-60856500D01*
X129876151Y-60856500D01*
X129918596Y-60869883D01*
X129945688Y-60905190D01*
X129947630Y-60949652D01*
X129923718Y-60987185D01*
X129906606Y-61001545D01*
X129903371Y-61007146D01*
X129903370Y-61007149D01*
X129852448Y-61095349D01*
X129852446Y-61095351D01*
X129849212Y-61100955D01*
X129829279Y-61214000D01*
X129849212Y-61327045D01*
X129906606Y-61426455D01*
X129994539Y-61500240D01*
X130102406Y-61539500D01*
X130210717Y-61539500D01*
X130217194Y-61539500D01*
X130325061Y-61500240D01*
X130412994Y-61426455D01*
X130416230Y-61420849D01*
X130420394Y-61415888D01*
X130421033Y-61416424D01*
X130442798Y-61394659D01*
X130479800Y-61384743D01*
X130516802Y-61394659D01*
X130538566Y-61416424D01*
X130539206Y-61415888D01*
X130543370Y-61420850D01*
X130546606Y-61426455D01*
X130634539Y-61500240D01*
X130742406Y-61539500D01*
X130850717Y-61539500D01*
X130857194Y-61539500D01*
X130965061Y-61500240D01*
X131052994Y-61426455D01*
X131110388Y-61327045D01*
X131130321Y-61214000D01*
X131110388Y-61100955D01*
X131052994Y-61001545D01*
X131035880Y-60987185D01*
X131011970Y-60949652D01*
X131013912Y-60905190D01*
X131041004Y-60869883D01*
X131083449Y-60856500D01*
X131913151Y-60856500D01*
X131955596Y-60869883D01*
X131982688Y-60905190D01*
X131984630Y-60949652D01*
X131960718Y-60987185D01*
X131943606Y-61001545D01*
X131940371Y-61007146D01*
X131940370Y-61007149D01*
X131889448Y-61095349D01*
X131889446Y-61095351D01*
X131886212Y-61100955D01*
X131866279Y-61214000D01*
X131886212Y-61327045D01*
X131943606Y-61426455D01*
X132031539Y-61500240D01*
X132139406Y-61539500D01*
X132247717Y-61539500D01*
X132254194Y-61539500D01*
X132362061Y-61500240D01*
X132449994Y-61426455D01*
X132507388Y-61327045D01*
X132527321Y-61214000D01*
X132507388Y-61100955D01*
X132449994Y-61001545D01*
X132432880Y-60987185D01*
X132408970Y-60949652D01*
X132410912Y-60905190D01*
X132438004Y-60869883D01*
X132480449Y-60856500D01*
X133506500Y-60856500D01*
X133543500Y-60866414D01*
X133570586Y-60893500D01*
X133580500Y-60930500D01*
X133580500Y-64000927D01*
X133569828Y-64039210D01*
X133540890Y-64066451D01*
X133464322Y-64106637D01*
X133464321Y-64106638D01*
X133460360Y-64108717D01*
X133457017Y-64111678D01*
X133457009Y-64111684D01*
X133449870Y-64118010D01*
X133418509Y-64134469D01*
X133383091Y-64134469D01*
X133351730Y-64118010D01*
X133344590Y-64111684D01*
X133344586Y-64111681D01*
X133341240Y-64108717D01*
X133320129Y-64097637D01*
X133205329Y-64037384D01*
X133205325Y-64037382D01*
X133201365Y-64035304D01*
X133197019Y-64034232D01*
X133197017Y-64034232D01*
X133052333Y-63998571D01*
X133052327Y-63998570D01*
X133047985Y-63997500D01*
X132890015Y-63997500D01*
X132885673Y-63998570D01*
X132885666Y-63998571D01*
X132740982Y-64034232D01*
X132740977Y-64034233D01*
X132736635Y-64035304D01*
X132732676Y-64037381D01*
X132732670Y-64037384D01*
X132600720Y-64106638D01*
X132600716Y-64106640D01*
X132596760Y-64108717D01*
X132593414Y-64111681D01*
X132593410Y-64111684D01*
X132481866Y-64210502D01*
X132481861Y-64210507D01*
X132478517Y-64213470D01*
X132475977Y-64217149D01*
X132475975Y-64217152D01*
X132391319Y-64339797D01*
X132391315Y-64339803D01*
X132388780Y-64343477D01*
X132387195Y-64347655D01*
X132387194Y-64347658D01*
X132334350Y-64486995D01*
X132334348Y-64487001D01*
X132332763Y-64491182D01*
X132313722Y-64648000D01*
X132332763Y-64804818D01*
X132334349Y-64808999D01*
X132334350Y-64809004D01*
X132336313Y-64814179D01*
X132388780Y-64952523D01*
X132391317Y-64956199D01*
X132391319Y-64956202D01*
X132440546Y-65027520D01*
X132478517Y-65082530D01*
X132596760Y-65187283D01*
X132654286Y-65217475D01*
X132683224Y-65244715D01*
X132693897Y-65282998D01*
X132683225Y-65321281D01*
X132654288Y-65348522D01*
X132600724Y-65376635D01*
X132600714Y-65376641D01*
X132596760Y-65378717D01*
X132593414Y-65381681D01*
X132593410Y-65381684D01*
X132481866Y-65480502D01*
X132481861Y-65480507D01*
X132478517Y-65483470D01*
X132475978Y-65487148D01*
X132475973Y-65487154D01*
X132447808Y-65527958D01*
X132416521Y-65553736D01*
X132376346Y-65559162D01*
X132339342Y-65542607D01*
X132273256Y-65487154D01*
X132257923Y-65474288D01*
X132251838Y-65472073D01*
X132251836Y-65472072D01*
X132156143Y-65437243D01*
X132156140Y-65437242D01*
X132150056Y-65435028D01*
X132035268Y-65435028D01*
X132029184Y-65437242D01*
X132029180Y-65437243D01*
X131933488Y-65472072D01*
X131933483Y-65472074D01*
X131927402Y-65474288D01*
X131922442Y-65478449D01*
X131922440Y-65478451D01*
X131844426Y-65543912D01*
X131844423Y-65543914D01*
X131839468Y-65548073D01*
X131836233Y-65553674D01*
X131836232Y-65553677D01*
X131785310Y-65641877D01*
X131785308Y-65641879D01*
X131782074Y-65647483D01*
X131762141Y-65760528D01*
X131782074Y-65873573D01*
X131839468Y-65972983D01*
X131927401Y-66046768D01*
X132035268Y-66086028D01*
X132143579Y-66086028D01*
X132150056Y-66086028D01*
X132245730Y-66051205D01*
X132283561Y-66047810D01*
X132318094Y-66063632D01*
X132340228Y-66094502D01*
X132388780Y-66222523D01*
X132478517Y-66352530D01*
X132596760Y-66457283D01*
X132654286Y-66487475D01*
X132683224Y-66514715D01*
X132693897Y-66552998D01*
X132683225Y-66591281D01*
X132654288Y-66618522D01*
X132600724Y-66646635D01*
X132600714Y-66646641D01*
X132596760Y-66648717D01*
X132593414Y-66651681D01*
X132593410Y-66651684D01*
X132481866Y-66750502D01*
X132481861Y-66750507D01*
X132478517Y-66753470D01*
X132475977Y-66757149D01*
X132475975Y-66757152D01*
X132391319Y-66879797D01*
X132391315Y-66879803D01*
X132388780Y-66883477D01*
X132387195Y-66887655D01*
X132387194Y-66887658D01*
X132334350Y-67026995D01*
X132334348Y-67027001D01*
X132332763Y-67031182D01*
X132313722Y-67188000D01*
X132332763Y-67344818D01*
X132334349Y-67348999D01*
X132334350Y-67349004D01*
X132367723Y-67437000D01*
X132388780Y-67492523D01*
X132391317Y-67496199D01*
X132391319Y-67496202D01*
X132413639Y-67528538D01*
X132478517Y-67622530D01*
X132596760Y-67727283D01*
X132736635Y-67800696D01*
X132890015Y-67838500D01*
X133043506Y-67838500D01*
X133047985Y-67838500D01*
X133201365Y-67800696D01*
X133341240Y-67727283D01*
X133351728Y-67717991D01*
X133383090Y-67701530D01*
X133418510Y-67701530D01*
X133449871Y-67717991D01*
X133460360Y-67727283D01*
X133478903Y-67737015D01*
X133540890Y-67769549D01*
X133569828Y-67796790D01*
X133580500Y-67835073D01*
X133580500Y-68355500D01*
X133570586Y-68392500D01*
X133543500Y-68419586D01*
X133506500Y-68429500D01*
X130998570Y-68429500D01*
X130954382Y-68414858D01*
X130927680Y-68376727D01*
X130928814Y-68337661D01*
X130927588Y-68337445D01*
X130942857Y-68250850D01*
X130947521Y-68224400D01*
X130927588Y-68111355D01*
X130870194Y-68011945D01*
X130782261Y-67938160D01*
X130776176Y-67935945D01*
X130776174Y-67935944D01*
X130680481Y-67901115D01*
X130680478Y-67901114D01*
X130674394Y-67898900D01*
X130559606Y-67898900D01*
X130553522Y-67901114D01*
X130553518Y-67901115D01*
X130457826Y-67935944D01*
X130457821Y-67935946D01*
X130451740Y-67938160D01*
X130446780Y-67942321D01*
X130446778Y-67942323D01*
X130368764Y-68007784D01*
X130368761Y-68007786D01*
X130363806Y-68011945D01*
X130360571Y-68017546D01*
X130360570Y-68017549D01*
X130309648Y-68105749D01*
X130309646Y-68105751D01*
X130306412Y-68111355D01*
X130305288Y-68117728D01*
X130305288Y-68117729D01*
X130299480Y-68150670D01*
X130286479Y-68224400D01*
X130291143Y-68250850D01*
X130306412Y-68337445D01*
X130305185Y-68337661D01*
X130306320Y-68376727D01*
X130279618Y-68414858D01*
X130235430Y-68429500D01*
X129576170Y-68429500D01*
X129531982Y-68414858D01*
X129505280Y-68376727D01*
X129506414Y-68337661D01*
X129505188Y-68337445D01*
X129520457Y-68250850D01*
X129525121Y-68224400D01*
X129505188Y-68111355D01*
X129447794Y-68011945D01*
X129359861Y-67938160D01*
X129353776Y-67935945D01*
X129353774Y-67935944D01*
X129258081Y-67901115D01*
X129258078Y-67901114D01*
X129251994Y-67898900D01*
X129137206Y-67898900D01*
X129088300Y-67916699D01*
X129037683Y-67916699D01*
X129031170Y-67911234D01*
X129030785Y-67922268D01*
X129007973Y-67956088D01*
X128941406Y-68011945D01*
X128938171Y-68017546D01*
X128938170Y-68017549D01*
X128887248Y-68105749D01*
X128887246Y-68105751D01*
X128884012Y-68111355D01*
X128882888Y-68117728D01*
X128882888Y-68117729D01*
X128877080Y-68150670D01*
X128864079Y-68224400D01*
X128868743Y-68250850D01*
X128884012Y-68337445D01*
X128882785Y-68337661D01*
X128883920Y-68376727D01*
X128857218Y-68414858D01*
X128813030Y-68429500D01*
X124936649Y-68429500D01*
X124894204Y-68416117D01*
X124867112Y-68380810D01*
X124865170Y-68336348D01*
X124889080Y-68298814D01*
X124906194Y-68284455D01*
X124963588Y-68185045D01*
X124983521Y-68072000D01*
X124966655Y-67976349D01*
X124971583Y-67934190D01*
X124998867Y-67901674D01*
X125039531Y-67889500D01*
X125120517Y-67889500D01*
X125126994Y-67889500D01*
X125234861Y-67850240D01*
X125322794Y-67776455D01*
X125380188Y-67677045D01*
X125400121Y-67564000D01*
X126186879Y-67564000D01*
X126206812Y-67677045D01*
X126210047Y-67682649D01*
X126210048Y-67682650D01*
X126225256Y-67708992D01*
X126264206Y-67776455D01*
X126352139Y-67850240D01*
X126460006Y-67889500D01*
X126568317Y-67889500D01*
X126574794Y-67889500D01*
X126682661Y-67850240D01*
X126770594Y-67776455D01*
X126827988Y-67677045D01*
X126847921Y-67564000D01*
X127685479Y-67564000D01*
X127705412Y-67677045D01*
X127708647Y-67682649D01*
X127708648Y-67682650D01*
X127723856Y-67708992D01*
X127762806Y-67776455D01*
X127850739Y-67850240D01*
X127958606Y-67889500D01*
X128066917Y-67889500D01*
X128073394Y-67889500D01*
X128181261Y-67850240D01*
X128269194Y-67776455D01*
X128326588Y-67677045D01*
X128346521Y-67564000D01*
X128339144Y-67522164D01*
X128498279Y-67522164D01*
X128518212Y-67635209D01*
X128575606Y-67734619D01*
X128663539Y-67808404D01*
X128771406Y-67847664D01*
X128879717Y-67847664D01*
X128886194Y-67847664D01*
X128935100Y-67829863D01*
X128975792Y-67827018D01*
X128990179Y-67834668D01*
X128990117Y-67834312D01*
X129015426Y-67790476D01*
X129081994Y-67734619D01*
X129139388Y-67635209D01*
X129159321Y-67522164D01*
X129157740Y-67513200D01*
X129504079Y-67513200D01*
X129524012Y-67626245D01*
X129581406Y-67725655D01*
X129669339Y-67799440D01*
X129777206Y-67838700D01*
X129885517Y-67838700D01*
X129891994Y-67838700D01*
X129999861Y-67799440D01*
X130087794Y-67725655D01*
X130145188Y-67626245D01*
X130165121Y-67513200D01*
X130926479Y-67513200D01*
X130946412Y-67626245D01*
X131003806Y-67725655D01*
X131091739Y-67799440D01*
X131199606Y-67838700D01*
X131307917Y-67838700D01*
X131314394Y-67838700D01*
X131422261Y-67799440D01*
X131510194Y-67725655D01*
X131567588Y-67626245D01*
X131587521Y-67513200D01*
X131567588Y-67400155D01*
X131510194Y-67300745D01*
X131422261Y-67226960D01*
X131416176Y-67224745D01*
X131416174Y-67224744D01*
X131320481Y-67189915D01*
X131320478Y-67189914D01*
X131314394Y-67187700D01*
X131199606Y-67187700D01*
X131193522Y-67189914D01*
X131193518Y-67189915D01*
X131097826Y-67224744D01*
X131097821Y-67224746D01*
X131091740Y-67226960D01*
X131086780Y-67231121D01*
X131086778Y-67231123D01*
X131008764Y-67296584D01*
X131008761Y-67296586D01*
X131003806Y-67300745D01*
X131000571Y-67306346D01*
X131000570Y-67306349D01*
X130949648Y-67394549D01*
X130949646Y-67394551D01*
X130946412Y-67400155D01*
X130926479Y-67513200D01*
X130165121Y-67513200D01*
X130145188Y-67400155D01*
X130087794Y-67300745D01*
X129999861Y-67226960D01*
X129993776Y-67224745D01*
X129993774Y-67224744D01*
X129898081Y-67189915D01*
X129898078Y-67189914D01*
X129891994Y-67187700D01*
X129777206Y-67187700D01*
X129771122Y-67189914D01*
X129771118Y-67189915D01*
X129675426Y-67224744D01*
X129675421Y-67224746D01*
X129669340Y-67226960D01*
X129664380Y-67231121D01*
X129664378Y-67231123D01*
X129586364Y-67296584D01*
X129586361Y-67296586D01*
X129581406Y-67300745D01*
X129578171Y-67306346D01*
X129578170Y-67306349D01*
X129527248Y-67394549D01*
X129527246Y-67394551D01*
X129524012Y-67400155D01*
X129504079Y-67513200D01*
X129157740Y-67513200D01*
X129139388Y-67409119D01*
X129081994Y-67309709D01*
X128994061Y-67235924D01*
X128987976Y-67233709D01*
X128987974Y-67233708D01*
X128892281Y-67198879D01*
X128892278Y-67198878D01*
X128886194Y-67196664D01*
X128771406Y-67196664D01*
X128765322Y-67198878D01*
X128765318Y-67198879D01*
X128669626Y-67233708D01*
X128669621Y-67233710D01*
X128663540Y-67235924D01*
X128658580Y-67240085D01*
X128658578Y-67240087D01*
X128580564Y-67305548D01*
X128580561Y-67305550D01*
X128575606Y-67309709D01*
X128572371Y-67315310D01*
X128572370Y-67315313D01*
X128521448Y-67403513D01*
X128521446Y-67403515D01*
X128518212Y-67409119D01*
X128498279Y-67522164D01*
X128339144Y-67522164D01*
X128326588Y-67450955D01*
X128269194Y-67351545D01*
X128181261Y-67277760D01*
X128175176Y-67275545D01*
X128175174Y-67275544D01*
X128079481Y-67240715D01*
X128079478Y-67240714D01*
X128073394Y-67238500D01*
X127958606Y-67238500D01*
X127952522Y-67240714D01*
X127952518Y-67240715D01*
X127856826Y-67275544D01*
X127856821Y-67275546D01*
X127850740Y-67277760D01*
X127845780Y-67281921D01*
X127845778Y-67281923D01*
X127767764Y-67347384D01*
X127767761Y-67347386D01*
X127762806Y-67351545D01*
X127759571Y-67357146D01*
X127759570Y-67357149D01*
X127708648Y-67445349D01*
X127708646Y-67445351D01*
X127705412Y-67450955D01*
X127685479Y-67564000D01*
X126847921Y-67564000D01*
X126827988Y-67450955D01*
X126770594Y-67351545D01*
X126682661Y-67277760D01*
X126676576Y-67275545D01*
X126676574Y-67275544D01*
X126580881Y-67240715D01*
X126580878Y-67240714D01*
X126574794Y-67238500D01*
X126460006Y-67238500D01*
X126453922Y-67240714D01*
X126453918Y-67240715D01*
X126358226Y-67275544D01*
X126358221Y-67275546D01*
X126352140Y-67277760D01*
X126347180Y-67281921D01*
X126347178Y-67281923D01*
X126269164Y-67347384D01*
X126269161Y-67347386D01*
X126264206Y-67351545D01*
X126260971Y-67357146D01*
X126260970Y-67357149D01*
X126210048Y-67445349D01*
X126210046Y-67445351D01*
X126206812Y-67450955D01*
X126186879Y-67564000D01*
X125400121Y-67564000D01*
X125380188Y-67450955D01*
X125322794Y-67351545D01*
X125234861Y-67277760D01*
X125228776Y-67275545D01*
X125228774Y-67275544D01*
X125133081Y-67240715D01*
X125133078Y-67240714D01*
X125126994Y-67238500D01*
X125012206Y-67238500D01*
X125006122Y-67240714D01*
X125006118Y-67240715D01*
X124910426Y-67275544D01*
X124910421Y-67275546D01*
X124904340Y-67277760D01*
X124899380Y-67281921D01*
X124899378Y-67281923D01*
X124821364Y-67347384D01*
X124821361Y-67347386D01*
X124816406Y-67351545D01*
X124813171Y-67357146D01*
X124813170Y-67357149D01*
X124762248Y-67445349D01*
X124762246Y-67445351D01*
X124759012Y-67450955D01*
X124739079Y-67564000D01*
X124754202Y-67649768D01*
X124755945Y-67659650D01*
X124751017Y-67701810D01*
X124723733Y-67734326D01*
X124683069Y-67746500D01*
X124595606Y-67746500D01*
X124589522Y-67748714D01*
X124589518Y-67748715D01*
X124493826Y-67783544D01*
X124493821Y-67783546D01*
X124487740Y-67785760D01*
X124482780Y-67789921D01*
X124482778Y-67789923D01*
X124404764Y-67855384D01*
X124404761Y-67855386D01*
X124399806Y-67859545D01*
X124396571Y-67865146D01*
X124396570Y-67865149D01*
X124345648Y-67953349D01*
X124345646Y-67953351D01*
X124342412Y-67958955D01*
X124322479Y-68072000D01*
X124342412Y-68185045D01*
X124399806Y-68284455D01*
X124416919Y-68298814D01*
X124440830Y-68336348D01*
X124438888Y-68380810D01*
X124411796Y-68416117D01*
X124369351Y-68429500D01*
X122899649Y-68429500D01*
X122857204Y-68416117D01*
X122830112Y-68380810D01*
X122828170Y-68336348D01*
X122852080Y-68298814D01*
X122869194Y-68284455D01*
X122926588Y-68185045D01*
X122946521Y-68072000D01*
X122926588Y-67958955D01*
X122869194Y-67859545D01*
X122781261Y-67785760D01*
X122775176Y-67783545D01*
X122775174Y-67783544D01*
X122679481Y-67748715D01*
X122679478Y-67748714D01*
X122673394Y-67746500D01*
X122558606Y-67746500D01*
X122552522Y-67748714D01*
X122552518Y-67748715D01*
X122456826Y-67783544D01*
X122456821Y-67783546D01*
X122450740Y-67785760D01*
X122445780Y-67789921D01*
X122445778Y-67789923D01*
X122367764Y-67855384D01*
X122367761Y-67855386D01*
X122362806Y-67859545D01*
X122359571Y-67865146D01*
X122359570Y-67865149D01*
X122308648Y-67953349D01*
X122308646Y-67953351D01*
X122305412Y-67958955D01*
X122285479Y-68072000D01*
X122305412Y-68185045D01*
X122362806Y-68284455D01*
X122379919Y-68298814D01*
X122403830Y-68336348D01*
X122401888Y-68380810D01*
X122374796Y-68416117D01*
X122332351Y-68429500D01*
X120072280Y-68429500D01*
X120029835Y-68416117D01*
X120002743Y-68380810D01*
X120000801Y-68336348D01*
X120024714Y-68298813D01*
X120041825Y-68284455D01*
X120075194Y-68256455D01*
X120132588Y-68157045D01*
X120152521Y-68044000D01*
X120132588Y-67930955D01*
X120075194Y-67831545D01*
X119987261Y-67757760D01*
X119981176Y-67755545D01*
X119981174Y-67755544D01*
X119885481Y-67720715D01*
X119885478Y-67720714D01*
X119879394Y-67718500D01*
X119764606Y-67718500D01*
X119758522Y-67720714D01*
X119758518Y-67720715D01*
X119662826Y-67755544D01*
X119662821Y-67755546D01*
X119656740Y-67757760D01*
X119651780Y-67761921D01*
X119651778Y-67761923D01*
X119573764Y-67827384D01*
X119573761Y-67827386D01*
X119568806Y-67831545D01*
X119565571Y-67837146D01*
X119565570Y-67837149D01*
X119514648Y-67925349D01*
X119514646Y-67925351D01*
X119511412Y-67930955D01*
X119510288Y-67937328D01*
X119510288Y-67937329D01*
X119507463Y-67953349D01*
X119491479Y-68044000D01*
X119511412Y-68157045D01*
X119568806Y-68256455D01*
X119573764Y-68260615D01*
X119619286Y-68298813D01*
X119643199Y-68336348D01*
X119641257Y-68380810D01*
X119614165Y-68416117D01*
X119571720Y-68429500D01*
X118648108Y-68429500D01*
X118605663Y-68416117D01*
X118578571Y-68380810D01*
X118576629Y-68336347D01*
X118600542Y-68298813D01*
X118617653Y-68284455D01*
X118678194Y-68233655D01*
X118735588Y-68134245D01*
X118755521Y-68021200D01*
X118735588Y-67908155D01*
X118678194Y-67808745D01*
X118590261Y-67734960D01*
X118584176Y-67732745D01*
X118584174Y-67732744D01*
X118488481Y-67697915D01*
X118488478Y-67697914D01*
X118482394Y-67695700D01*
X118367606Y-67695700D01*
X118361522Y-67697914D01*
X118361518Y-67697915D01*
X118265826Y-67732744D01*
X118265821Y-67732746D01*
X118259740Y-67734960D01*
X118254780Y-67739121D01*
X118254778Y-67739123D01*
X118176764Y-67804584D01*
X118176761Y-67804586D01*
X118171806Y-67808745D01*
X118168571Y-67814346D01*
X118168570Y-67814349D01*
X118117648Y-67902549D01*
X118117646Y-67902551D01*
X118114412Y-67908155D01*
X118094479Y-68021200D01*
X118114412Y-68134245D01*
X118171806Y-68233655D01*
X118213075Y-68268284D01*
X118249458Y-68298813D01*
X118273371Y-68336347D01*
X118271429Y-68380810D01*
X118244337Y-68416117D01*
X118201892Y-68429500D01*
X114905500Y-68429500D01*
X114868500Y-68419586D01*
X114841414Y-68392500D01*
X114831500Y-68355500D01*
X114831500Y-67830272D01*
X114842172Y-67791989D01*
X114871110Y-67764749D01*
X114955672Y-67720366D01*
X114955674Y-67720364D01*
X114959640Y-67718283D01*
X114970128Y-67708991D01*
X115001490Y-67692530D01*
X115036910Y-67692530D01*
X115068271Y-67708991D01*
X115078760Y-67718283D01*
X115218635Y-67791696D01*
X115372015Y-67829500D01*
X115525506Y-67829500D01*
X115529985Y-67829500D01*
X115683365Y-67791696D01*
X115823240Y-67718283D01*
X115941483Y-67613530D01*
X116031220Y-67483523D01*
X116048864Y-67437000D01*
X116280879Y-67437000D01*
X116300812Y-67550045D01*
X116304047Y-67555649D01*
X116304048Y-67555650D01*
X116354970Y-67643851D01*
X116354971Y-67643853D01*
X116356428Y-67646375D01*
X116358206Y-67649455D01*
X116357663Y-67649768D01*
X116373233Y-67692544D01*
X116359048Y-67731530D01*
X116360806Y-67732545D01*
X116306648Y-67826349D01*
X116306646Y-67826351D01*
X116303412Y-67831955D01*
X116283479Y-67945000D01*
X116303412Y-68058045D01*
X116360806Y-68157455D01*
X116448739Y-68231240D01*
X116556606Y-68270500D01*
X116664917Y-68270500D01*
X116671394Y-68270500D01*
X116779261Y-68231240D01*
X116867194Y-68157455D01*
X116924588Y-68058045D01*
X116944521Y-67945000D01*
X116924588Y-67831955D01*
X116867194Y-67732545D01*
X116867223Y-67732527D01*
X116854159Y-67706510D01*
X116854163Y-67672375D01*
X116865434Y-67649940D01*
X116864594Y-67649455D01*
X116880139Y-67622530D01*
X116921988Y-67550045D01*
X116941921Y-67437000D01*
X116921988Y-67323955D01*
X116864594Y-67224545D01*
X116776661Y-67150760D01*
X116770576Y-67148545D01*
X116770574Y-67148544D01*
X116674881Y-67113715D01*
X116674878Y-67113714D01*
X116668794Y-67111500D01*
X116554006Y-67111500D01*
X116547922Y-67113714D01*
X116547918Y-67113715D01*
X116452226Y-67148544D01*
X116452221Y-67148546D01*
X116446140Y-67150760D01*
X116441180Y-67154921D01*
X116441178Y-67154923D01*
X116363164Y-67220384D01*
X116363161Y-67220386D01*
X116358206Y-67224545D01*
X116354971Y-67230146D01*
X116354970Y-67230149D01*
X116304048Y-67318349D01*
X116304046Y-67318351D01*
X116300812Y-67323955D01*
X116280879Y-67437000D01*
X116048864Y-67437000D01*
X116087237Y-67335818D01*
X116106278Y-67179000D01*
X116087237Y-67022182D01*
X116031220Y-66874477D01*
X115941483Y-66744470D01*
X115823240Y-66639717D01*
X115819277Y-66637637D01*
X115819276Y-66637636D01*
X115765713Y-66609524D01*
X115736774Y-66582283D01*
X115726102Y-66544000D01*
X115736774Y-66505717D01*
X115765713Y-66478476D01*
X115775893Y-66473132D01*
X115823240Y-66448283D01*
X115941483Y-66343530D01*
X116031220Y-66213523D01*
X116087237Y-66065818D01*
X116106278Y-65909000D01*
X116087237Y-65752182D01*
X116051898Y-65659000D01*
X120641977Y-65659000D01*
X120661910Y-65772045D01*
X120719304Y-65871455D01*
X120807237Y-65945240D01*
X120915104Y-65984500D01*
X121023415Y-65984500D01*
X121029892Y-65984500D01*
X121078979Y-65966633D01*
X121120302Y-65963925D01*
X121156611Y-65983843D01*
X121176532Y-66020151D01*
X121174075Y-66057672D01*
X121173912Y-66057955D01*
X121172788Y-66064324D01*
X121172788Y-66064327D01*
X121157985Y-66148280D01*
X121153979Y-66171000D01*
X121173912Y-66284045D01*
X121231306Y-66383455D01*
X121319239Y-66457240D01*
X121427106Y-66496500D01*
X121535417Y-66496500D01*
X121541894Y-66496500D01*
X121649761Y-66457240D01*
X121737694Y-66383455D01*
X121795088Y-66284045D01*
X121815021Y-66171000D01*
X121795088Y-66057955D01*
X121737694Y-65958545D01*
X121649761Y-65884760D01*
X121643676Y-65882545D01*
X121643674Y-65882544D01*
X121547981Y-65847715D01*
X121547978Y-65847714D01*
X121541894Y-65845500D01*
X121427106Y-65845500D01*
X121421022Y-65847714D01*
X121421018Y-65847715D01*
X121378019Y-65863366D01*
X121336693Y-65866075D01*
X121300383Y-65846154D01*
X121280464Y-65809844D01*
X121282923Y-65772326D01*
X121283086Y-65772045D01*
X121303019Y-65659000D01*
X121302931Y-65658500D01*
X123236479Y-65658500D01*
X123256412Y-65771545D01*
X123313806Y-65870955D01*
X123401739Y-65944740D01*
X123509606Y-65984000D01*
X123617917Y-65984000D01*
X123624394Y-65984000D01*
X123674267Y-65965847D01*
X123715587Y-65963139D01*
X123751897Y-65983057D01*
X123771818Y-66019364D01*
X123769339Y-66057214D01*
X123768912Y-66057955D01*
X123767789Y-66064320D01*
X123767788Y-66064325D01*
X123751824Y-66154862D01*
X123748979Y-66171000D01*
X123768912Y-66284045D01*
X123826306Y-66383455D01*
X123914239Y-66457240D01*
X124022106Y-66496500D01*
X124130417Y-66496500D01*
X124136894Y-66496500D01*
X124244761Y-66457240D01*
X124332694Y-66383455D01*
X124390088Y-66284045D01*
X124410021Y-66171000D01*
X124390088Y-66057955D01*
X124332694Y-65958545D01*
X124244761Y-65884760D01*
X124238676Y-65882545D01*
X124238674Y-65882544D01*
X124142981Y-65847715D01*
X124142978Y-65847714D01*
X124136894Y-65845500D01*
X124022106Y-65845500D01*
X123972233Y-65863652D01*
X123930908Y-65866360D01*
X123894598Y-65846438D01*
X123874679Y-65810128D01*
X123877161Y-65772283D01*
X123877588Y-65771545D01*
X123897433Y-65659000D01*
X126443479Y-65659000D01*
X126463412Y-65772045D01*
X126520806Y-65871455D01*
X126608739Y-65945240D01*
X126716606Y-65984500D01*
X126824917Y-65984500D01*
X126831394Y-65984500D01*
X126939261Y-65945240D01*
X127027194Y-65871455D01*
X127084588Y-65772045D01*
X127104521Y-65659000D01*
X127084588Y-65545955D01*
X127027194Y-65446545D01*
X126939261Y-65372760D01*
X126933176Y-65370545D01*
X126933174Y-65370544D01*
X126837481Y-65335715D01*
X126837478Y-65335714D01*
X126831394Y-65333500D01*
X126716606Y-65333500D01*
X126710522Y-65335714D01*
X126710518Y-65335715D01*
X126614826Y-65370544D01*
X126614821Y-65370546D01*
X126608740Y-65372760D01*
X126603780Y-65376921D01*
X126603778Y-65376923D01*
X126525764Y-65442384D01*
X126525761Y-65442386D01*
X126520806Y-65446545D01*
X126517571Y-65452146D01*
X126517570Y-65452149D01*
X126466648Y-65540349D01*
X126466646Y-65540351D01*
X126463412Y-65545955D01*
X126443479Y-65659000D01*
X123897433Y-65659000D01*
X123897521Y-65658500D01*
X123877588Y-65545455D01*
X123820194Y-65446045D01*
X123732261Y-65372260D01*
X123726176Y-65370045D01*
X123726174Y-65370044D01*
X123630481Y-65335215D01*
X123630478Y-65335214D01*
X123624394Y-65333000D01*
X123509606Y-65333000D01*
X123503522Y-65335214D01*
X123503518Y-65335215D01*
X123407826Y-65370044D01*
X123407821Y-65370046D01*
X123401740Y-65372260D01*
X123396780Y-65376421D01*
X123396778Y-65376423D01*
X123318764Y-65441884D01*
X123318761Y-65441886D01*
X123313806Y-65446045D01*
X123310571Y-65451646D01*
X123310570Y-65451649D01*
X123259648Y-65539849D01*
X123259646Y-65539851D01*
X123256412Y-65545455D01*
X123255288Y-65551828D01*
X123255288Y-65551829D01*
X123250656Y-65578100D01*
X123236479Y-65658500D01*
X121302931Y-65658500D01*
X121283086Y-65545955D01*
X121225692Y-65446545D01*
X121137759Y-65372760D01*
X121131674Y-65370545D01*
X121131672Y-65370544D01*
X121035979Y-65335715D01*
X121035976Y-65335714D01*
X121029892Y-65333500D01*
X120915104Y-65333500D01*
X120909020Y-65335714D01*
X120909016Y-65335715D01*
X120813324Y-65370544D01*
X120813319Y-65370546D01*
X120807238Y-65372760D01*
X120802278Y-65376921D01*
X120802276Y-65376923D01*
X120724262Y-65442384D01*
X120724259Y-65442386D01*
X120719304Y-65446545D01*
X120716069Y-65452146D01*
X120716068Y-65452149D01*
X120665146Y-65540349D01*
X120665144Y-65540351D01*
X120661910Y-65545955D01*
X120641977Y-65659000D01*
X116051898Y-65659000D01*
X116031220Y-65604477D01*
X115941483Y-65474470D01*
X115909397Y-65446045D01*
X115826589Y-65372684D01*
X115823240Y-65369717D01*
X115819277Y-65367637D01*
X115819276Y-65367636D01*
X115765713Y-65339524D01*
X115736774Y-65312283D01*
X115726102Y-65274000D01*
X115732068Y-65252600D01*
X124612079Y-65252600D01*
X124632012Y-65365645D01*
X124689406Y-65465055D01*
X124777339Y-65538840D01*
X124885206Y-65578100D01*
X124993517Y-65578100D01*
X124999994Y-65578100D01*
X125107861Y-65538840D01*
X125195794Y-65465055D01*
X125253188Y-65365645D01*
X125273121Y-65252600D01*
X125253188Y-65139555D01*
X125195794Y-65040145D01*
X125107861Y-64966360D01*
X125101776Y-64964145D01*
X125101774Y-64964144D01*
X125006081Y-64929315D01*
X125006078Y-64929314D01*
X124999994Y-64927100D01*
X124885206Y-64927100D01*
X124879122Y-64929314D01*
X124879118Y-64929315D01*
X124783426Y-64964144D01*
X124783421Y-64964146D01*
X124777340Y-64966360D01*
X124772380Y-64970521D01*
X124772378Y-64970523D01*
X124694364Y-65035984D01*
X124694361Y-65035986D01*
X124689406Y-65040145D01*
X124686171Y-65045746D01*
X124686170Y-65045749D01*
X124635248Y-65133949D01*
X124635246Y-65133951D01*
X124632012Y-65139555D01*
X124630888Y-65145928D01*
X124630888Y-65145929D01*
X124625234Y-65177992D01*
X124612079Y-65252600D01*
X115732068Y-65252600D01*
X115736774Y-65235717D01*
X115765713Y-65208476D01*
X115802129Y-65189363D01*
X115823240Y-65178283D01*
X115941483Y-65073530D01*
X116031220Y-64943523D01*
X116039819Y-64920850D01*
X127832881Y-64920850D01*
X127852814Y-65033895D01*
X127910208Y-65133305D01*
X127998141Y-65207090D01*
X128106008Y-65246350D01*
X128127833Y-65246350D01*
X128161044Y-65254221D01*
X128187190Y-65276160D01*
X128200708Y-65307499D01*
X128213412Y-65379543D01*
X128270806Y-65478953D01*
X128358739Y-65552738D01*
X128466606Y-65591998D01*
X128473083Y-65591998D01*
X128581394Y-65591998D01*
X128581394Y-65594682D01*
X128615602Y-65599679D01*
X128648536Y-65632596D01*
X128655288Y-65678668D01*
X128639977Y-65765502D01*
X128659910Y-65878547D01*
X128717304Y-65977957D01*
X128805237Y-66051742D01*
X128913104Y-66091002D01*
X129021415Y-66091002D01*
X129027892Y-66091002D01*
X129135759Y-66051742D01*
X129223692Y-65977957D01*
X129281086Y-65878547D01*
X129301019Y-65765502D01*
X129281086Y-65652457D01*
X129223692Y-65553047D01*
X129135759Y-65479262D01*
X129129674Y-65477047D01*
X129129672Y-65477046D01*
X129033979Y-65442217D01*
X129033976Y-65442216D01*
X129027892Y-65440002D01*
X128913104Y-65440002D01*
X128913104Y-65437332D01*
X128878845Y-65432295D01*
X128845949Y-65399377D01*
X128839209Y-65353333D01*
X128854521Y-65266498D01*
X128834588Y-65153453D01*
X128777194Y-65054043D01*
X128689261Y-64980258D01*
X128683176Y-64978043D01*
X128683174Y-64978042D01*
X128587481Y-64943213D01*
X128587478Y-64943212D01*
X128581394Y-64940998D01*
X128574917Y-64940998D01*
X128559569Y-64940998D01*
X128526358Y-64933127D01*
X128500212Y-64911188D01*
X128486693Y-64879848D01*
X128473990Y-64807805D01*
X128416596Y-64708395D01*
X128328663Y-64634610D01*
X128322578Y-64632395D01*
X128322576Y-64632394D01*
X128226883Y-64597565D01*
X128226880Y-64597564D01*
X128220796Y-64595350D01*
X128106008Y-64595350D01*
X128099924Y-64597564D01*
X128099920Y-64597565D01*
X128004228Y-64632394D01*
X128004223Y-64632396D01*
X127998142Y-64634610D01*
X127993182Y-64638771D01*
X127993180Y-64638773D01*
X127915166Y-64704234D01*
X127915163Y-64704236D01*
X127910208Y-64708395D01*
X127906973Y-64713996D01*
X127906972Y-64713999D01*
X127856050Y-64802199D01*
X127856048Y-64802201D01*
X127852814Y-64807805D01*
X127832881Y-64920850D01*
X116039819Y-64920850D01*
X116087237Y-64795818D01*
X116106278Y-64639000D01*
X116087237Y-64482182D01*
X116031220Y-64334477D01*
X115941483Y-64204470D01*
X115823240Y-64099717D01*
X115816615Y-64096240D01*
X115687329Y-64028384D01*
X115687325Y-64028382D01*
X115683365Y-64026304D01*
X115679019Y-64025232D01*
X115679017Y-64025232D01*
X115534333Y-63989571D01*
X115534327Y-63989570D01*
X115529985Y-63988500D01*
X115372015Y-63988500D01*
X115367673Y-63989570D01*
X115367666Y-63989571D01*
X115222982Y-64025232D01*
X115222977Y-64025233D01*
X115218635Y-64026304D01*
X115214676Y-64028381D01*
X115214670Y-64028384D01*
X115082722Y-64097637D01*
X115082721Y-64097638D01*
X115078760Y-64099717D01*
X115075414Y-64102680D01*
X115075404Y-64102688D01*
X115068266Y-64109012D01*
X115036905Y-64125470D01*
X115001487Y-64125468D01*
X114970128Y-64109008D01*
X114959640Y-64099717D01*
X114955680Y-64097638D01*
X114955672Y-64097633D01*
X114871110Y-64053251D01*
X114842172Y-64026011D01*
X114831500Y-63987728D01*
X114831500Y-63810000D01*
X119666479Y-63810000D01*
X119686412Y-63923045D01*
X119743806Y-64022455D01*
X119831739Y-64096240D01*
X119939606Y-64135500D01*
X120047917Y-64135500D01*
X120054394Y-64135500D01*
X120162261Y-64096240D01*
X120250194Y-64022455D01*
X120293758Y-63947000D01*
X124002479Y-63947000D01*
X124022412Y-64060045D01*
X124079806Y-64159455D01*
X124167739Y-64233240D01*
X124275606Y-64272500D01*
X124383917Y-64272500D01*
X124390394Y-64272500D01*
X124498261Y-64233240D01*
X124586194Y-64159455D01*
X124643588Y-64060045D01*
X124663521Y-63947000D01*
X124643588Y-63833955D01*
X124604354Y-63766000D01*
X128276579Y-63766000D01*
X128296512Y-63879045D01*
X128353906Y-63978455D01*
X128431809Y-64043824D01*
X128457119Y-64087659D01*
X128448330Y-64137508D01*
X128442649Y-64147346D01*
X128442646Y-64147351D01*
X128439412Y-64152955D01*
X128438288Y-64159327D01*
X128438287Y-64159331D01*
X128424865Y-64235455D01*
X128419479Y-64266000D01*
X128439412Y-64379045D01*
X128496806Y-64478455D01*
X128584739Y-64552240D01*
X128692606Y-64591500D01*
X128800917Y-64591500D01*
X128807394Y-64591500D01*
X128915261Y-64552240D01*
X129003194Y-64478455D01*
X129060588Y-64379045D01*
X129080521Y-64266000D01*
X129060588Y-64152955D01*
X129003194Y-64053545D01*
X128925288Y-63988174D01*
X128904909Y-63960798D01*
X128898982Y-63927185D01*
X128908772Y-63894488D01*
X128914451Y-63884652D01*
X128914452Y-63884650D01*
X128917688Y-63879045D01*
X128937621Y-63766000D01*
X128917688Y-63652955D01*
X128860294Y-63553545D01*
X128772361Y-63479760D01*
X128766276Y-63477545D01*
X128766274Y-63477544D01*
X128670581Y-63442715D01*
X128670578Y-63442714D01*
X128664494Y-63440500D01*
X128549706Y-63440500D01*
X128543622Y-63442714D01*
X128543618Y-63442715D01*
X128447926Y-63477544D01*
X128447921Y-63477546D01*
X128441840Y-63479760D01*
X128436880Y-63483921D01*
X128436878Y-63483923D01*
X128358864Y-63549384D01*
X128358861Y-63549386D01*
X128353906Y-63553545D01*
X128350671Y-63559146D01*
X128350670Y-63559149D01*
X128299748Y-63647349D01*
X128299746Y-63647351D01*
X128296512Y-63652955D01*
X128295388Y-63659328D01*
X128295388Y-63659329D01*
X128289742Y-63691349D01*
X128276579Y-63766000D01*
X124604354Y-63766000D01*
X124586194Y-63734545D01*
X124498261Y-63660760D01*
X124492176Y-63658545D01*
X124492174Y-63658544D01*
X124396481Y-63623715D01*
X124396478Y-63623714D01*
X124390394Y-63621500D01*
X124275606Y-63621500D01*
X124269522Y-63623714D01*
X124269518Y-63623715D01*
X124173826Y-63658544D01*
X124173821Y-63658546D01*
X124167740Y-63660760D01*
X124162780Y-63664921D01*
X124162778Y-63664923D01*
X124084764Y-63730384D01*
X124084761Y-63730386D01*
X124079806Y-63734545D01*
X124076571Y-63740146D01*
X124076570Y-63740149D01*
X124025648Y-63828349D01*
X124025646Y-63828351D01*
X124022412Y-63833955D01*
X124002479Y-63947000D01*
X120293758Y-63947000D01*
X120307588Y-63923045D01*
X120327521Y-63810000D01*
X120307588Y-63696955D01*
X120250194Y-63597545D01*
X120162261Y-63523760D01*
X120156176Y-63521545D01*
X120156174Y-63521544D01*
X120060481Y-63486715D01*
X120060478Y-63486714D01*
X120054394Y-63484500D01*
X119939606Y-63484500D01*
X119933522Y-63486714D01*
X119933518Y-63486715D01*
X119837826Y-63521544D01*
X119837821Y-63521546D01*
X119831740Y-63523760D01*
X119826780Y-63527921D01*
X119826778Y-63527923D01*
X119748764Y-63593384D01*
X119748761Y-63593386D01*
X119743806Y-63597545D01*
X119740571Y-63603146D01*
X119740570Y-63603149D01*
X119689648Y-63691349D01*
X119689646Y-63691351D01*
X119686412Y-63696955D01*
X119685288Y-63703328D01*
X119685288Y-63703329D01*
X119679784Y-63734545D01*
X119666479Y-63810000D01*
X114831500Y-63810000D01*
X114831500Y-63368000D01*
X120618479Y-63368000D01*
X120638412Y-63481045D01*
X120695806Y-63580455D01*
X120783739Y-63654240D01*
X120891606Y-63693500D01*
X120999917Y-63693500D01*
X121006394Y-63693500D01*
X121114261Y-63654240D01*
X121202194Y-63580455D01*
X121259588Y-63481045D01*
X121278639Y-63373000D01*
X124936479Y-63373000D01*
X124956412Y-63486045D01*
X125013806Y-63585455D01*
X125101739Y-63659240D01*
X125209606Y-63698500D01*
X125317917Y-63698500D01*
X125324394Y-63698500D01*
X125432261Y-63659240D01*
X125520194Y-63585455D01*
X125577588Y-63486045D01*
X125597521Y-63373000D01*
X125577588Y-63259955D01*
X125520194Y-63160545D01*
X125520193Y-63160544D01*
X125521675Y-63159689D01*
X125511806Y-63140017D01*
X125511836Y-63105851D01*
X125521681Y-63086314D01*
X125520194Y-63085455D01*
X125527229Y-63073270D01*
X125577588Y-62986045D01*
X125597521Y-62873000D01*
X125577588Y-62759955D01*
X125520194Y-62660545D01*
X125432261Y-62586760D01*
X125426176Y-62584545D01*
X125426174Y-62584544D01*
X125330481Y-62549715D01*
X125330478Y-62549714D01*
X125324394Y-62547500D01*
X125209606Y-62547500D01*
X125203522Y-62549714D01*
X125203518Y-62549715D01*
X125107826Y-62584544D01*
X125107821Y-62584546D01*
X125101740Y-62586760D01*
X125096780Y-62590921D01*
X125096778Y-62590923D01*
X125018764Y-62656384D01*
X125018761Y-62656386D01*
X125013806Y-62660545D01*
X125010571Y-62666146D01*
X125010570Y-62666149D01*
X124959648Y-62754349D01*
X124959646Y-62754351D01*
X124956412Y-62759955D01*
X124936479Y-62873000D01*
X124956412Y-62986045D01*
X124959647Y-62991649D01*
X124959648Y-62991650D01*
X125013806Y-63085455D01*
X125011089Y-63087023D01*
X125024177Y-63123000D01*
X125011089Y-63158976D01*
X125013806Y-63160545D01*
X124959648Y-63254349D01*
X124959646Y-63254351D01*
X124956412Y-63259955D01*
X124936479Y-63373000D01*
X121278639Y-63373000D01*
X121279521Y-63368000D01*
X121259588Y-63254955D01*
X121202194Y-63155545D01*
X121203675Y-63154689D01*
X121193806Y-63135017D01*
X121193836Y-63100851D01*
X121203681Y-63081314D01*
X121202194Y-63080455D01*
X121206342Y-63073270D01*
X121259588Y-62981045D01*
X121279521Y-62868000D01*
X121259588Y-62754955D01*
X121202194Y-62655545D01*
X121114261Y-62581760D01*
X121108176Y-62579545D01*
X121108174Y-62579544D01*
X121012481Y-62544715D01*
X121012478Y-62544714D01*
X121006394Y-62542500D01*
X120891606Y-62542500D01*
X120885522Y-62544714D01*
X120885518Y-62544715D01*
X120789826Y-62579544D01*
X120789821Y-62579546D01*
X120783740Y-62581760D01*
X120778780Y-62585921D01*
X120778778Y-62585923D01*
X120700764Y-62651384D01*
X120700761Y-62651386D01*
X120695806Y-62655545D01*
X120692571Y-62661146D01*
X120692570Y-62661149D01*
X120641648Y-62749349D01*
X120641646Y-62749351D01*
X120638412Y-62754955D01*
X120618479Y-62868000D01*
X120638412Y-62981045D01*
X120641647Y-62986649D01*
X120641648Y-62986650D01*
X120695806Y-63080455D01*
X120693089Y-63082023D01*
X120706177Y-63118000D01*
X120693089Y-63153976D01*
X120695806Y-63155545D01*
X120641648Y-63249349D01*
X120641646Y-63249351D01*
X120638412Y-63254955D01*
X120618479Y-63368000D01*
X114831500Y-63368000D01*
X114831500Y-62966600D01*
X117103479Y-62966600D01*
X117123412Y-63079645D01*
X117180806Y-63179055D01*
X117268739Y-63252840D01*
X117376606Y-63292100D01*
X117484917Y-63292100D01*
X117491394Y-63292100D01*
X117599261Y-63252840D01*
X117687194Y-63179055D01*
X117744588Y-63079645D01*
X117764521Y-62966600D01*
X117744588Y-62853555D01*
X117707033Y-62788508D01*
X117697120Y-62751510D01*
X117707033Y-62714511D01*
X117760188Y-62622445D01*
X117780121Y-62509400D01*
X117760188Y-62396355D01*
X117702794Y-62296945D01*
X117614861Y-62223160D01*
X117608776Y-62220945D01*
X117608774Y-62220944D01*
X117513081Y-62186115D01*
X117513078Y-62186114D01*
X117506994Y-62183900D01*
X117392206Y-62183900D01*
X117386122Y-62186114D01*
X117386118Y-62186115D01*
X117290426Y-62220944D01*
X117290421Y-62220946D01*
X117284340Y-62223160D01*
X117279380Y-62227321D01*
X117279378Y-62227323D01*
X117201364Y-62292784D01*
X117201361Y-62292786D01*
X117196406Y-62296945D01*
X117193171Y-62302546D01*
X117193170Y-62302549D01*
X117142248Y-62390749D01*
X117142246Y-62390751D01*
X117139012Y-62396355D01*
X117119079Y-62509400D01*
X117139012Y-62622445D01*
X117142247Y-62628049D01*
X117142248Y-62628050D01*
X117176565Y-62687489D01*
X117186479Y-62724489D01*
X117176565Y-62761488D01*
X117126649Y-62847946D01*
X117126646Y-62847952D01*
X117123412Y-62853555D01*
X117103479Y-62966600D01*
X114831500Y-62966600D01*
X114831500Y-62750272D01*
X114842172Y-62711989D01*
X114871110Y-62684749D01*
X114955672Y-62640366D01*
X114955674Y-62640364D01*
X114959640Y-62638283D01*
X114970127Y-62628991D01*
X115001489Y-62612531D01*
X115036908Y-62612530D01*
X115068267Y-62628987D01*
X115078760Y-62638283D01*
X115218635Y-62711696D01*
X115372015Y-62749500D01*
X115525506Y-62749500D01*
X115529985Y-62749500D01*
X115683365Y-62711696D01*
X115823240Y-62638283D01*
X115941483Y-62533530D01*
X116031220Y-62403523D01*
X116087237Y-62255818D01*
X116106278Y-62099000D01*
X116087237Y-61942182D01*
X116031220Y-61794477D01*
X115998725Y-61747400D01*
X128432279Y-61747400D01*
X128452212Y-61860445D01*
X128509606Y-61959855D01*
X128597539Y-62033640D01*
X128705406Y-62072900D01*
X128813717Y-62072900D01*
X128820194Y-62072900D01*
X128928061Y-62033640D01*
X129015994Y-61959855D01*
X129073388Y-61860445D01*
X129093321Y-61747400D01*
X129073388Y-61634355D01*
X129015994Y-61534945D01*
X128928061Y-61461160D01*
X128921976Y-61458945D01*
X128921974Y-61458944D01*
X128826281Y-61424115D01*
X128826278Y-61424114D01*
X128820194Y-61421900D01*
X128705406Y-61421900D01*
X128699322Y-61424114D01*
X128699318Y-61424115D01*
X128603626Y-61458944D01*
X128603621Y-61458946D01*
X128597540Y-61461160D01*
X128592580Y-61465321D01*
X128592578Y-61465323D01*
X128514564Y-61530784D01*
X128514561Y-61530786D01*
X128509606Y-61534945D01*
X128506371Y-61540546D01*
X128506370Y-61540549D01*
X128455448Y-61628749D01*
X128455446Y-61628751D01*
X128452212Y-61634355D01*
X128432279Y-61747400D01*
X115998725Y-61747400D01*
X115941483Y-61664470D01*
X115823240Y-61559717D01*
X115786719Y-61540549D01*
X115687329Y-61488384D01*
X115687325Y-61488382D01*
X115683365Y-61486304D01*
X115679019Y-61485232D01*
X115679017Y-61485232D01*
X115534333Y-61449571D01*
X115534327Y-61449570D01*
X115529985Y-61448500D01*
X115372015Y-61448500D01*
X115367673Y-61449570D01*
X115367666Y-61449571D01*
X115222982Y-61485232D01*
X115222977Y-61485233D01*
X115218635Y-61486304D01*
X115214676Y-61488381D01*
X115214670Y-61488384D01*
X115082722Y-61557637D01*
X115082721Y-61557638D01*
X115078760Y-61559717D01*
X115075414Y-61562680D01*
X115075404Y-61562688D01*
X115068266Y-61569012D01*
X115036905Y-61585470D01*
X115001487Y-61585468D01*
X114970128Y-61569008D01*
X114959640Y-61559717D01*
X114955680Y-61557638D01*
X114955672Y-61557633D01*
X114871110Y-61513251D01*
X114842172Y-61486011D01*
X114831500Y-61447728D01*
X114831500Y-60930500D01*
X114841414Y-60893500D01*
X114868500Y-60866414D01*
X114905500Y-60856500D01*
X120036151Y-60856500D01*
X120078596Y-60869883D01*
G37*
%TD.AperFunction*%
%TD*%
M02*
