%TF.GenerationSoftware,KiCad,Pcbnew,(7.0.0)*%
%TF.CreationDate,2023-03-07T13:57:33-05:00*%
%TF.ProjectId,imu-stamp,696d752d-7374-4616-9d70-2e6b69636164,rev?*%
%TF.SameCoordinates,Original*%
%TF.FileFunction,Legend,Bot*%
%TF.FilePolarity,Positive*%
%FSLAX46Y46*%
G04 Gerber Fmt 4.6, Leading zero omitted, Abs format (unit mm)*
G04 Created by KiCad (PCBNEW (7.0.0)) date 2023-03-07 13:57:33*
%MOMM*%
%LPD*%
G01*
G04 APERTURE LIST*
%ADD10C,0.152400*%
%ADD11C,0.203200*%
G04 APERTURE END LIST*
D10*
X131916713Y-66700944D02*
X131408713Y-67462944D01*
X131408713Y-66700944D02*
X131916713Y-67462944D01*
X130973285Y-66700944D02*
X130828142Y-66700944D01*
X130828142Y-66700944D02*
X130755571Y-66737230D01*
X130755571Y-66737230D02*
X130682999Y-66809801D01*
X130682999Y-66809801D02*
X130646714Y-66954944D01*
X130646714Y-66954944D02*
X130646714Y-67208944D01*
X130646714Y-67208944D02*
X130682999Y-67354087D01*
X130682999Y-67354087D02*
X130755571Y-67426658D01*
X130755571Y-67426658D02*
X130828142Y-67462944D01*
X130828142Y-67462944D02*
X130973285Y-67462944D01*
X130973285Y-67462944D02*
X131045857Y-67426658D01*
X131045857Y-67426658D02*
X131118428Y-67354087D01*
X131118428Y-67354087D02*
X131154714Y-67208944D01*
X131154714Y-67208944D02*
X131154714Y-66954944D01*
X131154714Y-66954944D02*
X131118428Y-66809801D01*
X131118428Y-66809801D02*
X131045857Y-66737230D01*
X131045857Y-66737230D02*
X130973285Y-66700944D01*
X129884713Y-67462944D02*
X130138713Y-67100087D01*
X130320142Y-67462944D02*
X130320142Y-66700944D01*
X130320142Y-66700944D02*
X130029856Y-66700944D01*
X130029856Y-66700944D02*
X129957285Y-66737230D01*
X129957285Y-66737230D02*
X129920999Y-66773515D01*
X129920999Y-66773515D02*
X129884713Y-66846087D01*
X129884713Y-66846087D02*
X129884713Y-66954944D01*
X129884713Y-66954944D02*
X129920999Y-67027515D01*
X129920999Y-67027515D02*
X129957285Y-67063801D01*
X129957285Y-67063801D02*
X130029856Y-67100087D01*
X130029856Y-67100087D02*
X130320142Y-67100087D01*
X129739571Y-67535515D02*
X129158999Y-67535515D01*
X128542142Y-67462944D02*
X128796142Y-67100087D01*
X128977571Y-67462944D02*
X128977571Y-66700944D01*
X128977571Y-66700944D02*
X128687285Y-66700944D01*
X128687285Y-66700944D02*
X128614714Y-66737230D01*
X128614714Y-66737230D02*
X128578428Y-66773515D01*
X128578428Y-66773515D02*
X128542142Y-66846087D01*
X128542142Y-66846087D02*
X128542142Y-66954944D01*
X128542142Y-66954944D02*
X128578428Y-67027515D01*
X128578428Y-67027515D02*
X128614714Y-67063801D01*
X128614714Y-67063801D02*
X128687285Y-67100087D01*
X128687285Y-67100087D02*
X128977571Y-67100087D01*
X128215571Y-67063801D02*
X127961571Y-67063801D01*
X127852714Y-67462944D02*
X128215571Y-67462944D01*
X128215571Y-67462944D02*
X128215571Y-66700944D01*
X128215571Y-66700944D02*
X127852714Y-66700944D01*
X127272142Y-67063801D02*
X127526142Y-67063801D01*
X127526142Y-67462944D02*
X127526142Y-66700944D01*
X127526142Y-66700944D02*
X127163285Y-66700944D01*
X126211341Y-65604309D02*
X125934664Y-65178264D01*
X126013715Y-65299991D02*
X125943758Y-65258890D01*
X125943758Y-65258890D02*
X125893563Y-65248221D01*
X125893563Y-65248221D02*
X125812937Y-65257315D01*
X125812937Y-65257315D02*
X125752074Y-65296840D01*
X125552512Y-65988892D02*
X125633138Y-65979799D01*
X125633138Y-65979799D02*
X125754865Y-65900748D01*
X125754865Y-65900748D02*
X125795966Y-65830791D01*
X125795966Y-65830791D02*
X125786872Y-65750165D01*
X125786872Y-65750165D02*
X125628771Y-65506711D01*
X125628771Y-65506711D02*
X125558814Y-65465610D01*
X125558814Y-65465610D02*
X125478188Y-65474703D01*
X125478188Y-65474703D02*
X125356461Y-65553754D01*
X125356461Y-65553754D02*
X125315360Y-65623711D01*
X125315360Y-65623711D02*
X125324454Y-65704337D01*
X125324454Y-65704337D02*
X125363979Y-65765201D01*
X125363979Y-65765201D02*
X125707822Y-65628438D01*
X125052143Y-65751380D02*
X125176661Y-66276238D01*
X125176661Y-66276238D02*
X124747826Y-65949006D01*
X124692905Y-66330798D02*
X124388587Y-66528425D01*
X124872344Y-66473864D02*
X124244307Y-65973135D01*
X124244307Y-65973135D02*
X124446299Y-66750540D01*
X118400285Y-66156658D02*
X118291428Y-66192944D01*
X118291428Y-66192944D02*
X118109999Y-66192944D01*
X118109999Y-66192944D02*
X118037428Y-66156658D01*
X118037428Y-66156658D02*
X118001142Y-66120372D01*
X118001142Y-66120372D02*
X117964856Y-66047801D01*
X117964856Y-66047801D02*
X117964856Y-65975230D01*
X117964856Y-65975230D02*
X118001142Y-65902658D01*
X118001142Y-65902658D02*
X118037428Y-65866372D01*
X118037428Y-65866372D02*
X118109999Y-65830087D01*
X118109999Y-65830087D02*
X118255142Y-65793801D01*
X118255142Y-65793801D02*
X118327713Y-65757515D01*
X118327713Y-65757515D02*
X118363999Y-65721230D01*
X118363999Y-65721230D02*
X118400285Y-65648658D01*
X118400285Y-65648658D02*
X118400285Y-65576087D01*
X118400285Y-65576087D02*
X118363999Y-65503515D01*
X118363999Y-65503515D02*
X118327713Y-65467230D01*
X118327713Y-65467230D02*
X118255142Y-65430944D01*
X118255142Y-65430944D02*
X118073713Y-65430944D01*
X118073713Y-65430944D02*
X117964856Y-65467230D01*
X117638285Y-66192944D02*
X117638285Y-65430944D01*
X117638285Y-65430944D02*
X117456856Y-65430944D01*
X117456856Y-65430944D02*
X117347999Y-65467230D01*
X117347999Y-65467230D02*
X117275428Y-65539801D01*
X117275428Y-65539801D02*
X117239142Y-65612372D01*
X117239142Y-65612372D02*
X117202856Y-65757515D01*
X117202856Y-65757515D02*
X117202856Y-65866372D01*
X117202856Y-65866372D02*
X117239142Y-66011515D01*
X117239142Y-66011515D02*
X117275428Y-66084087D01*
X117275428Y-66084087D02*
X117347999Y-66156658D01*
X117347999Y-66156658D02*
X117456856Y-66192944D01*
X117456856Y-66192944D02*
X117638285Y-66192944D01*
X116912571Y-65975230D02*
X116549714Y-65975230D01*
X116985142Y-66192944D02*
X116731142Y-65430944D01*
X116731142Y-65430944D02*
X116477142Y-66192944D01*
D11*
X127021928Y-61982259D02*
X126686797Y-61291315D01*
X126519231Y-60945843D02*
X126588817Y-60965553D01*
X126588817Y-60965553D02*
X126567107Y-61044550D01*
X126567107Y-61044550D02*
X126497521Y-61024840D01*
X126497521Y-61024840D02*
X126519231Y-60945843D01*
X126519231Y-60945843D02*
X126567107Y-61044550D01*
X126565452Y-62278699D02*
X126230320Y-61587755D01*
X126278196Y-61686461D02*
X126208611Y-61666752D01*
X126208611Y-61666752D02*
X126093377Y-61676687D01*
X126093377Y-61676687D02*
X125956434Y-61765618D01*
X125956434Y-61765618D02*
X125889077Y-61874259D01*
X125889077Y-61874259D02*
X125891305Y-62002609D01*
X125891305Y-62002609D02*
X126154623Y-62545494D01*
X125891305Y-62002609D02*
X125797782Y-61933547D01*
X125797782Y-61933547D02*
X125682548Y-61943482D01*
X125682548Y-61943482D02*
X125545606Y-62032414D01*
X125545606Y-62032414D02*
X125478248Y-62141055D01*
X125478248Y-62141055D02*
X125480477Y-62269405D01*
X125480477Y-62269405D02*
X125743794Y-62812289D01*
X124541357Y-62684580D02*
X124876489Y-63375524D01*
X124952186Y-62417785D02*
X125215504Y-62960669D01*
X125215504Y-62960669D02*
X125217732Y-63089019D01*
X125217732Y-63089019D02*
X125150375Y-63197660D01*
X125150375Y-63197660D02*
X125013432Y-63286592D01*
X125013432Y-63286592D02*
X124898199Y-63296527D01*
X124898199Y-63296527D02*
X124828613Y-63276818D01*
X124228509Y-63277138D02*
X123498146Y-63751441D01*
X123254883Y-64363708D02*
X123187526Y-64472349D01*
X123187526Y-64472349D02*
X123004936Y-64590925D01*
X123004936Y-64590925D02*
X122889702Y-64600860D01*
X122889702Y-64600860D02*
X122796179Y-64531797D01*
X122796179Y-64531797D02*
X122772241Y-64482444D01*
X122772241Y-64482444D02*
X122770012Y-64354094D01*
X122770012Y-64354094D02*
X122837370Y-64245453D01*
X122837370Y-64245453D02*
X122974313Y-64156521D01*
X122974313Y-64156521D02*
X123041670Y-64047880D01*
X123041670Y-64047880D02*
X123039442Y-63919530D01*
X123039442Y-63919530D02*
X123015504Y-63870177D01*
X123015504Y-63870177D02*
X122921980Y-63801115D01*
X122921980Y-63801115D02*
X122806747Y-63811049D01*
X122806747Y-63811049D02*
X122669804Y-63899981D01*
X122669804Y-63899981D02*
X122602447Y-64008622D01*
X122258975Y-64166776D02*
X121893794Y-64403928D01*
X121954466Y-63910236D02*
X122385350Y-64798593D01*
X122385350Y-64798593D02*
X122387578Y-64926943D01*
X122387578Y-64926943D02*
X122320221Y-65035584D01*
X122320221Y-65035584D02*
X122228925Y-65094872D01*
X121498563Y-65569175D02*
X121235245Y-65026290D01*
X121235245Y-65026290D02*
X121233017Y-64897940D01*
X121233017Y-64897940D02*
X121300374Y-64789299D01*
X121300374Y-64789299D02*
X121482965Y-64670723D01*
X121482965Y-64670723D02*
X121598198Y-64660789D01*
X121474625Y-65519821D02*
X121589858Y-65509887D01*
X121589858Y-65509887D02*
X121818096Y-65361667D01*
X121818096Y-65361667D02*
X121885454Y-65253026D01*
X121885454Y-65253026D02*
X121883226Y-65124676D01*
X121883226Y-65124676D02*
X121835350Y-65025970D01*
X121835350Y-65025970D02*
X121741826Y-64956907D01*
X121741826Y-64956907D02*
X121626593Y-64966842D01*
X121626593Y-64966842D02*
X121398355Y-65115062D01*
X121398355Y-65115062D02*
X121283121Y-65124996D01*
X121042086Y-65865614D02*
X120706955Y-65174670D01*
X120754831Y-65273376D02*
X120685245Y-65253667D01*
X120685245Y-65253667D02*
X120570012Y-65263602D01*
X120570012Y-65263602D02*
X120433069Y-65352534D01*
X120433069Y-65352534D02*
X120365712Y-65461175D01*
X120365712Y-65461175D02*
X120367940Y-65589525D01*
X120367940Y-65589525D02*
X120631258Y-66132409D01*
X120367940Y-65589525D02*
X120274416Y-65520462D01*
X120274416Y-65520462D02*
X120159183Y-65530397D01*
X120159183Y-65530397D02*
X120022240Y-65619329D01*
X120022240Y-65619329D02*
X119954883Y-65727970D01*
X119954883Y-65727970D02*
X119957111Y-65856320D01*
X119957111Y-65856320D02*
X120220429Y-66399205D01*
X119428821Y-66004700D02*
X119931518Y-67041116D01*
X119452759Y-66054053D02*
X119337526Y-66063988D01*
X119337526Y-66063988D02*
X119154935Y-66182564D01*
X119154935Y-66182564D02*
X119087578Y-66291205D01*
X119087578Y-66291205D02*
X119065868Y-66370202D01*
X119065868Y-66370202D02*
X119068096Y-66498552D01*
X119068096Y-66498552D02*
X119211724Y-66794671D01*
X119211724Y-66794671D02*
X119305248Y-66863733D01*
X119305248Y-66863733D02*
X119374833Y-66883442D01*
X119374833Y-66883442D02*
X119490067Y-66873507D01*
X119490067Y-66873507D02*
X119672657Y-66754932D01*
X119672657Y-66754932D02*
X119740015Y-66646291D01*
D10*
X131517571Y-62927230D02*
X131590143Y-62890944D01*
X131590143Y-62890944D02*
X131699000Y-62890944D01*
X131699000Y-62890944D02*
X131807857Y-62927230D01*
X131807857Y-62927230D02*
X131880428Y-62999801D01*
X131880428Y-62999801D02*
X131916714Y-63072372D01*
X131916714Y-63072372D02*
X131953000Y-63217515D01*
X131953000Y-63217515D02*
X131953000Y-63326372D01*
X131953000Y-63326372D02*
X131916714Y-63471515D01*
X131916714Y-63471515D02*
X131880428Y-63544087D01*
X131880428Y-63544087D02*
X131807857Y-63616658D01*
X131807857Y-63616658D02*
X131699000Y-63652944D01*
X131699000Y-63652944D02*
X131626428Y-63652944D01*
X131626428Y-63652944D02*
X131517571Y-63616658D01*
X131517571Y-63616658D02*
X131481285Y-63580372D01*
X131481285Y-63580372D02*
X131481285Y-63326372D01*
X131481285Y-63326372D02*
X131626428Y-63326372D01*
X131154714Y-63652944D02*
X131154714Y-62890944D01*
X131154714Y-62890944D02*
X130719285Y-63652944D01*
X130719285Y-63652944D02*
X130719285Y-62890944D01*
X130356428Y-63652944D02*
X130356428Y-62890944D01*
X130356428Y-62890944D02*
X130174999Y-62890944D01*
X130174999Y-62890944D02*
X130066142Y-62927230D01*
X130066142Y-62927230D02*
X129993571Y-62999801D01*
X129993571Y-62999801D02*
X129957285Y-63072372D01*
X129957285Y-63072372D02*
X129920999Y-63217515D01*
X129920999Y-63217515D02*
X129920999Y-63326372D01*
X129920999Y-63326372D02*
X129957285Y-63471515D01*
X129957285Y-63471515D02*
X129993571Y-63544087D01*
X129993571Y-63544087D02*
X130066142Y-63616658D01*
X130066142Y-63616658D02*
X130174999Y-63652944D01*
X130174999Y-63652944D02*
X130356428Y-63652944D01*
X118382142Y-64886658D02*
X118273285Y-64922944D01*
X118273285Y-64922944D02*
X118091856Y-64922944D01*
X118091856Y-64922944D02*
X118019285Y-64886658D01*
X118019285Y-64886658D02*
X117982999Y-64850372D01*
X117982999Y-64850372D02*
X117946713Y-64777801D01*
X117946713Y-64777801D02*
X117946713Y-64705230D01*
X117946713Y-64705230D02*
X117982999Y-64632658D01*
X117982999Y-64632658D02*
X118019285Y-64596372D01*
X118019285Y-64596372D02*
X118091856Y-64560087D01*
X118091856Y-64560087D02*
X118236999Y-64523801D01*
X118236999Y-64523801D02*
X118309570Y-64487515D01*
X118309570Y-64487515D02*
X118345856Y-64451230D01*
X118345856Y-64451230D02*
X118382142Y-64378658D01*
X118382142Y-64378658D02*
X118382142Y-64306087D01*
X118382142Y-64306087D02*
X118345856Y-64233515D01*
X118345856Y-64233515D02*
X118309570Y-64197230D01*
X118309570Y-64197230D02*
X118236999Y-64160944D01*
X118236999Y-64160944D02*
X118055570Y-64160944D01*
X118055570Y-64160944D02*
X117946713Y-64197230D01*
X117184713Y-64850372D02*
X117220999Y-64886658D01*
X117220999Y-64886658D02*
X117329856Y-64922944D01*
X117329856Y-64922944D02*
X117402428Y-64922944D01*
X117402428Y-64922944D02*
X117511285Y-64886658D01*
X117511285Y-64886658D02*
X117583856Y-64814087D01*
X117583856Y-64814087D02*
X117620142Y-64741515D01*
X117620142Y-64741515D02*
X117656428Y-64596372D01*
X117656428Y-64596372D02*
X117656428Y-64487515D01*
X117656428Y-64487515D02*
X117620142Y-64342372D01*
X117620142Y-64342372D02*
X117583856Y-64269801D01*
X117583856Y-64269801D02*
X117511285Y-64197230D01*
X117511285Y-64197230D02*
X117402428Y-64160944D01*
X117402428Y-64160944D02*
X117329856Y-64160944D01*
X117329856Y-64160944D02*
X117220999Y-64197230D01*
X117220999Y-64197230D02*
X117184713Y-64233515D01*
X116495285Y-64922944D02*
X116858142Y-64922944D01*
X116858142Y-64922944D02*
X116858142Y-64160944D01*
X126149308Y-64047214D02*
X126199502Y-64057883D01*
X126199502Y-64057883D02*
X126310560Y-64029027D01*
X126310560Y-64029027D02*
X126371424Y-63989501D01*
X126371424Y-63989501D02*
X126442956Y-63899782D01*
X126442956Y-63899782D02*
X126464295Y-63799393D01*
X126464295Y-63799393D02*
X126455201Y-63718767D01*
X126455201Y-63718767D02*
X126406583Y-63577277D01*
X126406583Y-63577277D02*
X126347295Y-63485982D01*
X126347295Y-63485982D02*
X126237812Y-63384018D01*
X126237812Y-63384018D02*
X126167855Y-63342917D01*
X126167855Y-63342917D02*
X126067467Y-63321578D01*
X126067467Y-63321578D02*
X125956409Y-63350434D01*
X125956409Y-63350434D02*
X125895545Y-63389960D01*
X125895545Y-63389960D02*
X125824013Y-63479679D01*
X125824013Y-63479679D02*
X125813343Y-63529874D01*
X125914947Y-64285941D02*
X125499932Y-63646874D01*
X125697559Y-63951191D02*
X125332377Y-64188343D01*
X125549766Y-64523092D02*
X125134751Y-63884025D01*
X124507857Y-64291135D02*
X124112244Y-64548049D01*
X124112244Y-64548049D02*
X124483367Y-64653165D01*
X124483367Y-64653165D02*
X124392072Y-64712453D01*
X124392072Y-64712453D02*
X124350971Y-64782410D01*
X124350971Y-64782410D02*
X124340302Y-64832604D01*
X124340302Y-64832604D02*
X124349395Y-64913230D01*
X124349395Y-64913230D02*
X124448208Y-65065389D01*
X124448208Y-65065389D02*
X124518165Y-65106490D01*
X124518165Y-65106490D02*
X124568360Y-65117159D01*
X124568360Y-65117159D02*
X124648986Y-65108066D01*
X124648986Y-65108066D02*
X124831576Y-64989490D01*
X124831576Y-64989490D02*
X124872677Y-64919533D01*
X124872677Y-64919533D02*
X124883346Y-64869339D01*
X123362119Y-64991920D02*
X124443482Y-65457850D01*
X123238816Y-65201791D02*
X123188622Y-65191122D01*
X123188622Y-65191122D02*
X123107996Y-65200215D01*
X123107996Y-65200215D02*
X122955837Y-65299029D01*
X122955837Y-65299029D02*
X122914736Y-65368986D01*
X122914736Y-65368986D02*
X122904067Y-65419180D01*
X122904067Y-65419180D02*
X122913160Y-65499806D01*
X122913160Y-65499806D02*
X122952686Y-65560670D01*
X122952686Y-65560670D02*
X123042405Y-65632202D01*
X123042405Y-65632202D02*
X123644738Y-65760232D01*
X123644738Y-65760232D02*
X123249125Y-66017146D01*
X122621088Y-65516417D02*
X122225475Y-65773331D01*
X122225475Y-65773331D02*
X122596598Y-65878447D01*
X122596598Y-65878447D02*
X122505303Y-65937735D01*
X122505303Y-65937735D02*
X122464202Y-66007692D01*
X122464202Y-66007692D02*
X122453533Y-66057886D01*
X122453533Y-66057886D02*
X122462626Y-66138512D01*
X122462626Y-66138512D02*
X122561439Y-66290671D01*
X122561439Y-66290671D02*
X122631396Y-66331772D01*
X122631396Y-66331772D02*
X122681591Y-66342441D01*
X122681591Y-66342441D02*
X122762217Y-66333348D01*
X122762217Y-66333348D02*
X122944807Y-66214772D01*
X122944807Y-66214772D02*
X122985908Y-66144815D01*
X122985908Y-66144815D02*
X122996578Y-66094621D01*
X131880427Y-64160944D02*
X131372427Y-64922944D01*
X131372427Y-64160944D02*
X131880427Y-64922944D01*
X130936999Y-64160944D02*
X130791856Y-64160944D01*
X130791856Y-64160944D02*
X130719285Y-64197230D01*
X130719285Y-64197230D02*
X130646713Y-64269801D01*
X130646713Y-64269801D02*
X130610428Y-64414944D01*
X130610428Y-64414944D02*
X130610428Y-64668944D01*
X130610428Y-64668944D02*
X130646713Y-64814087D01*
X130646713Y-64814087D02*
X130719285Y-64886658D01*
X130719285Y-64886658D02*
X130791856Y-64922944D01*
X130791856Y-64922944D02*
X130936999Y-64922944D01*
X130936999Y-64922944D02*
X131009571Y-64886658D01*
X131009571Y-64886658D02*
X131082142Y-64814087D01*
X131082142Y-64814087D02*
X131118428Y-64668944D01*
X131118428Y-64668944D02*
X131118428Y-64414944D01*
X131118428Y-64414944D02*
X131082142Y-64269801D01*
X131082142Y-64269801D02*
X131009571Y-64197230D01*
X131009571Y-64197230D02*
X130936999Y-64160944D01*
X129848427Y-64922944D02*
X130102427Y-64560087D01*
X130283856Y-64922944D02*
X130283856Y-64160944D01*
X130283856Y-64160944D02*
X129993570Y-64160944D01*
X129993570Y-64160944D02*
X129920999Y-64197230D01*
X129920999Y-64197230D02*
X129884713Y-64233515D01*
X129884713Y-64233515D02*
X129848427Y-64306087D01*
X129848427Y-64306087D02*
X129848427Y-64414944D01*
X129848427Y-64414944D02*
X129884713Y-64487515D01*
X129884713Y-64487515D02*
X129920999Y-64523801D01*
X129920999Y-64523801D02*
X129993570Y-64560087D01*
X129993570Y-64560087D02*
X130283856Y-64560087D01*
X129158999Y-64922944D02*
X129521856Y-64922944D01*
X129521856Y-64922944D02*
X129521856Y-64160944D01*
X128505856Y-64922944D02*
X128941285Y-64922944D01*
X128723570Y-64922944D02*
X128723570Y-64160944D01*
X128723570Y-64160944D02*
X128796142Y-64269801D01*
X128796142Y-64269801D02*
X128868713Y-64342372D01*
X128868713Y-64342372D02*
X128941285Y-64378658D01*
X118055571Y-62927230D02*
X118128143Y-62890944D01*
X118128143Y-62890944D02*
X118237000Y-62890944D01*
X118237000Y-62890944D02*
X118345857Y-62927230D01*
X118345857Y-62927230D02*
X118418428Y-62999801D01*
X118418428Y-62999801D02*
X118454714Y-63072372D01*
X118454714Y-63072372D02*
X118491000Y-63217515D01*
X118491000Y-63217515D02*
X118491000Y-63326372D01*
X118491000Y-63326372D02*
X118454714Y-63471515D01*
X118454714Y-63471515D02*
X118418428Y-63544087D01*
X118418428Y-63544087D02*
X118345857Y-63616658D01*
X118345857Y-63616658D02*
X118237000Y-63652944D01*
X118237000Y-63652944D02*
X118164428Y-63652944D01*
X118164428Y-63652944D02*
X118055571Y-63616658D01*
X118055571Y-63616658D02*
X118019285Y-63580372D01*
X118019285Y-63580372D02*
X118019285Y-63326372D01*
X118019285Y-63326372D02*
X118164428Y-63326372D01*
X117692714Y-63652944D02*
X117692714Y-62890944D01*
X117692714Y-62890944D02*
X117257285Y-63652944D01*
X117257285Y-63652944D02*
X117257285Y-62890944D01*
X116894428Y-63652944D02*
X116894428Y-62890944D01*
X116894428Y-62890944D02*
X116712999Y-62890944D01*
X116712999Y-62890944D02*
X116604142Y-62927230D01*
X116604142Y-62927230D02*
X116531571Y-62999801D01*
X116531571Y-62999801D02*
X116495285Y-63072372D01*
X116495285Y-63072372D02*
X116458999Y-63217515D01*
X116458999Y-63217515D02*
X116458999Y-63326372D01*
X116458999Y-63326372D02*
X116495285Y-63471515D01*
X116495285Y-63471515D02*
X116531571Y-63544087D01*
X116531571Y-63544087D02*
X116604142Y-63616658D01*
X116604142Y-63616658D02*
X116712999Y-63652944D01*
X116712999Y-63652944D02*
X116894428Y-63652944D01*
X131880427Y-65430944D02*
X131372427Y-66192944D01*
X131372427Y-65430944D02*
X131880427Y-66192944D01*
X130936999Y-65430944D02*
X130791856Y-65430944D01*
X130791856Y-65430944D02*
X130719285Y-65467230D01*
X130719285Y-65467230D02*
X130646713Y-65539801D01*
X130646713Y-65539801D02*
X130610428Y-65684944D01*
X130610428Y-65684944D02*
X130610428Y-65938944D01*
X130610428Y-65938944D02*
X130646713Y-66084087D01*
X130646713Y-66084087D02*
X130719285Y-66156658D01*
X130719285Y-66156658D02*
X130791856Y-66192944D01*
X130791856Y-66192944D02*
X130936999Y-66192944D01*
X130936999Y-66192944D02*
X131009571Y-66156658D01*
X131009571Y-66156658D02*
X131082142Y-66084087D01*
X131082142Y-66084087D02*
X131118428Y-65938944D01*
X131118428Y-65938944D02*
X131118428Y-65684944D01*
X131118428Y-65684944D02*
X131082142Y-65539801D01*
X131082142Y-65539801D02*
X131009571Y-65467230D01*
X131009571Y-65467230D02*
X130936999Y-65430944D01*
X129848427Y-66192944D02*
X130102427Y-65830087D01*
X130283856Y-66192944D02*
X130283856Y-65430944D01*
X130283856Y-65430944D02*
X129993570Y-65430944D01*
X129993570Y-65430944D02*
X129920999Y-65467230D01*
X129920999Y-65467230D02*
X129884713Y-65503515D01*
X129884713Y-65503515D02*
X129848427Y-65576087D01*
X129848427Y-65576087D02*
X129848427Y-65684944D01*
X129848427Y-65684944D02*
X129884713Y-65757515D01*
X129884713Y-65757515D02*
X129920999Y-65793801D01*
X129920999Y-65793801D02*
X129993570Y-65830087D01*
X129993570Y-65830087D02*
X130283856Y-65830087D01*
X129158999Y-66192944D02*
X129521856Y-66192944D01*
X129521856Y-66192944D02*
X129521856Y-65430944D01*
X128941285Y-65503515D02*
X128904999Y-65467230D01*
X128904999Y-65467230D02*
X128832428Y-65430944D01*
X128832428Y-65430944D02*
X128650999Y-65430944D01*
X128650999Y-65430944D02*
X128578428Y-65467230D01*
X128578428Y-65467230D02*
X128542142Y-65503515D01*
X128542142Y-65503515D02*
X128505856Y-65576087D01*
X128505856Y-65576087D02*
X128505856Y-65648658D01*
X128505856Y-65648658D02*
X128542142Y-65757515D01*
X128542142Y-65757515D02*
X128977570Y-66192944D01*
X128977570Y-66192944D02*
X128505856Y-66192944D01*
X118490999Y-61620944D02*
X118236999Y-62382944D01*
X118236999Y-62382944D02*
X117982999Y-61620944D01*
X117293570Y-62310372D02*
X117329856Y-62346658D01*
X117329856Y-62346658D02*
X117438713Y-62382944D01*
X117438713Y-62382944D02*
X117511285Y-62382944D01*
X117511285Y-62382944D02*
X117620142Y-62346658D01*
X117620142Y-62346658D02*
X117692713Y-62274087D01*
X117692713Y-62274087D02*
X117728999Y-62201515D01*
X117728999Y-62201515D02*
X117765285Y-62056372D01*
X117765285Y-62056372D02*
X117765285Y-61947515D01*
X117765285Y-61947515D02*
X117728999Y-61802372D01*
X117728999Y-61802372D02*
X117692713Y-61729801D01*
X117692713Y-61729801D02*
X117620142Y-61657230D01*
X117620142Y-61657230D02*
X117511285Y-61620944D01*
X117511285Y-61620944D02*
X117438713Y-61620944D01*
X117438713Y-61620944D02*
X117329856Y-61657230D01*
X117329856Y-61657230D02*
X117293570Y-61693515D01*
X116531570Y-62310372D02*
X116567856Y-62346658D01*
X116567856Y-62346658D02*
X116676713Y-62382944D01*
X116676713Y-62382944D02*
X116749285Y-62382944D01*
X116749285Y-62382944D02*
X116858142Y-62346658D01*
X116858142Y-62346658D02*
X116930713Y-62274087D01*
X116930713Y-62274087D02*
X116966999Y-62201515D01*
X116966999Y-62201515D02*
X117003285Y-62056372D01*
X117003285Y-62056372D02*
X117003285Y-61947515D01*
X117003285Y-61947515D02*
X116966999Y-61802372D01*
X116966999Y-61802372D02*
X116930713Y-61729801D01*
X116930713Y-61729801D02*
X116858142Y-61657230D01*
X116858142Y-61657230D02*
X116749285Y-61620944D01*
X116749285Y-61620944D02*
X116676713Y-61620944D01*
X116676713Y-61620944D02*
X116567856Y-61657230D01*
X116567856Y-61657230D02*
X116531570Y-61693515D01*
X118037428Y-67063801D02*
X117783428Y-67063801D01*
X117674571Y-67462944D02*
X118037428Y-67462944D01*
X118037428Y-67462944D02*
X118037428Y-66700944D01*
X118037428Y-66700944D02*
X117674571Y-66700944D01*
X117347999Y-67462944D02*
X117347999Y-66700944D01*
X117347999Y-66700944D02*
X116912570Y-67462944D01*
X116912570Y-67462944D02*
X116912570Y-66700944D01*
X131517571Y-61657230D02*
X131590143Y-61620944D01*
X131590143Y-61620944D02*
X131699000Y-61620944D01*
X131699000Y-61620944D02*
X131807857Y-61657230D01*
X131807857Y-61657230D02*
X131880428Y-61729801D01*
X131880428Y-61729801D02*
X131916714Y-61802372D01*
X131916714Y-61802372D02*
X131953000Y-61947515D01*
X131953000Y-61947515D02*
X131953000Y-62056372D01*
X131953000Y-62056372D02*
X131916714Y-62201515D01*
X131916714Y-62201515D02*
X131880428Y-62274087D01*
X131880428Y-62274087D02*
X131807857Y-62346658D01*
X131807857Y-62346658D02*
X131699000Y-62382944D01*
X131699000Y-62382944D02*
X131626428Y-62382944D01*
X131626428Y-62382944D02*
X131517571Y-62346658D01*
X131517571Y-62346658D02*
X131481285Y-62310372D01*
X131481285Y-62310372D02*
X131481285Y-62056372D01*
X131481285Y-62056372D02*
X131626428Y-62056372D01*
X131154714Y-62382944D02*
X131154714Y-61620944D01*
X131154714Y-61620944D02*
X130719285Y-62382944D01*
X130719285Y-62382944D02*
X130719285Y-61620944D01*
X130356428Y-62382944D02*
X130356428Y-61620944D01*
X130356428Y-61620944D02*
X130174999Y-61620944D01*
X130174999Y-61620944D02*
X130066142Y-61657230D01*
X130066142Y-61657230D02*
X129993571Y-61729801D01*
X129993571Y-61729801D02*
X129957285Y-61802372D01*
X129957285Y-61802372D02*
X129920999Y-61947515D01*
X129920999Y-61947515D02*
X129920999Y-62056372D01*
X129920999Y-62056372D02*
X129957285Y-62201515D01*
X129957285Y-62201515D02*
X129993571Y-62274087D01*
X129993571Y-62274087D02*
X130066142Y-62346658D01*
X130066142Y-62346658D02*
X130174999Y-62382944D01*
X130174999Y-62382944D02*
X130356428Y-62382944D01*
M02*
