%TF.GenerationSoftware,KiCad,Pcbnew,7.0.1*%
%TF.CreationDate,2023-05-23T12:13:15-04:00*%
%TF.ProjectId,imu-stamp,696d752d-7374-4616-9d70-2e6b69636164,rev?*%
%TF.SameCoordinates,Original*%
%TF.FileFunction,Drillmap*%
%TF.FilePolarity,Positive*%
%FSLAX45Y45*%
G04 Gerber Fmt 4.5, Leading zero omitted, Abs format (unit mm)*
G04 Created by KiCad (PCBNEW 7.0.1) date 2023-05-23 12:13:15*
%MOMM*%
%LPD*%
G01*
G04 APERTURE LIST*
%ADD10C,0.100000*%
%ADD11C,0.200000*%
%ADD12C,0.012000*%
%ADD13C,0.066040*%
G04 APERTURE END LIST*
D10*
X13373100Y-6858000D02*
X13373100Y-6070600D01*
X11468100Y-6070600D02*
X13373100Y-6070600D01*
X11468100Y-6858000D02*
X11468100Y-6070600D01*
X11468100Y-6858000D02*
X13373100Y-6858000D01*
D11*
D12*
X11622120Y-6768180D02*
X11634120Y-6780180D01*
X11634120Y-6768180D02*
X11622120Y-6780180D01*
X11622120Y-6808820D02*
X11634120Y-6820820D01*
X11634120Y-6808820D02*
X11622120Y-6820820D01*
X11718640Y-6211920D02*
X11730640Y-6223920D01*
X11730640Y-6211920D02*
X11718640Y-6223920D01*
X11759280Y-6211920D02*
X11771280Y-6223920D01*
X11771280Y-6211920D02*
X11759280Y-6223920D01*
X11777060Y-6768180D02*
X11789060Y-6780180D01*
X11789060Y-6768180D02*
X11777060Y-6780180D01*
X11777060Y-6808820D02*
X11789060Y-6820820D01*
X11789060Y-6808820D02*
X11777060Y-6820820D01*
X11836500Y-6758020D02*
X11848500Y-6770020D01*
X11848500Y-6758020D02*
X11836500Y-6770020D01*
X11873640Y-6211920D02*
X11885640Y-6223920D01*
X11885640Y-6211920D02*
X11873640Y-6223920D01*
X11896440Y-6115400D02*
X11908440Y-6127400D01*
X11908440Y-6115400D02*
X11896440Y-6127400D01*
X11914280Y-6211920D02*
X11926280Y-6223920D01*
X11926280Y-6211920D02*
X11914280Y-6223920D01*
X11959940Y-6375000D02*
X11971940Y-6387000D01*
X11971940Y-6375000D02*
X11959940Y-6387000D01*
X11959940Y-6526880D02*
X11971940Y-6538880D01*
X11971940Y-6526880D02*
X11959940Y-6538880D01*
X11976200Y-6765120D02*
X11988200Y-6777120D01*
X11988200Y-6765120D02*
X11976200Y-6777120D01*
X11993700Y-6312780D02*
X12005700Y-6324780D01*
X12005700Y-6312780D02*
X11993700Y-6324780D01*
X12025980Y-6115400D02*
X12037980Y-6127400D01*
X12037980Y-6115400D02*
X12025980Y-6127400D01*
X12048963Y-6279336D02*
X12060963Y-6291336D01*
X12060963Y-6279336D02*
X12048963Y-6291336D01*
X12050090Y-6381015D02*
X12062090Y-6393015D01*
X12062090Y-6381015D02*
X12050090Y-6393015D01*
X12056460Y-6765640D02*
X12068460Y-6777640D01*
X12068460Y-6765640D02*
X12056460Y-6777640D01*
X12089480Y-6115400D02*
X12101480Y-6127400D01*
X12101480Y-6115400D02*
X12089480Y-6127400D01*
X12091250Y-6516720D02*
X12103250Y-6528720D01*
X12103250Y-6516720D02*
X12091250Y-6528720D01*
X12130408Y-6330212D02*
X12142408Y-6342212D01*
X12142408Y-6330212D02*
X12130408Y-6342212D01*
X12174170Y-6528590D02*
X12186170Y-6540590D01*
X12186170Y-6528590D02*
X12174170Y-6540590D01*
X12191080Y-6611100D02*
X12203080Y-6623100D01*
X12203080Y-6611100D02*
X12191080Y-6623100D01*
X12199650Y-6115400D02*
X12211650Y-6127400D01*
X12211650Y-6115400D02*
X12199650Y-6127400D01*
X12219440Y-6526880D02*
X12231440Y-6538880D01*
X12231440Y-6526880D02*
X12219440Y-6538880D01*
X12222320Y-6801200D02*
X12234320Y-6813200D01*
X12234320Y-6801200D02*
X12222320Y-6813200D01*
X12335860Y-6768440D02*
X12347860Y-6780440D01*
X12347860Y-6768440D02*
X12335860Y-6780440D01*
X12343750Y-6115400D02*
X12355750Y-6127400D01*
X12355750Y-6115400D02*
X12343750Y-6127400D01*
X12384971Y-6504131D02*
X12396971Y-6516131D01*
X12396971Y-6504131D02*
X12384971Y-6516131D01*
X12394700Y-6115400D02*
X12406700Y-6127400D01*
X12406700Y-6115400D02*
X12394700Y-6127400D01*
X12427300Y-6326220D02*
X12439300Y-6338220D01*
X12439300Y-6326220D02*
X12427300Y-6338220D01*
X12430018Y-6527937D02*
X12442018Y-6539937D01*
X12442018Y-6527937D02*
X12430018Y-6539937D01*
X12443466Y-6612113D02*
X12455466Y-6624113D01*
X12455466Y-6612113D02*
X12443466Y-6624113D01*
X12483407Y-6281889D02*
X12495407Y-6293889D01*
X12495407Y-6281889D02*
X12483407Y-6293889D01*
X12488260Y-6516720D02*
X12500260Y-6528720D01*
X12500260Y-6516720D02*
X12488260Y-6528720D01*
X12500700Y-6115400D02*
X12512700Y-6127400D01*
X12512700Y-6115400D02*
X12500700Y-6127400D01*
X12510502Y-6770400D02*
X12522502Y-6782400D01*
X12522502Y-6770400D02*
X12510502Y-6782400D01*
X12559380Y-6332839D02*
X12571380Y-6344839D01*
X12571380Y-6332839D02*
X12559380Y-6344839D01*
X12569540Y-6115400D02*
X12581540Y-6127400D01*
X12581540Y-6115400D02*
X12569540Y-6127400D01*
X12584842Y-6521625D02*
X12596842Y-6533625D01*
X12596842Y-6521625D02*
X12584842Y-6533625D01*
X12639415Y-6812655D02*
X12651415Y-6824655D01*
X12651415Y-6812655D02*
X12639415Y-6824655D01*
X12671140Y-6516720D02*
X12683140Y-6528720D01*
X12683140Y-6516720D02*
X12671140Y-6528720D01*
X12694000Y-6115400D02*
X12706000Y-6127400D01*
X12706000Y-6115400D02*
X12694000Y-6127400D01*
X12756141Y-6654496D02*
X12768141Y-6666496D01*
X12768141Y-6654496D02*
X12756141Y-6666496D01*
X12803220Y-6680573D02*
X12815220Y-6692573D01*
X12815220Y-6680573D02*
X12803220Y-6692573D01*
X12821000Y-6494506D02*
X12833000Y-6506506D01*
X12833000Y-6494506D02*
X12821000Y-6506506D01*
X12823062Y-6306801D02*
X12835062Y-6318801D01*
X12835062Y-6306801D02*
X12823062Y-6318801D01*
X12846400Y-6445125D02*
X12858400Y-6457125D01*
X12858400Y-6445125D02*
X12846400Y-6457125D01*
X12846951Y-6394178D02*
X12858951Y-6406178D01*
X12858951Y-6394178D02*
X12846951Y-6406178D01*
X12847034Y-6545448D02*
X12859034Y-6557448D01*
X12859034Y-6545448D02*
X12847034Y-6557448D01*
X12853000Y-6115400D02*
X12865000Y-6127400D01*
X12865000Y-6115400D02*
X12853000Y-6127400D01*
X12859999Y-6721143D02*
X12871999Y-6733143D01*
X12871999Y-6721143D02*
X12859999Y-6733143D01*
X12860917Y-6772085D02*
X12872917Y-6784085D01*
X12872917Y-6772085D02*
X12860917Y-6784085D01*
X12977609Y-6772085D02*
X12989609Y-6784085D01*
X12989609Y-6772085D02*
X12977609Y-6784085D01*
X13033109Y-6797185D02*
X13045109Y-6809185D01*
X13045109Y-6797185D02*
X13033109Y-6809185D01*
X13044520Y-6115400D02*
X13056520Y-6127400D01*
X13056520Y-6115400D02*
X13044520Y-6127400D01*
X13119700Y-6712300D02*
X13131700Y-6724300D01*
X13131700Y-6712300D02*
X13119700Y-6724300D01*
X13181680Y-6115400D02*
X13193680Y-6127400D01*
X13193680Y-6115400D02*
X13181680Y-6127400D01*
X13214700Y-6545200D02*
X13226700Y-6557200D01*
X13226700Y-6545200D02*
X13214700Y-6557200D01*
D13*
X11480800Y-6210300D02*
G75*
G03*
X11480800Y-6210300I-33020J0D01*
G01*
X11480800Y-6337300D02*
G75*
G03*
X11480800Y-6337300I-33020J0D01*
G01*
X11480800Y-6464300D02*
G75*
G03*
X11480800Y-6464300I-33020J0D01*
G01*
X11480800Y-6591300D02*
G75*
G03*
X11480800Y-6591300I-33020J0D01*
G01*
X11480800Y-6718300D02*
G75*
G03*
X11480800Y-6718300I-33020J0D01*
G01*
X11564620Y-6210300D02*
G75*
G03*
X11564620Y-6210300I-33020J0D01*
G01*
X11564620Y-6337300D02*
G75*
G03*
X11564620Y-6337300I-33020J0D01*
G01*
X11564620Y-6464300D02*
G75*
G03*
X11564620Y-6464300I-33020J0D01*
G01*
X11564620Y-6591300D02*
G75*
G03*
X11564620Y-6591300I-33020J0D01*
G01*
X11564620Y-6718300D02*
G75*
G03*
X11564620Y-6718300I-33020J0D01*
G01*
X13342620Y-6210300D02*
G75*
G03*
X13342620Y-6210300I-33020J0D01*
G01*
X13342620Y-6337300D02*
G75*
G03*
X13342620Y-6337300I-33020J0D01*
G01*
X13342620Y-6464300D02*
G75*
G03*
X13342620Y-6464300I-33020J0D01*
G01*
X13342620Y-6591300D02*
G75*
G03*
X13342620Y-6591300I-33020J0D01*
G01*
X13342620Y-6718300D02*
G75*
G03*
X13342620Y-6718300I-33020J0D01*
G01*
X13426440Y-6210300D02*
G75*
G03*
X13426440Y-6210300I-33020J0D01*
G01*
X13426440Y-6337300D02*
G75*
G03*
X13426440Y-6337300I-33020J0D01*
G01*
X13426440Y-6464300D02*
G75*
G03*
X13426440Y-6464300I-33020J0D01*
G01*
X13426440Y-6591300D02*
G75*
G03*
X13426440Y-6591300I-33020J0D01*
G01*
X13426440Y-6718300D02*
G75*
G03*
X13426440Y-6718300I-33020J0D01*
G01*
D11*
X11710719Y-7175524D02*
X11710719Y-6975524D01*
X11710719Y-6975524D02*
X11758338Y-6975524D01*
X11758338Y-6975524D02*
X11786909Y-6985048D01*
X11786909Y-6985048D02*
X11805957Y-7004095D01*
X11805957Y-7004095D02*
X11815481Y-7023143D01*
X11815481Y-7023143D02*
X11825005Y-7061238D01*
X11825005Y-7061238D02*
X11825005Y-7089809D01*
X11825005Y-7089809D02*
X11815481Y-7127905D01*
X11815481Y-7127905D02*
X11805957Y-7146952D01*
X11805957Y-7146952D02*
X11786909Y-7166000D01*
X11786909Y-7166000D02*
X11758338Y-7175524D01*
X11758338Y-7175524D02*
X11710719Y-7175524D01*
X11910719Y-7175524D02*
X11910719Y-7042190D01*
X11910719Y-7080286D02*
X11920243Y-7061238D01*
X11920243Y-7061238D02*
X11929767Y-7051714D01*
X11929767Y-7051714D02*
X11948814Y-7042190D01*
X11948814Y-7042190D02*
X11967862Y-7042190D01*
X12034528Y-7175524D02*
X12034528Y-7042190D01*
X12034528Y-6975524D02*
X12025005Y-6985048D01*
X12025005Y-6985048D02*
X12034528Y-6994571D01*
X12034528Y-6994571D02*
X12044052Y-6985048D01*
X12044052Y-6985048D02*
X12034528Y-6975524D01*
X12034528Y-6975524D02*
X12034528Y-6994571D01*
X12158338Y-7175524D02*
X12139290Y-7166000D01*
X12139290Y-7166000D02*
X12129767Y-7146952D01*
X12129767Y-7146952D02*
X12129767Y-6975524D01*
X12263100Y-7175524D02*
X12244052Y-7166000D01*
X12244052Y-7166000D02*
X12234528Y-7146952D01*
X12234528Y-7146952D02*
X12234528Y-6975524D01*
X12491671Y-7175524D02*
X12491671Y-6975524D01*
X12491671Y-6975524D02*
X12558338Y-7118381D01*
X12558338Y-7118381D02*
X12625005Y-6975524D01*
X12625005Y-6975524D02*
X12625005Y-7175524D01*
X12805957Y-7175524D02*
X12805957Y-7070762D01*
X12805957Y-7070762D02*
X12796433Y-7051714D01*
X12796433Y-7051714D02*
X12777386Y-7042190D01*
X12777386Y-7042190D02*
X12739290Y-7042190D01*
X12739290Y-7042190D02*
X12720243Y-7051714D01*
X12805957Y-7166000D02*
X12786909Y-7175524D01*
X12786909Y-7175524D02*
X12739290Y-7175524D01*
X12739290Y-7175524D02*
X12720243Y-7166000D01*
X12720243Y-7166000D02*
X12710719Y-7146952D01*
X12710719Y-7146952D02*
X12710719Y-7127905D01*
X12710719Y-7127905D02*
X12720243Y-7108857D01*
X12720243Y-7108857D02*
X12739290Y-7099333D01*
X12739290Y-7099333D02*
X12786909Y-7099333D01*
X12786909Y-7099333D02*
X12805957Y-7089809D01*
X12901195Y-7042190D02*
X12901195Y-7242190D01*
X12901195Y-7051714D02*
X12920243Y-7042190D01*
X12920243Y-7042190D02*
X12958338Y-7042190D01*
X12958338Y-7042190D02*
X12977386Y-7051714D01*
X12977386Y-7051714D02*
X12986909Y-7061238D01*
X12986909Y-7061238D02*
X12996433Y-7080286D01*
X12996433Y-7080286D02*
X12996433Y-7137428D01*
X12996433Y-7137428D02*
X12986909Y-7156476D01*
X12986909Y-7156476D02*
X12977386Y-7166000D01*
X12977386Y-7166000D02*
X12958338Y-7175524D01*
X12958338Y-7175524D02*
X12920243Y-7175524D01*
X12920243Y-7175524D02*
X12901195Y-7166000D01*
X13082148Y-7156476D02*
X13091671Y-7166000D01*
X13091671Y-7166000D02*
X13082148Y-7175524D01*
X13082148Y-7175524D02*
X13072624Y-7166000D01*
X13072624Y-7166000D02*
X13082148Y-7156476D01*
X13082148Y-7156476D02*
X13082148Y-7175524D01*
X13082148Y-7051714D02*
X13091671Y-7061238D01*
X13091671Y-7061238D02*
X13082148Y-7070762D01*
X13082148Y-7070762D02*
X13072624Y-7061238D01*
X13072624Y-7061238D02*
X13082148Y-7051714D01*
X13082148Y-7051714D02*
X13082148Y-7070762D01*
D12*
X11451100Y-7497000D02*
X11463100Y-7509000D01*
X11463100Y-7497000D02*
X11451100Y-7509000D01*
D11*
X11748814Y-7395524D02*
X11767862Y-7395524D01*
X11767862Y-7395524D02*
X11786909Y-7405048D01*
X11786909Y-7405048D02*
X11796433Y-7414571D01*
X11796433Y-7414571D02*
X11805957Y-7433619D01*
X11805957Y-7433619D02*
X11815481Y-7471714D01*
X11815481Y-7471714D02*
X11815481Y-7519333D01*
X11815481Y-7519333D02*
X11805957Y-7557428D01*
X11805957Y-7557428D02*
X11796433Y-7576476D01*
X11796433Y-7576476D02*
X11786909Y-7586000D01*
X11786909Y-7586000D02*
X11767862Y-7595524D01*
X11767862Y-7595524D02*
X11748814Y-7595524D01*
X11748814Y-7595524D02*
X11729767Y-7586000D01*
X11729767Y-7586000D02*
X11720243Y-7576476D01*
X11720243Y-7576476D02*
X11710719Y-7557428D01*
X11710719Y-7557428D02*
X11701195Y-7519333D01*
X11701195Y-7519333D02*
X11701195Y-7471714D01*
X11701195Y-7471714D02*
X11710719Y-7433619D01*
X11710719Y-7433619D02*
X11720243Y-7414571D01*
X11720243Y-7414571D02*
X11729767Y-7405048D01*
X11729767Y-7405048D02*
X11748814Y-7395524D01*
X11901195Y-7576476D02*
X11910719Y-7586000D01*
X11910719Y-7586000D02*
X11901195Y-7595524D01*
X11901195Y-7595524D02*
X11891671Y-7586000D01*
X11891671Y-7586000D02*
X11901195Y-7576476D01*
X11901195Y-7576476D02*
X11901195Y-7595524D01*
X12101195Y-7595524D02*
X11986909Y-7595524D01*
X12044052Y-7595524D02*
X12044052Y-7395524D01*
X12044052Y-7395524D02*
X12025005Y-7424095D01*
X12025005Y-7424095D02*
X12005957Y-7443143D01*
X12005957Y-7443143D02*
X11986909Y-7452667D01*
X12177386Y-7414571D02*
X12186909Y-7405048D01*
X12186909Y-7405048D02*
X12205957Y-7395524D01*
X12205957Y-7395524D02*
X12253576Y-7395524D01*
X12253576Y-7395524D02*
X12272624Y-7405048D01*
X12272624Y-7405048D02*
X12282148Y-7414571D01*
X12282148Y-7414571D02*
X12291671Y-7433619D01*
X12291671Y-7433619D02*
X12291671Y-7452667D01*
X12291671Y-7452667D02*
X12282148Y-7481238D01*
X12282148Y-7481238D02*
X12167862Y-7595524D01*
X12167862Y-7595524D02*
X12291671Y-7595524D01*
X12415481Y-7395524D02*
X12434529Y-7395524D01*
X12434529Y-7395524D02*
X12453576Y-7405048D01*
X12453576Y-7405048D02*
X12463100Y-7414571D01*
X12463100Y-7414571D02*
X12472624Y-7433619D01*
X12472624Y-7433619D02*
X12482148Y-7471714D01*
X12482148Y-7471714D02*
X12482148Y-7519333D01*
X12482148Y-7519333D02*
X12472624Y-7557428D01*
X12472624Y-7557428D02*
X12463100Y-7576476D01*
X12463100Y-7576476D02*
X12453576Y-7586000D01*
X12453576Y-7586000D02*
X12434529Y-7595524D01*
X12434529Y-7595524D02*
X12415481Y-7595524D01*
X12415481Y-7595524D02*
X12396433Y-7586000D01*
X12396433Y-7586000D02*
X12386909Y-7576476D01*
X12386909Y-7576476D02*
X12377386Y-7557428D01*
X12377386Y-7557428D02*
X12367862Y-7519333D01*
X12367862Y-7519333D02*
X12367862Y-7471714D01*
X12367862Y-7471714D02*
X12377386Y-7433619D01*
X12377386Y-7433619D02*
X12386909Y-7414571D01*
X12386909Y-7414571D02*
X12396433Y-7405048D01*
X12396433Y-7405048D02*
X12415481Y-7395524D01*
X12567862Y-7595524D02*
X12567862Y-7462190D01*
X12567862Y-7481238D02*
X12577386Y-7471714D01*
X12577386Y-7471714D02*
X12596433Y-7462190D01*
X12596433Y-7462190D02*
X12625005Y-7462190D01*
X12625005Y-7462190D02*
X12644052Y-7471714D01*
X12644052Y-7471714D02*
X12653576Y-7490762D01*
X12653576Y-7490762D02*
X12653576Y-7595524D01*
X12653576Y-7490762D02*
X12663100Y-7471714D01*
X12663100Y-7471714D02*
X12682148Y-7462190D01*
X12682148Y-7462190D02*
X12710719Y-7462190D01*
X12710719Y-7462190D02*
X12729767Y-7471714D01*
X12729767Y-7471714D02*
X12739290Y-7490762D01*
X12739290Y-7490762D02*
X12739290Y-7595524D01*
X12834529Y-7595524D02*
X12834529Y-7462190D01*
X12834529Y-7481238D02*
X12844052Y-7471714D01*
X12844052Y-7471714D02*
X12863100Y-7462190D01*
X12863100Y-7462190D02*
X12891671Y-7462190D01*
X12891671Y-7462190D02*
X12910719Y-7471714D01*
X12910719Y-7471714D02*
X12920243Y-7490762D01*
X12920243Y-7490762D02*
X12920243Y-7595524D01*
X12920243Y-7490762D02*
X12929767Y-7471714D01*
X12929767Y-7471714D02*
X12948814Y-7462190D01*
X12948814Y-7462190D02*
X12977386Y-7462190D01*
X12977386Y-7462190D02*
X12996433Y-7471714D01*
X12996433Y-7471714D02*
X13005957Y-7490762D01*
X13005957Y-7490762D02*
X13005957Y-7595524D01*
X13396433Y-7386000D02*
X13225005Y-7643143D01*
X13653576Y-7395524D02*
X13672624Y-7395524D01*
X13672624Y-7395524D02*
X13691672Y-7405048D01*
X13691672Y-7405048D02*
X13701195Y-7414571D01*
X13701195Y-7414571D02*
X13710719Y-7433619D01*
X13710719Y-7433619D02*
X13720243Y-7471714D01*
X13720243Y-7471714D02*
X13720243Y-7519333D01*
X13720243Y-7519333D02*
X13710719Y-7557428D01*
X13710719Y-7557428D02*
X13701195Y-7576476D01*
X13701195Y-7576476D02*
X13691672Y-7586000D01*
X13691672Y-7586000D02*
X13672624Y-7595524D01*
X13672624Y-7595524D02*
X13653576Y-7595524D01*
X13653576Y-7595524D02*
X13634529Y-7586000D01*
X13634529Y-7586000D02*
X13625005Y-7576476D01*
X13625005Y-7576476D02*
X13615481Y-7557428D01*
X13615481Y-7557428D02*
X13605957Y-7519333D01*
X13605957Y-7519333D02*
X13605957Y-7471714D01*
X13605957Y-7471714D02*
X13615481Y-7433619D01*
X13615481Y-7433619D02*
X13625005Y-7414571D01*
X13625005Y-7414571D02*
X13634529Y-7405048D01*
X13634529Y-7405048D02*
X13653576Y-7395524D01*
X13805957Y-7576476D02*
X13815481Y-7586000D01*
X13815481Y-7586000D02*
X13805957Y-7595524D01*
X13805957Y-7595524D02*
X13796433Y-7586000D01*
X13796433Y-7586000D02*
X13805957Y-7576476D01*
X13805957Y-7576476D02*
X13805957Y-7595524D01*
X13939291Y-7395524D02*
X13958338Y-7395524D01*
X13958338Y-7395524D02*
X13977386Y-7405048D01*
X13977386Y-7405048D02*
X13986910Y-7414571D01*
X13986910Y-7414571D02*
X13996433Y-7433619D01*
X13996433Y-7433619D02*
X14005957Y-7471714D01*
X14005957Y-7471714D02*
X14005957Y-7519333D01*
X14005957Y-7519333D02*
X13996433Y-7557428D01*
X13996433Y-7557428D02*
X13986910Y-7576476D01*
X13986910Y-7576476D02*
X13977386Y-7586000D01*
X13977386Y-7586000D02*
X13958338Y-7595524D01*
X13958338Y-7595524D02*
X13939291Y-7595524D01*
X13939291Y-7595524D02*
X13920243Y-7586000D01*
X13920243Y-7586000D02*
X13910719Y-7576476D01*
X13910719Y-7576476D02*
X13901195Y-7557428D01*
X13901195Y-7557428D02*
X13891672Y-7519333D01*
X13891672Y-7519333D02*
X13891672Y-7471714D01*
X13891672Y-7471714D02*
X13901195Y-7433619D01*
X13901195Y-7433619D02*
X13910719Y-7414571D01*
X13910719Y-7414571D02*
X13920243Y-7405048D01*
X13920243Y-7405048D02*
X13939291Y-7395524D01*
X14129767Y-7395524D02*
X14148814Y-7395524D01*
X14148814Y-7395524D02*
X14167862Y-7405048D01*
X14167862Y-7405048D02*
X14177386Y-7414571D01*
X14177386Y-7414571D02*
X14186910Y-7433619D01*
X14186910Y-7433619D02*
X14196433Y-7471714D01*
X14196433Y-7471714D02*
X14196433Y-7519333D01*
X14196433Y-7519333D02*
X14186910Y-7557428D01*
X14186910Y-7557428D02*
X14177386Y-7576476D01*
X14177386Y-7576476D02*
X14167862Y-7586000D01*
X14167862Y-7586000D02*
X14148814Y-7595524D01*
X14148814Y-7595524D02*
X14129767Y-7595524D01*
X14129767Y-7595524D02*
X14110719Y-7586000D01*
X14110719Y-7586000D02*
X14101195Y-7576476D01*
X14101195Y-7576476D02*
X14091672Y-7557428D01*
X14091672Y-7557428D02*
X14082148Y-7519333D01*
X14082148Y-7519333D02*
X14082148Y-7471714D01*
X14082148Y-7471714D02*
X14091672Y-7433619D01*
X14091672Y-7433619D02*
X14101195Y-7414571D01*
X14101195Y-7414571D02*
X14110719Y-7405048D01*
X14110719Y-7405048D02*
X14129767Y-7395524D01*
X14367862Y-7462190D02*
X14367862Y-7595524D01*
X14320243Y-7386000D02*
X14272624Y-7528857D01*
X14272624Y-7528857D02*
X14396433Y-7528857D01*
X14453576Y-7395524D02*
X14586910Y-7395524D01*
X14586910Y-7395524D02*
X14501195Y-7595524D01*
X14653576Y-7395524D02*
X14653576Y-7433619D01*
X14729767Y-7395524D02*
X14729767Y-7433619D01*
X15025005Y-7671714D02*
X15015481Y-7662190D01*
X15015481Y-7662190D02*
X14996434Y-7633619D01*
X14996434Y-7633619D02*
X14986910Y-7614571D01*
X14986910Y-7614571D02*
X14977386Y-7586000D01*
X14977386Y-7586000D02*
X14967862Y-7538381D01*
X14967862Y-7538381D02*
X14967862Y-7500286D01*
X14967862Y-7500286D02*
X14977386Y-7452667D01*
X14977386Y-7452667D02*
X14986910Y-7424095D01*
X14986910Y-7424095D02*
X14996434Y-7405048D01*
X14996434Y-7405048D02*
X15015481Y-7376476D01*
X15015481Y-7376476D02*
X15025005Y-7366952D01*
X15196434Y-7395524D02*
X15101195Y-7395524D01*
X15101195Y-7395524D02*
X15091672Y-7490762D01*
X15091672Y-7490762D02*
X15101195Y-7481238D01*
X15101195Y-7481238D02*
X15120243Y-7471714D01*
X15120243Y-7471714D02*
X15167862Y-7471714D01*
X15167862Y-7471714D02*
X15186910Y-7481238D01*
X15186910Y-7481238D02*
X15196434Y-7490762D01*
X15196434Y-7490762D02*
X15205957Y-7509809D01*
X15205957Y-7509809D02*
X15205957Y-7557428D01*
X15205957Y-7557428D02*
X15196434Y-7576476D01*
X15196434Y-7576476D02*
X15186910Y-7586000D01*
X15186910Y-7586000D02*
X15167862Y-7595524D01*
X15167862Y-7595524D02*
X15120243Y-7595524D01*
X15120243Y-7595524D02*
X15101195Y-7586000D01*
X15101195Y-7586000D02*
X15091672Y-7576476D01*
X15301195Y-7595524D02*
X15339291Y-7595524D01*
X15339291Y-7595524D02*
X15358338Y-7586000D01*
X15358338Y-7586000D02*
X15367862Y-7576476D01*
X15367862Y-7576476D02*
X15386910Y-7547905D01*
X15386910Y-7547905D02*
X15396434Y-7509809D01*
X15396434Y-7509809D02*
X15396434Y-7433619D01*
X15396434Y-7433619D02*
X15386910Y-7414571D01*
X15386910Y-7414571D02*
X15377386Y-7405048D01*
X15377386Y-7405048D02*
X15358338Y-7395524D01*
X15358338Y-7395524D02*
X15320243Y-7395524D01*
X15320243Y-7395524D02*
X15301195Y-7405048D01*
X15301195Y-7405048D02*
X15291672Y-7414571D01*
X15291672Y-7414571D02*
X15282148Y-7433619D01*
X15282148Y-7433619D02*
X15282148Y-7481238D01*
X15282148Y-7481238D02*
X15291672Y-7500286D01*
X15291672Y-7500286D02*
X15301195Y-7509809D01*
X15301195Y-7509809D02*
X15320243Y-7519333D01*
X15320243Y-7519333D02*
X15358338Y-7519333D01*
X15358338Y-7519333D02*
X15377386Y-7509809D01*
X15377386Y-7509809D02*
X15386910Y-7500286D01*
X15386910Y-7500286D02*
X15396434Y-7481238D01*
X15634529Y-7595524D02*
X15634529Y-7395524D01*
X15720243Y-7595524D02*
X15720243Y-7490762D01*
X15720243Y-7490762D02*
X15710719Y-7471714D01*
X15710719Y-7471714D02*
X15691672Y-7462190D01*
X15691672Y-7462190D02*
X15663100Y-7462190D01*
X15663100Y-7462190D02*
X15644053Y-7471714D01*
X15644053Y-7471714D02*
X15634529Y-7481238D01*
X15844053Y-7595524D02*
X15825005Y-7586000D01*
X15825005Y-7586000D02*
X15815481Y-7576476D01*
X15815481Y-7576476D02*
X15805957Y-7557428D01*
X15805957Y-7557428D02*
X15805957Y-7500286D01*
X15805957Y-7500286D02*
X15815481Y-7481238D01*
X15815481Y-7481238D02*
X15825005Y-7471714D01*
X15825005Y-7471714D02*
X15844053Y-7462190D01*
X15844053Y-7462190D02*
X15872624Y-7462190D01*
X15872624Y-7462190D02*
X15891672Y-7471714D01*
X15891672Y-7471714D02*
X15901196Y-7481238D01*
X15901196Y-7481238D02*
X15910719Y-7500286D01*
X15910719Y-7500286D02*
X15910719Y-7557428D01*
X15910719Y-7557428D02*
X15901196Y-7576476D01*
X15901196Y-7576476D02*
X15891672Y-7586000D01*
X15891672Y-7586000D02*
X15872624Y-7595524D01*
X15872624Y-7595524D02*
X15844053Y-7595524D01*
X16025005Y-7595524D02*
X16005957Y-7586000D01*
X16005957Y-7586000D02*
X15996434Y-7566952D01*
X15996434Y-7566952D02*
X15996434Y-7395524D01*
X16177386Y-7586000D02*
X16158338Y-7595524D01*
X16158338Y-7595524D02*
X16120243Y-7595524D01*
X16120243Y-7595524D02*
X16101196Y-7586000D01*
X16101196Y-7586000D02*
X16091672Y-7566952D01*
X16091672Y-7566952D02*
X16091672Y-7490762D01*
X16091672Y-7490762D02*
X16101196Y-7471714D01*
X16101196Y-7471714D02*
X16120243Y-7462190D01*
X16120243Y-7462190D02*
X16158338Y-7462190D01*
X16158338Y-7462190D02*
X16177386Y-7471714D01*
X16177386Y-7471714D02*
X16186910Y-7490762D01*
X16186910Y-7490762D02*
X16186910Y-7509809D01*
X16186910Y-7509809D02*
X16091672Y-7528857D01*
X16263100Y-7586000D02*
X16282148Y-7595524D01*
X16282148Y-7595524D02*
X16320243Y-7595524D01*
X16320243Y-7595524D02*
X16339291Y-7586000D01*
X16339291Y-7586000D02*
X16348815Y-7566952D01*
X16348815Y-7566952D02*
X16348815Y-7557428D01*
X16348815Y-7557428D02*
X16339291Y-7538381D01*
X16339291Y-7538381D02*
X16320243Y-7528857D01*
X16320243Y-7528857D02*
X16291672Y-7528857D01*
X16291672Y-7528857D02*
X16272624Y-7519333D01*
X16272624Y-7519333D02*
X16263100Y-7500286D01*
X16263100Y-7500286D02*
X16263100Y-7490762D01*
X16263100Y-7490762D02*
X16272624Y-7471714D01*
X16272624Y-7471714D02*
X16291672Y-7462190D01*
X16291672Y-7462190D02*
X16320243Y-7462190D01*
X16320243Y-7462190D02*
X16339291Y-7471714D01*
X16415481Y-7671714D02*
X16425005Y-7662190D01*
X16425005Y-7662190D02*
X16444053Y-7633619D01*
X16444053Y-7633619D02*
X16453577Y-7614571D01*
X16453577Y-7614571D02*
X16463100Y-7586000D01*
X16463100Y-7586000D02*
X16472624Y-7538381D01*
X16472624Y-7538381D02*
X16472624Y-7500286D01*
X16472624Y-7500286D02*
X16463100Y-7452667D01*
X16463100Y-7452667D02*
X16453577Y-7424095D01*
X16453577Y-7424095D02*
X16444053Y-7405048D01*
X16444053Y-7405048D02*
X16425005Y-7376476D01*
X16425005Y-7376476D02*
X16415481Y-7366952D01*
D13*
X11463100Y-7767000D02*
G75*
G03*
X11463100Y-7767000I-33020J0D01*
G01*
D11*
X11748814Y-7659524D02*
X11767862Y-7659524D01*
X11767862Y-7659524D02*
X11786909Y-7669048D01*
X11786909Y-7669048D02*
X11796433Y-7678571D01*
X11796433Y-7678571D02*
X11805957Y-7697619D01*
X11805957Y-7697619D02*
X11815481Y-7735714D01*
X11815481Y-7735714D02*
X11815481Y-7783333D01*
X11815481Y-7783333D02*
X11805957Y-7821428D01*
X11805957Y-7821428D02*
X11796433Y-7840476D01*
X11796433Y-7840476D02*
X11786909Y-7850000D01*
X11786909Y-7850000D02*
X11767862Y-7859524D01*
X11767862Y-7859524D02*
X11748814Y-7859524D01*
X11748814Y-7859524D02*
X11729767Y-7850000D01*
X11729767Y-7850000D02*
X11720243Y-7840476D01*
X11720243Y-7840476D02*
X11710719Y-7821428D01*
X11710719Y-7821428D02*
X11701195Y-7783333D01*
X11701195Y-7783333D02*
X11701195Y-7735714D01*
X11701195Y-7735714D02*
X11710719Y-7697619D01*
X11710719Y-7697619D02*
X11720243Y-7678571D01*
X11720243Y-7678571D02*
X11729767Y-7669048D01*
X11729767Y-7669048D02*
X11748814Y-7659524D01*
X11901195Y-7840476D02*
X11910719Y-7850000D01*
X11910719Y-7850000D02*
X11901195Y-7859524D01*
X11901195Y-7859524D02*
X11891671Y-7850000D01*
X11891671Y-7850000D02*
X11901195Y-7840476D01*
X11901195Y-7840476D02*
X11901195Y-7859524D01*
X12082148Y-7659524D02*
X12044052Y-7659524D01*
X12044052Y-7659524D02*
X12025005Y-7669048D01*
X12025005Y-7669048D02*
X12015481Y-7678571D01*
X12015481Y-7678571D02*
X11996433Y-7707143D01*
X11996433Y-7707143D02*
X11986909Y-7745238D01*
X11986909Y-7745238D02*
X11986909Y-7821428D01*
X11986909Y-7821428D02*
X11996433Y-7840476D01*
X11996433Y-7840476D02*
X12005957Y-7850000D01*
X12005957Y-7850000D02*
X12025005Y-7859524D01*
X12025005Y-7859524D02*
X12063100Y-7859524D01*
X12063100Y-7859524D02*
X12082148Y-7850000D01*
X12082148Y-7850000D02*
X12091671Y-7840476D01*
X12091671Y-7840476D02*
X12101195Y-7821428D01*
X12101195Y-7821428D02*
X12101195Y-7773809D01*
X12101195Y-7773809D02*
X12091671Y-7754762D01*
X12091671Y-7754762D02*
X12082148Y-7745238D01*
X12082148Y-7745238D02*
X12063100Y-7735714D01*
X12063100Y-7735714D02*
X12025005Y-7735714D01*
X12025005Y-7735714D02*
X12005957Y-7745238D01*
X12005957Y-7745238D02*
X11996433Y-7754762D01*
X11996433Y-7754762D02*
X11986909Y-7773809D01*
X12272624Y-7659524D02*
X12234528Y-7659524D01*
X12234528Y-7659524D02*
X12215481Y-7669048D01*
X12215481Y-7669048D02*
X12205957Y-7678571D01*
X12205957Y-7678571D02*
X12186909Y-7707143D01*
X12186909Y-7707143D02*
X12177386Y-7745238D01*
X12177386Y-7745238D02*
X12177386Y-7821428D01*
X12177386Y-7821428D02*
X12186909Y-7840476D01*
X12186909Y-7840476D02*
X12196433Y-7850000D01*
X12196433Y-7850000D02*
X12215481Y-7859524D01*
X12215481Y-7859524D02*
X12253576Y-7859524D01*
X12253576Y-7859524D02*
X12272624Y-7850000D01*
X12272624Y-7850000D02*
X12282148Y-7840476D01*
X12282148Y-7840476D02*
X12291671Y-7821428D01*
X12291671Y-7821428D02*
X12291671Y-7773809D01*
X12291671Y-7773809D02*
X12282148Y-7754762D01*
X12282148Y-7754762D02*
X12272624Y-7745238D01*
X12272624Y-7745238D02*
X12253576Y-7735714D01*
X12253576Y-7735714D02*
X12215481Y-7735714D01*
X12215481Y-7735714D02*
X12196433Y-7745238D01*
X12196433Y-7745238D02*
X12186909Y-7754762D01*
X12186909Y-7754762D02*
X12177386Y-7773809D01*
X12415481Y-7659524D02*
X12434529Y-7659524D01*
X12434529Y-7659524D02*
X12453576Y-7669048D01*
X12453576Y-7669048D02*
X12463100Y-7678571D01*
X12463100Y-7678571D02*
X12472624Y-7697619D01*
X12472624Y-7697619D02*
X12482148Y-7735714D01*
X12482148Y-7735714D02*
X12482148Y-7783333D01*
X12482148Y-7783333D02*
X12472624Y-7821428D01*
X12472624Y-7821428D02*
X12463100Y-7840476D01*
X12463100Y-7840476D02*
X12453576Y-7850000D01*
X12453576Y-7850000D02*
X12434529Y-7859524D01*
X12434529Y-7859524D02*
X12415481Y-7859524D01*
X12415481Y-7859524D02*
X12396433Y-7850000D01*
X12396433Y-7850000D02*
X12386909Y-7840476D01*
X12386909Y-7840476D02*
X12377386Y-7821428D01*
X12377386Y-7821428D02*
X12367862Y-7783333D01*
X12367862Y-7783333D02*
X12367862Y-7735714D01*
X12367862Y-7735714D02*
X12377386Y-7697619D01*
X12377386Y-7697619D02*
X12386909Y-7678571D01*
X12386909Y-7678571D02*
X12396433Y-7669048D01*
X12396433Y-7669048D02*
X12415481Y-7659524D01*
X12567862Y-7859524D02*
X12567862Y-7726190D01*
X12567862Y-7745238D02*
X12577386Y-7735714D01*
X12577386Y-7735714D02*
X12596433Y-7726190D01*
X12596433Y-7726190D02*
X12625005Y-7726190D01*
X12625005Y-7726190D02*
X12644052Y-7735714D01*
X12644052Y-7735714D02*
X12653576Y-7754762D01*
X12653576Y-7754762D02*
X12653576Y-7859524D01*
X12653576Y-7754762D02*
X12663100Y-7735714D01*
X12663100Y-7735714D02*
X12682148Y-7726190D01*
X12682148Y-7726190D02*
X12710719Y-7726190D01*
X12710719Y-7726190D02*
X12729767Y-7735714D01*
X12729767Y-7735714D02*
X12739290Y-7754762D01*
X12739290Y-7754762D02*
X12739290Y-7859524D01*
X12834529Y-7859524D02*
X12834529Y-7726190D01*
X12834529Y-7745238D02*
X12844052Y-7735714D01*
X12844052Y-7735714D02*
X12863100Y-7726190D01*
X12863100Y-7726190D02*
X12891671Y-7726190D01*
X12891671Y-7726190D02*
X12910719Y-7735714D01*
X12910719Y-7735714D02*
X12920243Y-7754762D01*
X12920243Y-7754762D02*
X12920243Y-7859524D01*
X12920243Y-7754762D02*
X12929767Y-7735714D01*
X12929767Y-7735714D02*
X12948814Y-7726190D01*
X12948814Y-7726190D02*
X12977386Y-7726190D01*
X12977386Y-7726190D02*
X12996433Y-7735714D01*
X12996433Y-7735714D02*
X13005957Y-7754762D01*
X13005957Y-7754762D02*
X13005957Y-7859524D01*
X13396433Y-7650000D02*
X13225005Y-7907143D01*
X13653576Y-7659524D02*
X13672624Y-7659524D01*
X13672624Y-7659524D02*
X13691672Y-7669048D01*
X13691672Y-7669048D02*
X13701195Y-7678571D01*
X13701195Y-7678571D02*
X13710719Y-7697619D01*
X13710719Y-7697619D02*
X13720243Y-7735714D01*
X13720243Y-7735714D02*
X13720243Y-7783333D01*
X13720243Y-7783333D02*
X13710719Y-7821428D01*
X13710719Y-7821428D02*
X13701195Y-7840476D01*
X13701195Y-7840476D02*
X13691672Y-7850000D01*
X13691672Y-7850000D02*
X13672624Y-7859524D01*
X13672624Y-7859524D02*
X13653576Y-7859524D01*
X13653576Y-7859524D02*
X13634529Y-7850000D01*
X13634529Y-7850000D02*
X13625005Y-7840476D01*
X13625005Y-7840476D02*
X13615481Y-7821428D01*
X13615481Y-7821428D02*
X13605957Y-7783333D01*
X13605957Y-7783333D02*
X13605957Y-7735714D01*
X13605957Y-7735714D02*
X13615481Y-7697619D01*
X13615481Y-7697619D02*
X13625005Y-7678571D01*
X13625005Y-7678571D02*
X13634529Y-7669048D01*
X13634529Y-7669048D02*
X13653576Y-7659524D01*
X13805957Y-7840476D02*
X13815481Y-7850000D01*
X13815481Y-7850000D02*
X13805957Y-7859524D01*
X13805957Y-7859524D02*
X13796433Y-7850000D01*
X13796433Y-7850000D02*
X13805957Y-7840476D01*
X13805957Y-7840476D02*
X13805957Y-7859524D01*
X13939291Y-7659524D02*
X13958338Y-7659524D01*
X13958338Y-7659524D02*
X13977386Y-7669048D01*
X13977386Y-7669048D02*
X13986910Y-7678571D01*
X13986910Y-7678571D02*
X13996433Y-7697619D01*
X13996433Y-7697619D02*
X14005957Y-7735714D01*
X14005957Y-7735714D02*
X14005957Y-7783333D01*
X14005957Y-7783333D02*
X13996433Y-7821428D01*
X13996433Y-7821428D02*
X13986910Y-7840476D01*
X13986910Y-7840476D02*
X13977386Y-7850000D01*
X13977386Y-7850000D02*
X13958338Y-7859524D01*
X13958338Y-7859524D02*
X13939291Y-7859524D01*
X13939291Y-7859524D02*
X13920243Y-7850000D01*
X13920243Y-7850000D02*
X13910719Y-7840476D01*
X13910719Y-7840476D02*
X13901195Y-7821428D01*
X13901195Y-7821428D02*
X13891672Y-7783333D01*
X13891672Y-7783333D02*
X13891672Y-7735714D01*
X13891672Y-7735714D02*
X13901195Y-7697619D01*
X13901195Y-7697619D02*
X13910719Y-7678571D01*
X13910719Y-7678571D02*
X13920243Y-7669048D01*
X13920243Y-7669048D02*
X13939291Y-7659524D01*
X14082148Y-7678571D02*
X14091672Y-7669048D01*
X14091672Y-7669048D02*
X14110719Y-7659524D01*
X14110719Y-7659524D02*
X14158338Y-7659524D01*
X14158338Y-7659524D02*
X14177386Y-7669048D01*
X14177386Y-7669048D02*
X14186910Y-7678571D01*
X14186910Y-7678571D02*
X14196433Y-7697619D01*
X14196433Y-7697619D02*
X14196433Y-7716667D01*
X14196433Y-7716667D02*
X14186910Y-7745238D01*
X14186910Y-7745238D02*
X14072624Y-7859524D01*
X14072624Y-7859524D02*
X14196433Y-7859524D01*
X14367862Y-7659524D02*
X14329767Y-7659524D01*
X14329767Y-7659524D02*
X14310719Y-7669048D01*
X14310719Y-7669048D02*
X14301195Y-7678571D01*
X14301195Y-7678571D02*
X14282148Y-7707143D01*
X14282148Y-7707143D02*
X14272624Y-7745238D01*
X14272624Y-7745238D02*
X14272624Y-7821428D01*
X14272624Y-7821428D02*
X14282148Y-7840476D01*
X14282148Y-7840476D02*
X14291672Y-7850000D01*
X14291672Y-7850000D02*
X14310719Y-7859524D01*
X14310719Y-7859524D02*
X14348814Y-7859524D01*
X14348814Y-7859524D02*
X14367862Y-7850000D01*
X14367862Y-7850000D02*
X14377386Y-7840476D01*
X14377386Y-7840476D02*
X14386910Y-7821428D01*
X14386910Y-7821428D02*
X14386910Y-7773809D01*
X14386910Y-7773809D02*
X14377386Y-7754762D01*
X14377386Y-7754762D02*
X14367862Y-7745238D01*
X14367862Y-7745238D02*
X14348814Y-7735714D01*
X14348814Y-7735714D02*
X14310719Y-7735714D01*
X14310719Y-7735714D02*
X14291672Y-7745238D01*
X14291672Y-7745238D02*
X14282148Y-7754762D01*
X14282148Y-7754762D02*
X14272624Y-7773809D01*
X14510719Y-7659524D02*
X14529767Y-7659524D01*
X14529767Y-7659524D02*
X14548814Y-7669048D01*
X14548814Y-7669048D02*
X14558338Y-7678571D01*
X14558338Y-7678571D02*
X14567862Y-7697619D01*
X14567862Y-7697619D02*
X14577386Y-7735714D01*
X14577386Y-7735714D02*
X14577386Y-7783333D01*
X14577386Y-7783333D02*
X14567862Y-7821428D01*
X14567862Y-7821428D02*
X14558338Y-7840476D01*
X14558338Y-7840476D02*
X14548814Y-7850000D01*
X14548814Y-7850000D02*
X14529767Y-7859524D01*
X14529767Y-7859524D02*
X14510719Y-7859524D01*
X14510719Y-7859524D02*
X14491672Y-7850000D01*
X14491672Y-7850000D02*
X14482148Y-7840476D01*
X14482148Y-7840476D02*
X14472624Y-7821428D01*
X14472624Y-7821428D02*
X14463100Y-7783333D01*
X14463100Y-7783333D02*
X14463100Y-7735714D01*
X14463100Y-7735714D02*
X14472624Y-7697619D01*
X14472624Y-7697619D02*
X14482148Y-7678571D01*
X14482148Y-7678571D02*
X14491672Y-7669048D01*
X14491672Y-7669048D02*
X14510719Y-7659524D01*
X14653576Y-7659524D02*
X14653576Y-7697619D01*
X14729767Y-7659524D02*
X14729767Y-7697619D01*
X15025005Y-7935714D02*
X15015481Y-7926190D01*
X15015481Y-7926190D02*
X14996434Y-7897619D01*
X14996434Y-7897619D02*
X14986910Y-7878571D01*
X14986910Y-7878571D02*
X14977386Y-7850000D01*
X14977386Y-7850000D02*
X14967862Y-7802381D01*
X14967862Y-7802381D02*
X14967862Y-7764286D01*
X14967862Y-7764286D02*
X14977386Y-7716667D01*
X14977386Y-7716667D02*
X14986910Y-7688095D01*
X14986910Y-7688095D02*
X14996434Y-7669048D01*
X14996434Y-7669048D02*
X15015481Y-7640476D01*
X15015481Y-7640476D02*
X15025005Y-7630952D01*
X15091672Y-7678571D02*
X15101195Y-7669048D01*
X15101195Y-7669048D02*
X15120243Y-7659524D01*
X15120243Y-7659524D02*
X15167862Y-7659524D01*
X15167862Y-7659524D02*
X15186910Y-7669048D01*
X15186910Y-7669048D02*
X15196434Y-7678571D01*
X15196434Y-7678571D02*
X15205957Y-7697619D01*
X15205957Y-7697619D02*
X15205957Y-7716667D01*
X15205957Y-7716667D02*
X15196434Y-7745238D01*
X15196434Y-7745238D02*
X15082148Y-7859524D01*
X15082148Y-7859524D02*
X15205957Y-7859524D01*
X15329767Y-7659524D02*
X15348815Y-7659524D01*
X15348815Y-7659524D02*
X15367862Y-7669048D01*
X15367862Y-7669048D02*
X15377386Y-7678571D01*
X15377386Y-7678571D02*
X15386910Y-7697619D01*
X15386910Y-7697619D02*
X15396434Y-7735714D01*
X15396434Y-7735714D02*
X15396434Y-7783333D01*
X15396434Y-7783333D02*
X15386910Y-7821428D01*
X15386910Y-7821428D02*
X15377386Y-7840476D01*
X15377386Y-7840476D02*
X15367862Y-7850000D01*
X15367862Y-7850000D02*
X15348815Y-7859524D01*
X15348815Y-7859524D02*
X15329767Y-7859524D01*
X15329767Y-7859524D02*
X15310719Y-7850000D01*
X15310719Y-7850000D02*
X15301195Y-7840476D01*
X15301195Y-7840476D02*
X15291672Y-7821428D01*
X15291672Y-7821428D02*
X15282148Y-7783333D01*
X15282148Y-7783333D02*
X15282148Y-7735714D01*
X15282148Y-7735714D02*
X15291672Y-7697619D01*
X15291672Y-7697619D02*
X15301195Y-7678571D01*
X15301195Y-7678571D02*
X15310719Y-7669048D01*
X15310719Y-7669048D02*
X15329767Y-7659524D01*
X15634529Y-7859524D02*
X15634529Y-7659524D01*
X15720243Y-7859524D02*
X15720243Y-7754762D01*
X15720243Y-7754762D02*
X15710719Y-7735714D01*
X15710719Y-7735714D02*
X15691672Y-7726190D01*
X15691672Y-7726190D02*
X15663100Y-7726190D01*
X15663100Y-7726190D02*
X15644053Y-7735714D01*
X15644053Y-7735714D02*
X15634529Y-7745238D01*
X15844053Y-7859524D02*
X15825005Y-7850000D01*
X15825005Y-7850000D02*
X15815481Y-7840476D01*
X15815481Y-7840476D02*
X15805957Y-7821428D01*
X15805957Y-7821428D02*
X15805957Y-7764286D01*
X15805957Y-7764286D02*
X15815481Y-7745238D01*
X15815481Y-7745238D02*
X15825005Y-7735714D01*
X15825005Y-7735714D02*
X15844053Y-7726190D01*
X15844053Y-7726190D02*
X15872624Y-7726190D01*
X15872624Y-7726190D02*
X15891672Y-7735714D01*
X15891672Y-7735714D02*
X15901196Y-7745238D01*
X15901196Y-7745238D02*
X15910719Y-7764286D01*
X15910719Y-7764286D02*
X15910719Y-7821428D01*
X15910719Y-7821428D02*
X15901196Y-7840476D01*
X15901196Y-7840476D02*
X15891672Y-7850000D01*
X15891672Y-7850000D02*
X15872624Y-7859524D01*
X15872624Y-7859524D02*
X15844053Y-7859524D01*
X16025005Y-7859524D02*
X16005957Y-7850000D01*
X16005957Y-7850000D02*
X15996434Y-7830952D01*
X15996434Y-7830952D02*
X15996434Y-7659524D01*
X16177386Y-7850000D02*
X16158338Y-7859524D01*
X16158338Y-7859524D02*
X16120243Y-7859524D01*
X16120243Y-7859524D02*
X16101196Y-7850000D01*
X16101196Y-7850000D02*
X16091672Y-7830952D01*
X16091672Y-7830952D02*
X16091672Y-7754762D01*
X16091672Y-7754762D02*
X16101196Y-7735714D01*
X16101196Y-7735714D02*
X16120243Y-7726190D01*
X16120243Y-7726190D02*
X16158338Y-7726190D01*
X16158338Y-7726190D02*
X16177386Y-7735714D01*
X16177386Y-7735714D02*
X16186910Y-7754762D01*
X16186910Y-7754762D02*
X16186910Y-7773809D01*
X16186910Y-7773809D02*
X16091672Y-7792857D01*
X16263100Y-7850000D02*
X16282148Y-7859524D01*
X16282148Y-7859524D02*
X16320243Y-7859524D01*
X16320243Y-7859524D02*
X16339291Y-7850000D01*
X16339291Y-7850000D02*
X16348815Y-7830952D01*
X16348815Y-7830952D02*
X16348815Y-7821428D01*
X16348815Y-7821428D02*
X16339291Y-7802381D01*
X16339291Y-7802381D02*
X16320243Y-7792857D01*
X16320243Y-7792857D02*
X16291672Y-7792857D01*
X16291672Y-7792857D02*
X16272624Y-7783333D01*
X16272624Y-7783333D02*
X16263100Y-7764286D01*
X16263100Y-7764286D02*
X16263100Y-7754762D01*
X16263100Y-7754762D02*
X16272624Y-7735714D01*
X16272624Y-7735714D02*
X16291672Y-7726190D01*
X16291672Y-7726190D02*
X16320243Y-7726190D01*
X16320243Y-7726190D02*
X16339291Y-7735714D01*
X16415481Y-7935714D02*
X16425005Y-7926190D01*
X16425005Y-7926190D02*
X16444053Y-7897619D01*
X16444053Y-7897619D02*
X16453577Y-7878571D01*
X16453577Y-7878571D02*
X16463100Y-7850000D01*
X16463100Y-7850000D02*
X16472624Y-7802381D01*
X16472624Y-7802381D02*
X16472624Y-7764286D01*
X16472624Y-7764286D02*
X16463100Y-7716667D01*
X16463100Y-7716667D02*
X16453577Y-7688095D01*
X16453577Y-7688095D02*
X16444053Y-7669048D01*
X16444053Y-7669048D02*
X16425005Y-7640476D01*
X16425005Y-7640476D02*
X16415481Y-7630952D01*
M02*
