%TF.GenerationSoftware,KiCad,Pcbnew,(7.0.0)*%
%TF.CreationDate,2023-03-07T13:57:33-05:00*%
%TF.ProjectId,imu-stamp,696d752d-7374-4616-9d70-2e6b69636164,rev?*%
%TF.SameCoordinates,Original*%
%TF.FileFunction,Copper,L4,Bot*%
%TF.FilePolarity,Positive*%
%FSLAX46Y46*%
G04 Gerber Fmt 4.6, Leading zero omitted, Abs format (unit mm)*
G04 Created by KiCad (PCBNEW (7.0.0)) date 2023-03-07 13:57:33*
%MOMM*%
%LPD*%
G01*
G04 APERTURE LIST*
%TA.AperFunction,ComponentPad*%
%ADD10O,1.000000X1.000000*%
%TD*%
%TA.AperFunction,SMDPad,CuDef*%
%ADD11O,1.887600X1.008000*%
%TD*%
%TA.AperFunction,ComponentPad*%
%ADD12C,1.000000*%
%TD*%
%TA.AperFunction,ViaPad*%
%ADD13C,0.350000*%
%TD*%
%TA.AperFunction,Conductor*%
%ADD14C,0.150000*%
%TD*%
G04 APERTURE END LIST*
D10*
%TO.P,P2,1,Pin_1*%
%TO.N,3.3V*%
X133832599Y-67187999D03*
D11*
X133396799Y-67183999D03*
D12*
X132969000Y-67188000D03*
D10*
%TO.P,P2,2,Pin_2*%
%TO.N,/XORL2*%
X133832599Y-65917999D03*
D11*
X133396799Y-65917999D03*
D10*
X132968999Y-65917999D03*
%TO.P,P2,3,Pin_3*%
%TO.N,/XORL1*%
X133832599Y-64647999D03*
D11*
X133404799Y-64643999D03*
D10*
X132968999Y-64647999D03*
%TO.P,P2,4,Pin_4*%
%TO.N,GND*%
X133832599Y-63377999D03*
D11*
X133396799Y-63377999D03*
D10*
X132968999Y-63377999D03*
%TO.P,P2,5,Pin_5*%
X133832599Y-62107999D03*
D11*
X133396799Y-62107999D03*
D10*
X132968999Y-62107999D03*
%TD*%
%TO.P,P1,1,Pin_1*%
%TO.N,VCC*%
X114587399Y-62098999D03*
D11*
X115023199Y-62102999D03*
D12*
X115451000Y-62099000D03*
D10*
%TO.P,P1,2,Pin_2*%
%TO.N,GND*%
X114587399Y-63368999D03*
D11*
X115023199Y-63368999D03*
D10*
X115450999Y-63368999D03*
%TO.P,P1,3,Pin_3*%
%TO.N,/SCL*%
X114587399Y-64638999D03*
D11*
X115015199Y-64642999D03*
D10*
X115450999Y-64638999D03*
%TO.P,P1,4,Pin_4*%
%TO.N,/SDA*%
X114587399Y-65908999D03*
D11*
X115023199Y-65908999D03*
D10*
X115450999Y-65908999D03*
%TO.P,P1,5,Pin_5*%
%TO.N,/EN*%
X114587399Y-67178999D03*
D11*
X115023199Y-67178999D03*
D10*
X115450999Y-67178999D03*
%TD*%
D13*
%TO.N,/SCL_0*%
X121484500Y-66171000D03*
%TO.N,GND*%
X125907800Y-65252600D03*
X122021600Y-65405000D03*
X124333000Y-62941200D03*
X121843800Y-61214000D03*
X124079000Y-65227200D03*
X123266200Y-61214000D03*
X120462000Y-68044000D03*
X131556800Y-61214000D03*
X120297263Y-63291801D03*
X118897400Y-63017400D03*
X117576600Y-67437000D03*
X118897400Y-62484000D03*
X127955000Y-61214000D03*
X119354600Y-61214000D03*
X123256000Y-68072000D03*
X125069600Y-61239400D03*
X117574000Y-67945000D03*
X119989945Y-65100545D03*
X126558000Y-61214000D03*
X127660089Y-66673164D03*
%TO.N,3.3V*%
X122616000Y-68072000D03*
X124653000Y-68072000D03*
X119822000Y-68044000D03*
X124104400Y-61214000D03*
X126774000Y-65659000D03*
X121208800Y-61214000D03*
X125918000Y-61214000D03*
X124333000Y-63947000D03*
X120319800Y-61214000D03*
X131257000Y-67513200D03*
X119997000Y-63810000D03*
X132092662Y-65760528D03*
X130159800Y-61214000D03*
X124942600Y-65252600D03*
X132196800Y-61214000D03*
X116611400Y-67437000D03*
X116614000Y-67945000D03*
X129834600Y-67513200D03*
%TO.N,VCC*%
X117434000Y-62966600D03*
X117434000Y-62966600D03*
X117449600Y-62509400D03*
%TO.N,/EN*%
X118425000Y-68021200D03*
%TO.N,/SDA*%
X128750000Y-64266000D03*
X128762800Y-61747400D03*
%TO.N,/SCL*%
X130799800Y-61214000D03*
X128970498Y-65765502D03*
%TO.N,/SCL_1*%
X128016000Y-67564000D03*
X125267000Y-62873000D03*
X124079500Y-66171000D03*
%TO.N,/SDA_1*%
X128828800Y-67522164D03*
X125267000Y-63373000D03*
X128607100Y-63766000D03*
X123567000Y-65658500D03*
%TO.N,/SCL_0*%
X128524000Y-65266498D03*
X130617000Y-68224400D03*
X126517400Y-67564000D03*
X120949000Y-62868000D03*
%TO.N,/SDA_0*%
X129194600Y-68224400D03*
X128163402Y-64920850D03*
X120949000Y-63368000D03*
X120972498Y-65659000D03*
X125069600Y-67564000D03*
%TD*%
D14*
%TO.N,/SDA_1*%
X128539850Y-67522164D02*
X128828800Y-67522164D01*
X128136240Y-67118554D02*
X128539850Y-67522164D01*
X125780300Y-65658500D02*
X127240354Y-67118554D01*
X127240354Y-67118554D02*
X128136240Y-67118554D01*
X123567000Y-65658500D02*
X125780300Y-65658500D01*
%TO.N,/SCL_0*%
X130617000Y-67502747D02*
X130617000Y-68224400D01*
X128828800Y-66217800D02*
X129332053Y-66217800D01*
X128520987Y-65269511D02*
X128520987Y-65909987D01*
X128524000Y-65266498D02*
X128520987Y-65269511D01*
X128520987Y-65909987D02*
X128828800Y-66217800D01*
X129332053Y-66217800D02*
X130617000Y-67502747D01*
%TO.N,/SDA_0*%
X125730000Y-68224400D02*
X129194600Y-68224400D01*
X125069600Y-67564000D02*
X125730000Y-68224400D01*
%TO.N,/SCL_0*%
X121034000Y-62868000D02*
X120949000Y-62868000D01*
X121484500Y-63318500D02*
X121034000Y-62868000D01*
X121484500Y-66171000D02*
X121484500Y-63318500D01*
%TO.N,/SDA_0*%
X120972498Y-63391498D02*
X120949000Y-63368000D01*
X120972498Y-65659000D02*
X120972498Y-63391498D01*
X122123200Y-67564000D02*
X125069600Y-67564000D01*
X120972498Y-66413298D02*
X122123200Y-67564000D01*
X120972498Y-65659000D02*
X120972498Y-66413298D01*
%TO.N,/SCL_0*%
X125704600Y-66751200D02*
X126517400Y-67564000D01*
X122064700Y-66751200D02*
X125704600Y-66751200D01*
X121484500Y-66171000D02*
X122064700Y-66751200D01*
%TO.N,/SCL_1*%
X124129800Y-63449200D02*
X123164600Y-64414400D01*
X124625114Y-63449200D02*
X124129800Y-63449200D01*
X123164600Y-65887600D02*
X123448000Y-66171000D01*
X125201314Y-62873000D02*
X124625114Y-63449200D01*
X123164600Y-64414400D02*
X123164600Y-65887600D01*
X123448000Y-66171000D02*
X124079500Y-66171000D01*
X125267000Y-62873000D02*
X125201314Y-62873000D01*
%TO.N,/SDA_1*%
X123567000Y-65658500D02*
X123567000Y-64901000D01*
X123567000Y-64901000D02*
X124053600Y-64414400D01*
X124053600Y-64414400D02*
X124714000Y-64414400D01*
X124714000Y-64414400D02*
X125267000Y-63861400D01*
X125267000Y-63861400D02*
X125267000Y-63373000D01*
%TO.N,/SCL_1*%
X127177800Y-67564000D02*
X128016000Y-67564000D01*
X125784800Y-66171000D02*
X127177800Y-67564000D01*
X124079500Y-66171000D02*
X125784800Y-66171000D01*
%TO.N,/SDA_0*%
X128016000Y-65913000D02*
X129278311Y-67175311D01*
X128016000Y-65068252D02*
X128016000Y-65913000D01*
X128163402Y-64920850D02*
X128016000Y-65068252D01*
X129278311Y-67175311D02*
X129278311Y-68140689D01*
X129278311Y-68140689D02*
X129194600Y-68224400D01*
%TO.N,/SCL*%
X130799800Y-63484800D02*
X130799800Y-61214000D01*
X128970498Y-65314102D02*
X130799800Y-63484800D01*
X128970498Y-65765502D02*
X128970498Y-65314102D01*
%TO.N,/SDA*%
X129006600Y-61991200D02*
X128762800Y-61747400D01*
X128750000Y-64266000D02*
X129006600Y-64009400D01*
X129006600Y-64009400D02*
X129006600Y-61991200D01*
%TO.N,/SDA_1*%
X128828800Y-67177442D02*
X128828800Y-67522164D01*
X127533400Y-65882042D02*
X128828800Y-67177442D01*
X127533400Y-64839700D02*
X127533400Y-65882042D01*
X128607100Y-63766000D02*
X127533400Y-64839700D01*
%TO.N,/SDA*%
X117649264Y-65909000D02*
X115451000Y-65909000D01*
X119597000Y-63961264D02*
X117649264Y-65909000D01*
X119597400Y-63582600D02*
X119597000Y-63583000D01*
X119597000Y-63583000D02*
X119597000Y-63961264D01*
X120637089Y-61988911D02*
X119597400Y-63028600D01*
X128762800Y-61747400D02*
X128701800Y-61747400D01*
X128701800Y-61747400D02*
X128460289Y-61988911D01*
X128460289Y-61988911D02*
X120637089Y-61988911D01*
X119597400Y-63028600D02*
X119597400Y-63582600D01*
%TO.N,/SCL*%
X130350289Y-61663511D02*
X130799800Y-61214000D01*
X129659311Y-61663511D02*
X130350289Y-61663511D01*
X129235200Y-61239400D02*
X129659311Y-61663511D01*
X128574800Y-61239400D02*
X129235200Y-61239400D01*
X120175089Y-61688911D02*
X128125289Y-61688911D01*
X119297400Y-62566600D02*
X120175089Y-61688911D01*
X119297000Y-63837000D02*
X119297000Y-63458736D01*
X119297400Y-63458336D02*
X119297400Y-62566600D01*
X118495000Y-64639000D02*
X119297000Y-63837000D01*
X128125289Y-61688911D02*
X128574800Y-61239400D01*
X115451000Y-64639000D02*
X118495000Y-64639000D01*
X119297000Y-63458736D02*
X119297400Y-63458336D01*
%TO.N,/EN*%
X118425000Y-67625000D02*
X118425000Y-68021200D01*
X115451000Y-67179000D02*
X116233694Y-67179000D01*
X116458294Y-66954400D02*
X117754400Y-66954400D01*
X117754400Y-66954400D02*
X118425000Y-67625000D01*
X116233694Y-67179000D02*
X116458294Y-66954400D01*
%TD*%
M02*
