%TF.GenerationSoftware,KiCad,Pcbnew,(7.0.0)*%
%TF.CreationDate,2023-03-07T13:57:38-05:00*%
%TF.ProjectId,imu-stamp,696d752d-7374-4616-9d70-2e6b69636164,rev?*%
%TF.SameCoordinates,Original*%
%TF.FileFunction,Drillmap*%
%TF.FilePolarity,Positive*%
%FSLAX45Y45*%
G04 Gerber Fmt 4.5, Leading zero omitted, Abs format (unit mm)*
G04 Created by KiCad (PCBNEW (7.0.0)) date 2023-03-07 13:57:38*
%MOMM*%
%LPD*%
G01*
G04 APERTURE LIST*
%ADD10C,0.100000*%
%ADD11C,0.200000*%
%ADD12C,0.015000*%
%ADD13C,0.065000*%
G04 APERTURE END LIST*
D10*
X13373100Y-6858000D02*
X13373100Y-6070600D01*
X11468100Y-6070600D02*
X13373100Y-6070600D01*
X11468100Y-6858000D02*
X11468100Y-6070600D01*
X11468100Y-6858000D02*
X13373100Y-6858000D01*
D11*
D12*
X11653640Y-6736200D02*
X11668640Y-6751200D01*
X11668640Y-6736200D02*
X11653640Y-6751200D01*
X11653900Y-6787000D02*
X11668900Y-6802000D01*
X11668900Y-6787000D02*
X11653900Y-6802000D01*
X11735900Y-6289160D02*
X11750900Y-6304160D01*
X11750900Y-6289160D02*
X11735900Y-6304160D01*
X11735900Y-6289160D02*
X11750900Y-6304160D01*
X11750900Y-6289160D02*
X11735900Y-6304160D01*
X11737460Y-6243440D02*
X11752460Y-6258440D01*
X11752460Y-6243440D02*
X11737460Y-6258440D01*
X11749900Y-6787000D02*
X11764900Y-6802000D01*
X11764900Y-6787000D02*
X11749900Y-6802000D01*
X11750160Y-6736200D02*
X11765160Y-6751200D01*
X11765160Y-6736200D02*
X11750160Y-6751200D01*
X11835000Y-6794620D02*
X11850000Y-6809620D01*
X11850000Y-6794620D02*
X11835000Y-6809620D01*
X11882240Y-6240900D02*
X11897240Y-6255900D01*
X11897240Y-6240900D02*
X11882240Y-6255900D01*
X11882240Y-6294240D02*
X11897240Y-6309240D01*
X11897240Y-6294240D02*
X11882240Y-6309240D01*
X11927960Y-6113900D02*
X11942960Y-6128900D01*
X11942960Y-6113900D02*
X11927960Y-6128900D01*
X11974700Y-6796900D02*
X11989700Y-6811900D01*
X11989700Y-6796900D02*
X11974700Y-6811900D01*
X11991494Y-6502554D02*
X12006494Y-6517554D01*
X12006494Y-6502554D02*
X11991494Y-6517554D01*
X11992200Y-6373500D02*
X12007200Y-6388500D01*
X12007200Y-6373500D02*
X11992200Y-6388500D01*
X12022226Y-6321680D02*
X12037226Y-6336680D01*
X12037226Y-6321680D02*
X12022226Y-6336680D01*
X12024480Y-6113900D02*
X12039480Y-6128900D01*
X12039480Y-6113900D02*
X12024480Y-6128900D01*
X12038700Y-6796900D02*
X12053700Y-6811900D01*
X12053700Y-6796900D02*
X12038700Y-6811900D01*
X12087400Y-6279300D02*
X12102400Y-6294300D01*
X12102400Y-6279300D02*
X12087400Y-6294300D01*
X12087400Y-6329300D02*
X12102400Y-6344300D01*
X12102400Y-6329300D02*
X12087400Y-6344300D01*
X12089750Y-6558400D02*
X12104750Y-6573400D01*
X12104750Y-6558400D02*
X12089750Y-6573400D01*
X12113380Y-6113900D02*
X12128380Y-6128900D01*
X12128380Y-6113900D02*
X12113380Y-6128900D01*
X12140950Y-6609600D02*
X12155950Y-6624600D01*
X12155950Y-6609600D02*
X12140950Y-6624600D01*
X12176880Y-6113900D02*
X12191880Y-6128900D01*
X12191880Y-6113900D02*
X12176880Y-6128900D01*
X12194660Y-6533000D02*
X12209660Y-6548000D01*
X12209660Y-6533000D02*
X12194660Y-6548000D01*
X12254100Y-6799700D02*
X12269100Y-6814700D01*
X12269100Y-6799700D02*
X12254100Y-6814700D01*
X12318100Y-6799700D02*
X12333100Y-6814700D01*
X12333100Y-6799700D02*
X12318100Y-6814700D01*
X12319120Y-6113900D02*
X12334120Y-6128900D01*
X12334120Y-6113900D02*
X12319120Y-6128900D01*
X12349200Y-6558350D02*
X12364200Y-6573350D01*
X12364200Y-6558350D02*
X12349200Y-6573350D01*
X12400400Y-6515220D02*
X12415400Y-6530220D01*
X12415400Y-6515220D02*
X12400400Y-6530220D01*
X12400450Y-6609600D02*
X12415450Y-6624600D01*
X12415450Y-6609600D02*
X12400450Y-6624600D01*
X12402940Y-6113900D02*
X12417940Y-6128900D01*
X12417940Y-6113900D02*
X12402940Y-6128900D01*
X12425800Y-6286620D02*
X12440800Y-6301620D01*
X12440800Y-6286620D02*
X12425800Y-6301620D01*
X12425800Y-6387200D02*
X12440800Y-6402200D01*
X12440800Y-6387200D02*
X12425800Y-6402200D01*
X12457800Y-6799700D02*
X12472800Y-6814700D01*
X12472800Y-6799700D02*
X12457800Y-6814700D01*
X12486760Y-6517760D02*
X12501760Y-6532760D01*
X12501760Y-6517760D02*
X12486760Y-6532760D01*
X12499460Y-6116440D02*
X12514460Y-6131440D01*
X12514460Y-6116440D02*
X12499460Y-6131440D01*
X12499460Y-6748900D02*
X12514460Y-6763900D01*
X12514460Y-6748900D02*
X12499460Y-6763900D01*
X12519200Y-6279800D02*
X12534200Y-6294800D01*
X12534200Y-6279800D02*
X12519200Y-6294800D01*
X12519200Y-6329800D02*
X12534200Y-6344800D01*
X12534200Y-6329800D02*
X12519200Y-6344800D01*
X12583280Y-6517760D02*
X12598280Y-6532760D01*
X12598280Y-6517760D02*
X12583280Y-6532760D01*
X12584300Y-6113900D02*
X12599300Y-6128900D01*
X12599300Y-6113900D02*
X12584300Y-6128900D01*
X12644240Y-6748900D02*
X12659240Y-6763900D01*
X12659240Y-6748900D02*
X12644240Y-6763900D01*
X12648300Y-6113900D02*
X12663300Y-6128900D01*
X12663300Y-6113900D02*
X12648300Y-6128900D01*
X12669900Y-6558400D02*
X12684900Y-6573400D01*
X12684900Y-6558400D02*
X12669900Y-6573400D01*
X12758509Y-6659816D02*
X12773509Y-6674816D01*
X12773509Y-6659816D02*
X12758509Y-6674816D01*
X12788000Y-6113900D02*
X12803000Y-6128900D01*
X12803000Y-6113900D02*
X12788000Y-6128900D01*
X12794100Y-6748900D02*
X12809100Y-6763900D01*
X12809100Y-6748900D02*
X12794100Y-6763900D01*
X12808840Y-6484585D02*
X12823840Y-6499585D01*
X12823840Y-6484585D02*
X12808840Y-6499585D01*
X12844900Y-6519150D02*
X12859900Y-6534150D01*
X12859900Y-6519150D02*
X12844900Y-6534150D01*
X12853210Y-6369100D02*
X12868210Y-6384100D01*
X12868210Y-6369100D02*
X12853210Y-6384100D01*
X12867500Y-6419100D02*
X12882500Y-6434100D01*
X12882500Y-6419100D02*
X12867500Y-6434100D01*
X12868780Y-6167240D02*
X12883780Y-6182240D01*
X12883780Y-6167240D02*
X12868780Y-6182240D01*
X12875380Y-6744716D02*
X12890380Y-6759716D01*
X12890380Y-6744716D02*
X12875380Y-6759716D01*
X12889550Y-6569050D02*
X12904550Y-6584050D01*
X12904550Y-6569050D02*
X12889550Y-6584050D01*
X12911960Y-6814940D02*
X12926960Y-6829940D01*
X12926960Y-6814940D02*
X12911960Y-6829940D01*
X12975960Y-6743820D02*
X12990960Y-6758820D01*
X12990960Y-6743820D02*
X12975960Y-6758820D01*
X13008480Y-6113900D02*
X13023480Y-6128900D01*
X13023480Y-6113900D02*
X13008480Y-6128900D01*
X13054200Y-6814940D02*
X13069200Y-6829940D01*
X13069200Y-6814940D02*
X13054200Y-6829940D01*
X13072480Y-6113900D02*
X13087480Y-6128900D01*
X13087480Y-6113900D02*
X13072480Y-6128900D01*
X13118200Y-6743820D02*
X13133200Y-6758820D01*
X13133200Y-6743820D02*
X13118200Y-6758820D01*
X13148180Y-6113900D02*
X13163180Y-6128900D01*
X13163180Y-6113900D02*
X13148180Y-6128900D01*
X13201766Y-6568553D02*
X13216766Y-6583553D01*
X13216766Y-6568553D02*
X13201766Y-6583553D01*
X13212180Y-6113900D02*
X13227180Y-6128900D01*
X13227180Y-6113900D02*
X13212180Y-6128900D01*
D13*
X11491240Y-6209900D02*
G75*
G03*
X11491240Y-6209900I-32500J0D01*
G01*
D11*
X11426240Y-6209900D02*
X11426240Y-6209900D01*
X11426240Y-6209900D02*
G75*
G03*
X11491240Y-6209900I32500J0D01*
G01*
X11491240Y-6209900D02*
X11491240Y-6209900D01*
X11491240Y-6209900D02*
G75*
G03*
X11426240Y-6209900I-32500J0D01*
G01*
D13*
X11491240Y-6336900D02*
G75*
G03*
X11491240Y-6336900I-32500J0D01*
G01*
D11*
X11426240Y-6336900D02*
X11426240Y-6336900D01*
X11426240Y-6336900D02*
G75*
G03*
X11491240Y-6336900I32500J0D01*
G01*
X11491240Y-6336900D02*
X11491240Y-6336900D01*
X11491240Y-6336900D02*
G75*
G03*
X11426240Y-6336900I-32500J0D01*
G01*
D13*
X11491240Y-6463900D02*
G75*
G03*
X11491240Y-6463900I-32500J0D01*
G01*
D11*
X11426240Y-6463900D02*
X11426240Y-6463900D01*
X11426240Y-6463900D02*
G75*
G03*
X11491240Y-6463900I32500J0D01*
G01*
X11491240Y-6463900D02*
X11491240Y-6463900D01*
X11491240Y-6463900D02*
G75*
G03*
X11426240Y-6463900I-32500J0D01*
G01*
D13*
X11491240Y-6590900D02*
G75*
G03*
X11491240Y-6590900I-32500J0D01*
G01*
D11*
X11426240Y-6590900D02*
X11426240Y-6590900D01*
X11426240Y-6590900D02*
G75*
G03*
X11491240Y-6590900I32500J0D01*
G01*
X11491240Y-6590900D02*
X11491240Y-6590900D01*
X11491240Y-6590900D02*
G75*
G03*
X11426240Y-6590900I-32500J0D01*
G01*
D13*
X11491240Y-6717900D02*
G75*
G03*
X11491240Y-6717900I-32500J0D01*
G01*
D11*
X11426240Y-6717900D02*
X11426240Y-6717900D01*
X11426240Y-6717900D02*
G75*
G03*
X11491240Y-6717900I32500J0D01*
G01*
X11491240Y-6717900D02*
X11491240Y-6717900D01*
X11491240Y-6717900D02*
G75*
G03*
X11426240Y-6717900I-32500J0D01*
G01*
D13*
X11577600Y-6209900D02*
G75*
G03*
X11577600Y-6209900I-32500J0D01*
G01*
X11577600Y-6336900D02*
G75*
G03*
X11577600Y-6336900I-32500J0D01*
G01*
X11577600Y-6463900D02*
G75*
G03*
X11577600Y-6463900I-32500J0D01*
G01*
X11577600Y-6590900D02*
G75*
G03*
X11577600Y-6590900I-32500J0D01*
G01*
X11577600Y-6717900D02*
G75*
G03*
X11577600Y-6717900I-32500J0D01*
G01*
X13329400Y-6210800D02*
G75*
G03*
X13329400Y-6210800I-32500J0D01*
G01*
X13329400Y-6337800D02*
G75*
G03*
X13329400Y-6337800I-32500J0D01*
G01*
X13329400Y-6464800D02*
G75*
G03*
X13329400Y-6464800I-32500J0D01*
G01*
X13329400Y-6591800D02*
G75*
G03*
X13329400Y-6591800I-32500J0D01*
G01*
X13329400Y-6718800D02*
G75*
G03*
X13329400Y-6718800I-32500J0D01*
G01*
X13415760Y-6210800D02*
G75*
G03*
X13415760Y-6210800I-32500J0D01*
G01*
D11*
X13415760Y-6210800D02*
X13415760Y-6210800D01*
X13415760Y-6210800D02*
G75*
G03*
X13350760Y-6210800I-32500J0D01*
G01*
X13350760Y-6210800D02*
X13350760Y-6210800D01*
X13350760Y-6210800D02*
G75*
G03*
X13415760Y-6210800I32500J0D01*
G01*
D13*
X13415760Y-6337800D02*
G75*
G03*
X13415760Y-6337800I-32500J0D01*
G01*
D11*
X13415760Y-6337800D02*
X13415760Y-6337800D01*
X13415760Y-6337800D02*
G75*
G03*
X13350760Y-6337800I-32500J0D01*
G01*
X13350760Y-6337800D02*
X13350760Y-6337800D01*
X13350760Y-6337800D02*
G75*
G03*
X13415760Y-6337800I32500J0D01*
G01*
D13*
X13415760Y-6464800D02*
G75*
G03*
X13415760Y-6464800I-32500J0D01*
G01*
D11*
X13415760Y-6464800D02*
X13415760Y-6464800D01*
X13415760Y-6464800D02*
G75*
G03*
X13350760Y-6464800I-32500J0D01*
G01*
X13350760Y-6464800D02*
X13350760Y-6464800D01*
X13350760Y-6464800D02*
G75*
G03*
X13415760Y-6464800I32500J0D01*
G01*
D13*
X13415760Y-6591800D02*
G75*
G03*
X13415760Y-6591800I-32500J0D01*
G01*
D11*
X13415760Y-6591800D02*
X13415760Y-6591800D01*
X13415760Y-6591800D02*
G75*
G03*
X13350760Y-6591800I-32500J0D01*
G01*
X13350760Y-6591800D02*
X13350760Y-6591800D01*
X13350760Y-6591800D02*
G75*
G03*
X13415760Y-6591800I32500J0D01*
G01*
D13*
X13415760Y-6718800D02*
G75*
G03*
X13415760Y-6718800I-32500J0D01*
G01*
D11*
X13415760Y-6718800D02*
X13415760Y-6718800D01*
X13415760Y-6718800D02*
G75*
G03*
X13350760Y-6718800I-32500J0D01*
G01*
X13350760Y-6718800D02*
X13350760Y-6718800D01*
X13350760Y-6718800D02*
G75*
G03*
X13415760Y-6718800I32500J0D01*
G01*
X11710719Y-7156476D02*
X11710719Y-6956476D01*
X11710719Y-6956476D02*
X11758338Y-6956476D01*
X11758338Y-6956476D02*
X11786909Y-6966000D01*
X11786909Y-6966000D02*
X11805957Y-6985048D01*
X11805957Y-6985048D02*
X11815481Y-7004095D01*
X11815481Y-7004095D02*
X11825005Y-7042190D01*
X11825005Y-7042190D02*
X11825005Y-7070762D01*
X11825005Y-7070762D02*
X11815481Y-7108857D01*
X11815481Y-7108857D02*
X11805957Y-7127905D01*
X11805957Y-7127905D02*
X11786909Y-7146952D01*
X11786909Y-7146952D02*
X11758338Y-7156476D01*
X11758338Y-7156476D02*
X11710719Y-7156476D01*
X11910719Y-7156476D02*
X11910719Y-7023143D01*
X11910719Y-7061238D02*
X11920243Y-7042190D01*
X11920243Y-7042190D02*
X11929767Y-7032667D01*
X11929767Y-7032667D02*
X11948814Y-7023143D01*
X11948814Y-7023143D02*
X11967862Y-7023143D01*
X12034528Y-7156476D02*
X12034528Y-7023143D01*
X12034528Y-6956476D02*
X12025005Y-6966000D01*
X12025005Y-6966000D02*
X12034528Y-6975524D01*
X12034528Y-6975524D02*
X12044052Y-6966000D01*
X12044052Y-6966000D02*
X12034528Y-6956476D01*
X12034528Y-6956476D02*
X12034528Y-6975524D01*
X12158338Y-7156476D02*
X12139290Y-7146952D01*
X12139290Y-7146952D02*
X12129767Y-7127905D01*
X12129767Y-7127905D02*
X12129767Y-6956476D01*
X12263100Y-7156476D02*
X12244052Y-7146952D01*
X12244052Y-7146952D02*
X12234528Y-7127905D01*
X12234528Y-7127905D02*
X12234528Y-6956476D01*
X12459290Y-7156476D02*
X12459290Y-6956476D01*
X12459290Y-6956476D02*
X12525957Y-7099333D01*
X12525957Y-7099333D02*
X12592624Y-6956476D01*
X12592624Y-6956476D02*
X12592624Y-7156476D01*
X12773576Y-7156476D02*
X12773576Y-7051714D01*
X12773576Y-7051714D02*
X12764052Y-7032667D01*
X12764052Y-7032667D02*
X12745005Y-7023143D01*
X12745005Y-7023143D02*
X12706909Y-7023143D01*
X12706909Y-7023143D02*
X12687862Y-7032667D01*
X12773576Y-7146952D02*
X12754528Y-7156476D01*
X12754528Y-7156476D02*
X12706909Y-7156476D01*
X12706909Y-7156476D02*
X12687862Y-7146952D01*
X12687862Y-7146952D02*
X12678338Y-7127905D01*
X12678338Y-7127905D02*
X12678338Y-7108857D01*
X12678338Y-7108857D02*
X12687862Y-7089809D01*
X12687862Y-7089809D02*
X12706909Y-7080286D01*
X12706909Y-7080286D02*
X12754528Y-7080286D01*
X12754528Y-7080286D02*
X12773576Y-7070762D01*
X12868814Y-7023143D02*
X12868814Y-7223143D01*
X12868814Y-7032667D02*
X12887862Y-7023143D01*
X12887862Y-7023143D02*
X12925957Y-7023143D01*
X12925957Y-7023143D02*
X12945005Y-7032667D01*
X12945005Y-7032667D02*
X12954528Y-7042190D01*
X12954528Y-7042190D02*
X12964052Y-7061238D01*
X12964052Y-7061238D02*
X12964052Y-7118381D01*
X12964052Y-7118381D02*
X12954528Y-7137428D01*
X12954528Y-7137428D02*
X12945005Y-7146952D01*
X12945005Y-7146952D02*
X12925957Y-7156476D01*
X12925957Y-7156476D02*
X12887862Y-7156476D01*
X12887862Y-7156476D02*
X12868814Y-7146952D01*
X13049767Y-7137428D02*
X13059290Y-7146952D01*
X13059290Y-7146952D02*
X13049767Y-7156476D01*
X13049767Y-7156476D02*
X13040243Y-7146952D01*
X13040243Y-7146952D02*
X13049767Y-7137428D01*
X13049767Y-7137428D02*
X13049767Y-7156476D01*
X13049767Y-7032667D02*
X13059290Y-7042190D01*
X13059290Y-7042190D02*
X13049767Y-7051714D01*
X13049767Y-7051714D02*
X13040243Y-7042190D01*
X13040243Y-7042190D02*
X13049767Y-7032667D01*
X13049767Y-7032667D02*
X13049767Y-7051714D01*
D12*
X11448100Y-7495500D02*
X11463100Y-7510500D01*
X11463100Y-7495500D02*
X11448100Y-7510500D01*
D11*
X11748814Y-7376476D02*
X11767862Y-7376476D01*
X11767862Y-7376476D02*
X11786909Y-7386000D01*
X11786909Y-7386000D02*
X11796433Y-7395524D01*
X11796433Y-7395524D02*
X11805957Y-7414571D01*
X11805957Y-7414571D02*
X11815481Y-7452667D01*
X11815481Y-7452667D02*
X11815481Y-7500286D01*
X11815481Y-7500286D02*
X11805957Y-7538381D01*
X11805957Y-7538381D02*
X11796433Y-7557428D01*
X11796433Y-7557428D02*
X11786909Y-7566952D01*
X11786909Y-7566952D02*
X11767862Y-7576476D01*
X11767862Y-7576476D02*
X11748814Y-7576476D01*
X11748814Y-7576476D02*
X11729767Y-7566952D01*
X11729767Y-7566952D02*
X11720243Y-7557428D01*
X11720243Y-7557428D02*
X11710719Y-7538381D01*
X11710719Y-7538381D02*
X11701195Y-7500286D01*
X11701195Y-7500286D02*
X11701195Y-7452667D01*
X11701195Y-7452667D02*
X11710719Y-7414571D01*
X11710719Y-7414571D02*
X11720243Y-7395524D01*
X11720243Y-7395524D02*
X11729767Y-7386000D01*
X11729767Y-7386000D02*
X11748814Y-7376476D01*
X11901195Y-7557428D02*
X11910719Y-7566952D01*
X11910719Y-7566952D02*
X11901195Y-7576476D01*
X11901195Y-7576476D02*
X11891671Y-7566952D01*
X11891671Y-7566952D02*
X11901195Y-7557428D01*
X11901195Y-7557428D02*
X11901195Y-7576476D01*
X12101195Y-7576476D02*
X11986909Y-7576476D01*
X12044052Y-7576476D02*
X12044052Y-7376476D01*
X12044052Y-7376476D02*
X12025005Y-7405048D01*
X12025005Y-7405048D02*
X12005957Y-7424095D01*
X12005957Y-7424095D02*
X11986909Y-7433619D01*
X12282148Y-7376476D02*
X12186909Y-7376476D01*
X12186909Y-7376476D02*
X12177386Y-7471714D01*
X12177386Y-7471714D02*
X12186909Y-7462190D01*
X12186909Y-7462190D02*
X12205957Y-7452667D01*
X12205957Y-7452667D02*
X12253576Y-7452667D01*
X12253576Y-7452667D02*
X12272624Y-7462190D01*
X12272624Y-7462190D02*
X12282148Y-7471714D01*
X12282148Y-7471714D02*
X12291671Y-7490762D01*
X12291671Y-7490762D02*
X12291671Y-7538381D01*
X12291671Y-7538381D02*
X12282148Y-7557428D01*
X12282148Y-7557428D02*
X12272624Y-7566952D01*
X12272624Y-7566952D02*
X12253576Y-7576476D01*
X12253576Y-7576476D02*
X12205957Y-7576476D01*
X12205957Y-7576476D02*
X12186909Y-7566952D01*
X12186909Y-7566952D02*
X12177386Y-7557428D01*
X12415481Y-7376476D02*
X12434529Y-7376476D01*
X12434529Y-7376476D02*
X12453576Y-7386000D01*
X12453576Y-7386000D02*
X12463100Y-7395524D01*
X12463100Y-7395524D02*
X12472624Y-7414571D01*
X12472624Y-7414571D02*
X12482148Y-7452667D01*
X12482148Y-7452667D02*
X12482148Y-7500286D01*
X12482148Y-7500286D02*
X12472624Y-7538381D01*
X12472624Y-7538381D02*
X12463100Y-7557428D01*
X12463100Y-7557428D02*
X12453576Y-7566952D01*
X12453576Y-7566952D02*
X12434529Y-7576476D01*
X12434529Y-7576476D02*
X12415481Y-7576476D01*
X12415481Y-7576476D02*
X12396433Y-7566952D01*
X12396433Y-7566952D02*
X12386909Y-7557428D01*
X12386909Y-7557428D02*
X12377386Y-7538381D01*
X12377386Y-7538381D02*
X12367862Y-7500286D01*
X12367862Y-7500286D02*
X12367862Y-7452667D01*
X12367862Y-7452667D02*
X12377386Y-7414571D01*
X12377386Y-7414571D02*
X12386909Y-7395524D01*
X12386909Y-7395524D02*
X12396433Y-7386000D01*
X12396433Y-7386000D02*
X12415481Y-7376476D01*
X12567862Y-7576476D02*
X12567862Y-7443143D01*
X12567862Y-7462190D02*
X12577386Y-7452667D01*
X12577386Y-7452667D02*
X12596433Y-7443143D01*
X12596433Y-7443143D02*
X12625005Y-7443143D01*
X12625005Y-7443143D02*
X12644052Y-7452667D01*
X12644052Y-7452667D02*
X12653576Y-7471714D01*
X12653576Y-7471714D02*
X12653576Y-7576476D01*
X12653576Y-7471714D02*
X12663100Y-7452667D01*
X12663100Y-7452667D02*
X12682148Y-7443143D01*
X12682148Y-7443143D02*
X12710719Y-7443143D01*
X12710719Y-7443143D02*
X12729767Y-7452667D01*
X12729767Y-7452667D02*
X12739290Y-7471714D01*
X12739290Y-7471714D02*
X12739290Y-7576476D01*
X12834529Y-7576476D02*
X12834529Y-7443143D01*
X12834529Y-7462190D02*
X12844052Y-7452667D01*
X12844052Y-7452667D02*
X12863100Y-7443143D01*
X12863100Y-7443143D02*
X12891671Y-7443143D01*
X12891671Y-7443143D02*
X12910719Y-7452667D01*
X12910719Y-7452667D02*
X12920243Y-7471714D01*
X12920243Y-7471714D02*
X12920243Y-7576476D01*
X12920243Y-7471714D02*
X12929767Y-7452667D01*
X12929767Y-7452667D02*
X12948814Y-7443143D01*
X12948814Y-7443143D02*
X12977386Y-7443143D01*
X12977386Y-7443143D02*
X12996433Y-7452667D01*
X12996433Y-7452667D02*
X13005957Y-7471714D01*
X13005957Y-7471714D02*
X13005957Y-7576476D01*
X13364052Y-7366952D02*
X13192624Y-7624095D01*
X13588814Y-7376476D02*
X13607862Y-7376476D01*
X13607862Y-7376476D02*
X13626910Y-7386000D01*
X13626910Y-7386000D02*
X13636433Y-7395524D01*
X13636433Y-7395524D02*
X13645957Y-7414571D01*
X13645957Y-7414571D02*
X13655481Y-7452667D01*
X13655481Y-7452667D02*
X13655481Y-7500286D01*
X13655481Y-7500286D02*
X13645957Y-7538381D01*
X13645957Y-7538381D02*
X13636433Y-7557428D01*
X13636433Y-7557428D02*
X13626910Y-7566952D01*
X13626910Y-7566952D02*
X13607862Y-7576476D01*
X13607862Y-7576476D02*
X13588814Y-7576476D01*
X13588814Y-7576476D02*
X13569767Y-7566952D01*
X13569767Y-7566952D02*
X13560243Y-7557428D01*
X13560243Y-7557428D02*
X13550719Y-7538381D01*
X13550719Y-7538381D02*
X13541195Y-7500286D01*
X13541195Y-7500286D02*
X13541195Y-7452667D01*
X13541195Y-7452667D02*
X13550719Y-7414571D01*
X13550719Y-7414571D02*
X13560243Y-7395524D01*
X13560243Y-7395524D02*
X13569767Y-7386000D01*
X13569767Y-7386000D02*
X13588814Y-7376476D01*
X13741195Y-7557428D02*
X13750719Y-7566952D01*
X13750719Y-7566952D02*
X13741195Y-7576476D01*
X13741195Y-7576476D02*
X13731671Y-7566952D01*
X13731671Y-7566952D02*
X13741195Y-7557428D01*
X13741195Y-7557428D02*
X13741195Y-7576476D01*
X13874529Y-7376476D02*
X13893576Y-7376476D01*
X13893576Y-7376476D02*
X13912624Y-7386000D01*
X13912624Y-7386000D02*
X13922148Y-7395524D01*
X13922148Y-7395524D02*
X13931671Y-7414571D01*
X13931671Y-7414571D02*
X13941195Y-7452667D01*
X13941195Y-7452667D02*
X13941195Y-7500286D01*
X13941195Y-7500286D02*
X13931671Y-7538381D01*
X13931671Y-7538381D02*
X13922148Y-7557428D01*
X13922148Y-7557428D02*
X13912624Y-7566952D01*
X13912624Y-7566952D02*
X13893576Y-7576476D01*
X13893576Y-7576476D02*
X13874529Y-7576476D01*
X13874529Y-7576476D02*
X13855481Y-7566952D01*
X13855481Y-7566952D02*
X13845957Y-7557428D01*
X13845957Y-7557428D02*
X13836433Y-7538381D01*
X13836433Y-7538381D02*
X13826910Y-7500286D01*
X13826910Y-7500286D02*
X13826910Y-7452667D01*
X13826910Y-7452667D02*
X13836433Y-7414571D01*
X13836433Y-7414571D02*
X13845957Y-7395524D01*
X13845957Y-7395524D02*
X13855481Y-7386000D01*
X13855481Y-7386000D02*
X13874529Y-7376476D01*
X14065005Y-7376476D02*
X14084052Y-7376476D01*
X14084052Y-7376476D02*
X14103100Y-7386000D01*
X14103100Y-7386000D02*
X14112624Y-7395524D01*
X14112624Y-7395524D02*
X14122148Y-7414571D01*
X14122148Y-7414571D02*
X14131671Y-7452667D01*
X14131671Y-7452667D02*
X14131671Y-7500286D01*
X14131671Y-7500286D02*
X14122148Y-7538381D01*
X14122148Y-7538381D02*
X14112624Y-7557428D01*
X14112624Y-7557428D02*
X14103100Y-7566952D01*
X14103100Y-7566952D02*
X14084052Y-7576476D01*
X14084052Y-7576476D02*
X14065005Y-7576476D01*
X14065005Y-7576476D02*
X14045957Y-7566952D01*
X14045957Y-7566952D02*
X14036433Y-7557428D01*
X14036433Y-7557428D02*
X14026910Y-7538381D01*
X14026910Y-7538381D02*
X14017386Y-7500286D01*
X14017386Y-7500286D02*
X14017386Y-7452667D01*
X14017386Y-7452667D02*
X14026910Y-7414571D01*
X14026910Y-7414571D02*
X14036433Y-7395524D01*
X14036433Y-7395524D02*
X14045957Y-7386000D01*
X14045957Y-7386000D02*
X14065005Y-7376476D01*
X14312624Y-7376476D02*
X14217386Y-7376476D01*
X14217386Y-7376476D02*
X14207862Y-7471714D01*
X14207862Y-7471714D02*
X14217386Y-7462190D01*
X14217386Y-7462190D02*
X14236433Y-7452667D01*
X14236433Y-7452667D02*
X14284052Y-7452667D01*
X14284052Y-7452667D02*
X14303100Y-7462190D01*
X14303100Y-7462190D02*
X14312624Y-7471714D01*
X14312624Y-7471714D02*
X14322148Y-7490762D01*
X14322148Y-7490762D02*
X14322148Y-7538381D01*
X14322148Y-7538381D02*
X14312624Y-7557428D01*
X14312624Y-7557428D02*
X14303100Y-7566952D01*
X14303100Y-7566952D02*
X14284052Y-7576476D01*
X14284052Y-7576476D02*
X14236433Y-7576476D01*
X14236433Y-7576476D02*
X14217386Y-7566952D01*
X14217386Y-7566952D02*
X14207862Y-7557428D01*
X14417386Y-7576476D02*
X14455481Y-7576476D01*
X14455481Y-7576476D02*
X14474529Y-7566952D01*
X14474529Y-7566952D02*
X14484052Y-7557428D01*
X14484052Y-7557428D02*
X14503100Y-7528857D01*
X14503100Y-7528857D02*
X14512624Y-7490762D01*
X14512624Y-7490762D02*
X14512624Y-7414571D01*
X14512624Y-7414571D02*
X14503100Y-7395524D01*
X14503100Y-7395524D02*
X14493576Y-7386000D01*
X14493576Y-7386000D02*
X14474529Y-7376476D01*
X14474529Y-7376476D02*
X14436433Y-7376476D01*
X14436433Y-7376476D02*
X14417386Y-7386000D01*
X14417386Y-7386000D02*
X14407862Y-7395524D01*
X14407862Y-7395524D02*
X14398338Y-7414571D01*
X14398338Y-7414571D02*
X14398338Y-7462190D01*
X14398338Y-7462190D02*
X14407862Y-7481238D01*
X14407862Y-7481238D02*
X14417386Y-7490762D01*
X14417386Y-7490762D02*
X14436433Y-7500286D01*
X14436433Y-7500286D02*
X14474529Y-7500286D01*
X14474529Y-7500286D02*
X14493576Y-7490762D01*
X14493576Y-7490762D02*
X14503100Y-7481238D01*
X14503100Y-7481238D02*
X14512624Y-7462190D01*
X14588814Y-7376476D02*
X14588814Y-7414571D01*
X14665005Y-7376476D02*
X14665005Y-7414571D01*
X14927862Y-7652667D02*
X14918338Y-7643143D01*
X14918338Y-7643143D02*
X14899291Y-7614571D01*
X14899291Y-7614571D02*
X14889767Y-7595524D01*
X14889767Y-7595524D02*
X14880243Y-7566952D01*
X14880243Y-7566952D02*
X14870719Y-7519333D01*
X14870719Y-7519333D02*
X14870719Y-7481238D01*
X14870719Y-7481238D02*
X14880243Y-7433619D01*
X14880243Y-7433619D02*
X14889767Y-7405048D01*
X14889767Y-7405048D02*
X14899291Y-7386000D01*
X14899291Y-7386000D02*
X14918338Y-7357428D01*
X14918338Y-7357428D02*
X14927862Y-7347905D01*
X15089767Y-7376476D02*
X15051671Y-7376476D01*
X15051671Y-7376476D02*
X15032624Y-7386000D01*
X15032624Y-7386000D02*
X15023100Y-7395524D01*
X15023100Y-7395524D02*
X15004052Y-7424095D01*
X15004052Y-7424095D02*
X14994529Y-7462190D01*
X14994529Y-7462190D02*
X14994529Y-7538381D01*
X14994529Y-7538381D02*
X15004052Y-7557428D01*
X15004052Y-7557428D02*
X15013576Y-7566952D01*
X15013576Y-7566952D02*
X15032624Y-7576476D01*
X15032624Y-7576476D02*
X15070719Y-7576476D01*
X15070719Y-7576476D02*
X15089767Y-7566952D01*
X15089767Y-7566952D02*
X15099291Y-7557428D01*
X15099291Y-7557428D02*
X15108814Y-7538381D01*
X15108814Y-7538381D02*
X15108814Y-7490762D01*
X15108814Y-7490762D02*
X15099291Y-7471714D01*
X15099291Y-7471714D02*
X15089767Y-7462190D01*
X15089767Y-7462190D02*
X15070719Y-7452667D01*
X15070719Y-7452667D02*
X15032624Y-7452667D01*
X15032624Y-7452667D02*
X15013576Y-7462190D01*
X15013576Y-7462190D02*
X15004052Y-7471714D01*
X15004052Y-7471714D02*
X14994529Y-7490762D01*
X15175481Y-7376476D02*
X15299291Y-7376476D01*
X15299291Y-7376476D02*
X15232624Y-7452667D01*
X15232624Y-7452667D02*
X15261195Y-7452667D01*
X15261195Y-7452667D02*
X15280243Y-7462190D01*
X15280243Y-7462190D02*
X15289767Y-7471714D01*
X15289767Y-7471714D02*
X15299291Y-7490762D01*
X15299291Y-7490762D02*
X15299291Y-7538381D01*
X15299291Y-7538381D02*
X15289767Y-7557428D01*
X15289767Y-7557428D02*
X15280243Y-7566952D01*
X15280243Y-7566952D02*
X15261195Y-7576476D01*
X15261195Y-7576476D02*
X15204052Y-7576476D01*
X15204052Y-7576476D02*
X15185005Y-7566952D01*
X15185005Y-7566952D02*
X15175481Y-7557428D01*
X15505005Y-7576476D02*
X15505005Y-7376476D01*
X15590719Y-7576476D02*
X15590719Y-7471714D01*
X15590719Y-7471714D02*
X15581195Y-7452667D01*
X15581195Y-7452667D02*
X15562148Y-7443143D01*
X15562148Y-7443143D02*
X15533576Y-7443143D01*
X15533576Y-7443143D02*
X15514529Y-7452667D01*
X15514529Y-7452667D02*
X15505005Y-7462190D01*
X15714529Y-7576476D02*
X15695481Y-7566952D01*
X15695481Y-7566952D02*
X15685957Y-7557428D01*
X15685957Y-7557428D02*
X15676433Y-7538381D01*
X15676433Y-7538381D02*
X15676433Y-7481238D01*
X15676433Y-7481238D02*
X15685957Y-7462190D01*
X15685957Y-7462190D02*
X15695481Y-7452667D01*
X15695481Y-7452667D02*
X15714529Y-7443143D01*
X15714529Y-7443143D02*
X15743100Y-7443143D01*
X15743100Y-7443143D02*
X15762148Y-7452667D01*
X15762148Y-7452667D02*
X15771672Y-7462190D01*
X15771672Y-7462190D02*
X15781195Y-7481238D01*
X15781195Y-7481238D02*
X15781195Y-7538381D01*
X15781195Y-7538381D02*
X15771672Y-7557428D01*
X15771672Y-7557428D02*
X15762148Y-7566952D01*
X15762148Y-7566952D02*
X15743100Y-7576476D01*
X15743100Y-7576476D02*
X15714529Y-7576476D01*
X15895481Y-7576476D02*
X15876433Y-7566952D01*
X15876433Y-7566952D02*
X15866910Y-7547905D01*
X15866910Y-7547905D02*
X15866910Y-7376476D01*
X16047862Y-7566952D02*
X16028814Y-7576476D01*
X16028814Y-7576476D02*
X15990719Y-7576476D01*
X15990719Y-7576476D02*
X15971672Y-7566952D01*
X15971672Y-7566952D02*
X15962148Y-7547905D01*
X15962148Y-7547905D02*
X15962148Y-7471714D01*
X15962148Y-7471714D02*
X15971672Y-7452667D01*
X15971672Y-7452667D02*
X15990719Y-7443143D01*
X15990719Y-7443143D02*
X16028814Y-7443143D01*
X16028814Y-7443143D02*
X16047862Y-7452667D01*
X16047862Y-7452667D02*
X16057386Y-7471714D01*
X16057386Y-7471714D02*
X16057386Y-7490762D01*
X16057386Y-7490762D02*
X15962148Y-7509809D01*
X16133576Y-7566952D02*
X16152624Y-7576476D01*
X16152624Y-7576476D02*
X16190719Y-7576476D01*
X16190719Y-7576476D02*
X16209767Y-7566952D01*
X16209767Y-7566952D02*
X16219291Y-7547905D01*
X16219291Y-7547905D02*
X16219291Y-7538381D01*
X16219291Y-7538381D02*
X16209767Y-7519333D01*
X16209767Y-7519333D02*
X16190719Y-7509809D01*
X16190719Y-7509809D02*
X16162148Y-7509809D01*
X16162148Y-7509809D02*
X16143100Y-7500286D01*
X16143100Y-7500286D02*
X16133576Y-7481238D01*
X16133576Y-7481238D02*
X16133576Y-7471714D01*
X16133576Y-7471714D02*
X16143100Y-7452667D01*
X16143100Y-7452667D02*
X16162148Y-7443143D01*
X16162148Y-7443143D02*
X16190719Y-7443143D01*
X16190719Y-7443143D02*
X16209767Y-7452667D01*
X16285957Y-7652667D02*
X16295481Y-7643143D01*
X16295481Y-7643143D02*
X16314529Y-7614571D01*
X16314529Y-7614571D02*
X16324053Y-7595524D01*
X16324053Y-7595524D02*
X16333576Y-7566952D01*
X16333576Y-7566952D02*
X16343100Y-7519333D01*
X16343100Y-7519333D02*
X16343100Y-7481238D01*
X16343100Y-7481238D02*
X16333576Y-7433619D01*
X16333576Y-7433619D02*
X16324053Y-7405048D01*
X16324053Y-7405048D02*
X16314529Y-7386000D01*
X16314529Y-7386000D02*
X16295481Y-7357428D01*
X16295481Y-7357428D02*
X16285957Y-7347905D01*
D13*
X11463100Y-7767000D02*
G75*
G03*
X11463100Y-7767000I-32500J0D01*
G01*
D11*
X11748814Y-7640476D02*
X11767862Y-7640476D01*
X11767862Y-7640476D02*
X11786909Y-7650000D01*
X11786909Y-7650000D02*
X11796433Y-7659524D01*
X11796433Y-7659524D02*
X11805957Y-7678571D01*
X11805957Y-7678571D02*
X11815481Y-7716667D01*
X11815481Y-7716667D02*
X11815481Y-7764286D01*
X11815481Y-7764286D02*
X11805957Y-7802381D01*
X11805957Y-7802381D02*
X11796433Y-7821428D01*
X11796433Y-7821428D02*
X11786909Y-7830952D01*
X11786909Y-7830952D02*
X11767862Y-7840476D01*
X11767862Y-7840476D02*
X11748814Y-7840476D01*
X11748814Y-7840476D02*
X11729767Y-7830952D01*
X11729767Y-7830952D02*
X11720243Y-7821428D01*
X11720243Y-7821428D02*
X11710719Y-7802381D01*
X11710719Y-7802381D02*
X11701195Y-7764286D01*
X11701195Y-7764286D02*
X11701195Y-7716667D01*
X11701195Y-7716667D02*
X11710719Y-7678571D01*
X11710719Y-7678571D02*
X11720243Y-7659524D01*
X11720243Y-7659524D02*
X11729767Y-7650000D01*
X11729767Y-7650000D02*
X11748814Y-7640476D01*
X11901195Y-7821428D02*
X11910719Y-7830952D01*
X11910719Y-7830952D02*
X11901195Y-7840476D01*
X11901195Y-7840476D02*
X11891671Y-7830952D01*
X11891671Y-7830952D02*
X11901195Y-7821428D01*
X11901195Y-7821428D02*
X11901195Y-7840476D01*
X12082148Y-7640476D02*
X12044052Y-7640476D01*
X12044052Y-7640476D02*
X12025005Y-7650000D01*
X12025005Y-7650000D02*
X12015481Y-7659524D01*
X12015481Y-7659524D02*
X11996433Y-7688095D01*
X11996433Y-7688095D02*
X11986909Y-7726190D01*
X11986909Y-7726190D02*
X11986909Y-7802381D01*
X11986909Y-7802381D02*
X11996433Y-7821428D01*
X11996433Y-7821428D02*
X12005957Y-7830952D01*
X12005957Y-7830952D02*
X12025005Y-7840476D01*
X12025005Y-7840476D02*
X12063100Y-7840476D01*
X12063100Y-7840476D02*
X12082148Y-7830952D01*
X12082148Y-7830952D02*
X12091671Y-7821428D01*
X12091671Y-7821428D02*
X12101195Y-7802381D01*
X12101195Y-7802381D02*
X12101195Y-7754762D01*
X12101195Y-7754762D02*
X12091671Y-7735714D01*
X12091671Y-7735714D02*
X12082148Y-7726190D01*
X12082148Y-7726190D02*
X12063100Y-7716667D01*
X12063100Y-7716667D02*
X12025005Y-7716667D01*
X12025005Y-7716667D02*
X12005957Y-7726190D01*
X12005957Y-7726190D02*
X11996433Y-7735714D01*
X11996433Y-7735714D02*
X11986909Y-7754762D01*
X12282148Y-7640476D02*
X12186909Y-7640476D01*
X12186909Y-7640476D02*
X12177386Y-7735714D01*
X12177386Y-7735714D02*
X12186909Y-7726190D01*
X12186909Y-7726190D02*
X12205957Y-7716667D01*
X12205957Y-7716667D02*
X12253576Y-7716667D01*
X12253576Y-7716667D02*
X12272624Y-7726190D01*
X12272624Y-7726190D02*
X12282148Y-7735714D01*
X12282148Y-7735714D02*
X12291671Y-7754762D01*
X12291671Y-7754762D02*
X12291671Y-7802381D01*
X12291671Y-7802381D02*
X12282148Y-7821428D01*
X12282148Y-7821428D02*
X12272624Y-7830952D01*
X12272624Y-7830952D02*
X12253576Y-7840476D01*
X12253576Y-7840476D02*
X12205957Y-7840476D01*
X12205957Y-7840476D02*
X12186909Y-7830952D01*
X12186909Y-7830952D02*
X12177386Y-7821428D01*
X12415481Y-7640476D02*
X12434529Y-7640476D01*
X12434529Y-7640476D02*
X12453576Y-7650000D01*
X12453576Y-7650000D02*
X12463100Y-7659524D01*
X12463100Y-7659524D02*
X12472624Y-7678571D01*
X12472624Y-7678571D02*
X12482148Y-7716667D01*
X12482148Y-7716667D02*
X12482148Y-7764286D01*
X12482148Y-7764286D02*
X12472624Y-7802381D01*
X12472624Y-7802381D02*
X12463100Y-7821428D01*
X12463100Y-7821428D02*
X12453576Y-7830952D01*
X12453576Y-7830952D02*
X12434529Y-7840476D01*
X12434529Y-7840476D02*
X12415481Y-7840476D01*
X12415481Y-7840476D02*
X12396433Y-7830952D01*
X12396433Y-7830952D02*
X12386909Y-7821428D01*
X12386909Y-7821428D02*
X12377386Y-7802381D01*
X12377386Y-7802381D02*
X12367862Y-7764286D01*
X12367862Y-7764286D02*
X12367862Y-7716667D01*
X12367862Y-7716667D02*
X12377386Y-7678571D01*
X12377386Y-7678571D02*
X12386909Y-7659524D01*
X12386909Y-7659524D02*
X12396433Y-7650000D01*
X12396433Y-7650000D02*
X12415481Y-7640476D01*
X12567862Y-7840476D02*
X12567862Y-7707143D01*
X12567862Y-7726190D02*
X12577386Y-7716667D01*
X12577386Y-7716667D02*
X12596433Y-7707143D01*
X12596433Y-7707143D02*
X12625005Y-7707143D01*
X12625005Y-7707143D02*
X12644052Y-7716667D01*
X12644052Y-7716667D02*
X12653576Y-7735714D01*
X12653576Y-7735714D02*
X12653576Y-7840476D01*
X12653576Y-7735714D02*
X12663100Y-7716667D01*
X12663100Y-7716667D02*
X12682148Y-7707143D01*
X12682148Y-7707143D02*
X12710719Y-7707143D01*
X12710719Y-7707143D02*
X12729767Y-7716667D01*
X12729767Y-7716667D02*
X12739290Y-7735714D01*
X12739290Y-7735714D02*
X12739290Y-7840476D01*
X12834529Y-7840476D02*
X12834529Y-7707143D01*
X12834529Y-7726190D02*
X12844052Y-7716667D01*
X12844052Y-7716667D02*
X12863100Y-7707143D01*
X12863100Y-7707143D02*
X12891671Y-7707143D01*
X12891671Y-7707143D02*
X12910719Y-7716667D01*
X12910719Y-7716667D02*
X12920243Y-7735714D01*
X12920243Y-7735714D02*
X12920243Y-7840476D01*
X12920243Y-7735714D02*
X12929767Y-7716667D01*
X12929767Y-7716667D02*
X12948814Y-7707143D01*
X12948814Y-7707143D02*
X12977386Y-7707143D01*
X12977386Y-7707143D02*
X12996433Y-7716667D01*
X12996433Y-7716667D02*
X13005957Y-7735714D01*
X13005957Y-7735714D02*
X13005957Y-7840476D01*
X13364052Y-7630952D02*
X13192624Y-7888095D01*
X13588814Y-7640476D02*
X13607862Y-7640476D01*
X13607862Y-7640476D02*
X13626910Y-7650000D01*
X13626910Y-7650000D02*
X13636433Y-7659524D01*
X13636433Y-7659524D02*
X13645957Y-7678571D01*
X13645957Y-7678571D02*
X13655481Y-7716667D01*
X13655481Y-7716667D02*
X13655481Y-7764286D01*
X13655481Y-7764286D02*
X13645957Y-7802381D01*
X13645957Y-7802381D02*
X13636433Y-7821428D01*
X13636433Y-7821428D02*
X13626910Y-7830952D01*
X13626910Y-7830952D02*
X13607862Y-7840476D01*
X13607862Y-7840476D02*
X13588814Y-7840476D01*
X13588814Y-7840476D02*
X13569767Y-7830952D01*
X13569767Y-7830952D02*
X13560243Y-7821428D01*
X13560243Y-7821428D02*
X13550719Y-7802381D01*
X13550719Y-7802381D02*
X13541195Y-7764286D01*
X13541195Y-7764286D02*
X13541195Y-7716667D01*
X13541195Y-7716667D02*
X13550719Y-7678571D01*
X13550719Y-7678571D02*
X13560243Y-7659524D01*
X13560243Y-7659524D02*
X13569767Y-7650000D01*
X13569767Y-7650000D02*
X13588814Y-7640476D01*
X13741195Y-7821428D02*
X13750719Y-7830952D01*
X13750719Y-7830952D02*
X13741195Y-7840476D01*
X13741195Y-7840476D02*
X13731671Y-7830952D01*
X13731671Y-7830952D02*
X13741195Y-7821428D01*
X13741195Y-7821428D02*
X13741195Y-7840476D01*
X13874529Y-7640476D02*
X13893576Y-7640476D01*
X13893576Y-7640476D02*
X13912624Y-7650000D01*
X13912624Y-7650000D02*
X13922148Y-7659524D01*
X13922148Y-7659524D02*
X13931671Y-7678571D01*
X13931671Y-7678571D02*
X13941195Y-7716667D01*
X13941195Y-7716667D02*
X13941195Y-7764286D01*
X13941195Y-7764286D02*
X13931671Y-7802381D01*
X13931671Y-7802381D02*
X13922148Y-7821428D01*
X13922148Y-7821428D02*
X13912624Y-7830952D01*
X13912624Y-7830952D02*
X13893576Y-7840476D01*
X13893576Y-7840476D02*
X13874529Y-7840476D01*
X13874529Y-7840476D02*
X13855481Y-7830952D01*
X13855481Y-7830952D02*
X13845957Y-7821428D01*
X13845957Y-7821428D02*
X13836433Y-7802381D01*
X13836433Y-7802381D02*
X13826910Y-7764286D01*
X13826910Y-7764286D02*
X13826910Y-7716667D01*
X13826910Y-7716667D02*
X13836433Y-7678571D01*
X13836433Y-7678571D02*
X13845957Y-7659524D01*
X13845957Y-7659524D02*
X13855481Y-7650000D01*
X13855481Y-7650000D02*
X13874529Y-7640476D01*
X14017386Y-7659524D02*
X14026910Y-7650000D01*
X14026910Y-7650000D02*
X14045957Y-7640476D01*
X14045957Y-7640476D02*
X14093576Y-7640476D01*
X14093576Y-7640476D02*
X14112624Y-7650000D01*
X14112624Y-7650000D02*
X14122148Y-7659524D01*
X14122148Y-7659524D02*
X14131671Y-7678571D01*
X14131671Y-7678571D02*
X14131671Y-7697619D01*
X14131671Y-7697619D02*
X14122148Y-7726190D01*
X14122148Y-7726190D02*
X14007862Y-7840476D01*
X14007862Y-7840476D02*
X14131671Y-7840476D01*
X14312624Y-7640476D02*
X14217386Y-7640476D01*
X14217386Y-7640476D02*
X14207862Y-7735714D01*
X14207862Y-7735714D02*
X14217386Y-7726190D01*
X14217386Y-7726190D02*
X14236433Y-7716667D01*
X14236433Y-7716667D02*
X14284052Y-7716667D01*
X14284052Y-7716667D02*
X14303100Y-7726190D01*
X14303100Y-7726190D02*
X14312624Y-7735714D01*
X14312624Y-7735714D02*
X14322148Y-7754762D01*
X14322148Y-7754762D02*
X14322148Y-7802381D01*
X14322148Y-7802381D02*
X14312624Y-7821428D01*
X14312624Y-7821428D02*
X14303100Y-7830952D01*
X14303100Y-7830952D02*
X14284052Y-7840476D01*
X14284052Y-7840476D02*
X14236433Y-7840476D01*
X14236433Y-7840476D02*
X14217386Y-7830952D01*
X14217386Y-7830952D02*
X14207862Y-7821428D01*
X14493576Y-7640476D02*
X14455481Y-7640476D01*
X14455481Y-7640476D02*
X14436433Y-7650000D01*
X14436433Y-7650000D02*
X14426910Y-7659524D01*
X14426910Y-7659524D02*
X14407862Y-7688095D01*
X14407862Y-7688095D02*
X14398338Y-7726190D01*
X14398338Y-7726190D02*
X14398338Y-7802381D01*
X14398338Y-7802381D02*
X14407862Y-7821428D01*
X14407862Y-7821428D02*
X14417386Y-7830952D01*
X14417386Y-7830952D02*
X14436433Y-7840476D01*
X14436433Y-7840476D02*
X14474529Y-7840476D01*
X14474529Y-7840476D02*
X14493576Y-7830952D01*
X14493576Y-7830952D02*
X14503100Y-7821428D01*
X14503100Y-7821428D02*
X14512624Y-7802381D01*
X14512624Y-7802381D02*
X14512624Y-7754762D01*
X14512624Y-7754762D02*
X14503100Y-7735714D01*
X14503100Y-7735714D02*
X14493576Y-7726190D01*
X14493576Y-7726190D02*
X14474529Y-7716667D01*
X14474529Y-7716667D02*
X14436433Y-7716667D01*
X14436433Y-7716667D02*
X14417386Y-7726190D01*
X14417386Y-7726190D02*
X14407862Y-7735714D01*
X14407862Y-7735714D02*
X14398338Y-7754762D01*
X14588814Y-7640476D02*
X14588814Y-7678571D01*
X14665005Y-7640476D02*
X14665005Y-7678571D01*
X14927862Y-7916667D02*
X14918338Y-7907143D01*
X14918338Y-7907143D02*
X14899291Y-7878571D01*
X14899291Y-7878571D02*
X14889767Y-7859524D01*
X14889767Y-7859524D02*
X14880243Y-7830952D01*
X14880243Y-7830952D02*
X14870719Y-7783333D01*
X14870719Y-7783333D02*
X14870719Y-7745238D01*
X14870719Y-7745238D02*
X14880243Y-7697619D01*
X14880243Y-7697619D02*
X14889767Y-7669048D01*
X14889767Y-7669048D02*
X14899291Y-7650000D01*
X14899291Y-7650000D02*
X14918338Y-7621428D01*
X14918338Y-7621428D02*
X14927862Y-7611905D01*
X15108814Y-7840476D02*
X14994529Y-7840476D01*
X15051671Y-7840476D02*
X15051671Y-7640476D01*
X15051671Y-7640476D02*
X15032624Y-7669048D01*
X15032624Y-7669048D02*
X15013576Y-7688095D01*
X15013576Y-7688095D02*
X14994529Y-7697619D01*
X15232624Y-7640476D02*
X15251672Y-7640476D01*
X15251672Y-7640476D02*
X15270719Y-7650000D01*
X15270719Y-7650000D02*
X15280243Y-7659524D01*
X15280243Y-7659524D02*
X15289767Y-7678571D01*
X15289767Y-7678571D02*
X15299291Y-7716667D01*
X15299291Y-7716667D02*
X15299291Y-7764286D01*
X15299291Y-7764286D02*
X15289767Y-7802381D01*
X15289767Y-7802381D02*
X15280243Y-7821428D01*
X15280243Y-7821428D02*
X15270719Y-7830952D01*
X15270719Y-7830952D02*
X15251672Y-7840476D01*
X15251672Y-7840476D02*
X15232624Y-7840476D01*
X15232624Y-7840476D02*
X15213576Y-7830952D01*
X15213576Y-7830952D02*
X15204052Y-7821428D01*
X15204052Y-7821428D02*
X15194529Y-7802381D01*
X15194529Y-7802381D02*
X15185005Y-7764286D01*
X15185005Y-7764286D02*
X15185005Y-7716667D01*
X15185005Y-7716667D02*
X15194529Y-7678571D01*
X15194529Y-7678571D02*
X15204052Y-7659524D01*
X15204052Y-7659524D02*
X15213576Y-7650000D01*
X15213576Y-7650000D02*
X15232624Y-7640476D01*
X15505005Y-7840476D02*
X15505005Y-7640476D01*
X15590719Y-7840476D02*
X15590719Y-7735714D01*
X15590719Y-7735714D02*
X15581195Y-7716667D01*
X15581195Y-7716667D02*
X15562148Y-7707143D01*
X15562148Y-7707143D02*
X15533576Y-7707143D01*
X15533576Y-7707143D02*
X15514529Y-7716667D01*
X15514529Y-7716667D02*
X15505005Y-7726190D01*
X15714529Y-7840476D02*
X15695481Y-7830952D01*
X15695481Y-7830952D02*
X15685957Y-7821428D01*
X15685957Y-7821428D02*
X15676433Y-7802381D01*
X15676433Y-7802381D02*
X15676433Y-7745238D01*
X15676433Y-7745238D02*
X15685957Y-7726190D01*
X15685957Y-7726190D02*
X15695481Y-7716667D01*
X15695481Y-7716667D02*
X15714529Y-7707143D01*
X15714529Y-7707143D02*
X15743100Y-7707143D01*
X15743100Y-7707143D02*
X15762148Y-7716667D01*
X15762148Y-7716667D02*
X15771672Y-7726190D01*
X15771672Y-7726190D02*
X15781195Y-7745238D01*
X15781195Y-7745238D02*
X15781195Y-7802381D01*
X15781195Y-7802381D02*
X15771672Y-7821428D01*
X15771672Y-7821428D02*
X15762148Y-7830952D01*
X15762148Y-7830952D02*
X15743100Y-7840476D01*
X15743100Y-7840476D02*
X15714529Y-7840476D01*
X15895481Y-7840476D02*
X15876433Y-7830952D01*
X15876433Y-7830952D02*
X15866910Y-7811905D01*
X15866910Y-7811905D02*
X15866910Y-7640476D01*
X16047862Y-7830952D02*
X16028814Y-7840476D01*
X16028814Y-7840476D02*
X15990719Y-7840476D01*
X15990719Y-7840476D02*
X15971672Y-7830952D01*
X15971672Y-7830952D02*
X15962148Y-7811905D01*
X15962148Y-7811905D02*
X15962148Y-7735714D01*
X15962148Y-7735714D02*
X15971672Y-7716667D01*
X15971672Y-7716667D02*
X15990719Y-7707143D01*
X15990719Y-7707143D02*
X16028814Y-7707143D01*
X16028814Y-7707143D02*
X16047862Y-7716667D01*
X16047862Y-7716667D02*
X16057386Y-7735714D01*
X16057386Y-7735714D02*
X16057386Y-7754762D01*
X16057386Y-7754762D02*
X15962148Y-7773809D01*
X16133576Y-7830952D02*
X16152624Y-7840476D01*
X16152624Y-7840476D02*
X16190719Y-7840476D01*
X16190719Y-7840476D02*
X16209767Y-7830952D01*
X16209767Y-7830952D02*
X16219291Y-7811905D01*
X16219291Y-7811905D02*
X16219291Y-7802381D01*
X16219291Y-7802381D02*
X16209767Y-7783333D01*
X16209767Y-7783333D02*
X16190719Y-7773809D01*
X16190719Y-7773809D02*
X16162148Y-7773809D01*
X16162148Y-7773809D02*
X16143100Y-7764286D01*
X16143100Y-7764286D02*
X16133576Y-7745238D01*
X16133576Y-7745238D02*
X16133576Y-7735714D01*
X16133576Y-7735714D02*
X16143100Y-7716667D01*
X16143100Y-7716667D02*
X16162148Y-7707143D01*
X16162148Y-7707143D02*
X16190719Y-7707143D01*
X16190719Y-7707143D02*
X16209767Y-7716667D01*
X16425005Y-7764286D02*
X16577386Y-7764286D01*
X16501195Y-7840476D02*
X16501195Y-7688095D01*
X16897386Y-7840476D02*
X16783100Y-7840476D01*
X16840243Y-7840476D02*
X16840243Y-7640476D01*
X16840243Y-7640476D02*
X16821195Y-7669048D01*
X16821195Y-7669048D02*
X16802148Y-7688095D01*
X16802148Y-7688095D02*
X16783100Y-7697619D01*
X17021195Y-7640476D02*
X17040243Y-7640476D01*
X17040243Y-7640476D02*
X17059291Y-7650000D01*
X17059291Y-7650000D02*
X17068815Y-7659524D01*
X17068815Y-7659524D02*
X17078338Y-7678571D01*
X17078338Y-7678571D02*
X17087862Y-7716667D01*
X17087862Y-7716667D02*
X17087862Y-7764286D01*
X17087862Y-7764286D02*
X17078338Y-7802381D01*
X17078338Y-7802381D02*
X17068815Y-7821428D01*
X17068815Y-7821428D02*
X17059291Y-7830952D01*
X17059291Y-7830952D02*
X17040243Y-7840476D01*
X17040243Y-7840476D02*
X17021195Y-7840476D01*
X17021195Y-7840476D02*
X17002148Y-7830952D01*
X17002148Y-7830952D02*
X16992624Y-7821428D01*
X16992624Y-7821428D02*
X16983100Y-7802381D01*
X16983100Y-7802381D02*
X16973576Y-7764286D01*
X16973576Y-7764286D02*
X16973576Y-7716667D01*
X16973576Y-7716667D02*
X16983100Y-7678571D01*
X16983100Y-7678571D02*
X16992624Y-7659524D01*
X16992624Y-7659524D02*
X17002148Y-7650000D01*
X17002148Y-7650000D02*
X17021195Y-7640476D01*
X17284053Y-7830952D02*
X17303100Y-7840476D01*
X17303100Y-7840476D02*
X17341195Y-7840476D01*
X17341195Y-7840476D02*
X17360243Y-7830952D01*
X17360243Y-7830952D02*
X17369767Y-7811905D01*
X17369767Y-7811905D02*
X17369767Y-7802381D01*
X17369767Y-7802381D02*
X17360243Y-7783333D01*
X17360243Y-7783333D02*
X17341195Y-7773809D01*
X17341195Y-7773809D02*
X17312624Y-7773809D01*
X17312624Y-7773809D02*
X17293576Y-7764286D01*
X17293576Y-7764286D02*
X17284053Y-7745238D01*
X17284053Y-7745238D02*
X17284053Y-7735714D01*
X17284053Y-7735714D02*
X17293576Y-7716667D01*
X17293576Y-7716667D02*
X17312624Y-7707143D01*
X17312624Y-7707143D02*
X17341195Y-7707143D01*
X17341195Y-7707143D02*
X17360243Y-7716667D01*
X17484053Y-7840476D02*
X17465005Y-7830952D01*
X17465005Y-7830952D02*
X17455481Y-7811905D01*
X17455481Y-7811905D02*
X17455481Y-7640476D01*
X17588815Y-7840476D02*
X17569767Y-7830952D01*
X17569767Y-7830952D02*
X17560243Y-7821428D01*
X17560243Y-7821428D02*
X17550719Y-7802381D01*
X17550719Y-7802381D02*
X17550719Y-7745238D01*
X17550719Y-7745238D02*
X17560243Y-7726190D01*
X17560243Y-7726190D02*
X17569767Y-7716667D01*
X17569767Y-7716667D02*
X17588815Y-7707143D01*
X17588815Y-7707143D02*
X17617386Y-7707143D01*
X17617386Y-7707143D02*
X17636434Y-7716667D01*
X17636434Y-7716667D02*
X17645957Y-7726190D01*
X17645957Y-7726190D02*
X17655481Y-7745238D01*
X17655481Y-7745238D02*
X17655481Y-7802381D01*
X17655481Y-7802381D02*
X17645957Y-7821428D01*
X17645957Y-7821428D02*
X17636434Y-7830952D01*
X17636434Y-7830952D02*
X17617386Y-7840476D01*
X17617386Y-7840476D02*
X17588815Y-7840476D01*
X17712624Y-7707143D02*
X17788815Y-7707143D01*
X17741196Y-7640476D02*
X17741196Y-7811905D01*
X17741196Y-7811905D02*
X17750719Y-7830952D01*
X17750719Y-7830952D02*
X17769767Y-7840476D01*
X17769767Y-7840476D02*
X17788815Y-7840476D01*
X17845957Y-7830952D02*
X17865005Y-7840476D01*
X17865005Y-7840476D02*
X17903100Y-7840476D01*
X17903100Y-7840476D02*
X17922148Y-7830952D01*
X17922148Y-7830952D02*
X17931672Y-7811905D01*
X17931672Y-7811905D02*
X17931672Y-7802381D01*
X17931672Y-7802381D02*
X17922148Y-7783333D01*
X17922148Y-7783333D02*
X17903100Y-7773809D01*
X17903100Y-7773809D02*
X17874529Y-7773809D01*
X17874529Y-7773809D02*
X17855481Y-7764286D01*
X17855481Y-7764286D02*
X17845957Y-7745238D01*
X17845957Y-7745238D02*
X17845957Y-7735714D01*
X17845957Y-7735714D02*
X17855481Y-7716667D01*
X17855481Y-7716667D02*
X17874529Y-7707143D01*
X17874529Y-7707143D02*
X17903100Y-7707143D01*
X17903100Y-7707143D02*
X17922148Y-7716667D01*
X17998338Y-7916667D02*
X18007862Y-7907143D01*
X18007862Y-7907143D02*
X18026910Y-7878571D01*
X18026910Y-7878571D02*
X18036434Y-7859524D01*
X18036434Y-7859524D02*
X18045957Y-7830952D01*
X18045957Y-7830952D02*
X18055481Y-7783333D01*
X18055481Y-7783333D02*
X18055481Y-7745238D01*
X18055481Y-7745238D02*
X18045957Y-7697619D01*
X18045957Y-7697619D02*
X18036434Y-7669048D01*
X18036434Y-7669048D02*
X18026910Y-7650000D01*
X18026910Y-7650000D02*
X18007862Y-7621428D01*
X18007862Y-7621428D02*
X17998338Y-7611905D01*
M02*
