%TF.GenerationSoftware,KiCad,Pcbnew,7.0.1*%
%TF.CreationDate,2023-06-05T15:43:24-04:00*%
%TF.ProjectId,imu-stamp,696d752d-7374-4616-9d70-2e6b69636164,rev?*%
%TF.SameCoordinates,Original*%
%TF.FileFunction,Copper,L3,Inr*%
%TF.FilePolarity,Positive*%
%FSLAX46Y46*%
G04 Gerber Fmt 4.6, Leading zero omitted, Abs format (unit mm)*
G04 Created by KiCad (PCBNEW 7.0.1) date 2023-06-05 15:43:24*
%MOMM*%
%LPD*%
G01*
G04 APERTURE LIST*
%TA.AperFunction,ComponentPad*%
%ADD10C,1.016000*%
%TD*%
%TA.AperFunction,ViaPad*%
%ADD11C,0.360000*%
%TD*%
%TA.AperFunction,Profile*%
%ADD12C,0.100000*%
%TD*%
G04 APERTURE END LIST*
D10*
%TO.N,3.3V*%
%TO.C,P2*%
X133096000Y-67183000D03*
%TO.N,/XORL2*%
X133096000Y-65913000D03*
%TO.N,/XORL1*%
X133096000Y-64643000D03*
%TO.N,GND*%
X133096000Y-63373000D03*
X133096000Y-62103000D03*
%TD*%
%TO.N,VCC*%
%TO.C,P1*%
X115316000Y-62103000D03*
%TO.N,GND*%
X115316000Y-63373000D03*
%TO.N,/SCL*%
X115316000Y-64643000D03*
%TO.N,/SDA*%
X115316000Y-65913000D03*
%TO.N,/EN*%
X115316000Y-67183000D03*
%TD*%
D11*
%TO.N,GND*%
X122056500Y-61214000D03*
X123497500Y-61214000D03*
X123418600Y-67744400D03*
X128590000Y-61214000D03*
X118796400Y-62179200D03*
X124333000Y-63322200D03*
X127621407Y-66604960D03*
X122254400Y-65328800D03*
X119202800Y-62179200D03*
X119997000Y-63187800D03*
X120624600Y-67716400D03*
X118287800Y-68173600D03*
X119024400Y-61214000D03*
X119659400Y-65328800D03*
X125067000Y-61214000D03*
X124360181Y-65339371D03*
X125908423Y-65276251D03*
X127000000Y-61214000D03*
X118287800Y-67767200D03*
X130505200Y-61214000D03*
X120560902Y-63870152D03*
X121801701Y-65345900D03*
%TO.N,3.3V*%
X116789200Y-67716400D03*
X124942600Y-65227200D03*
X124007003Y-61214000D03*
X129836094Y-67780853D03*
X131876800Y-61214000D03*
X120954800Y-61214000D03*
X125755400Y-61214000D03*
X116789200Y-68122800D03*
X120319800Y-61214000D03*
X119822000Y-67711200D03*
X131257000Y-67183000D03*
X119659400Y-63810000D03*
X132207000Y-65512000D03*
X122283200Y-68072000D03*
X126771400Y-65227200D03*
%TO.N,VCC*%
X117246400Y-62179200D03*
X117652800Y-62179200D03*
%TO.N,/EN*%
X118821200Y-68199000D03*
%TO.N,/SDA*%
X128529512Y-64001781D03*
%TO.N,/SCL*%
X128530341Y-65514477D03*
%TO.N,/SCL_1*%
X128092200Y-66865733D03*
X124894070Y-62878892D03*
X124494658Y-66181129D03*
%TO.N,/SDA_1*%
X128659992Y-67271433D03*
X125653800Y-63388389D03*
X128290616Y-63128008D03*
X123909713Y-65101313D03*
%TO.N,/SCL_0*%
X128270000Y-65005057D03*
X130391091Y-68031855D03*
X126454153Y-68186553D03*
X121970800Y-66171000D03*
X120549633Y-62853362D03*
%TO.N,/SDA_0*%
X128669172Y-67780853D03*
X128524000Y-64511252D03*
X121364077Y-63362124D03*
X120972498Y-65227200D03*
X125165018Y-67764000D03*
%TD*%
%TA.AperFunction,Conductor*%
%TO.N,VCC*%
G36*
X118827829Y-60844803D02*
G01*
X118850711Y-60874624D01*
X118852350Y-60912176D01*
X118832154Y-60943876D01*
X118770363Y-60995726D01*
X118767316Y-60998283D01*
X118709041Y-61099216D01*
X118688802Y-61214000D01*
X118709041Y-61328783D01*
X118731621Y-61367891D01*
X118767317Y-61429718D01*
X118856601Y-61504636D01*
X118966124Y-61544500D01*
X119082675Y-61544500D01*
X119082676Y-61544500D01*
X119192199Y-61504636D01*
X119277326Y-61433205D01*
X119321134Y-61418690D01*
X119362961Y-61438194D01*
X119380000Y-61481084D01*
X119380000Y-61802726D01*
X119367633Y-61840049D01*
X119335425Y-61862600D01*
X119296124Y-61861457D01*
X119261076Y-61848700D01*
X119144524Y-61848700D01*
X119092804Y-61867525D01*
X119024646Y-61892333D01*
X119023917Y-61890330D01*
X118999591Y-61899180D01*
X118975282Y-61890330D01*
X118974554Y-61892333D01*
X118906396Y-61867525D01*
X118854676Y-61848700D01*
X118738124Y-61848700D01*
X118628601Y-61888564D01*
X118615949Y-61899180D01*
X118539316Y-61963483D01*
X118481041Y-62064416D01*
X118460802Y-62179200D01*
X118481041Y-62293983D01*
X118506728Y-62338473D01*
X118539317Y-62394918D01*
X118628601Y-62469836D01*
X118738124Y-62509700D01*
X118854675Y-62509700D01*
X118854676Y-62509700D01*
X118964199Y-62469836D01*
X118964200Y-62469834D01*
X118974554Y-62466066D01*
X118975283Y-62468069D01*
X118999591Y-62459218D01*
X119023916Y-62468069D01*
X119024646Y-62466066D01*
X119034999Y-62469834D01*
X119035001Y-62469836D01*
X119144524Y-62509700D01*
X119261075Y-62509700D01*
X119261076Y-62509700D01*
X119296124Y-62496942D01*
X119335425Y-62495800D01*
X119367633Y-62518351D01*
X119380000Y-62555674D01*
X119380000Y-63616189D01*
X119371627Y-63647439D01*
X119344041Y-63695218D01*
X119323802Y-63810000D01*
X119344041Y-63924781D01*
X119371627Y-63972561D01*
X119380000Y-64003811D01*
X119380000Y-65134989D01*
X119371627Y-65166239D01*
X119344041Y-65214018D01*
X119344040Y-65214019D01*
X119344041Y-65214019D01*
X119341866Y-65226353D01*
X119320491Y-65263377D01*
X119280316Y-65278000D01*
X115757061Y-65278000D01*
X115721557Y-65266937D01*
X115698623Y-65237663D01*
X115696377Y-65200543D01*
X115715616Y-65168718D01*
X115742263Y-65145109D01*
X115812514Y-65082873D01*
X115903355Y-64951268D01*
X115960061Y-64801747D01*
X115979336Y-64643000D01*
X115960061Y-64484253D01*
X115903355Y-64334732D01*
X115812514Y-64203127D01*
X115692818Y-64097085D01*
X115662220Y-64081026D01*
X115628523Y-64063340D01*
X115599130Y-64030161D01*
X115599131Y-63985836D01*
X115628522Y-63952659D01*
X115692818Y-63918915D01*
X115812514Y-63812873D01*
X115903355Y-63681268D01*
X115960061Y-63531747D01*
X115979336Y-63373000D01*
X115975534Y-63341691D01*
X115960061Y-63214252D01*
X115920806Y-63110747D01*
X115903355Y-63064732D01*
X115812514Y-62933127D01*
X115692818Y-62827085D01*
X115656560Y-62808055D01*
X115551223Y-62752769D01*
X115491043Y-62737937D01*
X115456801Y-62715798D01*
X115443500Y-62677253D01*
X115443500Y-60896000D01*
X115461806Y-60851806D01*
X115506000Y-60833500D01*
X118791980Y-60833500D01*
X118827829Y-60844803D01*
G37*
%TD.AperFunction*%
%TD*%
%TA.AperFunction,Conductor*%
%TO.N,3.3V*%
G36*
X121859929Y-60844803D02*
G01*
X121882811Y-60874624D01*
X121884450Y-60912176D01*
X121864254Y-60943876D01*
X121799417Y-60998282D01*
X121799416Y-60998283D01*
X121741141Y-61099216D01*
X121720902Y-61214000D01*
X121741141Y-61328783D01*
X121786447Y-61407253D01*
X121799417Y-61429718D01*
X121888701Y-61504636D01*
X121998224Y-61544500D01*
X122114775Y-61544500D01*
X122114776Y-61544500D01*
X122224299Y-61504636D01*
X122313583Y-61429718D01*
X122371859Y-61328781D01*
X122392098Y-61214000D01*
X122371859Y-61099219D01*
X122371858Y-61099217D01*
X122371858Y-61099216D01*
X122339278Y-61042787D01*
X122313583Y-60998282D01*
X122248745Y-60943876D01*
X122228550Y-60912176D01*
X122230189Y-60874624D01*
X122253071Y-60844803D01*
X122288920Y-60833500D01*
X123265080Y-60833500D01*
X123300929Y-60844803D01*
X123323811Y-60874624D01*
X123325450Y-60912176D01*
X123305254Y-60943876D01*
X123240417Y-60998282D01*
X123240416Y-60998283D01*
X123182141Y-61099216D01*
X123161902Y-61214000D01*
X123182141Y-61328783D01*
X123227447Y-61407253D01*
X123240417Y-61429718D01*
X123329701Y-61504636D01*
X123439224Y-61544500D01*
X123555775Y-61544500D01*
X123555776Y-61544500D01*
X123665299Y-61504636D01*
X123754583Y-61429718D01*
X123812859Y-61328781D01*
X123833098Y-61214000D01*
X123812859Y-61099219D01*
X123812858Y-61099217D01*
X123812858Y-61099216D01*
X123780278Y-61042787D01*
X123754583Y-60998282D01*
X123689745Y-60943876D01*
X123669550Y-60912176D01*
X123671189Y-60874624D01*
X123694071Y-60844803D01*
X123729920Y-60833500D01*
X124834580Y-60833500D01*
X124870429Y-60844803D01*
X124893311Y-60874624D01*
X124894950Y-60912176D01*
X124874754Y-60943876D01*
X124809917Y-60998282D01*
X124809916Y-60998283D01*
X124751641Y-61099216D01*
X124731402Y-61214000D01*
X124751641Y-61328783D01*
X124796947Y-61407253D01*
X124809917Y-61429718D01*
X124899201Y-61504636D01*
X125008724Y-61544500D01*
X125125275Y-61544500D01*
X125125276Y-61544500D01*
X125234799Y-61504636D01*
X125324083Y-61429718D01*
X125382359Y-61328781D01*
X125402598Y-61214000D01*
X125382359Y-61099219D01*
X125382358Y-61099217D01*
X125382358Y-61099216D01*
X125349778Y-61042787D01*
X125324083Y-60998282D01*
X125259245Y-60943876D01*
X125239050Y-60912176D01*
X125240689Y-60874624D01*
X125263571Y-60844803D01*
X125299420Y-60833500D01*
X126767580Y-60833500D01*
X126803429Y-60844803D01*
X126826311Y-60874624D01*
X126827950Y-60912176D01*
X126807754Y-60943876D01*
X126742917Y-60998282D01*
X126742916Y-60998283D01*
X126684641Y-61099216D01*
X126664402Y-61214000D01*
X126684641Y-61328783D01*
X126729947Y-61407253D01*
X126742917Y-61429718D01*
X126832201Y-61504636D01*
X126941724Y-61544500D01*
X127058275Y-61544500D01*
X127058276Y-61544500D01*
X127167799Y-61504636D01*
X127257083Y-61429718D01*
X127315359Y-61328781D01*
X127335598Y-61214000D01*
X127315359Y-61099219D01*
X127315358Y-61099217D01*
X127315358Y-61099216D01*
X127282778Y-61042787D01*
X127257083Y-60998282D01*
X127192245Y-60943876D01*
X127172050Y-60912176D01*
X127173689Y-60874624D01*
X127196571Y-60844803D01*
X127232420Y-60833500D01*
X128357580Y-60833500D01*
X128393429Y-60844803D01*
X128416311Y-60874624D01*
X128417950Y-60912176D01*
X128397754Y-60943876D01*
X128332917Y-60998282D01*
X128332916Y-60998283D01*
X128274641Y-61099216D01*
X128254402Y-61214000D01*
X128274641Y-61328783D01*
X128319947Y-61407253D01*
X128332917Y-61429718D01*
X128422201Y-61504636D01*
X128531724Y-61544500D01*
X128648275Y-61544500D01*
X128648276Y-61544500D01*
X128757799Y-61504636D01*
X128847083Y-61429718D01*
X128905359Y-61328781D01*
X128925598Y-61214000D01*
X128905359Y-61099219D01*
X128905358Y-61099217D01*
X128905358Y-61099216D01*
X128872778Y-61042787D01*
X128847083Y-60998282D01*
X128782245Y-60943876D01*
X128762050Y-60912176D01*
X128763689Y-60874624D01*
X128786571Y-60844803D01*
X128822420Y-60833500D01*
X130272780Y-60833500D01*
X130308629Y-60844803D01*
X130331511Y-60874624D01*
X130333150Y-60912176D01*
X130312954Y-60943876D01*
X130248117Y-60998282D01*
X130248116Y-60998283D01*
X130189841Y-61099216D01*
X130169602Y-61214000D01*
X130189841Y-61328783D01*
X130235147Y-61407253D01*
X130248117Y-61429718D01*
X130337401Y-61504636D01*
X130446924Y-61544500D01*
X130563475Y-61544500D01*
X130563476Y-61544500D01*
X130672999Y-61504636D01*
X130762283Y-61429718D01*
X130820559Y-61328781D01*
X130840798Y-61214000D01*
X130820559Y-61099219D01*
X130820558Y-61099217D01*
X130820558Y-61099216D01*
X130787978Y-61042787D01*
X130762283Y-60998282D01*
X130697445Y-60943876D01*
X130677250Y-60912176D01*
X130678889Y-60874624D01*
X130701771Y-60844803D01*
X130737620Y-60833500D01*
X132906000Y-60833500D01*
X132950194Y-60851806D01*
X132968500Y-60896000D01*
X132968500Y-61407253D01*
X132955199Y-61445798D01*
X132920957Y-61467937D01*
X132860776Y-61482769D01*
X132719182Y-61557085D01*
X132599485Y-61663127D01*
X132508645Y-61794731D01*
X132451938Y-61944252D01*
X132432663Y-62102999D01*
X132451938Y-62261747D01*
X132502444Y-62394918D01*
X132508645Y-62411268D01*
X132599486Y-62542873D01*
X132719182Y-62648915D01*
X132780377Y-62681032D01*
X132783476Y-62682659D01*
X132812869Y-62715837D01*
X132812869Y-62760163D01*
X132783476Y-62793341D01*
X132719180Y-62827086D01*
X132599485Y-62933127D01*
X132508645Y-63064731D01*
X132451938Y-63214252D01*
X132432663Y-63372999D01*
X132451938Y-63531747D01*
X132504857Y-63671281D01*
X132508645Y-63681268D01*
X132599486Y-63812873D01*
X132719182Y-63918915D01*
X132780377Y-63951032D01*
X132783476Y-63952659D01*
X132812869Y-63985837D01*
X132812869Y-64030163D01*
X132783476Y-64063341D01*
X132719180Y-64097086D01*
X132599485Y-64203127D01*
X132508645Y-64334731D01*
X132451938Y-64484252D01*
X132432663Y-64643000D01*
X132451938Y-64801747D01*
X132508645Y-64951268D01*
X132584065Y-65060533D01*
X132599486Y-65082873D01*
X132719182Y-65188915D01*
X132779883Y-65220773D01*
X132783476Y-65222659D01*
X132812869Y-65255837D01*
X132812869Y-65300163D01*
X132783476Y-65333341D01*
X132719180Y-65367086D01*
X132599485Y-65473127D01*
X132508645Y-65604731D01*
X132451938Y-65754252D01*
X132432663Y-65913000D01*
X132451938Y-66071747D01*
X132493422Y-66181128D01*
X132508645Y-66221268D01*
X132599486Y-66352873D01*
X132719182Y-66458915D01*
X132778745Y-66490176D01*
X132860776Y-66533230D01*
X132920957Y-66548063D01*
X132955199Y-66570202D01*
X132968500Y-66608747D01*
X132968500Y-68390000D01*
X132950194Y-68434194D01*
X132906000Y-68452500D01*
X130556148Y-68452500D01*
X130515974Y-68437878D01*
X130494598Y-68400853D01*
X130502021Y-68358751D01*
X130534769Y-68331270D01*
X130558890Y-68322491D01*
X130648174Y-68247573D01*
X130706450Y-68146636D01*
X130726689Y-68031855D01*
X130706450Y-67917074D01*
X130706449Y-67917072D01*
X130706449Y-67917071D01*
X130673025Y-67859181D01*
X130648174Y-67816137D01*
X130558890Y-67741219D01*
X130449367Y-67701355D01*
X130332815Y-67701355D01*
X130223292Y-67741219D01*
X130223290Y-67741220D01*
X130223291Y-67741220D01*
X130134007Y-67816138D01*
X130075732Y-67917071D01*
X130059869Y-68007036D01*
X130055493Y-68031855D01*
X130062239Y-68070115D01*
X130075732Y-68146638D01*
X130105964Y-68199000D01*
X130134008Y-68247573D01*
X130223292Y-68322491D01*
X130247412Y-68331270D01*
X130280161Y-68358751D01*
X130287584Y-68400853D01*
X130266208Y-68437878D01*
X130226034Y-68452500D01*
X126790489Y-68452500D01*
X126750315Y-68437878D01*
X126728938Y-68400853D01*
X126736363Y-68358750D01*
X126769511Y-68301336D01*
X126769511Y-68301335D01*
X126769512Y-68301334D01*
X126789751Y-68186553D01*
X126769512Y-68071772D01*
X126769511Y-68071770D01*
X126769511Y-68071769D01*
X126732137Y-68007036D01*
X126711236Y-67970835D01*
X126621952Y-67895917D01*
X126512429Y-67856053D01*
X126395877Y-67856053D01*
X126286354Y-67895917D01*
X126197588Y-67970400D01*
X126197069Y-67970836D01*
X126138794Y-68071769D01*
X126118555Y-68186552D01*
X126138794Y-68301336D01*
X126171943Y-68358750D01*
X126179368Y-68400853D01*
X126157991Y-68437878D01*
X126117817Y-68452500D01*
X119164723Y-68452500D01*
X119124549Y-68437878D01*
X119103173Y-68400853D01*
X119110596Y-68358750D01*
X119126462Y-68331269D01*
X119136559Y-68313781D01*
X119156798Y-68199000D01*
X119136559Y-68084219D01*
X119136558Y-68084217D01*
X119136558Y-68084216D01*
X119091996Y-68007034D01*
X119078283Y-67983282D01*
X118988999Y-67908364D01*
X118879476Y-67868500D01*
X118762924Y-67868500D01*
X118696466Y-67892689D01*
X118653714Y-67892689D01*
X118620963Y-67865208D01*
X118613540Y-67823105D01*
X118623398Y-67767200D01*
X118614441Y-67716400D01*
X120289002Y-67716400D01*
X120309241Y-67831183D01*
X120353803Y-67908365D01*
X120367517Y-67932118D01*
X120456801Y-68007036D01*
X120566324Y-68046900D01*
X120682875Y-68046900D01*
X120682876Y-68046900D01*
X120792399Y-68007036D01*
X120881683Y-67932118D01*
X120939959Y-67831181D01*
X120955261Y-67744400D01*
X123083002Y-67744400D01*
X123103241Y-67859183D01*
X123154631Y-67948191D01*
X123161517Y-67960118D01*
X123250801Y-68035036D01*
X123360324Y-68074900D01*
X123476875Y-68074900D01*
X123476876Y-68074900D01*
X123586399Y-68035036D01*
X123675683Y-67960118D01*
X123733959Y-67859181D01*
X123750742Y-67764000D01*
X124829420Y-67764000D01*
X124849659Y-67878783D01*
X124871767Y-67917074D01*
X124907935Y-67979718D01*
X124997219Y-68054636D01*
X125106742Y-68094500D01*
X125223293Y-68094500D01*
X125223294Y-68094500D01*
X125332817Y-68054636D01*
X125422101Y-67979718D01*
X125473491Y-67890707D01*
X125480376Y-67878783D01*
X125480376Y-67878782D01*
X125480377Y-67878781D01*
X125500616Y-67764000D01*
X125480377Y-67649219D01*
X125480376Y-67649217D01*
X125480376Y-67649216D01*
X125430718Y-67563207D01*
X125422101Y-67548282D01*
X125332817Y-67473364D01*
X125223294Y-67433500D01*
X125106742Y-67433500D01*
X124997219Y-67473364D01*
X124931293Y-67528682D01*
X124907934Y-67548283D01*
X124849659Y-67649216D01*
X124829420Y-67764000D01*
X123750742Y-67764000D01*
X123754198Y-67744400D01*
X123733959Y-67629619D01*
X123733958Y-67629617D01*
X123733958Y-67629616D01*
X123688847Y-67551483D01*
X123675683Y-67528682D01*
X123586399Y-67453764D01*
X123476876Y-67413900D01*
X123360324Y-67413900D01*
X123250801Y-67453764D01*
X123206105Y-67491268D01*
X123161516Y-67528683D01*
X123103241Y-67629616D01*
X123083002Y-67744400D01*
X120955261Y-67744400D01*
X120960198Y-67716400D01*
X120939959Y-67601619D01*
X120939958Y-67601617D01*
X120939958Y-67601616D01*
X120893474Y-67521105D01*
X120881683Y-67500682D01*
X120792399Y-67425764D01*
X120682876Y-67385900D01*
X120566324Y-67385900D01*
X120456801Y-67425764D01*
X120400073Y-67473364D01*
X120367516Y-67500683D01*
X120309241Y-67601616D01*
X120289002Y-67716400D01*
X118614441Y-67716400D01*
X118603159Y-67652419D01*
X118603158Y-67652417D01*
X118603158Y-67652416D01*
X118570578Y-67595987D01*
X118544883Y-67551482D01*
X118455599Y-67476564D01*
X118346076Y-67436700D01*
X118229524Y-67436700D01*
X118120001Y-67476564D01*
X118034529Y-67548283D01*
X118030716Y-67551483D01*
X117972441Y-67652416D01*
X117956783Y-67741219D01*
X117952202Y-67767200D01*
X117958555Y-67803230D01*
X117972441Y-67881981D01*
X118005447Y-67939149D01*
X118013820Y-67970399D01*
X118005447Y-68001648D01*
X117972441Y-68058816D01*
X117956956Y-68146636D01*
X117952202Y-68173600D01*
X117972441Y-68288381D01*
X117997202Y-68331269D01*
X118013069Y-68358750D01*
X118020492Y-68400853D01*
X117999116Y-68437878D01*
X117958942Y-68452500D01*
X115506000Y-68452500D01*
X115461806Y-68434194D01*
X115443500Y-68390000D01*
X115443500Y-67878747D01*
X115456801Y-67840202D01*
X115491043Y-67818063D01*
X115551223Y-67803230D01*
X115593860Y-67780852D01*
X115692818Y-67728915D01*
X115812514Y-67622873D01*
X115903355Y-67491268D01*
X115960061Y-67341747D01*
X115979336Y-67183000D01*
X115960061Y-67024253D01*
X115903355Y-66874732D01*
X115812514Y-66743127D01*
X115692818Y-66637085D01*
X115662220Y-66621026D01*
X115631610Y-66604960D01*
X127285809Y-66604960D01*
X127306048Y-66719743D01*
X127357438Y-66808751D01*
X127364324Y-66820678D01*
X127453608Y-66895596D01*
X127563131Y-66935460D01*
X127679683Y-66935460D01*
X127693521Y-66930422D01*
X127729309Y-66928336D01*
X127760357Y-66946259D01*
X127776449Y-66978296D01*
X127776840Y-66980513D01*
X127776841Y-66980514D01*
X127835117Y-67081451D01*
X127924401Y-67156369D01*
X128033924Y-67196233D01*
X128150475Y-67196233D01*
X128150476Y-67196233D01*
X128248768Y-67160457D01*
X128291518Y-67160457D01*
X128324268Y-67187938D01*
X128331693Y-67230041D01*
X128324394Y-67271432D01*
X128344633Y-67386216D01*
X128408419Y-67496695D01*
X128407004Y-67497511D01*
X128420625Y-67521105D01*
X128413201Y-67563207D01*
X128353813Y-67666071D01*
X128333574Y-67780852D01*
X128353813Y-67895636D01*
X128396979Y-67970400D01*
X128412089Y-67996571D01*
X128501373Y-68071489D01*
X128610896Y-68111353D01*
X128727447Y-68111353D01*
X128727448Y-68111353D01*
X128836971Y-68071489D01*
X128926255Y-67996571D01*
X128984531Y-67895634D01*
X129004770Y-67780853D01*
X128984531Y-67666072D01*
X128984530Y-67666070D01*
X128984530Y-67666069D01*
X128920745Y-67555591D01*
X128922159Y-67554774D01*
X128908538Y-67531182D01*
X128915962Y-67489078D01*
X128923187Y-67476565D01*
X128975351Y-67386214D01*
X128995590Y-67271433D01*
X128975351Y-67156652D01*
X128975350Y-67156650D01*
X128975350Y-67156649D01*
X128942770Y-67100220D01*
X128917075Y-67055715D01*
X128827791Y-66980797D01*
X128718268Y-66940933D01*
X128601716Y-66940933D01*
X128503425Y-66976708D01*
X128460672Y-66976708D01*
X128427922Y-66949226D01*
X128420499Y-66907125D01*
X128427798Y-66865733D01*
X128407559Y-66750952D01*
X128407558Y-66750950D01*
X128407558Y-66750949D01*
X128374978Y-66694520D01*
X128349283Y-66650015D01*
X128259999Y-66575097D01*
X128150476Y-66535233D01*
X128033924Y-66535233D01*
X128020081Y-66540271D01*
X127984292Y-66542354D01*
X127953246Y-66524429D01*
X127937157Y-66492393D01*
X127936766Y-66490178D01*
X127907627Y-66439710D01*
X127878490Y-66389242D01*
X127789206Y-66314324D01*
X127679683Y-66274460D01*
X127563131Y-66274460D01*
X127453608Y-66314324D01*
X127367334Y-66386716D01*
X127364323Y-66389243D01*
X127306048Y-66490176D01*
X127285809Y-66604960D01*
X115631610Y-66604960D01*
X115628523Y-66603340D01*
X115599130Y-66570161D01*
X115599131Y-66525836D01*
X115628522Y-66492659D01*
X115692818Y-66458915D01*
X115812514Y-66352873D01*
X115903355Y-66221268D01*
X115922419Y-66171000D01*
X121635202Y-66171000D01*
X121655441Y-66285783D01*
X121706831Y-66374791D01*
X121713717Y-66386718D01*
X121803001Y-66461636D01*
X121912524Y-66501500D01*
X122029075Y-66501500D01*
X122029076Y-66501500D01*
X122138599Y-66461636D01*
X122227883Y-66386718D01*
X122286159Y-66285781D01*
X122304612Y-66181128D01*
X124159060Y-66181128D01*
X124179299Y-66295912D01*
X124230689Y-66384920D01*
X124237575Y-66396847D01*
X124326859Y-66471765D01*
X124436382Y-66511629D01*
X124552933Y-66511629D01*
X124552934Y-66511629D01*
X124662457Y-66471765D01*
X124751741Y-66396847D01*
X124810017Y-66295910D01*
X124830256Y-66181129D01*
X124810017Y-66066348D01*
X124810016Y-66066346D01*
X124810016Y-66066345D01*
X124777436Y-66009916D01*
X124751741Y-65965411D01*
X124662457Y-65890493D01*
X124552934Y-65850629D01*
X124436382Y-65850629D01*
X124326859Y-65890493D01*
X124326857Y-65890494D01*
X124326858Y-65890494D01*
X124237574Y-65965412D01*
X124179299Y-66066345D01*
X124159060Y-66181128D01*
X122304612Y-66181128D01*
X122306398Y-66171000D01*
X122286159Y-66056219D01*
X122286158Y-66056217D01*
X122286158Y-66056216D01*
X122253578Y-65999787D01*
X122227883Y-65955282D01*
X122138599Y-65880364D01*
X122029076Y-65840500D01*
X121912524Y-65840500D01*
X121803001Y-65880364D01*
X121802999Y-65880365D01*
X121803000Y-65880365D01*
X121713716Y-65955283D01*
X121655441Y-66056216D01*
X121635202Y-66171000D01*
X115922419Y-66171000D01*
X115960061Y-66071747D01*
X115979336Y-65913000D01*
X115960061Y-65754253D01*
X115950936Y-65730193D01*
X115907880Y-65616663D01*
X115906286Y-65577112D01*
X115928772Y-65544535D01*
X115966318Y-65532000D01*
X119364650Y-65532000D01*
X119404824Y-65546622D01*
X119414914Y-65555088D01*
X119491601Y-65619436D01*
X119601124Y-65659300D01*
X119717675Y-65659300D01*
X119717676Y-65659300D01*
X119827199Y-65619436D01*
X119916483Y-65544518D01*
X119974759Y-65443581D01*
X119994998Y-65328800D01*
X119977083Y-65227200D01*
X120636900Y-65227200D01*
X120657139Y-65341983D01*
X120694609Y-65406881D01*
X120715415Y-65442918D01*
X120804699Y-65517836D01*
X120914222Y-65557700D01*
X121030773Y-65557700D01*
X121030774Y-65557700D01*
X121140297Y-65517836D01*
X121229581Y-65442918D01*
X121285594Y-65345900D01*
X121466103Y-65345900D01*
X121469839Y-65367086D01*
X121486342Y-65460683D01*
X121517401Y-65514477D01*
X121544618Y-65561618D01*
X121633902Y-65636536D01*
X121743425Y-65676400D01*
X121859976Y-65676400D01*
X121859977Y-65676400D01*
X121969500Y-65636536D01*
X121998067Y-65612565D01*
X122038240Y-65597943D01*
X122078412Y-65612565D01*
X122086601Y-65619436D01*
X122196124Y-65659300D01*
X122312675Y-65659300D01*
X122312676Y-65659300D01*
X122422199Y-65619436D01*
X122511483Y-65544518D01*
X122569759Y-65443581D01*
X122589998Y-65328800D01*
X122569759Y-65214019D01*
X122569758Y-65214017D01*
X122569758Y-65214016D01*
X122521356Y-65130183D01*
X122511483Y-65113082D01*
X122497457Y-65101313D01*
X123574115Y-65101313D01*
X123577382Y-65119840D01*
X123594354Y-65216096D01*
X123642081Y-65298759D01*
X123652630Y-65317031D01*
X123741914Y-65391949D01*
X123851437Y-65431813D01*
X123967985Y-65431813D01*
X123967989Y-65431813D01*
X123971538Y-65430520D01*
X124014289Y-65430518D01*
X124047042Y-65457999D01*
X124079650Y-65514476D01*
X124103098Y-65555089D01*
X124192382Y-65630007D01*
X124301905Y-65669871D01*
X124418456Y-65669871D01*
X124418457Y-65669871D01*
X124527980Y-65630007D01*
X124617264Y-65555089D01*
X124671769Y-65460683D01*
X124675539Y-65454154D01*
X124675539Y-65454153D01*
X124675540Y-65454152D01*
X124695779Y-65339371D01*
X124684649Y-65276251D01*
X125572825Y-65276251D01*
X125575738Y-65292770D01*
X125593064Y-65391034D01*
X125644454Y-65480042D01*
X125651340Y-65491969D01*
X125740624Y-65566887D01*
X125850147Y-65606751D01*
X125966698Y-65606751D01*
X125966699Y-65606751D01*
X126076222Y-65566887D01*
X126165506Y-65491969D01*
X126223782Y-65391032D01*
X126244021Y-65276251D01*
X126223782Y-65161470D01*
X126223781Y-65161468D01*
X126223781Y-65161467D01*
X126178403Y-65082872D01*
X126165506Y-65060533D01*
X126099392Y-65005057D01*
X127934402Y-65005057D01*
X127954641Y-65119840D01*
X127999151Y-65196932D01*
X128012917Y-65220775D01*
X128102201Y-65295693D01*
X128176134Y-65322603D01*
X128208882Y-65350082D01*
X128216306Y-65392185D01*
X128194743Y-65514476D01*
X128214982Y-65629260D01*
X128242199Y-65676400D01*
X128273258Y-65730195D01*
X128362542Y-65805113D01*
X128472065Y-65844977D01*
X128588616Y-65844977D01*
X128588617Y-65844977D01*
X128698140Y-65805113D01*
X128787424Y-65730195D01*
X128845700Y-65629258D01*
X128865939Y-65514477D01*
X128845700Y-65399696D01*
X128845699Y-65399694D01*
X128845699Y-65399693D01*
X128797972Y-65317029D01*
X128787424Y-65298759D01*
X128698140Y-65223841D01*
X128624206Y-65196930D01*
X128591458Y-65169451D01*
X128584035Y-65127348D01*
X128605598Y-65005056D01*
X128586240Y-64895270D01*
X128593663Y-64853167D01*
X128626410Y-64825687D01*
X128691799Y-64801888D01*
X128781083Y-64726970D01*
X128839359Y-64626033D01*
X128859598Y-64511252D01*
X128839359Y-64396471D01*
X128839358Y-64396469D01*
X128839358Y-64396468D01*
X128778753Y-64291499D01*
X128771330Y-64249390D01*
X128783448Y-64228407D01*
X128781085Y-64227043D01*
X128844870Y-64116564D01*
X128844870Y-64116563D01*
X128844871Y-64116562D01*
X128865110Y-64001781D01*
X128844871Y-63887000D01*
X128844870Y-63886998D01*
X128844870Y-63886997D01*
X128802073Y-63812872D01*
X128786595Y-63786063D01*
X128697311Y-63711145D01*
X128587788Y-63671281D01*
X128471236Y-63671281D01*
X128361713Y-63711145D01*
X128309006Y-63755371D01*
X128272428Y-63786064D01*
X128214153Y-63886997D01*
X128193914Y-64001780D01*
X128214153Y-64116562D01*
X128274758Y-64221533D01*
X128282183Y-64263628D01*
X128270065Y-64284626D01*
X128272427Y-64285990D01*
X128208641Y-64396470D01*
X128188402Y-64511252D01*
X128207760Y-64621038D01*
X128200336Y-64663141D01*
X128167587Y-64690621D01*
X128102201Y-64714420D01*
X128012916Y-64789340D01*
X127954641Y-64890273D01*
X127934402Y-65005057D01*
X126099392Y-65005057D01*
X126076222Y-64985615D01*
X125966699Y-64945751D01*
X125850147Y-64945751D01*
X125740624Y-64985615D01*
X125657619Y-65055264D01*
X125651339Y-65060534D01*
X125593064Y-65161467D01*
X125575121Y-65263230D01*
X125572825Y-65276251D01*
X124684649Y-65276251D01*
X124675540Y-65224590D01*
X124675539Y-65224588D01*
X124675539Y-65224587D01*
X124621034Y-65130183D01*
X124617264Y-65123653D01*
X124527980Y-65048735D01*
X124418457Y-65008871D01*
X124301905Y-65008871D01*
X124301904Y-65008871D01*
X124298351Y-65010164D01*
X124255599Y-65010163D01*
X124222850Y-64982684D01*
X124166796Y-64885595D01*
X124077512Y-64810677D01*
X123967989Y-64770813D01*
X123851437Y-64770813D01*
X123741914Y-64810677D01*
X123741912Y-64810678D01*
X123741913Y-64810678D01*
X123652629Y-64885596D01*
X123594354Y-64986529D01*
X123574115Y-65101312D01*
X123574115Y-65101313D01*
X122497457Y-65101313D01*
X122422199Y-65038164D01*
X122312676Y-64998300D01*
X122196124Y-64998300D01*
X122163529Y-65010164D01*
X122086600Y-65038164D01*
X122058033Y-65062134D01*
X122017860Y-65076755D01*
X121977687Y-65062134D01*
X121969500Y-65055264D01*
X121859977Y-65015400D01*
X121743425Y-65015400D01*
X121633902Y-65055264D01*
X121547995Y-65127348D01*
X121544617Y-65130183D01*
X121486342Y-65231116D01*
X121466103Y-65345899D01*
X121466103Y-65345900D01*
X121285594Y-65345900D01*
X121287857Y-65341981D01*
X121308096Y-65227200D01*
X121287857Y-65112419D01*
X121287856Y-65112417D01*
X121287856Y-65112416D01*
X121231843Y-65015400D01*
X121229581Y-65011482D01*
X121140297Y-64936564D01*
X121030774Y-64896700D01*
X120914222Y-64896700D01*
X120804699Y-64936564D01*
X120745149Y-64986532D01*
X120715414Y-65011483D01*
X120657139Y-65112416D01*
X120636900Y-65227200D01*
X119977083Y-65227200D01*
X119974759Y-65214019D01*
X119974758Y-65214017D01*
X119974758Y-65214016D01*
X119926356Y-65130183D01*
X119916483Y-65113082D01*
X119827199Y-65038164D01*
X119717676Y-64998300D01*
X119696500Y-64998300D01*
X119652306Y-64979994D01*
X119634000Y-64935800D01*
X119634000Y-63870152D01*
X120225304Y-63870152D01*
X120245543Y-63984935D01*
X120290812Y-64063341D01*
X120303819Y-64085870D01*
X120393103Y-64160788D01*
X120502626Y-64200652D01*
X120619177Y-64200652D01*
X120619178Y-64200652D01*
X120728701Y-64160788D01*
X120817985Y-64085870D01*
X120876261Y-63984933D01*
X120896500Y-63870152D01*
X120876261Y-63755371D01*
X120876260Y-63755369D01*
X120876260Y-63755368D01*
X120840034Y-63692624D01*
X120817985Y-63654434D01*
X120728701Y-63579516D01*
X120619178Y-63539652D01*
X120502626Y-63539652D01*
X120393103Y-63579516D01*
X120305816Y-63652758D01*
X120303818Y-63654435D01*
X120245543Y-63755368D01*
X120225304Y-63870152D01*
X119634000Y-63870152D01*
X119634000Y-63448674D01*
X119651039Y-63405784D01*
X119692866Y-63386280D01*
X119736674Y-63400796D01*
X119739916Y-63403516D01*
X119739917Y-63403518D01*
X119829201Y-63478436D01*
X119938724Y-63518300D01*
X120055275Y-63518300D01*
X120055276Y-63518300D01*
X120164799Y-63478436D01*
X120254083Y-63403518D01*
X120277982Y-63362124D01*
X121028479Y-63362124D01*
X121048718Y-63476907D01*
X121083944Y-63537918D01*
X121106994Y-63577842D01*
X121196278Y-63652760D01*
X121305801Y-63692624D01*
X121422352Y-63692624D01*
X121422353Y-63692624D01*
X121531876Y-63652760D01*
X121621160Y-63577842D01*
X121679436Y-63476905D01*
X121699675Y-63362124D01*
X121692635Y-63322200D01*
X123997402Y-63322200D01*
X124017641Y-63436983D01*
X124069031Y-63525991D01*
X124075917Y-63537918D01*
X124165201Y-63612836D01*
X124274724Y-63652700D01*
X124391275Y-63652700D01*
X124391276Y-63652700D01*
X124500799Y-63612836D01*
X124590083Y-63537918D01*
X124648359Y-63436981D01*
X124656927Y-63388388D01*
X125318202Y-63388388D01*
X125338441Y-63503172D01*
X125381552Y-63577840D01*
X125396717Y-63604107D01*
X125486001Y-63679025D01*
X125595524Y-63718889D01*
X125712075Y-63718889D01*
X125712076Y-63718889D01*
X125821599Y-63679025D01*
X125910883Y-63604107D01*
X125969159Y-63503170D01*
X125989398Y-63388389D01*
X125969159Y-63273608D01*
X125969158Y-63273606D01*
X125969158Y-63273605D01*
X125927315Y-63201132D01*
X125910883Y-63172671D01*
X125857656Y-63128008D01*
X127955018Y-63128008D01*
X127975257Y-63242791D01*
X127993050Y-63273608D01*
X128033533Y-63343726D01*
X128122817Y-63418644D01*
X128232340Y-63458508D01*
X128348891Y-63458508D01*
X128348892Y-63458508D01*
X128458415Y-63418644D01*
X128547699Y-63343726D01*
X128603346Y-63247343D01*
X128605974Y-63242791D01*
X128605974Y-63242790D01*
X128605975Y-63242789D01*
X128626214Y-63128008D01*
X128605975Y-63013227D01*
X128605974Y-63013225D01*
X128605974Y-63013224D01*
X128556149Y-62926926D01*
X128547699Y-62912290D01*
X128458415Y-62837372D01*
X128348892Y-62797508D01*
X128232340Y-62797508D01*
X128122817Y-62837372D01*
X128051558Y-62897165D01*
X128033532Y-62912291D01*
X127975257Y-63013224D01*
X127955018Y-63128008D01*
X125857656Y-63128008D01*
X125821599Y-63097753D01*
X125712076Y-63057889D01*
X125595524Y-63057889D01*
X125486001Y-63097753D01*
X125398571Y-63171115D01*
X125396716Y-63172672D01*
X125338441Y-63273605D01*
X125318202Y-63388388D01*
X124656927Y-63388388D01*
X124668598Y-63322200D01*
X124654674Y-63243234D01*
X124662097Y-63201132D01*
X124694848Y-63173651D01*
X124737599Y-63173651D01*
X124835794Y-63209392D01*
X124952345Y-63209392D01*
X124952346Y-63209392D01*
X125061869Y-63169528D01*
X125151153Y-63094610D01*
X125209429Y-62993673D01*
X125229668Y-62878892D01*
X125209429Y-62764111D01*
X125209428Y-62764109D01*
X125209428Y-62764108D01*
X125176848Y-62707679D01*
X125151153Y-62663174D01*
X125061869Y-62588256D01*
X124952346Y-62548392D01*
X124835794Y-62548392D01*
X124726271Y-62588256D01*
X124667411Y-62637645D01*
X124636986Y-62663175D01*
X124578711Y-62764108D01*
X124562279Y-62857300D01*
X124558472Y-62878892D01*
X124572395Y-62957857D01*
X124564971Y-62999959D01*
X124532221Y-63027440D01*
X124489469Y-63027440D01*
X124391276Y-62991700D01*
X124274724Y-62991700D01*
X124165201Y-63031564D01*
X124098057Y-63087904D01*
X124075916Y-63106483D01*
X124017641Y-63207416D01*
X123997402Y-63322200D01*
X121692635Y-63322200D01*
X121679436Y-63247343D01*
X121679435Y-63247341D01*
X121679435Y-63247340D01*
X121636890Y-63173651D01*
X121621160Y-63146406D01*
X121531876Y-63071488D01*
X121422353Y-63031624D01*
X121305801Y-63031624D01*
X121196278Y-63071488D01*
X121154572Y-63106483D01*
X121106993Y-63146407D01*
X121048718Y-63247340D01*
X121028479Y-63362124D01*
X120277982Y-63362124D01*
X120312359Y-63302581D01*
X120329891Y-63203148D01*
X120345980Y-63171115D01*
X120377028Y-63153190D01*
X120412816Y-63155274D01*
X120451970Y-63169526D01*
X120491356Y-63183862D01*
X120491357Y-63183862D01*
X120607908Y-63183862D01*
X120607909Y-63183862D01*
X120717432Y-63143998D01*
X120806716Y-63069080D01*
X120864992Y-62968143D01*
X120885231Y-62853362D01*
X120864992Y-62738581D01*
X120864991Y-62738579D01*
X120864991Y-62738578D01*
X120813222Y-62648913D01*
X120806716Y-62637644D01*
X120717432Y-62562726D01*
X120607909Y-62522862D01*
X120491357Y-62522862D01*
X120381834Y-62562726D01*
X120351408Y-62588256D01*
X120292549Y-62637645D01*
X120234273Y-62738581D01*
X120216741Y-62838008D01*
X120200652Y-62870045D01*
X120169604Y-62887970D01*
X120133815Y-62885886D01*
X120055276Y-62857300D01*
X119938724Y-62857300D01*
X119829201Y-62897164D01*
X119739917Y-62972082D01*
X119739916Y-62972083D01*
X119736674Y-62974804D01*
X119692866Y-62989320D01*
X119651039Y-62969816D01*
X119634000Y-62926926D01*
X119634000Y-60896000D01*
X119652306Y-60851806D01*
X119696500Y-60833500D01*
X121824080Y-60833500D01*
X121859929Y-60844803D01*
G37*
%TD.AperFunction*%
%TD*%
D12*
X133096000Y-68580000D02*
X133096000Y-60706000D01*
X115316000Y-60706000D02*
X133096000Y-60706000D01*
X115316000Y-68580000D02*
X115316000Y-60706000D01*
X115316000Y-68580000D02*
X133096000Y-68580000D01*
M02*
