%TF.GenerationSoftware,KiCad,Pcbnew,7.0.1*%
%TF.CreationDate,2023-05-23T12:13:01-04:00*%
%TF.ProjectId,imu-stamp,696d752d-7374-4616-9d70-2e6b69636164,rev?*%
%TF.SameCoordinates,Original*%
%TF.FileFunction,Copper,L4,Bot*%
%TF.FilePolarity,Positive*%
%FSLAX46Y46*%
G04 Gerber Fmt 4.6, Leading zero omitted, Abs format (unit mm)*
G04 Created by KiCad (PCBNEW 7.0.1) date 2023-05-23 12:13:01*
%MOMM*%
%LPD*%
G01*
G04 APERTURE LIST*
G04 Aperture macros list*
%AMRoundRect*
0 Rectangle with rounded corners*
0 $1 Rounding radius*
0 $2 $3 $4 $5 $6 $7 $8 $9 X,Y pos of 4 corners*
0 Add a 4 corners polygon primitive as box body*
4,1,4,$2,$3,$4,$5,$6,$7,$8,$9,$2,$3,0*
0 Add four circle primitives for the rounded corners*
1,1,$1+$1,$2,$3*
1,1,$1+$1,$4,$5*
1,1,$1+$1,$6,$7*
1,1,$1+$1,$8,$9*
0 Add four rect primitives between the rounded corners*
20,1,$1+$1,$2,$3,$4,$5,0*
20,1,$1+$1,$4,$5,$6,$7,0*
20,1,$1+$1,$6,$7,$8,$9,0*
20,1,$1+$1,$8,$9,$2,$3,0*%
G04 Aperture macros list end*
%TA.AperFunction,ComponentPad*%
%ADD10C,1.016000*%
%TD*%
%TA.AperFunction,SMDPad,CuDef*%
%ADD11O,1.854200X1.016000*%
%TD*%
%TA.AperFunction,SMDPad,CuDef*%
%ADD12RoundRect,0.135000X-0.135000X-0.185000X0.135000X-0.185000X0.135000X0.185000X-0.135000X0.185000X0*%
%TD*%
%TA.AperFunction,ViaPad*%
%ADD13C,0.360000*%
%TD*%
%TA.AperFunction,Conductor*%
%ADD14C,0.152400*%
%TD*%
%TA.AperFunction,Conductor*%
%ADD15C,0.150000*%
%TD*%
%TA.AperFunction,Conductor*%
%ADD16C,0.200000*%
%TD*%
%TA.AperFunction,Profile*%
%ADD17C,0.100000*%
%TD*%
G04 APERTURE END LIST*
D10*
%TO.P,P2,1,Pin_1*%
%TO.N,3.3V*%
X133934200Y-67183000D03*
X133096000Y-67183000D03*
D11*
X133515100Y-67183000D03*
D10*
%TO.P,P2,2,Pin_2*%
%TO.N,/XORL2*%
X133934200Y-65913000D03*
X133096000Y-65913000D03*
D11*
X133515100Y-65913000D03*
D10*
%TO.P,P2,3,Pin_3*%
%TO.N,/XORL1*%
X133934200Y-64643000D03*
X133096000Y-64643000D03*
D11*
X133515100Y-64643000D03*
D10*
%TO.P,P2,4,Pin_4*%
%TO.N,GND*%
X133934200Y-63373000D03*
X133096000Y-63373000D03*
D11*
X133515100Y-63373000D03*
D10*
%TO.P,P2,5,Pin_5*%
X133934200Y-62103000D03*
X133096000Y-62103000D03*
D11*
X133515100Y-62103000D03*
%TD*%
D10*
%TO.P,P1,1,Pin_1*%
%TO.N,VCC*%
X114477800Y-62103000D03*
X115316000Y-62103000D03*
D11*
X114896900Y-62103000D03*
D10*
%TO.P,P1,2,Pin_2*%
%TO.N,GND*%
X114477800Y-63373000D03*
X115316000Y-63373000D03*
D11*
X114896900Y-63373000D03*
D10*
%TO.P,P1,3,Pin_3*%
%TO.N,/SCL*%
X114477800Y-64643000D03*
X115316000Y-64643000D03*
D11*
X114896900Y-64643000D03*
D10*
%TO.P,P1,4,Pin_4*%
%TO.N,/SDA*%
X114477800Y-65913000D03*
X115316000Y-65913000D03*
D11*
X114896900Y-65913000D03*
D10*
%TO.P,P1,5,Pin_5*%
%TO.N,/EN*%
X114477800Y-67183000D03*
X115316000Y-67183000D03*
D11*
X114896900Y-67183000D03*
%TD*%
D12*
%TO.P,R4,1*%
%TO.N,/XORL1*%
X130274600Y-63169800D03*
%TO.P,R4,2*%
%TO.N,GND*%
X131294600Y-63169800D03*
%TD*%
%TO.P,R3,1*%
%TO.N,/XORL2*%
X130274600Y-64643000D03*
%TO.P,R3,2*%
%TO.N,/XORL1*%
X131294600Y-64643000D03*
%TD*%
%TO.P,R2,1*%
%TO.N,3.3V*%
X130274600Y-66167000D03*
%TO.P,R2,2*%
%TO.N,/XORL2*%
X131294600Y-66167000D03*
%TD*%
D13*
%TO.N,GND*%
X122056500Y-61214000D03*
X123497500Y-61214000D03*
X123418600Y-67744400D03*
X128590000Y-61214000D03*
X118796400Y-62179200D03*
X124333000Y-63322200D03*
X127621407Y-66604960D03*
X122254400Y-65328800D03*
X119202800Y-62179200D03*
X119997000Y-63187800D03*
X120624600Y-67716400D03*
X117830600Y-68148200D03*
X119024400Y-61214000D03*
X119659400Y-65328800D03*
X125067000Y-61214000D03*
X124360181Y-65339371D03*
X125908423Y-65276251D03*
X127000000Y-61214000D03*
X117830600Y-67741800D03*
X130505200Y-61214000D03*
X120560902Y-63870152D03*
X121801701Y-65345900D03*
%TO.N,3.3V*%
X116281200Y-67741800D03*
X124942600Y-65227200D03*
X124007003Y-61214000D03*
X129836094Y-67780853D03*
X131876800Y-61214000D03*
X120954800Y-61214000D03*
X125755400Y-61214000D03*
X116281200Y-68148200D03*
X120319800Y-61214000D03*
X119822000Y-67711200D03*
X131257000Y-67183000D03*
X119659400Y-63810000D03*
X132207000Y-65512000D03*
X122283200Y-68072000D03*
X126771400Y-65227200D03*
%TO.N,VCC*%
X117246400Y-62179200D03*
X117652800Y-62179200D03*
%TO.N,/EN*%
X118425000Y-67640200D03*
%TO.N,/SDA*%
X128529512Y-64001781D03*
%TO.N,/SCL*%
X128530341Y-65514477D03*
%TO.N,/SCL_1*%
X128092200Y-66865733D03*
X124894070Y-62878892D03*
X124494658Y-66181129D03*
%TO.N,/SDA_1*%
X128659992Y-67271433D03*
X125653800Y-63388389D03*
X128290616Y-63128008D03*
X123909713Y-65101313D03*
%TO.N,/SCL_0*%
X128270000Y-65005057D03*
X130391091Y-68031855D03*
X126454153Y-68186553D03*
X121970800Y-66171000D03*
X120549633Y-62853362D03*
%TO.N,/SDA_0*%
X128669172Y-67780853D03*
X128524000Y-64511252D03*
X121364077Y-63362124D03*
X120972498Y-65227200D03*
X125165018Y-67764000D03*
%TD*%
D14*
%TO.N,/SDA*%
X129028727Y-62723188D02*
X128614139Y-62308600D01*
X128529512Y-64001781D02*
X129028727Y-63502566D01*
X129028727Y-63502566D02*
X129028727Y-62723188D01*
X128614139Y-62308600D02*
X120242896Y-62308600D01*
%TO.N,/SDA_0*%
X129159000Y-67141148D02*
X129159000Y-67310000D01*
X127820507Y-65804351D02*
X127997649Y-65981493D01*
X127820507Y-64838493D02*
X127820507Y-65804351D01*
X128147748Y-64511252D02*
X127820507Y-64838493D01*
X128524000Y-64511252D02*
X128147748Y-64511252D01*
X127997649Y-65981493D02*
X127999345Y-65981493D01*
X127999345Y-65981493D02*
X129159000Y-67141148D01*
%TO.N,/SCL_1*%
X128092200Y-66865733D02*
X128092200Y-66502006D01*
X127518107Y-64439439D02*
X128423338Y-63534208D01*
X127518107Y-65929609D02*
X127518107Y-64439439D01*
X128092200Y-66502006D02*
X127874087Y-66283893D01*
X127874087Y-66283893D02*
X127872391Y-66283893D01*
X127872391Y-66283893D02*
X127518107Y-65929609D01*
X128423338Y-63534208D02*
X128458870Y-63534208D01*
X128458870Y-63534208D02*
X128696816Y-63296262D01*
X128696816Y-63296262D02*
X128696816Y-63073184D01*
X128696816Y-63073184D02*
X128726327Y-63043673D01*
X128726327Y-63043673D02*
X128726327Y-62848446D01*
X128726327Y-62848446D02*
X128488881Y-62611000D01*
X128488881Y-62611000D02*
X125161962Y-62611000D01*
X125161962Y-62611000D02*
X124894070Y-62878892D01*
%TO.N,/SDA_1*%
X127698033Y-67271433D02*
X128659992Y-67271433D01*
X127215707Y-66789107D02*
X127698033Y-67271433D01*
X127215707Y-64202917D02*
X127215707Y-66789107D01*
X128290616Y-63128008D02*
X127215707Y-64202917D01*
X125914181Y-63128008D02*
X125653800Y-63388389D01*
X128290616Y-63128008D02*
X125914181Y-63128008D01*
%TO.N,/SCL*%
X128530341Y-65514477D02*
X128586322Y-65514477D01*
X129331127Y-62597930D02*
X128739397Y-62006200D01*
X128586322Y-65514477D02*
X129331127Y-64769672D01*
X129331127Y-64769672D02*
X129331127Y-62597930D01*
X128739397Y-62006200D02*
X120117638Y-62006200D01*
X120117638Y-62006200D02*
X117480838Y-64643000D01*
X117480838Y-64643000D02*
X115316000Y-64643000D01*
%TO.N,/SCL_0*%
X128122907Y-65152150D02*
X128122907Y-65679093D01*
X128270000Y-65005057D02*
X128122907Y-65152150D01*
D15*
X128600200Y-65938400D02*
X130391091Y-67729291D01*
X130391091Y-67729291D02*
X130391091Y-68031855D01*
X128382214Y-65938400D02*
X128600200Y-65938400D01*
X128122907Y-65679093D02*
X128382214Y-65938400D01*
D16*
%TO.N,3.3V*%
X130274600Y-66200600D02*
X131257000Y-67183000D01*
%TO.N,GND*%
X131320000Y-63144400D02*
X132054600Y-63144400D01*
X132283200Y-63373000D02*
X133096000Y-63373000D01*
X132054600Y-63144400D02*
X132283200Y-63373000D01*
%TO.N,/EN*%
X115451000Y-67179000D02*
X117963800Y-67179000D01*
X117963800Y-67179000D02*
X118425000Y-67640200D01*
D15*
%TO.N,/SDA*%
X120142000Y-62407800D02*
X116636800Y-65913000D01*
X116636800Y-65913000D02*
X115316000Y-65913000D01*
D14*
%TO.N,/SCL_1*%
X123741459Y-64695113D02*
X123455624Y-64980948D01*
X123455624Y-65442024D02*
X124194729Y-66181129D01*
X124894070Y-62878892D02*
X124894070Y-63548530D01*
X124194729Y-66181129D02*
X124494658Y-66181129D01*
X124894070Y-63548530D02*
X123747487Y-64695113D01*
X123747487Y-64695113D02*
X123741459Y-64695113D01*
X123455624Y-64980948D02*
X123455624Y-65442024D01*
%TO.N,/SDA_1*%
X123940876Y-65101313D02*
X125653800Y-63388389D01*
X123909713Y-65101313D02*
X123940876Y-65101313D01*
%TO.N,/SCL_0*%
X120549633Y-62853362D02*
X120549633Y-63306967D01*
X126454153Y-68186553D02*
X130236393Y-68186553D01*
X124955553Y-68186553D02*
X122940000Y-66171000D01*
X130236393Y-68186553D02*
X130391091Y-68031855D01*
X120154702Y-64985902D02*
X121339800Y-66171000D01*
X120549633Y-63306967D02*
X120154702Y-63701898D01*
X120154702Y-63701898D02*
X120154702Y-64985902D01*
X126454153Y-68186553D02*
X124955553Y-68186553D01*
X121339800Y-66171000D02*
X121970800Y-66171000D01*
X122940000Y-66171000D02*
X121970800Y-66171000D01*
%TO.N,/SDA_0*%
X120972498Y-63873298D02*
X120972498Y-65227200D01*
D15*
X129159000Y-67564000D02*
X128942147Y-67780853D01*
D14*
X121364077Y-63362124D02*
X120967102Y-63759099D01*
X125168218Y-67767200D02*
X125165018Y-67764000D01*
X128669172Y-67780853D02*
X128655519Y-67767200D01*
X128655519Y-67767200D02*
X125168218Y-67767200D01*
X120967102Y-63759099D02*
X120967102Y-63867902D01*
D15*
X128942147Y-67780853D02*
X128669172Y-67780853D01*
D14*
X123153118Y-65752100D02*
X121497398Y-65752100D01*
X121497398Y-65752100D02*
X120972498Y-65227200D01*
X120967102Y-63867902D02*
X120972498Y-63873298D01*
D15*
X129159000Y-67310000D02*
X129159000Y-67564000D01*
D14*
X125165018Y-67764000D02*
X123153118Y-65752100D01*
D16*
%TO.N,/XORL2*%
X131089400Y-65405000D02*
X130454400Y-65405000D01*
X131294600Y-66167000D02*
X131294600Y-65610200D01*
X130454400Y-65405000D02*
X130274600Y-65225200D01*
X131294600Y-65610200D02*
X131089400Y-65405000D01*
X130274600Y-65225200D02*
X130274600Y-64643000D01*
X131294600Y-66167000D02*
X132842000Y-66167000D01*
%TO.N,/XORL1*%
X131294600Y-64035400D02*
X131165600Y-63906400D01*
X131165600Y-63906400D02*
X130530600Y-63906400D01*
X130530600Y-63906400D02*
X130274600Y-63650400D01*
X131294600Y-64643000D02*
X133096000Y-64643000D01*
X131294600Y-64643000D02*
X131294600Y-64035400D01*
X130274600Y-63650400D02*
X130274600Y-63169800D01*
%TD*%
D17*
X133731000Y-68580000D02*
X133731000Y-60706000D01*
X114681000Y-60706000D02*
X133731000Y-60706000D01*
X114681000Y-68580000D02*
X114681000Y-60706000D01*
X114681000Y-68580000D02*
X133731000Y-68580000D01*
M02*
