%TF.GenerationSoftware,KiCad,Pcbnew,7.0.1*%
%TF.CreationDate,2023-03-14T15:54:19-04:00*%
%TF.ProjectId,imu-stamp,696d752d-7374-4616-9d70-2e6b69636164,rev?*%
%TF.SameCoordinates,Original*%
%TF.FileFunction,Legend,Bot*%
%TF.FilePolarity,Positive*%
%FSLAX46Y46*%
G04 Gerber Fmt 4.6, Leading zero omitted, Abs format (unit mm)*
G04 Created by KiCad (PCBNEW 7.0.1) date 2023-03-14 15:54:19*
%MOMM*%
%LPD*%
G01*
G04 APERTURE LIST*
%ADD10C,0.152400*%
%ADD11C,0.203200*%
G04 APERTURE END LIST*
D10*
X131916713Y-66773515D02*
X131408713Y-67535515D01*
X131408713Y-66773515D02*
X131916713Y-67535515D01*
X130973285Y-66773515D02*
X130828142Y-66773515D01*
X130828142Y-66773515D02*
X130755571Y-66809801D01*
X130755571Y-66809801D02*
X130682999Y-66882372D01*
X130682999Y-66882372D02*
X130646714Y-67027515D01*
X130646714Y-67027515D02*
X130646714Y-67281515D01*
X130646714Y-67281515D02*
X130682999Y-67426658D01*
X130682999Y-67426658D02*
X130755571Y-67499230D01*
X130755571Y-67499230D02*
X130828142Y-67535515D01*
X130828142Y-67535515D02*
X130973285Y-67535515D01*
X130973285Y-67535515D02*
X131045857Y-67499230D01*
X131045857Y-67499230D02*
X131118428Y-67426658D01*
X131118428Y-67426658D02*
X131154714Y-67281515D01*
X131154714Y-67281515D02*
X131154714Y-67027515D01*
X131154714Y-67027515D02*
X131118428Y-66882372D01*
X131118428Y-66882372D02*
X131045857Y-66809801D01*
X131045857Y-66809801D02*
X130973285Y-66773515D01*
X129884713Y-67535515D02*
X130138713Y-67172658D01*
X130320142Y-67535515D02*
X130320142Y-66773515D01*
X130320142Y-66773515D02*
X130029856Y-66773515D01*
X130029856Y-66773515D02*
X129957285Y-66809801D01*
X129957285Y-66809801D02*
X129920999Y-66846087D01*
X129920999Y-66846087D02*
X129884713Y-66918658D01*
X129884713Y-66918658D02*
X129884713Y-67027515D01*
X129884713Y-67027515D02*
X129920999Y-67100087D01*
X129920999Y-67100087D02*
X129957285Y-67136372D01*
X129957285Y-67136372D02*
X130029856Y-67172658D01*
X130029856Y-67172658D02*
X130320142Y-67172658D01*
X129739571Y-67608087D02*
X129158999Y-67608087D01*
X128542142Y-67535515D02*
X128796142Y-67172658D01*
X128977571Y-67535515D02*
X128977571Y-66773515D01*
X128977571Y-66773515D02*
X128687285Y-66773515D01*
X128687285Y-66773515D02*
X128614714Y-66809801D01*
X128614714Y-66809801D02*
X128578428Y-66846087D01*
X128578428Y-66846087D02*
X128542142Y-66918658D01*
X128542142Y-66918658D02*
X128542142Y-67027515D01*
X128542142Y-67027515D02*
X128578428Y-67100087D01*
X128578428Y-67100087D02*
X128614714Y-67136372D01*
X128614714Y-67136372D02*
X128687285Y-67172658D01*
X128687285Y-67172658D02*
X128977571Y-67172658D01*
X128215571Y-67136372D02*
X127961571Y-67136372D01*
X127852714Y-67535515D02*
X128215571Y-67535515D01*
X128215571Y-67535515D02*
X128215571Y-66773515D01*
X128215571Y-66773515D02*
X127852714Y-66773515D01*
X127272142Y-67136372D02*
X127526142Y-67136372D01*
X127526142Y-67535515D02*
X127526142Y-66773515D01*
X127526142Y-66773515D02*
X127163285Y-66773515D01*
X126250866Y-65665172D02*
X125974190Y-65239128D01*
X126053240Y-65360855D02*
X125983283Y-65319754D01*
X125983283Y-65319754D02*
X125933089Y-65309085D01*
X125933089Y-65309085D02*
X125852462Y-65318178D01*
X125852462Y-65318178D02*
X125791599Y-65357704D01*
X125592037Y-66049756D02*
X125672663Y-66040662D01*
X125672663Y-66040662D02*
X125794390Y-65961612D01*
X125794390Y-65961612D02*
X125835491Y-65891655D01*
X125835491Y-65891655D02*
X125826397Y-65811028D01*
X125826397Y-65811028D02*
X125668296Y-65567574D01*
X125668296Y-65567574D02*
X125598339Y-65526473D01*
X125598339Y-65526473D02*
X125517713Y-65535567D01*
X125517713Y-65535567D02*
X125395986Y-65614617D01*
X125395986Y-65614617D02*
X125354885Y-65684574D01*
X125354885Y-65684574D02*
X125363979Y-65765201D01*
X125363979Y-65765201D02*
X125403504Y-65826064D01*
X125403504Y-65826064D02*
X125747347Y-65689301D01*
X125091669Y-65812244D02*
X125216186Y-66337101D01*
X125216186Y-66337101D02*
X124787351Y-66009870D01*
X124732430Y-66391662D02*
X124428112Y-66589288D01*
X124911869Y-66534727D02*
X124283832Y-66033999D01*
X124283832Y-66033999D02*
X124485825Y-66811404D01*
X118400285Y-66229230D02*
X118291428Y-66265515D01*
X118291428Y-66265515D02*
X118109999Y-66265515D01*
X118109999Y-66265515D02*
X118037428Y-66229230D01*
X118037428Y-66229230D02*
X118001142Y-66192944D01*
X118001142Y-66192944D02*
X117964856Y-66120372D01*
X117964856Y-66120372D02*
X117964856Y-66047801D01*
X117964856Y-66047801D02*
X118001142Y-65975230D01*
X118001142Y-65975230D02*
X118037428Y-65938944D01*
X118037428Y-65938944D02*
X118109999Y-65902658D01*
X118109999Y-65902658D02*
X118255142Y-65866372D01*
X118255142Y-65866372D02*
X118327713Y-65830087D01*
X118327713Y-65830087D02*
X118363999Y-65793801D01*
X118363999Y-65793801D02*
X118400285Y-65721230D01*
X118400285Y-65721230D02*
X118400285Y-65648658D01*
X118400285Y-65648658D02*
X118363999Y-65576087D01*
X118363999Y-65576087D02*
X118327713Y-65539801D01*
X118327713Y-65539801D02*
X118255142Y-65503515D01*
X118255142Y-65503515D02*
X118073713Y-65503515D01*
X118073713Y-65503515D02*
X117964856Y-65539801D01*
X117638285Y-66265515D02*
X117638285Y-65503515D01*
X117638285Y-65503515D02*
X117456856Y-65503515D01*
X117456856Y-65503515D02*
X117347999Y-65539801D01*
X117347999Y-65539801D02*
X117275428Y-65612372D01*
X117275428Y-65612372D02*
X117239142Y-65684944D01*
X117239142Y-65684944D02*
X117202856Y-65830087D01*
X117202856Y-65830087D02*
X117202856Y-65938944D01*
X117202856Y-65938944D02*
X117239142Y-66084087D01*
X117239142Y-66084087D02*
X117275428Y-66156658D01*
X117275428Y-66156658D02*
X117347999Y-66229230D01*
X117347999Y-66229230D02*
X117456856Y-66265515D01*
X117456856Y-66265515D02*
X117638285Y-66265515D01*
X116912571Y-66047801D02*
X116549714Y-66047801D01*
X116985142Y-66265515D02*
X116731142Y-65503515D01*
X116731142Y-65503515D02*
X116477142Y-66265515D01*
D11*
X127021302Y-62112463D02*
X126526404Y-61525273D01*
X126278955Y-61231678D02*
X126359953Y-61243976D01*
X126359953Y-61243976D02*
X126349655Y-61315562D01*
X126349655Y-61315562D02*
X126268657Y-61303264D01*
X126268657Y-61303264D02*
X126278955Y-61231678D01*
X126278955Y-61231678D02*
X126349655Y-61315562D01*
X126570532Y-62405197D02*
X126075634Y-61818007D01*
X126146334Y-61901891D02*
X126065336Y-61889593D01*
X126065336Y-61889593D02*
X125938691Y-61906938D01*
X125938691Y-61906938D02*
X125801748Y-61995870D01*
X125801748Y-61995870D02*
X125745803Y-62097100D01*
X125745803Y-62097100D02*
X125770855Y-62210628D01*
X125770855Y-62210628D02*
X126159703Y-62671992D01*
X125770855Y-62210628D02*
X125654507Y-62156388D01*
X125654507Y-62156388D02*
X125527862Y-62173734D01*
X125527862Y-62173734D02*
X125390919Y-62262665D01*
X125390919Y-62262665D02*
X125334974Y-62363895D01*
X125334974Y-62363895D02*
X125360026Y-62477424D01*
X125360026Y-62477424D02*
X125748875Y-62938787D01*
X124392377Y-62911126D02*
X124887276Y-63498316D01*
X124803206Y-62644331D02*
X125192055Y-63105694D01*
X125192055Y-63105694D02*
X125217107Y-63219223D01*
X125217107Y-63219223D02*
X125161162Y-63320453D01*
X125161162Y-63320453D02*
X125024219Y-63409384D01*
X125024219Y-63409384D02*
X124897573Y-63426730D01*
X124897573Y-63426730D02*
X124816576Y-63414432D01*
X124153706Y-63455512D02*
X123423344Y-63929815D01*
X123259964Y-64490206D02*
X123204019Y-64591436D01*
X123204019Y-64591436D02*
X123021429Y-64710011D01*
X123021429Y-64710011D02*
X122894783Y-64727357D01*
X122894783Y-64727357D02*
X122778436Y-64673117D01*
X122778436Y-64673117D02*
X122743086Y-64631175D01*
X122743086Y-64631175D02*
X122718034Y-64517646D01*
X122718034Y-64517646D02*
X122773979Y-64416416D01*
X122773979Y-64416416D02*
X122910922Y-64327485D01*
X122910922Y-64327485D02*
X122966868Y-64226255D01*
X122966868Y-64226255D02*
X122941816Y-64112726D01*
X122941816Y-64112726D02*
X122906466Y-64070784D01*
X122906466Y-64070784D02*
X122790118Y-64016544D01*
X122790118Y-64016544D02*
X122663473Y-64033890D01*
X122663473Y-64033890D02*
X122526530Y-64122821D01*
X122526530Y-64122821D02*
X122470585Y-64224051D01*
X122121408Y-64385911D02*
X121756226Y-64623062D01*
X121737015Y-64181248D02*
X122373313Y-64936207D01*
X122373313Y-64936207D02*
X122398365Y-65049735D01*
X122398365Y-65049735D02*
X122342420Y-65150965D01*
X122342420Y-65150965D02*
X122251125Y-65210253D01*
X121526469Y-65680850D02*
X121137620Y-65219486D01*
X121137620Y-65219486D02*
X121112568Y-65105958D01*
X121112568Y-65105958D02*
X121168513Y-65004728D01*
X121168513Y-65004728D02*
X121351104Y-64886152D01*
X121351104Y-64886152D02*
X121477749Y-64868806D01*
X121491119Y-65638908D02*
X121617764Y-65621562D01*
X121617764Y-65621562D02*
X121846002Y-65473342D01*
X121846002Y-65473342D02*
X121901948Y-65372112D01*
X121901948Y-65372112D02*
X121876895Y-65258584D01*
X121876895Y-65258584D02*
X121806196Y-65174700D01*
X121806196Y-65174700D02*
X121689848Y-65120459D01*
X121689848Y-65120459D02*
X121563203Y-65137805D01*
X121563203Y-65137805D02*
X121334965Y-65286025D01*
X121334965Y-65286025D02*
X121208320Y-65303370D01*
X121075698Y-65973583D02*
X120580800Y-65386393D01*
X120651500Y-65470278D02*
X120570502Y-65457979D01*
X120570502Y-65457979D02*
X120443857Y-65475325D01*
X120443857Y-65475325D02*
X120306914Y-65564257D01*
X120306914Y-65564257D02*
X120250969Y-65665487D01*
X120250969Y-65665487D02*
X120276021Y-65779015D01*
X120276021Y-65779015D02*
X120664870Y-66240379D01*
X120276021Y-65779015D02*
X120159674Y-65724775D01*
X120159674Y-65724775D02*
X120033028Y-65742120D01*
X120033028Y-65742120D02*
X119896085Y-65831052D01*
X119896085Y-65831052D02*
X119840140Y-65932282D01*
X119840140Y-65932282D02*
X119865192Y-66045810D01*
X119865192Y-66045810D02*
X120254041Y-66507174D01*
X119308372Y-66212717D02*
X120050720Y-67093503D01*
X119343722Y-66254660D02*
X119217077Y-66272005D01*
X119217077Y-66272005D02*
X119034487Y-66390581D01*
X119034487Y-66390581D02*
X118978541Y-66491811D01*
X118978541Y-66491811D02*
X118968243Y-66563397D01*
X118968243Y-66563397D02*
X118993296Y-66676925D01*
X118993296Y-66676925D02*
X119205395Y-66928578D01*
X119205395Y-66928578D02*
X119321742Y-66982819D01*
X119321742Y-66982819D02*
X119402740Y-66995117D01*
X119402740Y-66995117D02*
X119529385Y-66977771D01*
X119529385Y-66977771D02*
X119711976Y-66859195D01*
X119711976Y-66859195D02*
X119767921Y-66757965D01*
D10*
X131517571Y-62999801D02*
X131590143Y-62963515D01*
X131590143Y-62963515D02*
X131699000Y-62963515D01*
X131699000Y-62963515D02*
X131807857Y-62999801D01*
X131807857Y-62999801D02*
X131880428Y-63072372D01*
X131880428Y-63072372D02*
X131916714Y-63144944D01*
X131916714Y-63144944D02*
X131953000Y-63290087D01*
X131953000Y-63290087D02*
X131953000Y-63398944D01*
X131953000Y-63398944D02*
X131916714Y-63544087D01*
X131916714Y-63544087D02*
X131880428Y-63616658D01*
X131880428Y-63616658D02*
X131807857Y-63689230D01*
X131807857Y-63689230D02*
X131699000Y-63725515D01*
X131699000Y-63725515D02*
X131626428Y-63725515D01*
X131626428Y-63725515D02*
X131517571Y-63689230D01*
X131517571Y-63689230D02*
X131481285Y-63652944D01*
X131481285Y-63652944D02*
X131481285Y-63398944D01*
X131481285Y-63398944D02*
X131626428Y-63398944D01*
X131154714Y-63725515D02*
X131154714Y-62963515D01*
X131154714Y-62963515D02*
X130719285Y-63725515D01*
X130719285Y-63725515D02*
X130719285Y-62963515D01*
X130356428Y-63725515D02*
X130356428Y-62963515D01*
X130356428Y-62963515D02*
X130174999Y-62963515D01*
X130174999Y-62963515D02*
X130066142Y-62999801D01*
X130066142Y-62999801D02*
X129993571Y-63072372D01*
X129993571Y-63072372D02*
X129957285Y-63144944D01*
X129957285Y-63144944D02*
X129920999Y-63290087D01*
X129920999Y-63290087D02*
X129920999Y-63398944D01*
X129920999Y-63398944D02*
X129957285Y-63544087D01*
X129957285Y-63544087D02*
X129993571Y-63616658D01*
X129993571Y-63616658D02*
X130066142Y-63689230D01*
X130066142Y-63689230D02*
X130174999Y-63725515D01*
X130174999Y-63725515D02*
X130356428Y-63725515D01*
X118382142Y-64959230D02*
X118273285Y-64995515D01*
X118273285Y-64995515D02*
X118091856Y-64995515D01*
X118091856Y-64995515D02*
X118019285Y-64959230D01*
X118019285Y-64959230D02*
X117982999Y-64922944D01*
X117982999Y-64922944D02*
X117946713Y-64850372D01*
X117946713Y-64850372D02*
X117946713Y-64777801D01*
X117946713Y-64777801D02*
X117982999Y-64705230D01*
X117982999Y-64705230D02*
X118019285Y-64668944D01*
X118019285Y-64668944D02*
X118091856Y-64632658D01*
X118091856Y-64632658D02*
X118236999Y-64596372D01*
X118236999Y-64596372D02*
X118309570Y-64560087D01*
X118309570Y-64560087D02*
X118345856Y-64523801D01*
X118345856Y-64523801D02*
X118382142Y-64451230D01*
X118382142Y-64451230D02*
X118382142Y-64378658D01*
X118382142Y-64378658D02*
X118345856Y-64306087D01*
X118345856Y-64306087D02*
X118309570Y-64269801D01*
X118309570Y-64269801D02*
X118236999Y-64233515D01*
X118236999Y-64233515D02*
X118055570Y-64233515D01*
X118055570Y-64233515D02*
X117946713Y-64269801D01*
X117184713Y-64922944D02*
X117220999Y-64959230D01*
X117220999Y-64959230D02*
X117329856Y-64995515D01*
X117329856Y-64995515D02*
X117402428Y-64995515D01*
X117402428Y-64995515D02*
X117511285Y-64959230D01*
X117511285Y-64959230D02*
X117583856Y-64886658D01*
X117583856Y-64886658D02*
X117620142Y-64814087D01*
X117620142Y-64814087D02*
X117656428Y-64668944D01*
X117656428Y-64668944D02*
X117656428Y-64560087D01*
X117656428Y-64560087D02*
X117620142Y-64414944D01*
X117620142Y-64414944D02*
X117583856Y-64342372D01*
X117583856Y-64342372D02*
X117511285Y-64269801D01*
X117511285Y-64269801D02*
X117402428Y-64233515D01*
X117402428Y-64233515D02*
X117329856Y-64233515D01*
X117329856Y-64233515D02*
X117220999Y-64269801D01*
X117220999Y-64269801D02*
X117184713Y-64306087D01*
X116495285Y-64995515D02*
X116858142Y-64995515D01*
X116858142Y-64995515D02*
X116858142Y-64233515D01*
X126240567Y-64074481D02*
X126290761Y-64085150D01*
X126290761Y-64085150D02*
X126401819Y-64056294D01*
X126401819Y-64056294D02*
X126462682Y-64016769D01*
X126462682Y-64016769D02*
X126534215Y-63927049D01*
X126534215Y-63927049D02*
X126555553Y-63826660D01*
X126555553Y-63826660D02*
X126546460Y-63746034D01*
X126546460Y-63746034D02*
X126497841Y-63604545D01*
X126497841Y-63604545D02*
X126438553Y-63513249D01*
X126438553Y-63513249D02*
X126329071Y-63411285D01*
X126329071Y-63411285D02*
X126259114Y-63370184D01*
X126259114Y-63370184D02*
X126158725Y-63348846D01*
X126158725Y-63348846D02*
X126047667Y-63377702D01*
X126047667Y-63377702D02*
X125986804Y-63417227D01*
X125986804Y-63417227D02*
X125915271Y-63506947D01*
X125915271Y-63506947D02*
X125904602Y-63557141D01*
X126006206Y-64313208D02*
X125591191Y-63674141D01*
X125788817Y-63978459D02*
X125423636Y-64215610D01*
X125641025Y-64550359D02*
X125226010Y-63911293D01*
X124495648Y-64385595D02*
X124100035Y-64642509D01*
X124100035Y-64642509D02*
X124471158Y-64747625D01*
X124471158Y-64747625D02*
X124379863Y-64806913D01*
X124379863Y-64806913D02*
X124338762Y-64876870D01*
X124338762Y-64876870D02*
X124328093Y-64927064D01*
X124328093Y-64927064D02*
X124337186Y-65007690D01*
X124337186Y-65007690D02*
X124435999Y-65159849D01*
X124435999Y-65159849D02*
X124505956Y-65200950D01*
X124505956Y-65200950D02*
X124556151Y-65211619D01*
X124556151Y-65211619D02*
X124636777Y-65202526D01*
X124636777Y-65202526D02*
X124819367Y-65083950D01*
X124819367Y-65083950D02*
X124860468Y-65013993D01*
X124860468Y-65013993D02*
X124871137Y-64963799D01*
X123349910Y-65086380D02*
X124431273Y-65552311D01*
X123226607Y-65296251D02*
X123176413Y-65285582D01*
X123176413Y-65285582D02*
X123095787Y-65294676D01*
X123095787Y-65294676D02*
X122943628Y-65393489D01*
X122943628Y-65393489D02*
X122902527Y-65463446D01*
X122902527Y-65463446D02*
X122891858Y-65513640D01*
X122891858Y-65513640D02*
X122900951Y-65594266D01*
X122900951Y-65594266D02*
X122940477Y-65655130D01*
X122940477Y-65655130D02*
X123030196Y-65726662D01*
X123030196Y-65726662D02*
X123632529Y-65854692D01*
X123632529Y-65854692D02*
X123236916Y-66111606D01*
X122608879Y-65610877D02*
X122213266Y-65867791D01*
X122213266Y-65867791D02*
X122584389Y-65972907D01*
X122584389Y-65972907D02*
X122493094Y-66032195D01*
X122493094Y-66032195D02*
X122451993Y-66102152D01*
X122451993Y-66102152D02*
X122441324Y-66152346D01*
X122441324Y-66152346D02*
X122450417Y-66232972D01*
X122450417Y-66232972D02*
X122549230Y-66385131D01*
X122549230Y-66385131D02*
X122619187Y-66426232D01*
X122619187Y-66426232D02*
X122669382Y-66436901D01*
X122669382Y-66436901D02*
X122750008Y-66427808D01*
X122750008Y-66427808D02*
X122932598Y-66309232D01*
X122932598Y-66309232D02*
X122973699Y-66239275D01*
X122973699Y-66239275D02*
X122984369Y-66189081D01*
X131880427Y-64233515D02*
X131372427Y-64995515D01*
X131372427Y-64233515D02*
X131880427Y-64995515D01*
X130936999Y-64233515D02*
X130791856Y-64233515D01*
X130791856Y-64233515D02*
X130719285Y-64269801D01*
X130719285Y-64269801D02*
X130646713Y-64342372D01*
X130646713Y-64342372D02*
X130610428Y-64487515D01*
X130610428Y-64487515D02*
X130610428Y-64741515D01*
X130610428Y-64741515D02*
X130646713Y-64886658D01*
X130646713Y-64886658D02*
X130719285Y-64959230D01*
X130719285Y-64959230D02*
X130791856Y-64995515D01*
X130791856Y-64995515D02*
X130936999Y-64995515D01*
X130936999Y-64995515D02*
X131009571Y-64959230D01*
X131009571Y-64959230D02*
X131082142Y-64886658D01*
X131082142Y-64886658D02*
X131118428Y-64741515D01*
X131118428Y-64741515D02*
X131118428Y-64487515D01*
X131118428Y-64487515D02*
X131082142Y-64342372D01*
X131082142Y-64342372D02*
X131009571Y-64269801D01*
X131009571Y-64269801D02*
X130936999Y-64233515D01*
X129848427Y-64995515D02*
X130102427Y-64632658D01*
X130283856Y-64995515D02*
X130283856Y-64233515D01*
X130283856Y-64233515D02*
X129993570Y-64233515D01*
X129993570Y-64233515D02*
X129920999Y-64269801D01*
X129920999Y-64269801D02*
X129884713Y-64306087D01*
X129884713Y-64306087D02*
X129848427Y-64378658D01*
X129848427Y-64378658D02*
X129848427Y-64487515D01*
X129848427Y-64487515D02*
X129884713Y-64560087D01*
X129884713Y-64560087D02*
X129920999Y-64596372D01*
X129920999Y-64596372D02*
X129993570Y-64632658D01*
X129993570Y-64632658D02*
X130283856Y-64632658D01*
X129158999Y-64995515D02*
X129521856Y-64995515D01*
X129521856Y-64995515D02*
X129521856Y-64233515D01*
X128505856Y-64995515D02*
X128941285Y-64995515D01*
X128723570Y-64995515D02*
X128723570Y-64233515D01*
X128723570Y-64233515D02*
X128796142Y-64342372D01*
X128796142Y-64342372D02*
X128868713Y-64414944D01*
X128868713Y-64414944D02*
X128941285Y-64451230D01*
X118055571Y-62999801D02*
X118128143Y-62963515D01*
X118128143Y-62963515D02*
X118237000Y-62963515D01*
X118237000Y-62963515D02*
X118345857Y-62999801D01*
X118345857Y-62999801D02*
X118418428Y-63072372D01*
X118418428Y-63072372D02*
X118454714Y-63144944D01*
X118454714Y-63144944D02*
X118491000Y-63290087D01*
X118491000Y-63290087D02*
X118491000Y-63398944D01*
X118491000Y-63398944D02*
X118454714Y-63544087D01*
X118454714Y-63544087D02*
X118418428Y-63616658D01*
X118418428Y-63616658D02*
X118345857Y-63689230D01*
X118345857Y-63689230D02*
X118237000Y-63725515D01*
X118237000Y-63725515D02*
X118164428Y-63725515D01*
X118164428Y-63725515D02*
X118055571Y-63689230D01*
X118055571Y-63689230D02*
X118019285Y-63652944D01*
X118019285Y-63652944D02*
X118019285Y-63398944D01*
X118019285Y-63398944D02*
X118164428Y-63398944D01*
X117692714Y-63725515D02*
X117692714Y-62963515D01*
X117692714Y-62963515D02*
X117257285Y-63725515D01*
X117257285Y-63725515D02*
X117257285Y-62963515D01*
X116894428Y-63725515D02*
X116894428Y-62963515D01*
X116894428Y-62963515D02*
X116712999Y-62963515D01*
X116712999Y-62963515D02*
X116604142Y-62999801D01*
X116604142Y-62999801D02*
X116531571Y-63072372D01*
X116531571Y-63072372D02*
X116495285Y-63144944D01*
X116495285Y-63144944D02*
X116458999Y-63290087D01*
X116458999Y-63290087D02*
X116458999Y-63398944D01*
X116458999Y-63398944D02*
X116495285Y-63544087D01*
X116495285Y-63544087D02*
X116531571Y-63616658D01*
X116531571Y-63616658D02*
X116604142Y-63689230D01*
X116604142Y-63689230D02*
X116712999Y-63725515D01*
X116712999Y-63725515D02*
X116894428Y-63725515D01*
X131880427Y-65503515D02*
X131372427Y-66265515D01*
X131372427Y-65503515D02*
X131880427Y-66265515D01*
X130936999Y-65503515D02*
X130791856Y-65503515D01*
X130791856Y-65503515D02*
X130719285Y-65539801D01*
X130719285Y-65539801D02*
X130646713Y-65612372D01*
X130646713Y-65612372D02*
X130610428Y-65757515D01*
X130610428Y-65757515D02*
X130610428Y-66011515D01*
X130610428Y-66011515D02*
X130646713Y-66156658D01*
X130646713Y-66156658D02*
X130719285Y-66229230D01*
X130719285Y-66229230D02*
X130791856Y-66265515D01*
X130791856Y-66265515D02*
X130936999Y-66265515D01*
X130936999Y-66265515D02*
X131009571Y-66229230D01*
X131009571Y-66229230D02*
X131082142Y-66156658D01*
X131082142Y-66156658D02*
X131118428Y-66011515D01*
X131118428Y-66011515D02*
X131118428Y-65757515D01*
X131118428Y-65757515D02*
X131082142Y-65612372D01*
X131082142Y-65612372D02*
X131009571Y-65539801D01*
X131009571Y-65539801D02*
X130936999Y-65503515D01*
X129848427Y-66265515D02*
X130102427Y-65902658D01*
X130283856Y-66265515D02*
X130283856Y-65503515D01*
X130283856Y-65503515D02*
X129993570Y-65503515D01*
X129993570Y-65503515D02*
X129920999Y-65539801D01*
X129920999Y-65539801D02*
X129884713Y-65576087D01*
X129884713Y-65576087D02*
X129848427Y-65648658D01*
X129848427Y-65648658D02*
X129848427Y-65757515D01*
X129848427Y-65757515D02*
X129884713Y-65830087D01*
X129884713Y-65830087D02*
X129920999Y-65866372D01*
X129920999Y-65866372D02*
X129993570Y-65902658D01*
X129993570Y-65902658D02*
X130283856Y-65902658D01*
X129158999Y-66265515D02*
X129521856Y-66265515D01*
X129521856Y-66265515D02*
X129521856Y-65503515D01*
X128941285Y-65576087D02*
X128904999Y-65539801D01*
X128904999Y-65539801D02*
X128832428Y-65503515D01*
X128832428Y-65503515D02*
X128650999Y-65503515D01*
X128650999Y-65503515D02*
X128578428Y-65539801D01*
X128578428Y-65539801D02*
X128542142Y-65576087D01*
X128542142Y-65576087D02*
X128505856Y-65648658D01*
X128505856Y-65648658D02*
X128505856Y-65721230D01*
X128505856Y-65721230D02*
X128542142Y-65830087D01*
X128542142Y-65830087D02*
X128977570Y-66265515D01*
X128977570Y-66265515D02*
X128505856Y-66265515D01*
X118490999Y-61693515D02*
X118236999Y-62455515D01*
X118236999Y-62455515D02*
X117982999Y-61693515D01*
X117293570Y-62382944D02*
X117329856Y-62419230D01*
X117329856Y-62419230D02*
X117438713Y-62455515D01*
X117438713Y-62455515D02*
X117511285Y-62455515D01*
X117511285Y-62455515D02*
X117620142Y-62419230D01*
X117620142Y-62419230D02*
X117692713Y-62346658D01*
X117692713Y-62346658D02*
X117728999Y-62274087D01*
X117728999Y-62274087D02*
X117765285Y-62128944D01*
X117765285Y-62128944D02*
X117765285Y-62020087D01*
X117765285Y-62020087D02*
X117728999Y-61874944D01*
X117728999Y-61874944D02*
X117692713Y-61802372D01*
X117692713Y-61802372D02*
X117620142Y-61729801D01*
X117620142Y-61729801D02*
X117511285Y-61693515D01*
X117511285Y-61693515D02*
X117438713Y-61693515D01*
X117438713Y-61693515D02*
X117329856Y-61729801D01*
X117329856Y-61729801D02*
X117293570Y-61766087D01*
X116531570Y-62382944D02*
X116567856Y-62419230D01*
X116567856Y-62419230D02*
X116676713Y-62455515D01*
X116676713Y-62455515D02*
X116749285Y-62455515D01*
X116749285Y-62455515D02*
X116858142Y-62419230D01*
X116858142Y-62419230D02*
X116930713Y-62346658D01*
X116930713Y-62346658D02*
X116966999Y-62274087D01*
X116966999Y-62274087D02*
X117003285Y-62128944D01*
X117003285Y-62128944D02*
X117003285Y-62020087D01*
X117003285Y-62020087D02*
X116966999Y-61874944D01*
X116966999Y-61874944D02*
X116930713Y-61802372D01*
X116930713Y-61802372D02*
X116858142Y-61729801D01*
X116858142Y-61729801D02*
X116749285Y-61693515D01*
X116749285Y-61693515D02*
X116676713Y-61693515D01*
X116676713Y-61693515D02*
X116567856Y-61729801D01*
X116567856Y-61729801D02*
X116531570Y-61766087D01*
X118037428Y-67136372D02*
X117783428Y-67136372D01*
X117674571Y-67535515D02*
X118037428Y-67535515D01*
X118037428Y-67535515D02*
X118037428Y-66773515D01*
X118037428Y-66773515D02*
X117674571Y-66773515D01*
X117347999Y-67535515D02*
X117347999Y-66773515D01*
X117347999Y-66773515D02*
X116912570Y-67535515D01*
X116912570Y-67535515D02*
X116912570Y-66773515D01*
X131517571Y-61729801D02*
X131590143Y-61693515D01*
X131590143Y-61693515D02*
X131699000Y-61693515D01*
X131699000Y-61693515D02*
X131807857Y-61729801D01*
X131807857Y-61729801D02*
X131880428Y-61802372D01*
X131880428Y-61802372D02*
X131916714Y-61874944D01*
X131916714Y-61874944D02*
X131953000Y-62020087D01*
X131953000Y-62020087D02*
X131953000Y-62128944D01*
X131953000Y-62128944D02*
X131916714Y-62274087D01*
X131916714Y-62274087D02*
X131880428Y-62346658D01*
X131880428Y-62346658D02*
X131807857Y-62419230D01*
X131807857Y-62419230D02*
X131699000Y-62455515D01*
X131699000Y-62455515D02*
X131626428Y-62455515D01*
X131626428Y-62455515D02*
X131517571Y-62419230D01*
X131517571Y-62419230D02*
X131481285Y-62382944D01*
X131481285Y-62382944D02*
X131481285Y-62128944D01*
X131481285Y-62128944D02*
X131626428Y-62128944D01*
X131154714Y-62455515D02*
X131154714Y-61693515D01*
X131154714Y-61693515D02*
X130719285Y-62455515D01*
X130719285Y-62455515D02*
X130719285Y-61693515D01*
X130356428Y-62455515D02*
X130356428Y-61693515D01*
X130356428Y-61693515D02*
X130174999Y-61693515D01*
X130174999Y-61693515D02*
X130066142Y-61729801D01*
X130066142Y-61729801D02*
X129993571Y-61802372D01*
X129993571Y-61802372D02*
X129957285Y-61874944D01*
X129957285Y-61874944D02*
X129920999Y-62020087D01*
X129920999Y-62020087D02*
X129920999Y-62128944D01*
X129920999Y-62128944D02*
X129957285Y-62274087D01*
X129957285Y-62274087D02*
X129993571Y-62346658D01*
X129993571Y-62346658D02*
X130066142Y-62419230D01*
X130066142Y-62419230D02*
X130174999Y-62455515D01*
X130174999Y-62455515D02*
X130356428Y-62455515D01*
M02*
