M48
; DRILL file {KiCad 7.0.1} date Mon Jun  5 15:43:26 2023
; FORMAT={-:-/ absolute / inch / decimal}
; #@! TF.CreationDate,2023-06-05T15:43:26-04:00
; #@! TF.GenerationSoftware,Kicad,Pcbnew,7.0.1
; #@! TF.FileFunction,Plated,1,4,PTH
FMAT,2
INCH
; #@! TA.AperFunction,Plated,PTH,ViaDrill
T1C0.0047
; #@! TA.AperFunction,Plated,PTH,ComponentDrill
T2C0.0260
%
G90
G05
T1
X4.598Y-2.666
X4.598Y-2.682
X4.616Y-2.448
X4.632Y-2.448
X4.657Y-2.668
X4.657Y-2.684
X4.677Y-2.448
X4.678Y-2.685
X4.686Y-2.41
X4.693Y-2.448
X4.711Y-2.5122
X4.711Y-2.572
X4.7174Y-2.6658
X4.7243Y-2.4877
X4.737Y-2.41
X4.746Y-2.4745
X4.7465Y-2.5146
X4.749Y-2.666
X4.762Y-2.41
X4.7627Y-2.568
X4.7781Y-2.4946
X4.7953Y-2.5727
X4.802Y-2.6052
X4.8054Y-2.41
X4.8132Y-2.572
X4.8143Y-2.68
X4.859Y-2.6671
X4.8621Y-2.41
X4.8783Y-2.563
X4.8822Y-2.41
X4.895Y-2.493
X4.8961Y-2.5724
X4.9014Y-2.6056
X4.9171Y-2.4755
X4.919Y-2.568
X4.9239Y-2.41
X4.9278Y-2.6679
X4.947Y-2.4956
X4.951Y-2.41
X4.957Y-2.5699
X4.9785Y-2.6845
X4.991Y-2.568
X5.0Y-2.41
X5.0245Y-2.6222
X5.043Y-2.6325
X5.05Y-2.5593
X5.0508Y-2.4854
X5.06Y-2.5398
X5.0602Y-2.5198
X5.0602Y-2.5793
X5.0626Y-2.41
X5.0654Y-2.6485
X5.0657Y-2.6685
X5.1117Y-2.6685
X5.1335Y-2.6784
X5.138Y-2.41
X5.1676Y-2.645
X5.192Y-2.41
X5.205Y-2.5792
T2
X4.54Y-2.445
X4.54Y-2.495
X4.54Y-2.545
X4.54Y-2.595
X4.54Y-2.645
X5.24Y-2.445
X5.24Y-2.495
X5.24Y-2.545
X5.24Y-2.595
X5.24Y-2.645
T0
M30
