%TF.GenerationSoftware,KiCad,Pcbnew,(7.0.0)*%
%TF.CreationDate,2023-03-07T13:57:33-05:00*%
%TF.ProjectId,imu-stamp,696d752d-7374-4616-9d70-2e6b69636164,rev?*%
%TF.SameCoordinates,Original*%
%TF.FileFunction,Legend,Top*%
%TF.FilePolarity,Positive*%
%FSLAX46Y46*%
G04 Gerber Fmt 4.6, Leading zero omitted, Abs format (unit mm)*
G04 Created by KiCad (PCBNEW (7.0.0)) date 2023-03-07 13:57:33*
%MOMM*%
%LPD*%
G01*
G04 APERTURE LIST*
%ADD10C,0.120000*%
%ADD11C,0.150000*%
G04 APERTURE END LIST*
D10*
%TO.C,U3*%
X124882000Y-64308000D02*
X124882000Y-64983000D01*
X125557000Y-61763000D02*
X124882000Y-61763000D01*
X125557000Y-64983000D02*
X124882000Y-64983000D01*
X127427000Y-61763000D02*
X128102000Y-61763000D01*
X127427000Y-64983000D02*
X128102000Y-64983000D01*
X128102000Y-62438000D02*
X128102000Y-61763000D01*
X128102000Y-64308000D02*
X128102000Y-64983000D01*
%TO.C,U6*%
X120564000Y-64303000D02*
X120564000Y-64978000D01*
X121239000Y-61758000D02*
X120564000Y-61758000D01*
X121239000Y-64978000D02*
X120564000Y-64978000D01*
X123109000Y-61758000D02*
X123784000Y-61758000D01*
X123109000Y-64978000D02*
X123784000Y-64978000D01*
X123784000Y-62433000D02*
X123784000Y-61758000D01*
X123784000Y-64303000D02*
X123784000Y-64978000D01*
%TO.C,U2*%
X116169000Y-65430400D02*
X116169000Y-67230400D01*
X116169000Y-65430400D02*
X116169000Y-64630400D01*
X119289000Y-65430400D02*
X119289000Y-66230400D01*
X119289000Y-65430400D02*
X119289000Y-64630400D01*
%TO.C,C6*%
X124479164Y-60854000D02*
X124694836Y-60854000D01*
X124479164Y-61574000D02*
X124694836Y-61574000D01*
%TO.C,U5*%
X121822000Y-65321000D02*
X121822000Y-65321000D01*
X120122000Y-65321000D02*
X120122000Y-65321000D01*
X119622000Y-65321000D02*
X120122000Y-65321000D01*
X121822000Y-65821000D02*
X121822000Y-65321000D01*
X119622000Y-65821000D02*
X119622000Y-65321000D01*
X121822000Y-67021000D02*
X121822000Y-67521000D01*
X119622000Y-67021000D02*
X119622000Y-67021000D01*
X121822000Y-67521000D02*
X121322000Y-67521000D01*
X121322000Y-67521000D02*
X121322000Y-67521000D01*
X120122000Y-67521000D02*
X119622000Y-67521000D01*
X119622000Y-67521000D02*
X119622000Y-67021000D01*
%TO.C,C3*%
X117309020Y-60907200D02*
X117590180Y-60907200D01*
X117309020Y-61927200D02*
X117590180Y-61927200D01*
%TO.C,C9*%
X125317364Y-65299000D02*
X125533036Y-65299000D01*
X125317364Y-66019000D02*
X125533036Y-66019000D01*
%TO.C,C15*%
X127146164Y-65299000D02*
X127361836Y-65299000D01*
X127146164Y-66019000D02*
X127361836Y-66019000D01*
D11*
%TO.C,U1*%
X131675000Y-61891000D02*
X128675000Y-61891000D01*
X130175000Y-67141000D02*
X128675000Y-67141000D01*
D10*
%TO.C,U8*%
X124417000Y-65321000D02*
X124417000Y-65321000D01*
X122717000Y-65321000D02*
X122717000Y-65321000D01*
X122217000Y-65321000D02*
X122717000Y-65321000D01*
X124417000Y-65821000D02*
X124417000Y-65321000D01*
X122217000Y-65821000D02*
X122217000Y-65321000D01*
X124417000Y-67021000D02*
X124417000Y-67521000D01*
X122217000Y-67021000D02*
X122217000Y-67021000D01*
X124417000Y-67521000D02*
X123917000Y-67521000D01*
X123917000Y-67521000D02*
X123917000Y-67521000D01*
X122717000Y-67521000D02*
X122217000Y-67521000D01*
X122217000Y-67521000D02*
X122217000Y-67021000D01*
%TO.C,U7*%
X127254000Y-67039000D02*
X126729000Y-67039000D01*
X126729000Y-67039000D02*
X126729000Y-68089000D01*
X127779000Y-68089000D02*
X127779000Y-67564000D01*
X126729000Y-68089000D02*
X127779000Y-68089000D01*
%TO.C,C4*%
X116986164Y-67585000D02*
X117201836Y-67585000D01*
X116986164Y-68305000D02*
X117201836Y-68305000D01*
%TO.C,U4*%
X125857000Y-67039000D02*
X125332000Y-67039000D01*
X125332000Y-67039000D02*
X125332000Y-68089000D01*
X126382000Y-68089000D02*
X126382000Y-67564000D01*
X125332000Y-68089000D02*
X126382000Y-68089000D01*
%TO.C,C2*%
X118068420Y-62228000D02*
X118349580Y-62228000D01*
X118068420Y-63248000D02*
X118349580Y-63248000D01*
%TO.C,C12*%
X119945036Y-61574000D02*
X119729364Y-61574000D01*
X119945036Y-60854000D02*
X119729364Y-60854000D01*
%TD*%
M02*
