M48
; DRILL file {KiCad (6.0.5)} date Fri Mar  3 08:38:57 2023
; FORMAT={-:-/ absolute / inch / decimal}
; #@! TF.CreationDate,2023-03-03T08:38:57-05:00
; #@! TF.GenerationSoftware,Kicad,Pcbnew,(6.0.5)
; #@! TF.FileFunction,Plated,1,4,PTH
FMAT,2
INCH
; #@! TA.AperFunction,Plated,PTH,ViaDrill
T1C0.0059
; #@! TA.AperFunction,Plated,PTH,ComponentDrill
T2C0.0256
%
G90
G05
T1
X4.591Y-2.655
X4.5911Y-2.675
X4.6234Y-2.479
X4.6234Y-2.479
X4.624Y-2.461
X4.6289Y-2.675
X4.629Y-2.655
X4.6624Y-2.678
X4.684Y-2.46
X4.684Y-2.48
X4.699Y-2.41
X4.7174Y-2.6789
X4.724Y-2.563
X4.7243Y-2.4724
X4.7243Y-2.5122
X4.737Y-2.41
X4.7426Y-2.6789
X4.763Y-2.565
X4.772Y-2.41
X4.7829Y-2.4951
X4.793Y-2.476
X4.795Y-2.515
X4.797Y-2.41
X4.802Y-2.605
X4.804Y-2.575
X4.8274Y-2.68
X4.8526Y-2.68
X4.853Y-2.41
X4.8649Y-2.56
X4.885Y-2.568
X4.886Y-2.41
X4.895Y-2.478
X4.895Y-2.5176
X4.9055Y-2.6103
X4.9076Y-2.68
X4.919Y-2.569
X4.924Y-2.411
X4.924Y-2.66
X4.954Y-2.495
X4.957Y-2.569
X4.9574Y-2.41
X4.967Y-2.476
X4.967Y-2.515
X4.981Y-2.66
X4.9826Y-2.41
X4.9911Y-2.569
X5.022Y-2.6226
X5.0376Y-2.41
X5.04Y-2.66
X5.0455Y-2.5507
X5.0518Y-2.5103
X5.06Y-2.5302
X5.06Y-2.5695
X5.0694Y-2.431
X5.072Y-2.6584
X5.0776Y-2.5892
X5.0864Y-2.686
X5.1116Y-2.658
X5.1244Y-2.41
X5.1424Y-2.686
X5.1496Y-2.41
X5.1676Y-2.658
X5.1794Y-2.41
X5.2005Y-2.589
X5.2046Y-2.41
T2
X4.5453Y-2.4448
X4.5453Y-2.4948
X4.5453Y-2.5448
X4.5453Y-2.5948
X4.5453Y-2.6448
X5.235Y-2.4452
X5.235Y-2.4952
X5.235Y-2.5452
X5.235Y-2.5952
X5.235Y-2.6452
T2
G00X4.5113Y-2.4448
M15
G01X4.5113Y-2.4448
M16
G05
G00X4.5113Y-2.4948
M15
G01X4.5113Y-2.4948
M16
G05
G00X4.5113Y-2.5448
M15
G01X4.5113Y-2.5448
M16
G05
G00X4.5113Y-2.5948
M15
G01X4.5113Y-2.5948
M16
G05
G00X4.5113Y-2.6448
M15
G01X4.5113Y-2.6448
M16
G05
G00X5.269Y-2.4452
M15
G01X5.269Y-2.4452
M16
G05
G00X5.269Y-2.4952
M15
G01X5.269Y-2.4952
M16
G05
G00X5.269Y-2.5452
M15
G01X5.269Y-2.5452
M16
G05
G00X5.269Y-2.5952
M15
G01X5.269Y-2.5952
M16
G05
G00X5.269Y-2.6452
M15
G01X5.269Y-2.6452
M16
G05
T0
M30
