%TF.GenerationSoftware,KiCad,Pcbnew,7.0.1*%
%TF.CreationDate,2023-06-05T15:43:26-04:00*%
%TF.ProjectId,imu-stamp,696d752d-7374-4616-9d70-2e6b69636164,rev?*%
%TF.SameCoordinates,Original*%
%TF.FileFunction,Drillmap*%
%TF.FilePolarity,Positive*%
%FSLAX45Y45*%
G04 Gerber Fmt 4.5, Leading zero omitted, Abs format (unit mm)*
G04 Created by KiCad (PCBNEW 7.0.1) date 2023-06-05 15:43:26*
%MOMM*%
%LPD*%
G01*
G04 APERTURE LIST*
%ADD10C,0.100000*%
%ADD11C,0.200000*%
%ADD12C,0.012000*%
%ADD13C,0.066040*%
G04 APERTURE END LIST*
D10*
X13309600Y-6858000D02*
X13309600Y-6070600D01*
X11531600Y-6070600D02*
X13309600Y-6070600D01*
X11531600Y-6858000D02*
X11531600Y-6070600D01*
X11531600Y-6858000D02*
X13309600Y-6858000D01*
D11*
D12*
X11672920Y-6765640D02*
X11684920Y-6777640D01*
X11684920Y-6765640D02*
X11672920Y-6777640D01*
X11672920Y-6806280D02*
X11684920Y-6818280D01*
X11684920Y-6806280D02*
X11672920Y-6818280D01*
X11718640Y-6211920D02*
X11730640Y-6223920D01*
X11730640Y-6211920D02*
X11718640Y-6223920D01*
X11759280Y-6211920D02*
X11771280Y-6223920D01*
X11771280Y-6211920D02*
X11759280Y-6223920D01*
X11822780Y-6770720D02*
X11834780Y-6782720D01*
X11834780Y-6770720D02*
X11822780Y-6782720D01*
X11822780Y-6811360D02*
X11834780Y-6823360D01*
X11834780Y-6811360D02*
X11822780Y-6823360D01*
X11873640Y-6211920D02*
X11885640Y-6223920D01*
X11885640Y-6211920D02*
X11873640Y-6223920D01*
X11876120Y-6813900D02*
X11888120Y-6825900D01*
X11888120Y-6813900D02*
X11876120Y-6825900D01*
X11896440Y-6115400D02*
X11908440Y-6127400D01*
X11908440Y-6115400D02*
X11896440Y-6127400D01*
X11914280Y-6211920D02*
X11926280Y-6223920D01*
X11926280Y-6211920D02*
X11914280Y-6223920D01*
X11959940Y-6375000D02*
X11971940Y-6387000D01*
X11971940Y-6375000D02*
X11959940Y-6387000D01*
X11959940Y-6526880D02*
X11971940Y-6538880D01*
X11971940Y-6526880D02*
X11959940Y-6538880D01*
X11976200Y-6765120D02*
X11988200Y-6777120D01*
X11988200Y-6765120D02*
X11976200Y-6777120D01*
X11993700Y-6312780D02*
X12005700Y-6324780D01*
X12005700Y-6312780D02*
X11993700Y-6324780D01*
X12025980Y-6115400D02*
X12037980Y-6127400D01*
X12037980Y-6115400D02*
X12025980Y-6127400D01*
X12048963Y-6279336D02*
X12060963Y-6291336D01*
X12060963Y-6279336D02*
X12048963Y-6291336D01*
X12050090Y-6381015D02*
X12062090Y-6393015D01*
X12062090Y-6381015D02*
X12050090Y-6393015D01*
X12056460Y-6765640D02*
X12068460Y-6777640D01*
X12068460Y-6765640D02*
X12056460Y-6777640D01*
X12089480Y-6115400D02*
X12101480Y-6127400D01*
X12101480Y-6115400D02*
X12089480Y-6127400D01*
X12091250Y-6516720D02*
X12103250Y-6528720D01*
X12103250Y-6516720D02*
X12091250Y-6528720D01*
X12130408Y-6330212D02*
X12142408Y-6342212D01*
X12142408Y-6330212D02*
X12130408Y-6342212D01*
X12174170Y-6528590D02*
X12186170Y-6540590D01*
X12186170Y-6528590D02*
X12174170Y-6540590D01*
X12191080Y-6611100D02*
X12203080Y-6623100D01*
X12203080Y-6611100D02*
X12191080Y-6623100D01*
X12199650Y-6115400D02*
X12211650Y-6127400D01*
X12211650Y-6115400D02*
X12199650Y-6127400D01*
X12219440Y-6526880D02*
X12231440Y-6538880D01*
X12231440Y-6526880D02*
X12219440Y-6538880D01*
X12222320Y-6801200D02*
X12234320Y-6813200D01*
X12234320Y-6801200D02*
X12222320Y-6813200D01*
X12335860Y-6768440D02*
X12347860Y-6780440D01*
X12347860Y-6768440D02*
X12335860Y-6780440D01*
X12343750Y-6115400D02*
X12355750Y-6127400D01*
X12355750Y-6115400D02*
X12343750Y-6127400D01*
X12384971Y-6504131D02*
X12396971Y-6516131D01*
X12396971Y-6504131D02*
X12384971Y-6516131D01*
X12394700Y-6115400D02*
X12406700Y-6127400D01*
X12406700Y-6115400D02*
X12394700Y-6127400D01*
X12427300Y-6326220D02*
X12439300Y-6338220D01*
X12439300Y-6326220D02*
X12427300Y-6338220D01*
X12430018Y-6527937D02*
X12442018Y-6539937D01*
X12442018Y-6527937D02*
X12430018Y-6539937D01*
X12443466Y-6612113D02*
X12455466Y-6624113D01*
X12455466Y-6612113D02*
X12443466Y-6624113D01*
X12483407Y-6281889D02*
X12495407Y-6293889D01*
X12495407Y-6281889D02*
X12483407Y-6293889D01*
X12488260Y-6516720D02*
X12500260Y-6528720D01*
X12500260Y-6516720D02*
X12488260Y-6528720D01*
X12500700Y-6115400D02*
X12512700Y-6127400D01*
X12512700Y-6115400D02*
X12500700Y-6127400D01*
X12510502Y-6770400D02*
X12522502Y-6782400D01*
X12522502Y-6770400D02*
X12510502Y-6782400D01*
X12559380Y-6332839D02*
X12571380Y-6344839D01*
X12571380Y-6332839D02*
X12559380Y-6344839D01*
X12569540Y-6115400D02*
X12581540Y-6127400D01*
X12581540Y-6115400D02*
X12569540Y-6127400D01*
X12584842Y-6521625D02*
X12596842Y-6533625D01*
X12596842Y-6521625D02*
X12584842Y-6533625D01*
X12639415Y-6812655D02*
X12651415Y-6824655D01*
X12651415Y-6812655D02*
X12639415Y-6824655D01*
X12671140Y-6516720D02*
X12683140Y-6528720D01*
X12683140Y-6516720D02*
X12671140Y-6528720D01*
X12694000Y-6115400D02*
X12706000Y-6127400D01*
X12706000Y-6115400D02*
X12694000Y-6127400D01*
X12756141Y-6654496D02*
X12768141Y-6666496D01*
X12768141Y-6654496D02*
X12756141Y-6666496D01*
X12803220Y-6680573D02*
X12815220Y-6692573D01*
X12815220Y-6680573D02*
X12803220Y-6692573D01*
X12821000Y-6494506D02*
X12833000Y-6506506D01*
X12833000Y-6494506D02*
X12821000Y-6506506D01*
X12823062Y-6306801D02*
X12835062Y-6318801D01*
X12835062Y-6306801D02*
X12823062Y-6318801D01*
X12846400Y-6445125D02*
X12858400Y-6457125D01*
X12858400Y-6445125D02*
X12846400Y-6457125D01*
X12846951Y-6394178D02*
X12858951Y-6406178D01*
X12858951Y-6394178D02*
X12846951Y-6406178D01*
X12847034Y-6545448D02*
X12859034Y-6557448D01*
X12859034Y-6545448D02*
X12847034Y-6557448D01*
X12853000Y-6115400D02*
X12865000Y-6127400D01*
X12865000Y-6115400D02*
X12853000Y-6127400D01*
X12859999Y-6721143D02*
X12871999Y-6733143D01*
X12871999Y-6721143D02*
X12859999Y-6733143D01*
X12860917Y-6772085D02*
X12872917Y-6784085D01*
X12872917Y-6772085D02*
X12860917Y-6784085D01*
X12977609Y-6772085D02*
X12989609Y-6784085D01*
X12989609Y-6772085D02*
X12977609Y-6784085D01*
X13033109Y-6797185D02*
X13045109Y-6809185D01*
X13045109Y-6797185D02*
X13033109Y-6809185D01*
X13044520Y-6115400D02*
X13056520Y-6127400D01*
X13056520Y-6115400D02*
X13044520Y-6127400D01*
X13119700Y-6712300D02*
X13131700Y-6724300D01*
X13131700Y-6712300D02*
X13119700Y-6724300D01*
X13181680Y-6115400D02*
X13193680Y-6127400D01*
X13193680Y-6115400D02*
X13181680Y-6127400D01*
X13214700Y-6545200D02*
X13226700Y-6557200D01*
X13226700Y-6545200D02*
X13214700Y-6557200D01*
D13*
X11564620Y-6210300D02*
G75*
G03*
X11564620Y-6210300I-33020J0D01*
G01*
X11564620Y-6337300D02*
G75*
G03*
X11564620Y-6337300I-33020J0D01*
G01*
X11564620Y-6464300D02*
G75*
G03*
X11564620Y-6464300I-33020J0D01*
G01*
X11564620Y-6591300D02*
G75*
G03*
X11564620Y-6591300I-33020J0D01*
G01*
X11564620Y-6718300D02*
G75*
G03*
X11564620Y-6718300I-33020J0D01*
G01*
X13342620Y-6210300D02*
G75*
G03*
X13342620Y-6210300I-33020J0D01*
G01*
X13342620Y-6337300D02*
G75*
G03*
X13342620Y-6337300I-33020J0D01*
G01*
X13342620Y-6464300D02*
G75*
G03*
X13342620Y-6464300I-33020J0D01*
G01*
X13342620Y-6591300D02*
G75*
G03*
X13342620Y-6591300I-33020J0D01*
G01*
X13342620Y-6718300D02*
G75*
G03*
X13342620Y-6718300I-33020J0D01*
G01*
D11*
X11774219Y-7175524D02*
X11774219Y-6975524D01*
X11774219Y-6975524D02*
X11821838Y-6975524D01*
X11821838Y-6975524D02*
X11850409Y-6985048D01*
X11850409Y-6985048D02*
X11869457Y-7004095D01*
X11869457Y-7004095D02*
X11878981Y-7023143D01*
X11878981Y-7023143D02*
X11888505Y-7061238D01*
X11888505Y-7061238D02*
X11888505Y-7089809D01*
X11888505Y-7089809D02*
X11878981Y-7127905D01*
X11878981Y-7127905D02*
X11869457Y-7146952D01*
X11869457Y-7146952D02*
X11850409Y-7166000D01*
X11850409Y-7166000D02*
X11821838Y-7175524D01*
X11821838Y-7175524D02*
X11774219Y-7175524D01*
X11974219Y-7175524D02*
X11974219Y-7042190D01*
X11974219Y-7080286D02*
X11983743Y-7061238D01*
X11983743Y-7061238D02*
X11993267Y-7051714D01*
X11993267Y-7051714D02*
X12012314Y-7042190D01*
X12012314Y-7042190D02*
X12031362Y-7042190D01*
X12098028Y-7175524D02*
X12098028Y-7042190D01*
X12098028Y-6975524D02*
X12088505Y-6985048D01*
X12088505Y-6985048D02*
X12098028Y-6994571D01*
X12098028Y-6994571D02*
X12107552Y-6985048D01*
X12107552Y-6985048D02*
X12098028Y-6975524D01*
X12098028Y-6975524D02*
X12098028Y-6994571D01*
X12221838Y-7175524D02*
X12202790Y-7166000D01*
X12202790Y-7166000D02*
X12193267Y-7146952D01*
X12193267Y-7146952D02*
X12193267Y-6975524D01*
X12326600Y-7175524D02*
X12307552Y-7166000D01*
X12307552Y-7166000D02*
X12298028Y-7146952D01*
X12298028Y-7146952D02*
X12298028Y-6975524D01*
X12555171Y-7175524D02*
X12555171Y-6975524D01*
X12555171Y-6975524D02*
X12621838Y-7118381D01*
X12621838Y-7118381D02*
X12688505Y-6975524D01*
X12688505Y-6975524D02*
X12688505Y-7175524D01*
X12869457Y-7175524D02*
X12869457Y-7070762D01*
X12869457Y-7070762D02*
X12859933Y-7051714D01*
X12859933Y-7051714D02*
X12840886Y-7042190D01*
X12840886Y-7042190D02*
X12802790Y-7042190D01*
X12802790Y-7042190D02*
X12783743Y-7051714D01*
X12869457Y-7166000D02*
X12850409Y-7175524D01*
X12850409Y-7175524D02*
X12802790Y-7175524D01*
X12802790Y-7175524D02*
X12783743Y-7166000D01*
X12783743Y-7166000D02*
X12774219Y-7146952D01*
X12774219Y-7146952D02*
X12774219Y-7127905D01*
X12774219Y-7127905D02*
X12783743Y-7108857D01*
X12783743Y-7108857D02*
X12802790Y-7099333D01*
X12802790Y-7099333D02*
X12850409Y-7099333D01*
X12850409Y-7099333D02*
X12869457Y-7089809D01*
X12964695Y-7042190D02*
X12964695Y-7242190D01*
X12964695Y-7051714D02*
X12983743Y-7042190D01*
X12983743Y-7042190D02*
X13021838Y-7042190D01*
X13021838Y-7042190D02*
X13040886Y-7051714D01*
X13040886Y-7051714D02*
X13050409Y-7061238D01*
X13050409Y-7061238D02*
X13059933Y-7080286D01*
X13059933Y-7080286D02*
X13059933Y-7137428D01*
X13059933Y-7137428D02*
X13050409Y-7156476D01*
X13050409Y-7156476D02*
X13040886Y-7166000D01*
X13040886Y-7166000D02*
X13021838Y-7175524D01*
X13021838Y-7175524D02*
X12983743Y-7175524D01*
X12983743Y-7175524D02*
X12964695Y-7166000D01*
X13145648Y-7156476D02*
X13155171Y-7166000D01*
X13155171Y-7166000D02*
X13145648Y-7175524D01*
X13145648Y-7175524D02*
X13136124Y-7166000D01*
X13136124Y-7166000D02*
X13145648Y-7156476D01*
X13145648Y-7156476D02*
X13145648Y-7175524D01*
X13145648Y-7051714D02*
X13155171Y-7061238D01*
X13155171Y-7061238D02*
X13145648Y-7070762D01*
X13145648Y-7070762D02*
X13136124Y-7061238D01*
X13136124Y-7061238D02*
X13145648Y-7051714D01*
X13145648Y-7051714D02*
X13145648Y-7070762D01*
D12*
X11514600Y-7497000D02*
X11526600Y-7509000D01*
X11526600Y-7497000D02*
X11514600Y-7509000D01*
D11*
X11812314Y-7395524D02*
X11831362Y-7395524D01*
X11831362Y-7395524D02*
X11850409Y-7405048D01*
X11850409Y-7405048D02*
X11859933Y-7414571D01*
X11859933Y-7414571D02*
X11869457Y-7433619D01*
X11869457Y-7433619D02*
X11878981Y-7471714D01*
X11878981Y-7471714D02*
X11878981Y-7519333D01*
X11878981Y-7519333D02*
X11869457Y-7557428D01*
X11869457Y-7557428D02*
X11859933Y-7576476D01*
X11859933Y-7576476D02*
X11850409Y-7586000D01*
X11850409Y-7586000D02*
X11831362Y-7595524D01*
X11831362Y-7595524D02*
X11812314Y-7595524D01*
X11812314Y-7595524D02*
X11793267Y-7586000D01*
X11793267Y-7586000D02*
X11783743Y-7576476D01*
X11783743Y-7576476D02*
X11774219Y-7557428D01*
X11774219Y-7557428D02*
X11764695Y-7519333D01*
X11764695Y-7519333D02*
X11764695Y-7471714D01*
X11764695Y-7471714D02*
X11774219Y-7433619D01*
X11774219Y-7433619D02*
X11783743Y-7414571D01*
X11783743Y-7414571D02*
X11793267Y-7405048D01*
X11793267Y-7405048D02*
X11812314Y-7395524D01*
X11964695Y-7576476D02*
X11974219Y-7586000D01*
X11974219Y-7586000D02*
X11964695Y-7595524D01*
X11964695Y-7595524D02*
X11955171Y-7586000D01*
X11955171Y-7586000D02*
X11964695Y-7576476D01*
X11964695Y-7576476D02*
X11964695Y-7595524D01*
X12164695Y-7595524D02*
X12050409Y-7595524D01*
X12107552Y-7595524D02*
X12107552Y-7395524D01*
X12107552Y-7395524D02*
X12088505Y-7424095D01*
X12088505Y-7424095D02*
X12069457Y-7443143D01*
X12069457Y-7443143D02*
X12050409Y-7452667D01*
X12240886Y-7414571D02*
X12250409Y-7405048D01*
X12250409Y-7405048D02*
X12269457Y-7395524D01*
X12269457Y-7395524D02*
X12317076Y-7395524D01*
X12317076Y-7395524D02*
X12336124Y-7405048D01*
X12336124Y-7405048D02*
X12345648Y-7414571D01*
X12345648Y-7414571D02*
X12355171Y-7433619D01*
X12355171Y-7433619D02*
X12355171Y-7452667D01*
X12355171Y-7452667D02*
X12345648Y-7481238D01*
X12345648Y-7481238D02*
X12231362Y-7595524D01*
X12231362Y-7595524D02*
X12355171Y-7595524D01*
X12478981Y-7395524D02*
X12498029Y-7395524D01*
X12498029Y-7395524D02*
X12517076Y-7405048D01*
X12517076Y-7405048D02*
X12526600Y-7414571D01*
X12526600Y-7414571D02*
X12536124Y-7433619D01*
X12536124Y-7433619D02*
X12545648Y-7471714D01*
X12545648Y-7471714D02*
X12545648Y-7519333D01*
X12545648Y-7519333D02*
X12536124Y-7557428D01*
X12536124Y-7557428D02*
X12526600Y-7576476D01*
X12526600Y-7576476D02*
X12517076Y-7586000D01*
X12517076Y-7586000D02*
X12498029Y-7595524D01*
X12498029Y-7595524D02*
X12478981Y-7595524D01*
X12478981Y-7595524D02*
X12459933Y-7586000D01*
X12459933Y-7586000D02*
X12450409Y-7576476D01*
X12450409Y-7576476D02*
X12440886Y-7557428D01*
X12440886Y-7557428D02*
X12431362Y-7519333D01*
X12431362Y-7519333D02*
X12431362Y-7471714D01*
X12431362Y-7471714D02*
X12440886Y-7433619D01*
X12440886Y-7433619D02*
X12450409Y-7414571D01*
X12450409Y-7414571D02*
X12459933Y-7405048D01*
X12459933Y-7405048D02*
X12478981Y-7395524D01*
X12631362Y-7595524D02*
X12631362Y-7462190D01*
X12631362Y-7481238D02*
X12640886Y-7471714D01*
X12640886Y-7471714D02*
X12659933Y-7462190D01*
X12659933Y-7462190D02*
X12688505Y-7462190D01*
X12688505Y-7462190D02*
X12707552Y-7471714D01*
X12707552Y-7471714D02*
X12717076Y-7490762D01*
X12717076Y-7490762D02*
X12717076Y-7595524D01*
X12717076Y-7490762D02*
X12726600Y-7471714D01*
X12726600Y-7471714D02*
X12745648Y-7462190D01*
X12745648Y-7462190D02*
X12774219Y-7462190D01*
X12774219Y-7462190D02*
X12793267Y-7471714D01*
X12793267Y-7471714D02*
X12802790Y-7490762D01*
X12802790Y-7490762D02*
X12802790Y-7595524D01*
X12898029Y-7595524D02*
X12898029Y-7462190D01*
X12898029Y-7481238D02*
X12907552Y-7471714D01*
X12907552Y-7471714D02*
X12926600Y-7462190D01*
X12926600Y-7462190D02*
X12955171Y-7462190D01*
X12955171Y-7462190D02*
X12974219Y-7471714D01*
X12974219Y-7471714D02*
X12983743Y-7490762D01*
X12983743Y-7490762D02*
X12983743Y-7595524D01*
X12983743Y-7490762D02*
X12993267Y-7471714D01*
X12993267Y-7471714D02*
X13012314Y-7462190D01*
X13012314Y-7462190D02*
X13040886Y-7462190D01*
X13040886Y-7462190D02*
X13059933Y-7471714D01*
X13059933Y-7471714D02*
X13069457Y-7490762D01*
X13069457Y-7490762D02*
X13069457Y-7595524D01*
X13459933Y-7386000D02*
X13288505Y-7643143D01*
X13717076Y-7395524D02*
X13736124Y-7395524D01*
X13736124Y-7395524D02*
X13755172Y-7405048D01*
X13755172Y-7405048D02*
X13764695Y-7414571D01*
X13764695Y-7414571D02*
X13774219Y-7433619D01*
X13774219Y-7433619D02*
X13783743Y-7471714D01*
X13783743Y-7471714D02*
X13783743Y-7519333D01*
X13783743Y-7519333D02*
X13774219Y-7557428D01*
X13774219Y-7557428D02*
X13764695Y-7576476D01*
X13764695Y-7576476D02*
X13755172Y-7586000D01*
X13755172Y-7586000D02*
X13736124Y-7595524D01*
X13736124Y-7595524D02*
X13717076Y-7595524D01*
X13717076Y-7595524D02*
X13698029Y-7586000D01*
X13698029Y-7586000D02*
X13688505Y-7576476D01*
X13688505Y-7576476D02*
X13678981Y-7557428D01*
X13678981Y-7557428D02*
X13669457Y-7519333D01*
X13669457Y-7519333D02*
X13669457Y-7471714D01*
X13669457Y-7471714D02*
X13678981Y-7433619D01*
X13678981Y-7433619D02*
X13688505Y-7414571D01*
X13688505Y-7414571D02*
X13698029Y-7405048D01*
X13698029Y-7405048D02*
X13717076Y-7395524D01*
X13869457Y-7576476D02*
X13878981Y-7586000D01*
X13878981Y-7586000D02*
X13869457Y-7595524D01*
X13869457Y-7595524D02*
X13859933Y-7586000D01*
X13859933Y-7586000D02*
X13869457Y-7576476D01*
X13869457Y-7576476D02*
X13869457Y-7595524D01*
X14002791Y-7395524D02*
X14021838Y-7395524D01*
X14021838Y-7395524D02*
X14040886Y-7405048D01*
X14040886Y-7405048D02*
X14050410Y-7414571D01*
X14050410Y-7414571D02*
X14059933Y-7433619D01*
X14059933Y-7433619D02*
X14069457Y-7471714D01*
X14069457Y-7471714D02*
X14069457Y-7519333D01*
X14069457Y-7519333D02*
X14059933Y-7557428D01*
X14059933Y-7557428D02*
X14050410Y-7576476D01*
X14050410Y-7576476D02*
X14040886Y-7586000D01*
X14040886Y-7586000D02*
X14021838Y-7595524D01*
X14021838Y-7595524D02*
X14002791Y-7595524D01*
X14002791Y-7595524D02*
X13983743Y-7586000D01*
X13983743Y-7586000D02*
X13974219Y-7576476D01*
X13974219Y-7576476D02*
X13964695Y-7557428D01*
X13964695Y-7557428D02*
X13955172Y-7519333D01*
X13955172Y-7519333D02*
X13955172Y-7471714D01*
X13955172Y-7471714D02*
X13964695Y-7433619D01*
X13964695Y-7433619D02*
X13974219Y-7414571D01*
X13974219Y-7414571D02*
X13983743Y-7405048D01*
X13983743Y-7405048D02*
X14002791Y-7395524D01*
X14193267Y-7395524D02*
X14212314Y-7395524D01*
X14212314Y-7395524D02*
X14231362Y-7405048D01*
X14231362Y-7405048D02*
X14240886Y-7414571D01*
X14240886Y-7414571D02*
X14250410Y-7433619D01*
X14250410Y-7433619D02*
X14259933Y-7471714D01*
X14259933Y-7471714D02*
X14259933Y-7519333D01*
X14259933Y-7519333D02*
X14250410Y-7557428D01*
X14250410Y-7557428D02*
X14240886Y-7576476D01*
X14240886Y-7576476D02*
X14231362Y-7586000D01*
X14231362Y-7586000D02*
X14212314Y-7595524D01*
X14212314Y-7595524D02*
X14193267Y-7595524D01*
X14193267Y-7595524D02*
X14174219Y-7586000D01*
X14174219Y-7586000D02*
X14164695Y-7576476D01*
X14164695Y-7576476D02*
X14155172Y-7557428D01*
X14155172Y-7557428D02*
X14145648Y-7519333D01*
X14145648Y-7519333D02*
X14145648Y-7471714D01*
X14145648Y-7471714D02*
X14155172Y-7433619D01*
X14155172Y-7433619D02*
X14164695Y-7414571D01*
X14164695Y-7414571D02*
X14174219Y-7405048D01*
X14174219Y-7405048D02*
X14193267Y-7395524D01*
X14431362Y-7462190D02*
X14431362Y-7595524D01*
X14383743Y-7386000D02*
X14336124Y-7528857D01*
X14336124Y-7528857D02*
X14459933Y-7528857D01*
X14517076Y-7395524D02*
X14650410Y-7395524D01*
X14650410Y-7395524D02*
X14564695Y-7595524D01*
X14717076Y-7395524D02*
X14717076Y-7433619D01*
X14793267Y-7395524D02*
X14793267Y-7433619D01*
X15088505Y-7671714D02*
X15078981Y-7662190D01*
X15078981Y-7662190D02*
X15059934Y-7633619D01*
X15059934Y-7633619D02*
X15050410Y-7614571D01*
X15050410Y-7614571D02*
X15040886Y-7586000D01*
X15040886Y-7586000D02*
X15031362Y-7538381D01*
X15031362Y-7538381D02*
X15031362Y-7500286D01*
X15031362Y-7500286D02*
X15040886Y-7452667D01*
X15040886Y-7452667D02*
X15050410Y-7424095D01*
X15050410Y-7424095D02*
X15059934Y-7405048D01*
X15059934Y-7405048D02*
X15078981Y-7376476D01*
X15078981Y-7376476D02*
X15088505Y-7366952D01*
X15259934Y-7395524D02*
X15164695Y-7395524D01*
X15164695Y-7395524D02*
X15155172Y-7490762D01*
X15155172Y-7490762D02*
X15164695Y-7481238D01*
X15164695Y-7481238D02*
X15183743Y-7471714D01*
X15183743Y-7471714D02*
X15231362Y-7471714D01*
X15231362Y-7471714D02*
X15250410Y-7481238D01*
X15250410Y-7481238D02*
X15259934Y-7490762D01*
X15259934Y-7490762D02*
X15269457Y-7509809D01*
X15269457Y-7509809D02*
X15269457Y-7557428D01*
X15269457Y-7557428D02*
X15259934Y-7576476D01*
X15259934Y-7576476D02*
X15250410Y-7586000D01*
X15250410Y-7586000D02*
X15231362Y-7595524D01*
X15231362Y-7595524D02*
X15183743Y-7595524D01*
X15183743Y-7595524D02*
X15164695Y-7586000D01*
X15164695Y-7586000D02*
X15155172Y-7576476D01*
X15364695Y-7595524D02*
X15402791Y-7595524D01*
X15402791Y-7595524D02*
X15421838Y-7586000D01*
X15421838Y-7586000D02*
X15431362Y-7576476D01*
X15431362Y-7576476D02*
X15450410Y-7547905D01*
X15450410Y-7547905D02*
X15459934Y-7509809D01*
X15459934Y-7509809D02*
X15459934Y-7433619D01*
X15459934Y-7433619D02*
X15450410Y-7414571D01*
X15450410Y-7414571D02*
X15440886Y-7405048D01*
X15440886Y-7405048D02*
X15421838Y-7395524D01*
X15421838Y-7395524D02*
X15383743Y-7395524D01*
X15383743Y-7395524D02*
X15364695Y-7405048D01*
X15364695Y-7405048D02*
X15355172Y-7414571D01*
X15355172Y-7414571D02*
X15345648Y-7433619D01*
X15345648Y-7433619D02*
X15345648Y-7481238D01*
X15345648Y-7481238D02*
X15355172Y-7500286D01*
X15355172Y-7500286D02*
X15364695Y-7509809D01*
X15364695Y-7509809D02*
X15383743Y-7519333D01*
X15383743Y-7519333D02*
X15421838Y-7519333D01*
X15421838Y-7519333D02*
X15440886Y-7509809D01*
X15440886Y-7509809D02*
X15450410Y-7500286D01*
X15450410Y-7500286D02*
X15459934Y-7481238D01*
X15698029Y-7595524D02*
X15698029Y-7395524D01*
X15783743Y-7595524D02*
X15783743Y-7490762D01*
X15783743Y-7490762D02*
X15774219Y-7471714D01*
X15774219Y-7471714D02*
X15755172Y-7462190D01*
X15755172Y-7462190D02*
X15726600Y-7462190D01*
X15726600Y-7462190D02*
X15707553Y-7471714D01*
X15707553Y-7471714D02*
X15698029Y-7481238D01*
X15907553Y-7595524D02*
X15888505Y-7586000D01*
X15888505Y-7586000D02*
X15878981Y-7576476D01*
X15878981Y-7576476D02*
X15869457Y-7557428D01*
X15869457Y-7557428D02*
X15869457Y-7500286D01*
X15869457Y-7500286D02*
X15878981Y-7481238D01*
X15878981Y-7481238D02*
X15888505Y-7471714D01*
X15888505Y-7471714D02*
X15907553Y-7462190D01*
X15907553Y-7462190D02*
X15936124Y-7462190D01*
X15936124Y-7462190D02*
X15955172Y-7471714D01*
X15955172Y-7471714D02*
X15964696Y-7481238D01*
X15964696Y-7481238D02*
X15974219Y-7500286D01*
X15974219Y-7500286D02*
X15974219Y-7557428D01*
X15974219Y-7557428D02*
X15964696Y-7576476D01*
X15964696Y-7576476D02*
X15955172Y-7586000D01*
X15955172Y-7586000D02*
X15936124Y-7595524D01*
X15936124Y-7595524D02*
X15907553Y-7595524D01*
X16088505Y-7595524D02*
X16069457Y-7586000D01*
X16069457Y-7586000D02*
X16059934Y-7566952D01*
X16059934Y-7566952D02*
X16059934Y-7395524D01*
X16240886Y-7586000D02*
X16221838Y-7595524D01*
X16221838Y-7595524D02*
X16183743Y-7595524D01*
X16183743Y-7595524D02*
X16164696Y-7586000D01*
X16164696Y-7586000D02*
X16155172Y-7566952D01*
X16155172Y-7566952D02*
X16155172Y-7490762D01*
X16155172Y-7490762D02*
X16164696Y-7471714D01*
X16164696Y-7471714D02*
X16183743Y-7462190D01*
X16183743Y-7462190D02*
X16221838Y-7462190D01*
X16221838Y-7462190D02*
X16240886Y-7471714D01*
X16240886Y-7471714D02*
X16250410Y-7490762D01*
X16250410Y-7490762D02*
X16250410Y-7509809D01*
X16250410Y-7509809D02*
X16155172Y-7528857D01*
X16326600Y-7586000D02*
X16345648Y-7595524D01*
X16345648Y-7595524D02*
X16383743Y-7595524D01*
X16383743Y-7595524D02*
X16402791Y-7586000D01*
X16402791Y-7586000D02*
X16412315Y-7566952D01*
X16412315Y-7566952D02*
X16412315Y-7557428D01*
X16412315Y-7557428D02*
X16402791Y-7538381D01*
X16402791Y-7538381D02*
X16383743Y-7528857D01*
X16383743Y-7528857D02*
X16355172Y-7528857D01*
X16355172Y-7528857D02*
X16336124Y-7519333D01*
X16336124Y-7519333D02*
X16326600Y-7500286D01*
X16326600Y-7500286D02*
X16326600Y-7490762D01*
X16326600Y-7490762D02*
X16336124Y-7471714D01*
X16336124Y-7471714D02*
X16355172Y-7462190D01*
X16355172Y-7462190D02*
X16383743Y-7462190D01*
X16383743Y-7462190D02*
X16402791Y-7471714D01*
X16478981Y-7671714D02*
X16488505Y-7662190D01*
X16488505Y-7662190D02*
X16507553Y-7633619D01*
X16507553Y-7633619D02*
X16517077Y-7614571D01*
X16517077Y-7614571D02*
X16526600Y-7586000D01*
X16526600Y-7586000D02*
X16536124Y-7538381D01*
X16536124Y-7538381D02*
X16536124Y-7500286D01*
X16536124Y-7500286D02*
X16526600Y-7452667D01*
X16526600Y-7452667D02*
X16517077Y-7424095D01*
X16517077Y-7424095D02*
X16507553Y-7405048D01*
X16507553Y-7405048D02*
X16488505Y-7376476D01*
X16488505Y-7376476D02*
X16478981Y-7366952D01*
D13*
X11526600Y-7767000D02*
G75*
G03*
X11526600Y-7767000I-33020J0D01*
G01*
D11*
X11812314Y-7659524D02*
X11831362Y-7659524D01*
X11831362Y-7659524D02*
X11850409Y-7669048D01*
X11850409Y-7669048D02*
X11859933Y-7678571D01*
X11859933Y-7678571D02*
X11869457Y-7697619D01*
X11869457Y-7697619D02*
X11878981Y-7735714D01*
X11878981Y-7735714D02*
X11878981Y-7783333D01*
X11878981Y-7783333D02*
X11869457Y-7821428D01*
X11869457Y-7821428D02*
X11859933Y-7840476D01*
X11859933Y-7840476D02*
X11850409Y-7850000D01*
X11850409Y-7850000D02*
X11831362Y-7859524D01*
X11831362Y-7859524D02*
X11812314Y-7859524D01*
X11812314Y-7859524D02*
X11793267Y-7850000D01*
X11793267Y-7850000D02*
X11783743Y-7840476D01*
X11783743Y-7840476D02*
X11774219Y-7821428D01*
X11774219Y-7821428D02*
X11764695Y-7783333D01*
X11764695Y-7783333D02*
X11764695Y-7735714D01*
X11764695Y-7735714D02*
X11774219Y-7697619D01*
X11774219Y-7697619D02*
X11783743Y-7678571D01*
X11783743Y-7678571D02*
X11793267Y-7669048D01*
X11793267Y-7669048D02*
X11812314Y-7659524D01*
X11964695Y-7840476D02*
X11974219Y-7850000D01*
X11974219Y-7850000D02*
X11964695Y-7859524D01*
X11964695Y-7859524D02*
X11955171Y-7850000D01*
X11955171Y-7850000D02*
X11964695Y-7840476D01*
X11964695Y-7840476D02*
X11964695Y-7859524D01*
X12145648Y-7659524D02*
X12107552Y-7659524D01*
X12107552Y-7659524D02*
X12088505Y-7669048D01*
X12088505Y-7669048D02*
X12078981Y-7678571D01*
X12078981Y-7678571D02*
X12059933Y-7707143D01*
X12059933Y-7707143D02*
X12050409Y-7745238D01*
X12050409Y-7745238D02*
X12050409Y-7821428D01*
X12050409Y-7821428D02*
X12059933Y-7840476D01*
X12059933Y-7840476D02*
X12069457Y-7850000D01*
X12069457Y-7850000D02*
X12088505Y-7859524D01*
X12088505Y-7859524D02*
X12126600Y-7859524D01*
X12126600Y-7859524D02*
X12145648Y-7850000D01*
X12145648Y-7850000D02*
X12155171Y-7840476D01*
X12155171Y-7840476D02*
X12164695Y-7821428D01*
X12164695Y-7821428D02*
X12164695Y-7773809D01*
X12164695Y-7773809D02*
X12155171Y-7754762D01*
X12155171Y-7754762D02*
X12145648Y-7745238D01*
X12145648Y-7745238D02*
X12126600Y-7735714D01*
X12126600Y-7735714D02*
X12088505Y-7735714D01*
X12088505Y-7735714D02*
X12069457Y-7745238D01*
X12069457Y-7745238D02*
X12059933Y-7754762D01*
X12059933Y-7754762D02*
X12050409Y-7773809D01*
X12336124Y-7659524D02*
X12298028Y-7659524D01*
X12298028Y-7659524D02*
X12278981Y-7669048D01*
X12278981Y-7669048D02*
X12269457Y-7678571D01*
X12269457Y-7678571D02*
X12250409Y-7707143D01*
X12250409Y-7707143D02*
X12240886Y-7745238D01*
X12240886Y-7745238D02*
X12240886Y-7821428D01*
X12240886Y-7821428D02*
X12250409Y-7840476D01*
X12250409Y-7840476D02*
X12259933Y-7850000D01*
X12259933Y-7850000D02*
X12278981Y-7859524D01*
X12278981Y-7859524D02*
X12317076Y-7859524D01*
X12317076Y-7859524D02*
X12336124Y-7850000D01*
X12336124Y-7850000D02*
X12345648Y-7840476D01*
X12345648Y-7840476D02*
X12355171Y-7821428D01*
X12355171Y-7821428D02*
X12355171Y-7773809D01*
X12355171Y-7773809D02*
X12345648Y-7754762D01*
X12345648Y-7754762D02*
X12336124Y-7745238D01*
X12336124Y-7745238D02*
X12317076Y-7735714D01*
X12317076Y-7735714D02*
X12278981Y-7735714D01*
X12278981Y-7735714D02*
X12259933Y-7745238D01*
X12259933Y-7745238D02*
X12250409Y-7754762D01*
X12250409Y-7754762D02*
X12240886Y-7773809D01*
X12478981Y-7659524D02*
X12498029Y-7659524D01*
X12498029Y-7659524D02*
X12517076Y-7669048D01*
X12517076Y-7669048D02*
X12526600Y-7678571D01*
X12526600Y-7678571D02*
X12536124Y-7697619D01*
X12536124Y-7697619D02*
X12545648Y-7735714D01*
X12545648Y-7735714D02*
X12545648Y-7783333D01*
X12545648Y-7783333D02*
X12536124Y-7821428D01*
X12536124Y-7821428D02*
X12526600Y-7840476D01*
X12526600Y-7840476D02*
X12517076Y-7850000D01*
X12517076Y-7850000D02*
X12498029Y-7859524D01*
X12498029Y-7859524D02*
X12478981Y-7859524D01*
X12478981Y-7859524D02*
X12459933Y-7850000D01*
X12459933Y-7850000D02*
X12450409Y-7840476D01*
X12450409Y-7840476D02*
X12440886Y-7821428D01*
X12440886Y-7821428D02*
X12431362Y-7783333D01*
X12431362Y-7783333D02*
X12431362Y-7735714D01*
X12431362Y-7735714D02*
X12440886Y-7697619D01*
X12440886Y-7697619D02*
X12450409Y-7678571D01*
X12450409Y-7678571D02*
X12459933Y-7669048D01*
X12459933Y-7669048D02*
X12478981Y-7659524D01*
X12631362Y-7859524D02*
X12631362Y-7726190D01*
X12631362Y-7745238D02*
X12640886Y-7735714D01*
X12640886Y-7735714D02*
X12659933Y-7726190D01*
X12659933Y-7726190D02*
X12688505Y-7726190D01*
X12688505Y-7726190D02*
X12707552Y-7735714D01*
X12707552Y-7735714D02*
X12717076Y-7754762D01*
X12717076Y-7754762D02*
X12717076Y-7859524D01*
X12717076Y-7754762D02*
X12726600Y-7735714D01*
X12726600Y-7735714D02*
X12745648Y-7726190D01*
X12745648Y-7726190D02*
X12774219Y-7726190D01*
X12774219Y-7726190D02*
X12793267Y-7735714D01*
X12793267Y-7735714D02*
X12802790Y-7754762D01*
X12802790Y-7754762D02*
X12802790Y-7859524D01*
X12898029Y-7859524D02*
X12898029Y-7726190D01*
X12898029Y-7745238D02*
X12907552Y-7735714D01*
X12907552Y-7735714D02*
X12926600Y-7726190D01*
X12926600Y-7726190D02*
X12955171Y-7726190D01*
X12955171Y-7726190D02*
X12974219Y-7735714D01*
X12974219Y-7735714D02*
X12983743Y-7754762D01*
X12983743Y-7754762D02*
X12983743Y-7859524D01*
X12983743Y-7754762D02*
X12993267Y-7735714D01*
X12993267Y-7735714D02*
X13012314Y-7726190D01*
X13012314Y-7726190D02*
X13040886Y-7726190D01*
X13040886Y-7726190D02*
X13059933Y-7735714D01*
X13059933Y-7735714D02*
X13069457Y-7754762D01*
X13069457Y-7754762D02*
X13069457Y-7859524D01*
X13459933Y-7650000D02*
X13288505Y-7907143D01*
X13717076Y-7659524D02*
X13736124Y-7659524D01*
X13736124Y-7659524D02*
X13755172Y-7669048D01*
X13755172Y-7669048D02*
X13764695Y-7678571D01*
X13764695Y-7678571D02*
X13774219Y-7697619D01*
X13774219Y-7697619D02*
X13783743Y-7735714D01*
X13783743Y-7735714D02*
X13783743Y-7783333D01*
X13783743Y-7783333D02*
X13774219Y-7821428D01*
X13774219Y-7821428D02*
X13764695Y-7840476D01*
X13764695Y-7840476D02*
X13755172Y-7850000D01*
X13755172Y-7850000D02*
X13736124Y-7859524D01*
X13736124Y-7859524D02*
X13717076Y-7859524D01*
X13717076Y-7859524D02*
X13698029Y-7850000D01*
X13698029Y-7850000D02*
X13688505Y-7840476D01*
X13688505Y-7840476D02*
X13678981Y-7821428D01*
X13678981Y-7821428D02*
X13669457Y-7783333D01*
X13669457Y-7783333D02*
X13669457Y-7735714D01*
X13669457Y-7735714D02*
X13678981Y-7697619D01*
X13678981Y-7697619D02*
X13688505Y-7678571D01*
X13688505Y-7678571D02*
X13698029Y-7669048D01*
X13698029Y-7669048D02*
X13717076Y-7659524D01*
X13869457Y-7840476D02*
X13878981Y-7850000D01*
X13878981Y-7850000D02*
X13869457Y-7859524D01*
X13869457Y-7859524D02*
X13859933Y-7850000D01*
X13859933Y-7850000D02*
X13869457Y-7840476D01*
X13869457Y-7840476D02*
X13869457Y-7859524D01*
X14002791Y-7659524D02*
X14021838Y-7659524D01*
X14021838Y-7659524D02*
X14040886Y-7669048D01*
X14040886Y-7669048D02*
X14050410Y-7678571D01*
X14050410Y-7678571D02*
X14059933Y-7697619D01*
X14059933Y-7697619D02*
X14069457Y-7735714D01*
X14069457Y-7735714D02*
X14069457Y-7783333D01*
X14069457Y-7783333D02*
X14059933Y-7821428D01*
X14059933Y-7821428D02*
X14050410Y-7840476D01*
X14050410Y-7840476D02*
X14040886Y-7850000D01*
X14040886Y-7850000D02*
X14021838Y-7859524D01*
X14021838Y-7859524D02*
X14002791Y-7859524D01*
X14002791Y-7859524D02*
X13983743Y-7850000D01*
X13983743Y-7850000D02*
X13974219Y-7840476D01*
X13974219Y-7840476D02*
X13964695Y-7821428D01*
X13964695Y-7821428D02*
X13955172Y-7783333D01*
X13955172Y-7783333D02*
X13955172Y-7735714D01*
X13955172Y-7735714D02*
X13964695Y-7697619D01*
X13964695Y-7697619D02*
X13974219Y-7678571D01*
X13974219Y-7678571D02*
X13983743Y-7669048D01*
X13983743Y-7669048D02*
X14002791Y-7659524D01*
X14145648Y-7678571D02*
X14155172Y-7669048D01*
X14155172Y-7669048D02*
X14174219Y-7659524D01*
X14174219Y-7659524D02*
X14221838Y-7659524D01*
X14221838Y-7659524D02*
X14240886Y-7669048D01*
X14240886Y-7669048D02*
X14250410Y-7678571D01*
X14250410Y-7678571D02*
X14259933Y-7697619D01*
X14259933Y-7697619D02*
X14259933Y-7716667D01*
X14259933Y-7716667D02*
X14250410Y-7745238D01*
X14250410Y-7745238D02*
X14136124Y-7859524D01*
X14136124Y-7859524D02*
X14259933Y-7859524D01*
X14431362Y-7659524D02*
X14393267Y-7659524D01*
X14393267Y-7659524D02*
X14374219Y-7669048D01*
X14374219Y-7669048D02*
X14364695Y-7678571D01*
X14364695Y-7678571D02*
X14345648Y-7707143D01*
X14345648Y-7707143D02*
X14336124Y-7745238D01*
X14336124Y-7745238D02*
X14336124Y-7821428D01*
X14336124Y-7821428D02*
X14345648Y-7840476D01*
X14345648Y-7840476D02*
X14355172Y-7850000D01*
X14355172Y-7850000D02*
X14374219Y-7859524D01*
X14374219Y-7859524D02*
X14412314Y-7859524D01*
X14412314Y-7859524D02*
X14431362Y-7850000D01*
X14431362Y-7850000D02*
X14440886Y-7840476D01*
X14440886Y-7840476D02*
X14450410Y-7821428D01*
X14450410Y-7821428D02*
X14450410Y-7773809D01*
X14450410Y-7773809D02*
X14440886Y-7754762D01*
X14440886Y-7754762D02*
X14431362Y-7745238D01*
X14431362Y-7745238D02*
X14412314Y-7735714D01*
X14412314Y-7735714D02*
X14374219Y-7735714D01*
X14374219Y-7735714D02*
X14355172Y-7745238D01*
X14355172Y-7745238D02*
X14345648Y-7754762D01*
X14345648Y-7754762D02*
X14336124Y-7773809D01*
X14574219Y-7659524D02*
X14593267Y-7659524D01*
X14593267Y-7659524D02*
X14612314Y-7669048D01*
X14612314Y-7669048D02*
X14621838Y-7678571D01*
X14621838Y-7678571D02*
X14631362Y-7697619D01*
X14631362Y-7697619D02*
X14640886Y-7735714D01*
X14640886Y-7735714D02*
X14640886Y-7783333D01*
X14640886Y-7783333D02*
X14631362Y-7821428D01*
X14631362Y-7821428D02*
X14621838Y-7840476D01*
X14621838Y-7840476D02*
X14612314Y-7850000D01*
X14612314Y-7850000D02*
X14593267Y-7859524D01*
X14593267Y-7859524D02*
X14574219Y-7859524D01*
X14574219Y-7859524D02*
X14555172Y-7850000D01*
X14555172Y-7850000D02*
X14545648Y-7840476D01*
X14545648Y-7840476D02*
X14536124Y-7821428D01*
X14536124Y-7821428D02*
X14526600Y-7783333D01*
X14526600Y-7783333D02*
X14526600Y-7735714D01*
X14526600Y-7735714D02*
X14536124Y-7697619D01*
X14536124Y-7697619D02*
X14545648Y-7678571D01*
X14545648Y-7678571D02*
X14555172Y-7669048D01*
X14555172Y-7669048D02*
X14574219Y-7659524D01*
X14717076Y-7659524D02*
X14717076Y-7697619D01*
X14793267Y-7659524D02*
X14793267Y-7697619D01*
X15088505Y-7935714D02*
X15078981Y-7926190D01*
X15078981Y-7926190D02*
X15059934Y-7897619D01*
X15059934Y-7897619D02*
X15050410Y-7878571D01*
X15050410Y-7878571D02*
X15040886Y-7850000D01*
X15040886Y-7850000D02*
X15031362Y-7802381D01*
X15031362Y-7802381D02*
X15031362Y-7764286D01*
X15031362Y-7764286D02*
X15040886Y-7716667D01*
X15040886Y-7716667D02*
X15050410Y-7688095D01*
X15050410Y-7688095D02*
X15059934Y-7669048D01*
X15059934Y-7669048D02*
X15078981Y-7640476D01*
X15078981Y-7640476D02*
X15088505Y-7630952D01*
X15269457Y-7859524D02*
X15155172Y-7859524D01*
X15212314Y-7859524D02*
X15212314Y-7659524D01*
X15212314Y-7659524D02*
X15193267Y-7688095D01*
X15193267Y-7688095D02*
X15174219Y-7707143D01*
X15174219Y-7707143D02*
X15155172Y-7716667D01*
X15393267Y-7659524D02*
X15412315Y-7659524D01*
X15412315Y-7659524D02*
X15431362Y-7669048D01*
X15431362Y-7669048D02*
X15440886Y-7678571D01*
X15440886Y-7678571D02*
X15450410Y-7697619D01*
X15450410Y-7697619D02*
X15459934Y-7735714D01*
X15459934Y-7735714D02*
X15459934Y-7783333D01*
X15459934Y-7783333D02*
X15450410Y-7821428D01*
X15450410Y-7821428D02*
X15440886Y-7840476D01*
X15440886Y-7840476D02*
X15431362Y-7850000D01*
X15431362Y-7850000D02*
X15412315Y-7859524D01*
X15412315Y-7859524D02*
X15393267Y-7859524D01*
X15393267Y-7859524D02*
X15374219Y-7850000D01*
X15374219Y-7850000D02*
X15364695Y-7840476D01*
X15364695Y-7840476D02*
X15355172Y-7821428D01*
X15355172Y-7821428D02*
X15345648Y-7783333D01*
X15345648Y-7783333D02*
X15345648Y-7735714D01*
X15345648Y-7735714D02*
X15355172Y-7697619D01*
X15355172Y-7697619D02*
X15364695Y-7678571D01*
X15364695Y-7678571D02*
X15374219Y-7669048D01*
X15374219Y-7669048D02*
X15393267Y-7659524D01*
X15698029Y-7859524D02*
X15698029Y-7659524D01*
X15783743Y-7859524D02*
X15783743Y-7754762D01*
X15783743Y-7754762D02*
X15774219Y-7735714D01*
X15774219Y-7735714D02*
X15755172Y-7726190D01*
X15755172Y-7726190D02*
X15726600Y-7726190D01*
X15726600Y-7726190D02*
X15707553Y-7735714D01*
X15707553Y-7735714D02*
X15698029Y-7745238D01*
X15907553Y-7859524D02*
X15888505Y-7850000D01*
X15888505Y-7850000D02*
X15878981Y-7840476D01*
X15878981Y-7840476D02*
X15869457Y-7821428D01*
X15869457Y-7821428D02*
X15869457Y-7764286D01*
X15869457Y-7764286D02*
X15878981Y-7745238D01*
X15878981Y-7745238D02*
X15888505Y-7735714D01*
X15888505Y-7735714D02*
X15907553Y-7726190D01*
X15907553Y-7726190D02*
X15936124Y-7726190D01*
X15936124Y-7726190D02*
X15955172Y-7735714D01*
X15955172Y-7735714D02*
X15964696Y-7745238D01*
X15964696Y-7745238D02*
X15974219Y-7764286D01*
X15974219Y-7764286D02*
X15974219Y-7821428D01*
X15974219Y-7821428D02*
X15964696Y-7840476D01*
X15964696Y-7840476D02*
X15955172Y-7850000D01*
X15955172Y-7850000D02*
X15936124Y-7859524D01*
X15936124Y-7859524D02*
X15907553Y-7859524D01*
X16088505Y-7859524D02*
X16069457Y-7850000D01*
X16069457Y-7850000D02*
X16059934Y-7830952D01*
X16059934Y-7830952D02*
X16059934Y-7659524D01*
X16240886Y-7850000D02*
X16221838Y-7859524D01*
X16221838Y-7859524D02*
X16183743Y-7859524D01*
X16183743Y-7859524D02*
X16164696Y-7850000D01*
X16164696Y-7850000D02*
X16155172Y-7830952D01*
X16155172Y-7830952D02*
X16155172Y-7754762D01*
X16155172Y-7754762D02*
X16164696Y-7735714D01*
X16164696Y-7735714D02*
X16183743Y-7726190D01*
X16183743Y-7726190D02*
X16221838Y-7726190D01*
X16221838Y-7726190D02*
X16240886Y-7735714D01*
X16240886Y-7735714D02*
X16250410Y-7754762D01*
X16250410Y-7754762D02*
X16250410Y-7773809D01*
X16250410Y-7773809D02*
X16155172Y-7792857D01*
X16326600Y-7850000D02*
X16345648Y-7859524D01*
X16345648Y-7859524D02*
X16383743Y-7859524D01*
X16383743Y-7859524D02*
X16402791Y-7850000D01*
X16402791Y-7850000D02*
X16412315Y-7830952D01*
X16412315Y-7830952D02*
X16412315Y-7821428D01*
X16412315Y-7821428D02*
X16402791Y-7802381D01*
X16402791Y-7802381D02*
X16383743Y-7792857D01*
X16383743Y-7792857D02*
X16355172Y-7792857D01*
X16355172Y-7792857D02*
X16336124Y-7783333D01*
X16336124Y-7783333D02*
X16326600Y-7764286D01*
X16326600Y-7764286D02*
X16326600Y-7754762D01*
X16326600Y-7754762D02*
X16336124Y-7735714D01*
X16336124Y-7735714D02*
X16355172Y-7726190D01*
X16355172Y-7726190D02*
X16383743Y-7726190D01*
X16383743Y-7726190D02*
X16402791Y-7735714D01*
X16478981Y-7935714D02*
X16488505Y-7926190D01*
X16488505Y-7926190D02*
X16507553Y-7897619D01*
X16507553Y-7897619D02*
X16517077Y-7878571D01*
X16517077Y-7878571D02*
X16526600Y-7850000D01*
X16526600Y-7850000D02*
X16536124Y-7802381D01*
X16536124Y-7802381D02*
X16536124Y-7764286D01*
X16536124Y-7764286D02*
X16526600Y-7716667D01*
X16526600Y-7716667D02*
X16517077Y-7688095D01*
X16517077Y-7688095D02*
X16507553Y-7669048D01*
X16507553Y-7669048D02*
X16488505Y-7640476D01*
X16488505Y-7640476D02*
X16478981Y-7630952D01*
M02*
