%TF.GenerationSoftware,KiCad,Pcbnew,(7.0.0)*%
%TF.CreationDate,2023-03-07T13:57:33-05:00*%
%TF.ProjectId,imu-stamp,696d752d-7374-4616-9d70-2e6b69636164,rev?*%
%TF.SameCoordinates,Original*%
%TF.FileFunction,Paste,Top*%
%TF.FilePolarity,Positive*%
%FSLAX46Y46*%
G04 Gerber Fmt 4.6, Leading zero omitted, Abs format (unit mm)*
G04 Created by KiCad (PCBNEW (7.0.0)) date 2023-03-07 13:57:33*
%MOMM*%
%LPD*%
G01*
G04 APERTURE LIST*
G04 Aperture macros list*
%AMRoundRect*
0 Rectangle with rounded corners*
0 $1 Rounding radius*
0 $2 $3 $4 $5 $6 $7 $8 $9 X,Y pos of 4 corners*
0 Add a 4 corners polygon primitive as box body*
4,1,4,$2,$3,$4,$5,$6,$7,$8,$9,$2,$3,0*
0 Add four circle primitives for the rounded corners*
1,1,$1+$1,$2,$3*
1,1,$1+$1,$4,$5*
1,1,$1+$1,$6,$7*
1,1,$1+$1,$8,$9*
0 Add four rect primitives between the rounded corners*
20,1,$1+$1,$2,$3,$4,$5,0*
20,1,$1+$1,$4,$5,$6,$7,0*
20,1,$1+$1,$6,$7,$8,$9,0*
20,1,$1+$1,$8,$9,$2,$3,0*%
G04 Aperture macros list end*
%ADD10R,0.550000X0.350000*%
%ADD11R,0.350000X0.550000*%
%ADD12RoundRect,0.079500X0.079500X0.100500X-0.079500X0.100500X-0.079500X-0.100500X0.079500X-0.100500X0*%
%ADD13RoundRect,0.079500X-0.100500X0.079500X-0.100500X-0.079500X0.100500X-0.079500X0.100500X0.079500X0*%
%ADD14RoundRect,0.150000X0.150000X-0.512500X0.150000X0.512500X-0.150000X0.512500X-0.150000X-0.512500X0*%
%ADD15RoundRect,0.079500X-0.079500X-0.100500X0.079500X-0.100500X0.079500X0.100500X-0.079500X0.100500X0*%
%ADD16RoundRect,0.140000X-0.140000X-0.170000X0.140000X-0.170000X0.140000X0.170000X-0.140000X0.170000X0*%
%ADD17R,0.350000X0.375000*%
%ADD18R,0.375000X0.350000*%
%ADD19RoundRect,0.225000X-0.225000X-0.250000X0.225000X-0.250000X0.225000X0.250000X-0.225000X0.250000X0*%
%ADD20R,0.670000X0.710000*%
%ADD21R,0.650000X0.250000*%
%ADD22C,0.250000*%
%ADD23RoundRect,0.140000X0.140000X0.170000X-0.140000X0.170000X-0.140000X-0.170000X0.140000X-0.170000X0*%
G04 APERTURE END LIST*
D10*
%TO.C,U3*%
X125266999Y-62372999D03*
X125266999Y-62872999D03*
X125266999Y-63372999D03*
X125266999Y-63872999D03*
X125266999Y-64372999D03*
D11*
X125991999Y-64597999D03*
X126491999Y-64597999D03*
X126991999Y-64597999D03*
D10*
X127716999Y-64372999D03*
X127716999Y-63872999D03*
X127716999Y-63372999D03*
X127716999Y-62872999D03*
X127716999Y-62372999D03*
D11*
X126991999Y-62147999D03*
X126491999Y-62147999D03*
X125991999Y-62147999D03*
%TD*%
D10*
%TO.C,U6*%
X120948999Y-62367999D03*
X120948999Y-62867999D03*
X120948999Y-63367999D03*
X120948999Y-63867999D03*
X120948999Y-64367999D03*
D11*
X121673999Y-64592999D03*
X122173999Y-64592999D03*
X122673999Y-64592999D03*
D10*
X123398999Y-64367999D03*
X123398999Y-63867999D03*
X123398999Y-63367999D03*
X123398999Y-62867999D03*
X123398999Y-62367999D03*
D11*
X122673999Y-62142999D03*
X122173999Y-62142999D03*
X121673999Y-62142999D03*
%TD*%
D12*
%TO.C,C13*%
X121884000Y-61214000D03*
X121194000Y-61214000D03*
%TD*%
D13*
%TO.C,R17*%
X119997000Y-63785000D03*
X119997000Y-64475000D03*
%TD*%
D12*
%TO.C,R5*%
X130824800Y-61214000D03*
X130134800Y-61214000D03*
%TD*%
%TO.C,R11*%
X129859600Y-68224400D03*
X129169600Y-68224400D03*
%TD*%
D14*
%TO.C,U2*%
X116779000Y-66567900D03*
X117729000Y-66567900D03*
X118679000Y-66567900D03*
X118679000Y-64292900D03*
X117729000Y-64292900D03*
X116779000Y-64292900D03*
%TD*%
D15*
%TO.C,C14*%
X122591000Y-61214000D03*
X123281000Y-61214000D03*
%TD*%
%TO.C,R18*%
X123988000Y-68072000D03*
X124678000Y-68072000D03*
%TD*%
%TO.C,C1*%
X131531800Y-61214000D03*
X132221800Y-61214000D03*
%TD*%
D16*
%TO.C,C6*%
X124107000Y-61214000D03*
X125067000Y-61214000D03*
%TD*%
D17*
%TO.C,U5*%
X121471999Y-65658499D03*
X120971999Y-65658499D03*
X120471999Y-65658499D03*
X119971999Y-65658499D03*
D18*
X119959499Y-66170999D03*
X119959499Y-66670999D03*
D17*
X119971999Y-67183499D03*
X120471999Y-67183499D03*
X120971999Y-67183499D03*
X121471999Y-67183499D03*
D18*
X121484499Y-66670999D03*
X121484499Y-66170999D03*
%TD*%
D15*
%TO.C,C8*%
X127290000Y-61214000D03*
X127980000Y-61214000D03*
%TD*%
D19*
%TO.C,C3*%
X116674600Y-61417200D03*
X118224600Y-61417200D03*
%TD*%
D13*
%TO.C,C5*%
X124333000Y-62271000D03*
X124333000Y-62961000D03*
%TD*%
%TO.C,C11*%
X119997000Y-62134000D03*
X119997000Y-62824000D03*
%TD*%
D15*
%TO.C,R9*%
X118400000Y-68021200D03*
X119090000Y-68021200D03*
%TD*%
D16*
%TO.C,C9*%
X124945200Y-65659000D03*
X125905200Y-65659000D03*
%TD*%
%TO.C,C15*%
X126774000Y-65659000D03*
X127734000Y-65659000D03*
%TD*%
D12*
%TO.C,C7*%
X126583000Y-61214000D03*
X125893000Y-61214000D03*
%TD*%
%TO.C,C16*%
X123281000Y-68072000D03*
X122591000Y-68072000D03*
%TD*%
D20*
%TO.C,U1*%
X130589999Y-66275999D03*
X130589999Y-65395999D03*
X130589999Y-64515999D03*
X130589999Y-63635999D03*
X130589999Y-62755999D03*
X129759999Y-66275999D03*
X129759999Y-65395999D03*
X129759999Y-64515999D03*
X129759999Y-63635999D03*
X129759999Y-62755999D03*
D21*
X131599999Y-66265999D03*
X131599999Y-65765999D03*
X131599999Y-65265999D03*
X131599999Y-64765999D03*
X131599999Y-64265999D03*
X131599999Y-63765999D03*
X131599999Y-63265999D03*
X131599999Y-62765999D03*
X128749999Y-62765999D03*
X128749999Y-63265999D03*
X128749999Y-63765999D03*
X128749999Y-64265999D03*
X128749999Y-64765999D03*
X128749999Y-65265999D03*
X128749999Y-65765999D03*
X128749999Y-66265999D03*
%TD*%
D12*
%TO.C,R13*%
X129859600Y-67513200D03*
X129169600Y-67513200D03*
%TD*%
D17*
%TO.C,U8*%
X124066999Y-65658499D03*
X123566999Y-65658499D03*
X123066999Y-65658499D03*
X122566999Y-65658499D03*
D18*
X122554499Y-66170999D03*
X122554499Y-66670999D03*
D17*
X122566999Y-67183499D03*
X123066999Y-67183499D03*
X123566999Y-67183499D03*
X124066999Y-67183499D03*
D18*
X124079499Y-66670999D03*
X124079499Y-66170999D03*
%TD*%
D12*
%TO.C,R14*%
X131282000Y-67513200D03*
X130592000Y-67513200D03*
%TD*%
D13*
%TO.C,R15*%
X124333000Y-63922000D03*
X124333000Y-64612000D03*
%TD*%
D12*
%TO.C,C10*%
X120487000Y-68044000D03*
X119797000Y-68044000D03*
%TD*%
D15*
%TO.C,R16*%
X121194000Y-68072000D03*
X121884000Y-68072000D03*
%TD*%
D22*
%TO.C,U7*%
X127454000Y-67364000D03*
X127454000Y-67764000D03*
X127054000Y-67364000D03*
X127054000Y-67764000D03*
%TD*%
D16*
%TO.C,C4*%
X116614000Y-67945000D03*
X117574000Y-67945000D03*
%TD*%
D22*
%TO.C,U4*%
X126057000Y-67364000D03*
X126057000Y-67764000D03*
X125657000Y-67364000D03*
X125657000Y-67764000D03*
%TD*%
D19*
%TO.C,C2*%
X117434000Y-62738000D03*
X118984000Y-62738000D03*
%TD*%
D15*
%TO.C,R1*%
X128737800Y-61214000D03*
X129427800Y-61214000D03*
%TD*%
D12*
%TO.C,R12*%
X131282000Y-68224400D03*
X130592000Y-68224400D03*
%TD*%
D23*
%TO.C,C12*%
X120317200Y-61214000D03*
X119357200Y-61214000D03*
%TD*%
M02*
