%TF.GenerationSoftware,KiCad,Pcbnew,(7.0.0)*%
%TF.CreationDate,2023-03-07T13:57:38-05:00*%
%TF.ProjectId,imu-stamp,696d752d-7374-4616-9d70-2e6b69636164,rev?*%
%TF.SameCoordinates,Original*%
%TF.FileFunction,Drillmap*%
%TF.FilePolarity,Positive*%
%FSLAX45Y45*%
G04 Gerber Fmt 4.5, Leading zero omitted, Abs format (unit mm)*
G04 Created by KiCad (PCBNEW (7.0.0)) date 2023-03-07 13:57:38*
%MOMM*%
%LPD*%
G01*
G04 APERTURE LIST*
%ADD10C,0.100000*%
%ADD11C,0.200000*%
G04 APERTURE END LIST*
D10*
X13373100Y-6858000D02*
X13373100Y-6070600D01*
X11468100Y-6070600D02*
X13373100Y-6070600D01*
X11468100Y-6858000D02*
X11468100Y-6070600D01*
X11468100Y-6858000D02*
X13373100Y-6858000D01*
D11*
X11710719Y-7156476D02*
X11710719Y-6956476D01*
X11710719Y-6956476D02*
X11758338Y-6956476D01*
X11758338Y-6956476D02*
X11786909Y-6966000D01*
X11786909Y-6966000D02*
X11805957Y-6985048D01*
X11805957Y-6985048D02*
X11815481Y-7004095D01*
X11815481Y-7004095D02*
X11825005Y-7042190D01*
X11825005Y-7042190D02*
X11825005Y-7070762D01*
X11825005Y-7070762D02*
X11815481Y-7108857D01*
X11815481Y-7108857D02*
X11805957Y-7127905D01*
X11805957Y-7127905D02*
X11786909Y-7146952D01*
X11786909Y-7146952D02*
X11758338Y-7156476D01*
X11758338Y-7156476D02*
X11710719Y-7156476D01*
X11910719Y-7156476D02*
X11910719Y-7023143D01*
X11910719Y-7061238D02*
X11920243Y-7042190D01*
X11920243Y-7042190D02*
X11929767Y-7032667D01*
X11929767Y-7032667D02*
X11948814Y-7023143D01*
X11948814Y-7023143D02*
X11967862Y-7023143D01*
X12034528Y-7156476D02*
X12034528Y-7023143D01*
X12034528Y-6956476D02*
X12025005Y-6966000D01*
X12025005Y-6966000D02*
X12034528Y-6975524D01*
X12034528Y-6975524D02*
X12044052Y-6966000D01*
X12044052Y-6966000D02*
X12034528Y-6956476D01*
X12034528Y-6956476D02*
X12034528Y-6975524D01*
X12158338Y-7156476D02*
X12139290Y-7146952D01*
X12139290Y-7146952D02*
X12129767Y-7127905D01*
X12129767Y-7127905D02*
X12129767Y-6956476D01*
X12263100Y-7156476D02*
X12244052Y-7146952D01*
X12244052Y-7146952D02*
X12234528Y-7127905D01*
X12234528Y-7127905D02*
X12234528Y-6956476D01*
X12459290Y-7156476D02*
X12459290Y-6956476D01*
X12459290Y-6956476D02*
X12525957Y-7099333D01*
X12525957Y-7099333D02*
X12592624Y-6956476D01*
X12592624Y-6956476D02*
X12592624Y-7156476D01*
X12773576Y-7156476D02*
X12773576Y-7051714D01*
X12773576Y-7051714D02*
X12764052Y-7032667D01*
X12764052Y-7032667D02*
X12745005Y-7023143D01*
X12745005Y-7023143D02*
X12706909Y-7023143D01*
X12706909Y-7023143D02*
X12687862Y-7032667D01*
X12773576Y-7146952D02*
X12754528Y-7156476D01*
X12754528Y-7156476D02*
X12706909Y-7156476D01*
X12706909Y-7156476D02*
X12687862Y-7146952D01*
X12687862Y-7146952D02*
X12678338Y-7127905D01*
X12678338Y-7127905D02*
X12678338Y-7108857D01*
X12678338Y-7108857D02*
X12687862Y-7089809D01*
X12687862Y-7089809D02*
X12706909Y-7080286D01*
X12706909Y-7080286D02*
X12754528Y-7080286D01*
X12754528Y-7080286D02*
X12773576Y-7070762D01*
X12868814Y-7023143D02*
X12868814Y-7223143D01*
X12868814Y-7032667D02*
X12887862Y-7023143D01*
X12887862Y-7023143D02*
X12925957Y-7023143D01*
X12925957Y-7023143D02*
X12945005Y-7032667D01*
X12945005Y-7032667D02*
X12954528Y-7042190D01*
X12954528Y-7042190D02*
X12964052Y-7061238D01*
X12964052Y-7061238D02*
X12964052Y-7118381D01*
X12964052Y-7118381D02*
X12954528Y-7137428D01*
X12954528Y-7137428D02*
X12945005Y-7146952D01*
X12945005Y-7146952D02*
X12925957Y-7156476D01*
X12925957Y-7156476D02*
X12887862Y-7156476D01*
X12887862Y-7156476D02*
X12868814Y-7146952D01*
X13049767Y-7137428D02*
X13059290Y-7146952D01*
X13059290Y-7146952D02*
X13049767Y-7156476D01*
X13049767Y-7156476D02*
X13040243Y-7146952D01*
X13040243Y-7146952D02*
X13049767Y-7137428D01*
X13049767Y-7137428D02*
X13049767Y-7156476D01*
X13049767Y-7032667D02*
X13059290Y-7042190D01*
X13059290Y-7042190D02*
X13049767Y-7051714D01*
X13049767Y-7051714D02*
X13040243Y-7042190D01*
X13040243Y-7042190D02*
X13049767Y-7032667D01*
X13049767Y-7032667D02*
X13049767Y-7051714D01*
M02*
