M48
; DRILL file {KiCad 7.0.1} date Tue Mar 14 15:54:22 2023
; FORMAT={-:-/ absolute / inch / decimal}
; #@! TF.CreationDate,2023-03-14T15:54:22-04:00
; #@! TF.GenerationSoftware,Kicad,Pcbnew,7.0.1
; #@! TF.FileFunction,Plated,1,4,PTH
FMAT,2
INCH
; #@! TA.AperFunction,Plated,PTH,ViaDrill
T1C0.0059
; #@! TA.AperFunction,Plated,PTH,ComponentDrill
T2C0.0260
%
G90
G05
T1
X4.591Y-2.655
X4.5911Y-2.675
X4.6234Y-2.479
X4.6234Y-2.479
X4.624Y-2.461
X4.6289Y-2.675
X4.629Y-2.655
X4.6624Y-2.678
X4.681Y-2.46
X4.681Y-2.481
X4.699Y-2.41
X4.7174Y-2.6789
X4.724Y-2.563
X4.7243Y-2.5122
X4.7361Y-2.4918
X4.737Y-2.41
X4.7426Y-2.6789
X4.7618Y-2.4751
X4.7618Y-2.4948
X4.7627Y-2.585
X4.772Y-2.41
X4.7829Y-2.6052
X4.797Y-2.41
X4.804Y-2.575
X4.8274Y-2.68
X4.8526Y-2.68
X4.853Y-2.41
X4.8648Y-2.585
X4.885Y-2.568
X4.885Y-2.6052
X4.886Y-2.41
X4.895Y-2.478
X4.895Y-2.5176
X4.9076Y-2.68
X4.919Y-2.569
X4.924Y-2.411
X4.924Y-2.66
X4.9318Y-2.4753
X4.9318Y-2.495
X4.957Y-2.569
X4.9574Y-2.41
X4.981Y-2.66
X4.9826Y-2.41
X4.9911Y-2.585
X5.026Y-2.6249
X5.0376Y-2.41
X5.04Y-2.66
X5.0458Y-2.5559
X5.06Y-2.5695
X5.0633Y-2.5105
X5.0689Y-2.5302
X5.0694Y-2.431
X5.072Y-2.6584
X5.0776Y-2.5892
X5.0864Y-2.686
X5.1116Y-2.658
X5.1244Y-2.41
X5.1424Y-2.686
X5.1496Y-2.41
X5.1676Y-2.658
X5.1794Y-2.41
X5.2005Y-2.589
X5.2046Y-2.41
T2
X4.507Y-2.445
X4.507Y-2.495
X4.507Y-2.545
X4.507Y-2.595
X4.507Y-2.645
X4.54Y-2.445
X4.54Y-2.495
X4.54Y-2.545
X4.54Y-2.595
X4.54Y-2.645
X5.24Y-2.445
X5.24Y-2.495
X5.24Y-2.545
X5.24Y-2.595
X5.24Y-2.645
X5.273Y-2.445
X5.273Y-2.495
X5.273Y-2.545
X5.273Y-2.595
X5.273Y-2.645
T0
M30
